<?xml version="1.0" encoding="UTF-8"?>
<svg width="200px" height="186px" viewBox="0 0 200 186" version="1.1" xmlns="http://www.w3.org/2000/svg" xmlns:xlink="http://www.w3.org/1999/xlink">
    <title>white-t-shirt--front-no-blank-border</title>
    <g id="white-t-shirt--front-no-blank-border" stroke="none" stroke-width="1" fill="none" fill-rule="evenodd">
        <g id="hf-logo-(1)" transform="translate(9.000000, 8.522911)">
            <path d="M179.222998,137.315274 C180.169262,135.892268 180.803881,134.284763 181.085305,132.598727 C181.365784,130.911746 181.287401,129.185026 180.854877,127.53116 C180.227813,125.144029 178.932131,123.159011 177.17465,121.733167 C178.021754,120.338545 178.577046,118.786862 178.807474,117.170842 C179.314603,113.656849 178.150189,110.148534 175.530495,107.287383 C173.492535,105.061097 170.608415,103.835836 167.41643,103.835836 C167.045291,103.835836 166.667541,103.855705 166.282236,103.893551 C168.701724,96.1464931 169.928466,88.0758528 169.919967,79.9588513 C169.919967,35.8003384 134.188618,0 90.1118332,0 C46.034104,0 10.2988836,35.7965538 10.2988836,79.9588513 C10.2909508,88.0550376 11.5111769,96.1058087 13.9178206,103.83489 L13.8327324,103.83489 C10.6407471,103.83489 7.75766659,105.059205 5.71876233,107.285491 C3.10001221,110.143803 1.93455981,113.655903 2.44168884,117.16895 C2.67277725,118.78497 3.22854157,120.337599 4.0754565,121.73222 C2.31703143,123.157119 1.02144423,125.142137 0.394379655,127.529268 C-0.0379549299,129.18408 -0.115865815,130.9108 0.165746621,132.597781 C0.447359057,134.283816 1.08197863,135.892268 2.02805287,137.315274 C1.85995423,137.578303 1.70507684,137.849847 1.55869881,138.128961 C-0.0184063805,141.129195 -0.120304375,144.519243 1.27264782,147.676538 C3.3842689,152.461207 8.62922969,156.23066 18.816196,160.277333 C25.1501149,162.794086 30.951501,164.403484 31.0024972,164.417676 C39.3809866,166.594762 46.9586465,167.700809 53.5182709,167.700809 C64.2898049,167.700809 72.3264308,164.748828 77.4591054,158.916773 C86.1435721,160.297203 94.9942487,160.246111 103.662661,158.767282 C108.788725,164.697736 116.871625,167.700809 127.733819,167.700809 C134.293444,167.700809 141.871103,166.594762 150.248648,164.417676 C150.300589,164.403484 156.099048,162.794086 162.4358,160.277333 C172.622766,156.23066 177.868766,152.461207 179.979442,147.676538 C181.37145,144.519243 181.270402,141.129195 179.692352,138.128961 C179.548808,137.847955 179.390153,137.575464 179.222998,137.315274 Z M73.7864335,149.786447 C73.3444663,150.560396 72.8713348,151.316368 72.3679832,152.051525 C71.0411372,153.997751 69.2959334,155.485095 67.2702504,156.590196 C63.3982211,158.705782 58.4970125,159.444723 53.5182709,159.444723 C45.6525768,159.444723 37.5895084,157.600681 33.0706771,156.426512 C32.8478047,156.368797 5.36839944,148.592409 8.84747461,141.973159 C9.43298671,140.859543 10.3961541,140.414854 11.6096752,140.414854 C16.508145,140.414854 25.4277609,147.722899 29.2609765,147.722899 C30.117524,147.722899 30.7219236,147.357686 30.9684053,146.466415 C32.602173,140.596514 6.13797011,138.128961 8.36669362,129.62877 C8.75955335,128.124395 9.82679082,127.513183 11.3264573,127.513183 C17.8029767,127.512237 32.338787,138.923725 35.3787281,138.923725 C35.6119885,138.923725 35.7790483,138.854656 35.8697083,138.710842 C35.8829295,138.68908 35.8962452,138.668265 35.9085221,138.645558 C37.3354717,136.284919 36.5166047,134.568607 26.7413857,128.57003 L25.8026775,127.997611 C15.0453091,121.474868 7.49503608,117.549301 11.7891063,112.86587 C12.2830141,112.32562 12.9837399,112.086244 13.8346212,112.086244 C14.843213,112.086244 16.0642891,112.424019 17.4090782,112.991708 C23.0904344,115.392084 30.9647223,121.938481 34.2539782,124.793008 C34.7714009,125.243375 35.2855183,125.698472 35.7960471,126.156407 C35.7960471,126.156407 39.9608325,130.495441 42.4785345,130.495441 C43.0583804,130.495441 43.550305,130.266473 43.8836692,129.700677 C45.6695755,126.684358 27.2976222,112.736248 26.2616435,106.980831 C25.559029,103.081756 26.7546069,101.1062 28.9644429,101.1062 C30.0155316,101.1062 31.297992,101.554674 32.7136092,102.45446 C37.10495,105.246542 45.583543,119.84371 48.6877016,125.522488 C49.7284021,127.425191 51.5047703,128.229417 53.1054848,128.229417 C56.2814158,128.229417 58.764176,125.066445 53.3963521,121.047209 C45.3285619,114.999433 48.1598907,105.114081 52.010105,104.505708 C52.1744262,104.479216 52.3405416,104.46597 52.5058071,104.46597 C56.0075473,104.46597 57.5515994,110.510908 57.5515994,110.510908 C57.5515994,110.510908 62.0789301,121.900635 69.8559474,129.686485 C76.9123127,136.753262 77.8982395,142.552202 73.7864335,149.786447 Z M98.9341785,151.120516 L98.5309307,151.168769 L97.8434261,151.247299 C97.4817307,151.285145 97.119091,151.321099 96.7555069,151.354214 L96.4013665,151.386383 L96.0774461,151.413821 L95.6184801,151.450721 L95.1113511,151.487621 L94.6051664,151.520736 L94.4927859,151.528305 C94.3605735,151.535874 94.2283611,151.54439 94.0942599,151.551013 L93.9252169,151.560474 C93.7684507,151.56899 93.6116846,151.576559 93.4530297,151.583182 L92.9043482,151.606835 L92.4066629,151.623866 L92.0742431,151.633328 L91.9052001,151.633328 C91.8013189,151.633328 91.6983821,151.639005 91.5945009,151.639951 L91.4301798,151.639951 C91.3262986,151.639951 91.2233618,151.639951 91.1194806,151.644681 L90.6964009,151.650358 L90.1061669,151.650358 C89.6424791,151.650358 89.1797357,151.645628 88.718881,151.636166 L88.3449088,151.627651 C88.2381944,151.627651 88.1314801,151.62292 88.0266546,151.619135 L87.6300174,151.607782 L87.1379983,151.588859 L86.6941424,151.56899 L86.5798731,151.564259 L86.1577377,151.542497 C86.0396909,151.535874 85.9235329,151.530198 85.8064305,151.521682 L85.5335063,151.505598 C85.1906984,151.483836 84.8478905,151.460183 84.5050826,151.43369 L84.1462203,151.40436 C83.9951204,151.393006 83.8440205,151.378814 83.693865,151.365568 C83.517267,151.350429 83.340669,151.333399 83.164071,151.316368 C82.8684818,151.28893 82.5728926,151.258653 82.2773034,151.226484 L82.2631378,151.226484 C86.5789287,141.580508 84.3964795,132.571289 75.6751823,123.841184 C69.9551067,118.117936 66.1502224,109.666944 65.3607254,107.811549 C63.7627496,102.319161 59.5339356,96.2136696 52.5106234,96.2136696 C51.916612,96.2136696 51.3235448,96.260977 50.7370884,96.3536995 C47.6603167,96.8390733 44.9707385,98.6131003 43.0517698,101.283129 C40.9779237,98.6991997 38.9626288,96.645113 37.1399862,95.4851358 C34.3918568,93.7394932 31.6492992,92.8538989 28.9776642,92.8538989 C25.6430783,92.8538989 22.6626328,94.2258132 20.5850092,96.7141817 L20.5321242,96.7775736 C20.4924605,96.6138901 20.4546855,96.4502065 20.4159662,96.2855768 L20.4112443,96.2638154 C20.0158347,94.570211 19.6838871,92.8624143 19.4158737,91.1432638 C19.4158737,91.1319101 19.4158737,91.1205563 19.4102075,91.1092025 C19.3894312,90.9795803 19.3705437,90.8490119 19.3507119,90.7193896 C19.2926328,90.3352537 19.2381424,89.9501715 19.1873351,89.5650894 C19.1646701,89.3900521 19.1401164,89.2150147 19.1183958,89.0399774 L19.0541783,88.5148654 C19.0334021,88.3398281 19.0164033,88.1808752 18.9975159,88.0143532 L18.991944,87.9727227 C18.9164885,87.2914964 18.8503823,86.61027 18.793531,85.9271513 L18.7727548,85.6650684 L18.7397017,85.2184866 C18.7302579,85.0964336 18.7208142,84.9734344 18.7142035,84.8504352 C18.7142035,84.8211046 18.7094817,84.7927202 18.7085373,84.7652819 C18.6845502,84.4227764 18.6640573,84.0793248 18.647153,83.7358731 C18.6377092,83.5570512 18.6282655,83.3791754 18.6207105,83.1994074 L18.601823,82.7301181 L18.5971011,82.5881959 L18.5819911,82.1558064 L18.5725474,81.7877549 C18.5725474,81.641102 18.5649924,81.4944491 18.5631036,81.3477962 C18.5602705,81.2011433 18.556493,81.0402982 18.5555487,80.88513 C18.5536599,80.7299617 18.5555487,80.5766858 18.5508268,80.4224637 C18.5470493,80.2672955 18.5508268,80.1130734 18.5508268,79.9588513 C18.5508268,40.3598244 50.5943934,8.25608522 90.1231657,8.25608522 C129.650899,8.25608522 161.693521,40.3588782 161.693521,79.9588513 L161.693521,80.88513 C161.693521,81.0393521 161.6888,81.1945203 161.685966,81.3477962 C161.685966,81.4755262 161.6803,81.6013638 161.676523,81.7309861 C161.676523,81.8445238 161.671801,81.9590077 161.668023,82.0687608 C161.668023,82.2135214 161.659524,82.358282 161.654802,82.5030426 L161.654802,82.5143964 L161.63497,83.0168008 C161.62836,83.1634537 161.622693,83.3110528 161.615138,83.4577057 L161.610416,83.5617819 L161.584918,84.0310712 C161.5292,85.0368263 161.452706,86.040689 161.357324,87.0436056 L161.357324,87.0559056 C161.34127,87.2205353 161.325215,87.385165 161.307272,87.5497947 L161.264775,87.9386614 L161.180726,88.6993642 L161.132563,89.0844463 L161.073067,89.5376511 C161.051347,89.7022808 161.029626,89.8678567 161.005072,90.0315402 C160.980519,90.216039 160.953132,90.3995917 160.925745,90.5831444 L160.860583,91.0174262 L160.783145,91.509423 C160.756702,91.6731066 160.728371,91.835844 160.698151,91.9985814 C160.666986,92.1622649 160.642433,92.3250024 160.614101,92.4877398 C160.557439,92.8132146 160.497943,93.1386894 160.435615,93.4632181 C160.340233,93.9485919 160.242962,94.4330195 160.142859,94.9174472 L160.038978,95.3971441 C160.00498,95.5570431 159.968149,95.7178882 159.932263,95.8777871 C157.917913,93.9164229 155.250055,92.8482221 152.308329,92.8482221 C149.638583,92.8482221 146.893286,93.7328702 144.146101,95.4785128 C142.323459,96.6384899 140.309108,98.6935228 138.234318,101.276506 C136.312516,98.6064772 133.622938,96.8324502 130.548055,96.3470764 C129.961598,96.2543539 129.368531,96.2070466 128.77452,96.2070466 C121.749319,96.2070466 117.523244,102.312538 115.924418,107.804926 C115.131143,109.660321 111.325315,118.111313 105.600517,123.843076 C96.8848861,132.545743 94.6863826,141.514277 98.9341785,151.120516 Z M172.822973,131.810586 L172.794642,131.894793 C172.72287,132.084969 172.639765,132.270414 172.546272,132.450182 C172.475444,132.582643 172.398949,132.711319 172.315844,132.83621 C172.158134,133.071801 171.985313,133.296984 171.797383,133.508921 C171.753942,133.558121 171.712389,133.607321 171.663282,133.655574 C171.595287,133.728428 171.526347,133.800335 171.455519,133.87035 C170.184391,135.132511 168.246535,136.239504 166.055587,137.25472 C165.807216,137.367312 165.555068,137.479903 165.301031,137.593441 L165.047939,137.706033 C164.878896,137.780778 164.709853,137.854578 164.532311,137.927431 C164.363268,138.001231 164.187614,138.07503 164.01196,138.146938 L163.485,138.364552 C162.252591,138.872633 160.989962,139.357061 159.758498,139.834865 L159.231537,140.040179 L158.711187,140.244547 C158.364602,140.379846 158.022738,140.515145 157.686541,140.650445 L157.185078,140.85292 L156.692115,141.05445 L156.450355,141.156634 C156.288867,141.22381 156.131156,141.290987 155.973446,141.358163 C152.349881,142.916468 149.742464,144.501266 150.290201,146.467361 C150.305311,146.523184 150.32231,146.576168 150.341197,146.628206 C150.390305,146.773913 150.457355,146.911104 150.541405,147.040726 C150.590512,147.117364 150.647174,147.190218 150.710448,147.256448 C151.354511,147.927267 152.526479,147.821298 154.004425,147.288617 C154.212188,147.211979 154.419006,147.132503 154.623935,147.049242 L154.75237,146.996258 C155.090456,146.852443 155.448374,146.691598 155.813847,146.517507 C155.905451,146.473984 155.998,146.432353 156.090548,146.3841 C157.898081,145.498506 159.946429,144.306359 161.978722,143.221128 C162.791829,142.781169 163.616268,142.363918 164.451095,141.967482 C166.37573,141.060127 168.185151,140.416746 169.639487,140.416746 C170.32227,140.416746 170.924781,140.556776 171.427188,140.878466 L171.511237,140.934289 C171.826658,141.156634 172.091083,141.44237 172.288457,141.773522 C172.327177,141.836914 172.364952,141.90409 172.401782,141.973159 C173.120451,143.340343 172.518885,144.75578 171.110823,146.143778 C169.759423,147.476901 167.657246,148.783531 165.267978,149.992707 C165.090436,150.082591 164.912894,150.172475 164.732518,150.260467 C157.621379,153.759322 148.308904,156.394343 148.179524,156.427458 C145.697708,157.071785 142.14875,157.917641 138.150268,158.550614 L137.55909,158.643336 L137.46182,158.657528 C137.014186,158.725651 136.565608,158.789043 136.116086,158.847704 C135.659953,158.909204 135.199099,158.965026 134.735411,159.017065 L134.650417,159.026526 C132.969431,159.220486 131.281834,159.349162 129.590459,159.410662 L129.565905,159.410662 C128.953951,159.432423 128.342941,159.443777 127.730986,159.443777 L127.025538,159.443777 C126.092497,159.431477 125.161343,159.388901 124.231135,159.316993 C124.209414,159.316993 124.185805,159.316993 124.164084,159.311317 C123.83072,159.285771 123.4983,159.254548 123.16588,159.217648 C122.821184,159.180748 122.477431,159.139118 122.134624,159.092756 C121.908918,159.06248 121.684157,159.028418 121.459396,158.991519 C121.230857,158.954619 121.002319,158.916773 120.774724,158.877035 L120.464025,158.818374 L120.440416,158.813643 C120.112718,158.751197 119.786909,158.682128 119.462044,158.606436 C119.273169,158.56386 119.085239,158.522229 118.899197,158.471137 L118.786816,158.442753 C118.694268,158.420045 118.604552,158.395446 118.512948,158.370846 L118.462896,158.3576 L118.172029,158.272446 C118.066259,158.243116 117.960489,158.210947 117.854719,158.179724 L117.817888,158.169316 L117.543075,158.085109 C117.439194,158.05294 117.335313,158.018879 117.232376,157.984817 L116.979284,157.90061 L116.793242,157.835326 C116.613811,157.771934 116.435324,157.70665 116.258726,157.638527 L116.090628,157.572297 L115.951805,157.51742 C115.683602,157.40956 115.417289,157.296968 115.153808,157.1787 L114.979099,157.093546 L114.949823,157.0803 C114.887495,157.05097 114.82611,157.021639 114.763782,156.996093 C114.641957,156.937432 114.521077,156.876878 114.401142,156.815379 L114.364311,156.797402 L114.190546,156.705626 C113.881736,156.543834 113.579536,156.371636 113.283003,156.189029 L113.12057,156.088737 C113.039354,156.038592 112.958138,155.986553 112.87881,155.933569 L112.667271,155.793539 L112.439676,155.636479 L112.303686,155.539026 C112.160142,155.436842 112.01943,155.330873 111.881551,155.222066 L111.661512,155.052706 C111.573685,154.981744 111.486803,154.909837 111.400865,154.836984 C111.328148,154.777377 111.25732,154.714931 111.186492,154.652485 L111.180825,154.647754 C111.104331,154.580578 111.029725,154.513401 110.95512,154.444333 C110.881459,154.377156 110.807797,154.309033 110.736025,154.239965 L110.727526,154.231449 C110.651976,154.159542 110.578314,154.086689 110.505598,154.011943 C110.432881,153.938144 110.358275,153.864344 110.287447,153.788652 C110.216619,153.713907 110.143902,153.637269 110.074019,153.558738 C110.004135,153.481154 109.939917,153.410193 109.873811,153.333555 L109.852091,153.308009 C109.787873,153.23421 109.7246,153.159464 109.662271,153.082826 C109.527226,152.921035 109.395958,152.755459 109.269412,152.586098 C109.141921,152.415792 109.017264,152.241701 108.895439,152.064771 L108.779281,151.89068 C108.624404,151.663604 108.473304,151.434637 108.326926,151.201884 C108.217379,151.034416 108.110664,150.866002 108.006783,150.694749 C107.939732,150.587834 107.875515,150.479974 107.811298,150.374005 L107.784855,150.330482 C107.723471,150.226406 107.663031,150.124222 107.60448,150.021092 C107.570482,149.965269 107.538373,149.909446 107.508153,149.851731 C107.476989,149.79307 107.441103,149.733463 107.40805,149.673856 L107.35422,149.580187 L107.321167,149.519634 C107.257894,149.406096 107.195565,149.291612 107.135126,149.176182 C107.106794,149.12509 107.079407,149.073998 107.050132,149.024798 L106.966083,148.861115 L106.881089,148.699323 C106.668605,148.273557 106.467453,147.842114 106.278578,147.404993 L106.211527,147.245094 C106.168086,147.13818 106.127478,147.032211 106.084037,146.927189 C106.063261,146.876097 106.042484,146.825951 106.024541,146.774859 C105.923493,146.512776 105.829056,146.247855 105.742173,145.981041 C105.711009,145.88548 105.680789,145.791811 105.652458,145.697197 C105.584463,145.482421 105.523078,145.265753 105.468305,145.047193 C105.401254,144.792679 105.341759,144.536273 105.291707,144.277975 C105.281319,144.225937 105.270931,144.173899 105.262431,144.123753 C105.213324,143.871132 105.17366,143.616618 105.142496,143.361158 C105.134941,143.311012 105.129274,143.260866 105.123608,143.21072 L105.107554,143.057444 C105.086778,142.856861 105.070723,142.655332 105.061279,142.453802 C105.061279,142.40271 105.056558,142.351618 105.054669,142.302419 C105.049947,142.202127 105.048058,142.101835 105.047114,142.001544 C104.994229,137.958654 107.035966,134.071879 111.401809,129.699731 C119.178732,121.915773 123.706063,110.5251 123.706063,110.5251 C123.706063,110.5251 123.827887,110.047296 124.080979,109.359446 C124.115921,109.263885 124.152752,109.165486 124.194304,109.062356 C124.341626,108.677274 124.507836,108.298815 124.691989,107.929817 L124.72882,107.858856 C124.885586,107.544735 125.057462,107.238183 125.24256,106.940147 C125.286001,106.871078 125.327553,106.802955 125.375716,106.733886 C125.514539,106.528572 125.660917,106.327989 125.81485,106.134029 C125.8989,106.029006 125.990504,105.92493 126.082108,105.823692 C126.118939,105.783954 126.154825,105.744216 126.193545,105.70637 C126.644011,105.239919 127.158695,104.859568 127.741374,104.657092 L127.815035,104.632492 C127.864143,104.616408 127.91325,104.601269 127.963302,104.587077 C128.020909,104.571939 128.078516,104.558693 128.138011,104.546393 L128.165398,104.540716 C128.288167,104.516116 128.412824,104.500032 128.538426,104.491516 L128.548814,104.491516 C128.613976,104.491516 128.680082,104.484893 128.747133,104.484893 C128.831182,104.484893 128.909565,104.484893 128.991726,104.493409 C129.07672,104.500978 129.160769,104.510439 129.245763,104.523685 C129.946488,104.635331 130.613217,105.053528 131.187396,105.698801 C131.405547,105.944799 131.601977,106.209721 131.773853,106.48978 C131.887178,106.671441 131.993892,106.863509 132.09494,107.065984 C132.135548,107.150191 132.174267,107.227775 132.212042,107.311036 C132.310257,107.524866 132.399029,107.74248 132.476467,107.964825 C132.66062,108.485206 132.799443,109.020725 132.891048,109.565707 C132.970375,110.043511 133.017594,110.526047 133.032704,111.009528 C133.040259,111.267826 133.040259,111.529909 133.032704,111.793885 C132.981708,113.021984 132.730504,114.234 132.289481,115.381677 C132.249817,115.486699 132.205432,115.592668 132.162935,115.698636 C132.076053,115.912466 131.980671,116.12251 131.877734,116.327825 C131.80124,116.483939 131.720968,116.640999 131.634085,116.797114 C131.577423,116.90119 131.517927,117.005266 131.458432,117.109343 C131.306387,117.368587 131.142066,117.625939 130.965468,117.882345 L130.858754,118.035621 C130.441341,118.618448 129.976708,119.165322 129.468635,119.670564 C128.968116,120.172969 128.431712,120.637527 127.864143,121.061402 C127.295629,121.483384 126.762058,121.950781 126.269095,122.458862 C124.8497,123.950937 124.519169,125.267975 124.838367,126.26616 C124.889364,126.423221 124.956414,126.575551 125.03763,126.719365 C125.133012,126.883995 125.246337,127.035379 125.374772,127.173516 L125.424824,127.225554 L125.47582,127.276646 C125.526816,127.325846 125.580646,127.374099 125.638252,127.421407 L125.694915,127.466822 C125.831849,127.57279 125.977283,127.667405 126.129327,127.750666 C126.173713,127.77432 126.213376,127.797974 126.263428,127.820681 C126.427749,127.901104 126.596792,127.970173 126.770557,128.025995 C126.81872,128.04208 126.866884,128.056272 126.915991,128.07141 L126.977375,128.087495 L127.062369,128.110202 L127.135086,128.128179 L127.214413,128.14521 L127.292796,128.161294 L127.367402,128.173594 C127.422176,128.183056 127.478838,128.192517 127.535501,128.19914 L127.58933,128.207656 L127.687545,128.217117 L127.747985,128.22374 L127.847144,128.230363 L127.905695,128.230363 L128.009577,128.23604 L128.33633,128.23604 L128.429823,128.230363 L128.537482,128.22374 L128.66875,128.21144 L128.791518,128.197248 C128.81985,128.197248 128.848181,128.189679 128.876512,128.184002 C129.254262,128.129125 129.624457,128.028834 129.978597,127.885019 L130.128753,127.821627 C130.212802,127.784728 130.297796,127.745935 130.375234,127.704305 C130.541444,127.621044 130.702932,127.526429 130.85781,127.423299 C131.074071,127.281377 131.278056,127.122424 131.46882,126.947387 C131.51415,126.906702 131.558535,126.86318 131.601977,126.821549 C131.623697,126.800734 131.644473,126.780865 131.66525,126.758157 C131.706802,126.715581 131.749299,126.67395 131.790851,126.627589 C132.093051,126.294545 132.354643,125.92744 132.56996,125.532896 C134.418101,122.165556 136.355013,118.848362 138.378807,115.585099 L138.656453,115.139463 L138.936932,114.693827 C139.0767,114.467698 139.218356,114.245353 139.359068,114.023955 L139.500724,113.802556 C139.971022,113.064561 140.448876,112.331296 140.935228,111.603709 L141.223263,111.172265 C141.80122,110.314109 142.377288,109.479607 142.948635,108.686735 L143.232891,108.294084 C143.85429,107.435928 144.501186,106.595749 145.172636,105.776385 L145.43895,105.456587 C145.483335,105.403603 145.523944,105.350618 145.572107,105.299526 C145.659933,105.19545 145.74776,105.094212 145.833698,104.995813 C145.87714,104.945667 145.917748,104.896467 145.964022,104.847268 L146.217114,104.561531 L146.34366,104.422447 C146.471151,104.285256 146.595808,104.153741 146.718577,104.027904 C146.803571,103.942751 146.881954,103.858543 146.96317,103.779067 C147.441968,103.288962 147.969873,102.849004 148.539331,102.467706 L148.671543,102.382553 C148.798089,102.2974 148.929357,102.217923 149.063459,102.146016 C151.29596,100.876286 153.1441,100.782617 154.20841,101.848926 C154.852473,102.494198 155.209447,103.564291 155.189615,105.053528 C155.189615,105.118812 155.189615,105.185043 155.184893,105.253165 L155.184893,105.326019 C155.184893,105.394141 155.179227,105.462264 155.173561,105.531333 C155.173561,105.616486 155.164117,105.700693 155.155618,105.785846 C155.147118,105.870053 155.142396,105.934392 155.133897,106.010083 C155.133897,106.030899 155.13012,106.05266 155.126342,106.075368 C155.120676,106.140652 155.112176,106.207828 155.102733,106.275005 C155.102733,106.294874 155.102733,106.315689 155.095178,106.336504 C155.08479,106.426388 155.071568,106.515326 155.056458,106.604264 C155.04607,106.689417 155.031905,106.768894 155.016795,106.852155 L154.992241,106.993131 C154.967687,107.127484 154.936523,107.259945 154.897803,107.390513 C154.824142,107.635565 154.735371,107.874941 154.630546,108.107693 C154.484167,108.427491 154.322679,108.738773 154.145137,109.041541 C154.046922,109.209955 153.945874,109.375531 153.841049,109.539214 C153.73339,109.708575 153.620065,109.879828 153.502963,110.052973 C153.20454,110.480631 152.894785,110.899775 152.572754,111.309457 L152.425431,111.495848 C151.900359,112.151528 151.358288,112.793963 150.799219,113.421259 L150.622621,113.61995 C150.384638,113.885817 150.142879,114.153577 149.895452,114.422283 L149.709411,114.624759 C149.585698,114.760058 149.456318,114.895357 149.331661,115.031602 C149.207948,115.166901 149.078569,115.304093 148.948245,115.441284 L148.560107,115.850966 L148.166303,116.263486 L147.769666,116.676007 C147.503352,116.952282 147.236094,117.228557 146.966948,117.504832 C143.137509,121.439861 139.103142,125.361643 137.737577,127.806489 C137.645973,127.965442 137.563812,128.130071 137.490151,128.29754 C137.29561,128.742229 137.214393,129.12258 137.270112,129.430078 C137.288055,129.531316 137.322997,129.627823 137.374937,129.716761 C137.451431,129.850168 137.544924,129.973167 137.653528,130.08292 C137.703579,130.13212 137.756464,130.177535 137.812182,130.219166 C138.093606,130.419749 138.432636,130.522879 138.778277,130.513418 L138.885936,130.513418 L138.996428,130.504902 L139.10692,130.492602 L139.198524,130.479356 C139.210801,130.477464 139.224022,130.475572 139.236299,130.471787 L139.320348,130.455703 L139.342069,130.450972 L139.435562,130.431103 L139.468615,130.422587 C139.501668,130.414072 139.533777,130.405557 139.56683,130.396095 C139.599883,130.386634 139.645213,130.374334 139.684877,130.361088 C139.851087,130.310942 140.013519,130.251335 140.173118,130.183212 C140.257168,130.149151 140.339328,130.112251 140.420544,130.072513 C140.463041,130.05359 140.505538,130.033721 140.545202,130.012905 L140.671748,129.95046 C140.973948,129.793399 141.268593,129.622146 141.555682,129.438594 L141.681284,129.353441 C141.723781,129.326948 141.766278,129.29951 141.806886,129.269233 L141.932488,129.185026 L141.999538,129.138665 L142.180858,129.010935 C142.349901,128.894559 142.507612,128.774398 142.667211,128.652345 L142.681377,128.640991 L142.935413,128.444193 C143.281999,128.16981 143.610641,127.893535 143.909063,127.633344 L144.107382,127.459253 L144.125325,127.442222 L144.229206,127.350446 C144.472855,127.130939 144.690061,126.926572 144.870436,126.758157 L144.945042,126.685304 C145.010204,126.623804 145.069699,126.566089 145.123529,126.51689 L145.229299,126.411867 L145.267074,126.374967 L145.277462,126.36456 L145.387954,126.253861 L145.457837,126.181007 L145.466337,126.174384 L145.49939,126.144107 L145.540942,126.106261 L145.554163,126.093962 L145.589105,126.061793 L145.781758,125.892432 L145.889416,125.795925 C145.947023,125.745779 146.002741,125.694687 146.058459,125.642649 L146.186894,125.528165 C146.210504,125.509242 146.233169,125.488427 146.256778,125.467612 L146.391824,125.349343 L146.590142,125.174306 L146.695912,125.08253 C147.106715,124.724886 147.606289,124.292496 148.180469,123.80523 L148.415618,123.605593 L148.803756,123.279172 L149.201337,122.947074 C149.720743,122.514685 150.279813,122.055803 150.870991,121.579891 L151.259129,121.267662 C151.58966,121.003687 151.92869,120.734981 152.272443,120.464382 C152.411266,120.355575 152.551978,120.246768 152.695522,120.138908 C153.04683,119.865471 153.400026,119.593927 153.756055,119.326167 C154.566328,118.713063 155.402099,118.099013 156.248259,117.501048 L156.610899,117.24748 C156.864935,117.072443 157.118028,116.896459 157.37112,116.725207 L157.600603,116.570038 C158.052958,116.26254 158.511924,115.962611 158.974668,115.670252 L159.204151,115.525491 L159.431745,115.383569 C159.660283,115.241647 159.886933,115.102563 160.112639,114.967264 L160.338344,114.831965 L160.789755,114.568936 L161.232667,114.314422 L161.322382,114.265222 L161.672745,114.072208 C161.819123,113.992732 161.964557,113.916094 162.10999,113.841348 L162.326252,113.729703 L162.536848,113.623734 C162.610509,113.588727 162.683226,113.551827 162.754998,113.51682 C163.229074,113.282175 163.712594,113.066453 164.203668,112.869654 C164.336825,112.812886 164.469038,112.761794 164.600306,112.717325 L164.987499,112.581079 C165.103657,112.542287 165.216982,112.505388 165.325585,112.472272 L165.36336,112.460919 C165.421911,112.441996 165.480463,112.424965 165.538069,112.409827 L165.555068,112.405096 C165.675948,112.370088 165.795884,112.339812 165.91393,112.311427 L165.92243,112.311427 C166.256738,112.231005 166.596713,112.17329 166.939521,112.138282 C167.097232,112.122198 167.254942,112.113682 167.413597,112.114629 L167.492924,112.114629 C167.598694,112.114629 167.700687,112.121252 167.801735,112.131659 C167.848009,112.131659 167.894283,112.141121 167.939613,112.146798 L167.958501,112.146798 C168.003831,112.152475 168.049161,112.159098 168.094491,112.169505 C168.138876,112.17802 168.184206,112.18559 168.227648,112.195997 L168.241813,112.195997 C168.286199,112.205459 168.325863,112.216813 168.372137,112.230059 C168.612008,112.297235 168.840547,112.401311 169.050198,112.537557 C169.153135,112.604733 169.249461,112.680425 169.338232,112.764632 L169.36373,112.789232 C169.380729,112.80437 169.396783,112.820455 169.411893,112.836539 L169.458167,112.886685 C169.837806,113.285013 170.151338,113.742003 170.387432,114.239676 L170.423318,114.32483 C170.50359,114.514059 170.566863,114.709912 170.612193,114.909549 C170.746294,115.52076 170.694353,116.158464 170.462982,116.740345 C170.375155,116.97499 170.268441,117.201119 170.142839,117.416841 C169.849138,117.912622 169.500664,118.373396 169.104971,118.790647 L169.020922,118.880531 C168.89532,119.012992 168.764997,119.145452 168.628062,119.277913 C168.567622,119.33752 168.504349,119.396182 168.441076,119.455789 L168.24748,119.634611 L168.146431,119.724495 C167.902783,119.942109 167.652524,120.1531 167.398487,120.357468 C167.244554,120.482359 167.089677,120.604412 166.93291,120.724573 C166.379507,121.148447 165.815716,121.557183 165.241536,121.951727 C164.894951,122.190156 164.545532,122.423854 164.19328,122.654714 C163.3254,123.225242 162.448077,123.781576 161.562253,124.322773 C159.703725,125.467612 157.644044,126.691927 155.448374,128.023157 L154.87986,128.368501 C154.257518,128.748852 153.670117,129.112173 153.116713,129.458463 L152.838123,129.6335 L152.311162,129.972221 C151.961744,130.196458 151.613269,130.422587 151.264795,130.648717 L150.984316,130.834162 C150.847382,130.9231 150.711392,131.01393 150.575402,131.10476 L150.442245,131.189913 L150.034275,131.465242 L149.818014,131.613787 L149.564921,131.789771 L149.329772,131.953455 C148.935968,132.232568 148.569551,132.498436 148.232409,132.751057 L148.105863,132.847564 C147.907544,132.998002 147.711115,133.151278 147.517518,133.307392 C147.225706,133.542983 146.959393,133.768166 146.720466,133.984834 L146.603363,134.091748 C146.536313,134.153248 146.470207,134.214748 146.406934,134.275301 C146.363492,134.317878 146.322884,134.360454 146.277554,134.401139 L146.217114,134.461692 C146.082069,134.597937 145.949856,134.737021 145.822366,134.879889 L145.760037,134.951797 C145.621214,135.112642 145.500334,135.266864 145.394564,135.417301 L145.347345,135.484478 C145.264241,135.605585 145.187746,135.730476 145.118807,135.859152 C145.100864,135.891321 145.084809,135.92349 145.068755,135.955659 L145.022481,136.052167 L144.991316,136.122181 L144.971484,136.169489 L144.95543,136.212066 L144.93371,136.269781 C144.875158,136.429679 144.83455,136.596202 144.810941,136.764616 L144.803386,136.823277 L144.79772,136.878154 L144.79772,137.17619 C144.79772,137.20079 144.79772,137.22539 144.80433,137.251882 L144.809052,137.297297 C144.809052,137.321897 144.814718,137.345551 144.818496,137.372043 C144.822273,137.396642 144.828884,137.441111 144.836439,137.476119 L144.836439,137.48085 C144.84305,137.513965 144.84966,137.546134 144.85816,137.579249 C144.866659,137.612364 144.875158,137.65021 144.885546,137.684271 C144.90349,137.751448 144.926155,137.817678 144.949764,137.883909 C144.964874,137.923647 144.979039,137.962439 144.995094,138.001231 C144.995094,138.0088 145.00076,138.017315 145.004538,138.024885 L145.038535,138.101523 L145.085754,138.206545 C145.13675,138.315352 145.192468,138.421321 145.252908,138.524451 L145.315237,138.632311 L145.379454,138.740172 C145.390787,138.758149 145.404008,138.77518 145.418174,138.791264 L145.43895,138.813026 L145.462559,138.834787 L145.487113,138.85371 C145.522999,138.879256 145.561718,138.899125 145.602327,138.913317 C145.624047,138.920887 145.646712,138.926563 145.669377,138.93224 C146.214281,139.055239 147.334309,138.603927 148.822643,137.816732 C148.906692,137.771317 148.999241,137.72401 149.088957,137.67481 L149.542256,137.426919 L149.76324,137.30392 C149.920951,137.219713 150.081494,137.124152 150.245815,137.030483 L150.545182,136.861123 C152.512314,135.726692 154.861917,134.269624 157.290848,132.846618 C157.518442,132.713211 157.746981,132.579804 157.97552,132.44829 L158.434485,132.154038 C158.967113,131.848432 159.502573,131.546611 160.039922,131.248574 C160.717038,130.875792 161.398877,130.512472 162.087326,130.160505 L162.536848,129.932483 C162.83527,129.784884 163.130859,129.641069 163.422671,129.50104 C163.987407,129.232334 164.558753,128.976874 165.13671,128.735606 L165.453076,128.60693 L165.490851,128.591792 C167.167115,127.92665 168.686614,127.516022 169.916189,127.516022 C170.181558,127.513183 170.447872,127.535891 170.709463,127.581306 L170.717963,127.581306 C170.802012,127.596444 170.878506,127.613475 170.95689,127.632398 L170.971055,127.632398 C171.172207,127.68349 171.367692,127.756343 171.55279,127.850012 C171.812493,127.984365 172.045753,128.163187 172.243127,128.378908 C172.333787,128.4792 172.414059,128.588007 172.484887,128.703437 C172.6171,128.906859 172.720981,129.127311 172.795586,129.358171 C172.825806,129.448055 172.852249,129.536047 172.879636,129.629716 C173.078899,130.345949 173.059067,131.105706 172.822973,131.810586 Z" id="Shape" fill="#FF9D00" fill-rule="nonzero"></path>
            <path d="M161.663804,80.4234207 L161.663804,79.9589606 C161.663804,40.3672827 129.639418,8.2722372 90.11926,8.2722372 C50.6001408,8.2722372 18.5633864,40.3691746 18.5633864,79.9589606 L18.5633864,80.1140959 C18.5615987,80.2172042 18.5615987,80.3203124 18.5633864,80.4234207 C18.5680129,80.5776101 18.569618,80.7317995 18.5681073,80.8859889 L18.5729226,81.2265299 L18.5756606,81.3485571 C18.5756606,81.405314 18.5776434,81.4611249 18.5795317,81.5178817 C18.5823643,81.6077467 18.5841582,81.6985576 18.5841582,81.7884226 L18.5945441,82.1563961 L18.6096508,82.588694 L18.6143717,82.7305861 L18.6332551,83.1780192 L18.6332551,83.199776 C18.6408084,83.3747762 18.6503446,83.5488305 18.6588421,83.7228848 L18.6596918,83.7361281 C18.6691336,83.9139662 18.6786697,84.0927502 18.6899997,84.2715342 C18.6994414,84.4361291 18.7087887,84.6007239 18.721063,84.7653187 L18.7230457,84.7946431 C18.73126,84.9355892 18.7407017,85.0774813 18.7512764,85.2184275 L18.7541089,85.2562654 L18.7852666,85.6649146 L18.7881935,85.6914011 C18.7938585,85.7708607 18.7994291,85.8503203 18.8069825,85.926942 C18.8634439,86.60897 18.9292526,87.290998 19.0044086,87.9711341 L19.0090351,88.0137017 L19.0666295,88.5141078 L19.1309275,89.0391086 L19.1780416,89.3957307 L19.1997576,89.5631634 C19.2500819,89.9491099 19.3045605,90.3341104 19.3630991,90.718165 L19.3669702,90.7437056 L19.4225819,91.1069494 C19.6921426,92.8370869 20.0260014,94.5568191 20.4234029,96.2623621 L20.4282182,96.2831729 L20.4583373,96.4108758 L20.5442568,96.7750655 L20.5971304,96.711687 C22.6743062,94.2238457 25.6541092,92.8522221 28.9879764,92.8522221 C31.6599798,92.8522221 34.4010021,93.7376288 37.1485392,95.4829015 C38.9707888,96.6426329 40.9856494,98.6962844 43.0590485,101.279666 C44.9776036,98.6102032 47.666602,96.8356061 50.7427106,96.3512811 C51.3292295,96.2585783 51.9220743,96.2122269 52.5158634,96.2112809 C59.5367175,96.2112809 63.7655642,102.315479 65.3631012,107.806703 C66.152428,109.661705 69.9564922,118.110907 75.6932741,123.82632 C84.4136358,132.554576 86.5956145,141.56094 82.2798097,151.204872 L82.2949164,151.204872 C82.5885536,151.237981 82.884079,151.268251 83.1814928,151.295683 C83.3580528,151.31271 83.5336686,151.329738 83.7111727,151.344873 L83.7734879,151.350548 L84.1634305,151.383657 L84.5222154,151.412035 C84.8640052,151.438521 85.2067392,151.463116 85.5504174,151.484873 L85.8232828,151.500954 L86.0394979,151.514197 L86.1735702,151.521765 L86.5956145,151.543522 L86.7108033,151.548251 L87.1536195,151.568116 L87.6464766,151.587035 L88.0420842,151.598387 L88.1081762,151.600278 C88.1922074,151.604062 88.2762386,151.6069 88.3602698,151.6069 L88.4509102,151.609738 C89.0079709,151.622981 89.5640876,151.628746 90.1211483,151.628746 L90.7121993,151.628746 L91.1342436,151.623927 C91.2381024,151.619197 91.341017,151.619197 91.44582,151.619197 L91.6101057,151.619197 L91.7526755,151.615414 C91.8083816,151.613522 91.8640877,151.61163 91.9207379,151.61163 L92.0897445,151.61163 L92.4211484,151.603116 L92.9196706,151.586089 L93.4682339,151.561495 C93.6268546,151.555819 93.7835869,151.547305 93.9403193,151.539738 L94.1093259,151.529332 L94.3604753,151.516089 L94.5077659,151.507576 L94.6191781,151.500008 L95.1261978,151.4669 L95.6322734,151.430008 L96.0920846,151.393116 L96.414991,151.365684 L96.7699992,151.333521 C97.3629385,151.280548 97.9539894,151.218116 98.5450403,151.14717 L98.9482013,151.098926 C94.7003768,141.49567 96.8993506,132.528089 105.58289,123.834834 C111.307397,118.104285 115.111461,109.655084 115.904565,107.799135 C117.503046,102.308857 121.729155,96.2046593 128.751897,96.2046593 C129.345781,96.2046593 129.939664,96.2519567 130.525994,96.3446595 C133.59927,96.8289845 136.288269,98.6035816 138.209656,101.273045 C140.284,98.6906088 142.297916,96.6350653 144.12111,95.4753339 C146.867703,93.7310071 149.611463,92.8456005 152.280634,92.8456005 C155.22267,92.8456005 157.889009,93.9145209 159.902925,95.8754696 C159.939748,95.7156045 159.975626,95.5557394 160.01056,95.3949284 L160.113475,94.9162791 C160.150298,94.7412788 160.18712,94.5662786 160.222055,94.3912783 C160.28437,94.0819536 160.346685,93.7726288 160.406168,93.4604662 C160.468483,93.1369522 160.527966,92.8115464 160.584616,92.4861405 L160.613886,92.3101943 C160.631825,92.2061401 160.64882,92.1020859 160.668647,91.9970858 C160.700749,91.8343828 160.727186,91.6716799 160.753623,91.5070851 L160.764009,91.4446525 L160.831045,91.0161384 L160.897137,90.5819486 L160.897137,90.5781648 C160.94529,90.2574887 160.99061,89.9368126 161.033097,89.6161364 L161.043483,89.5366769 L161.102966,89.084514 L161.151119,88.6985676 L161.236094,87.9380259 L161.26914,87.632485 L161.277638,87.5492416 C161.295577,87.3846468 161.312572,87.2200519 161.327679,87.0554571 L161.327679,87.0422139 C161.339953,86.9116731 161.353171,86.7801865 161.364501,86.6486998 C161.431537,85.9032933 161.488188,85.1541031 161.533508,84.402075 C161.542005,84.2791018 161.548615,84.1551827 161.556168,84.0312636 L161.556168,84.025588 L161.580716,83.5611278 L161.586381,83.4570736 C161.601488,83.1430191 161.614707,82.8289646 161.625093,82.5149101 L161.625093,82.5035588 L161.629813,82.3805856 C161.634534,82.2774774 161.638311,82.1734232 161.638311,82.069369 L161.640199,82.0277473 C161.643976,81.9303147 161.647753,81.8300443 161.647753,81.7307198 L161.650585,81.6455846 C161.653418,81.5462601 161.65625,81.4478816 161.65625,81.3485571 L161.658138,81.2643678 C161.660971,81.1385568 161.663804,81.0117999 161.663804,80.8859889 L161.663804,80.4234207 Z M72.3716812,152.037306 C78.0385944,143.712024 77.6363776,137.463096 69.8620752,129.67795 C62.0859787,121.891858 57.5604736,110.506436 57.5604736,110.506436 C57.5604736,110.506436 55.8714464,103.893319 52.0192295,104.500617 C48.1670126,105.107915 45.3411093,114.990226 53.4071606,121.039559 C61.4722677,127.088892 51.8020702,131.19052 48.6976366,125.51389 C45.5932029,119.836314 37.1172871,105.243186 32.7231161,102.451695 C28.3289452,99.6602047 25.2386741,101.224802 26.2744295,106.978053 C26.7890026,109.833868 31.5741547,114.708334 36.0448035,119.262124 C40.5806001,123.882131 44.7924517,128.172948 43.8917127,129.691193 C42.1043974,132.705927 35.809705,126.148621 35.809705,126.148621 C35.809705,126.148621 16.0991006,108.177514 11.8087884,112.860899 C7.8527127,117.177257 13.9530003,120.846586 23.3532594,126.502405 C24.1520279,126.982946 24.9753448,127.478623 25.8184894,127.989434 C36.5735391,134.512687 37.4099801,136.233365 35.8832559,138.701341 C35.3195859,139.613234 31.7194626,137.447961 27.2913014,134.785119 C19.7426558,130.243627 9.78930146,124.256726 8.38343111,129.615518 C7.1673391,134.253497 14.4902335,137.095123 21.131531,139.672829 C26.664372,141.820129 31.725222,143.783916 30.9802712,146.449595 C30.2088837,149.213653 26.0271511,146.90838 21.4564202,144.388376 C16.3248518,141.559048 10.7023146,138.460125 8.86212572,141.957292 C5.38474461,148.569463 32.8535061,156.353664 33.0801071,156.411366 C41.9553128,158.717586 64.4944641,163.60435 72.3716812,152.037306 Z M108.878046,152.037306 C103.211133,143.712024 103.613349,137.463096 111.388596,129.67795 C119.163843,121.891858 123.689253,110.506436 123.689253,110.506436 C123.689253,110.506436 125.378375,103.893319 129.230592,104.500617 C133.082809,105.107915 135.908712,114.990226 127.843605,121.039559 C119.777554,127.088892 129.447751,131.19052 132.552185,125.51389 C135.657563,119.836314 144.127719,105.243186 148.52189,102.451695 C152.916061,99.6602047 156.00822,101.224802 154.971521,106.978053 C154.457892,109.833868 149.67189,114.708334 145.201241,119.26307 C140.665445,123.883077 136.453499,128.172948 137.353293,129.691193 C139.140609,132.705927 145.440116,126.144837 145.440116,126.144837 C145.440116,126.144837 165.149682,108.174676 169.441883,112.858061 C173.397014,117.173473 167.296727,120.843748 157.895618,126.499567 C157.073245,126.994298 156.251816,127.489974 155.431332,127.986596 C144.676282,134.509849 143.839747,136.230527 145.365527,138.697557 C145.930141,139.610397 149.530264,137.444177 153.957481,134.781336 C161.507071,130.240789 171.46052,124.252942 172.86639,129.61268 C174.083426,134.250659 166.759493,137.092285 160.118196,139.669991 C154.585355,141.817292 149.524599,143.781078 150.268606,146.446758 C151.039049,149.20987 155.219838,146.904596 159.789624,144.384593 C164.921193,141.555264 170.544674,138.454449 172.383919,141.954454 C175.862244,148.570409 148.388762,156.347042 148.166882,156.403799 C139.291676,158.717586 116.75243,163.60435 108.878046,152.037306 Z" id="Shape" fill="#FFD21E"></path>
            <path d="M113.232297,60.4075732 C114.347023,60.8037699 115.175995,62.0094214 115.964414,63.1572546 C117.0301,64.7079195 118.022225,66.1514786 119.544364,65.3382325 C121.339998,64.3780715 122.812154,62.9051294 123.7741,61.104235 C124.73699,59.3033405 125.147232,57.2566714 124.952956,55.221945 C124.807721,53.7004736 124.328634,52.230375 123.549646,50.9176178 C122.770658,49.6047657 121.711573,48.4818607 120.449726,47.6299428 C119.186935,46.778025 117.75156,46.2182312 116.248282,45.9908445 C114.744062,45.7634579 113.20872,45.8742603 111.752596,46.3151003 C110.296473,46.7557507 108.95635,47.5153491 107.827477,48.5392049 C106.698604,49.5630608 105.809275,50.8256774 105.224562,52.2362516 C104.63985,53.6468259 104.372957,55.1702878 104.443688,56.6967828 C104.515362,58.2237517 104.921832,59.7147027 105.635747,61.0644257 C106.341175,62.3980354 107.906696,61.7686702 109.558981,61.104235 C110.853836,60.5838712 112.203391,60.0417072 113.232297,60.4075732 Z M64.7813075,60.4075732 C63.6665811,60.8037699 62.8376094,62.0103692 62.0491904,63.1572546 C60.9835044,64.7088673 59.990436,66.1514786 58.46924,65.3382325 C56.211023,64.1363725 54.4792362,62.1316926 53.6112208,59.7165984 C52.7432997,57.3010303 52.801488,54.6471754 53.7743745,52.2723643 C54.7472609,49.8975533 56.5652458,47.972018 58.8738234,46.871008 C61.1824953,45.769998 63.816343,45.5725631 66.2619509,46.316996 C68.2094213,46.9063624 69.9390391,48.0626314 71.2329516,49.6396462 C72.5268642,51.2167558 73.3256571,53.1438076 73.5303066,55.1773966 C73.7340129,57.2109855 73.3332018,59.2597399 72.3787998,61.0644257 C71.6724292,62.3980354 70.1069082,61.7686702 68.4546234,61.1051828 C67.1588247,60.5838712 65.8111563,60.0417072 64.7813075,60.4075732 Z M105.736658,104.720002 C113.416198,98.6396141 116.236965,88.7119466 116.236965,82.5964882 C116.236965,77.7625084 113.001241,79.2837903 107.820875,81.8619129 L107.528519,82.0069323 C102.773485,84.3736867 96.4434984,87.5252519 89.4948485,87.5252519 C82.5452556,87.5252519 76.2152694,84.3736867 71.4611782,82.0059844 C66.1129434,79.3435042 62.7583903,77.6734116 62.7583903,82.5974361 C62.7583903,88.9062536 65.7592866,99.265188 73.9961905,105.283019 C75.0835675,103.066023 76.6141943,101.098309 78.4928196,99.5021477 C80.3705017,97.9059866 82.5565726,96.7164484 84.9123988,96.0074647 C85.7347689,95.7610265 86.5816591,97.1837331 87.4483542,98.6405619 C88.2848706,100.04526 89.1402486,101.482184 90.0097729,101.482184 C90.9368254,101.482184 91.8469024,100.066112 92.7362315,98.6841625 C93.6651702,97.2387078 94.5714748,95.8311666 95.4476007,96.1126749 C99.8565229,97.5353815 103.544928,100.620598 105.736658,104.720002 Z" id="Shape" fill="#32343D"></path>
            <path d="M105.75,104.751996 C101.748938,107.920896 96.4308552,110.045822 89.5051777,110.045822 C82.9983806,110.045822 77.9095501,108.170274 74,105.31523 C75.0877682,103.097379 76.6189457,101.127958 78.4982469,99.5321301 C80.3766046,97.9353537 82.563462,96.745357 84.9201358,96.0361 C86.5352781,95.5515675 88.2475932,101.512929 90.0193439,101.512929 C91.9156267,101.512929 93.7430395,95.5904438 95.4591282,96.1413507 C99.8686932,97.5655539 103.557482,100.65196 105.75,104.751996 Z" id="Path" fill="#FF323D" fill-rule="nonzero"></path>
            <path d="M46.3974918,69.298032 C45.4839291,69.9166922 44.4335394,70.2976264 43.3395839,70.4064648 C42.2456284,70.5162579 41.1419602,70.3501362 40.1266495,69.9233752 C39.3150234,69.5844487 38.5775157,69.0860836 37.9566552,68.4569215 C37.3357004,67.828714 36.8435571,67.082121 36.5084207,66.260105 C36.0878499,65.2318688 35.9242422,64.1148435 36.0324024,63.0073654 C36.1404684,61.8998873 36.5168132,60.8363264 37.127961,59.9112003 C37.8623568,58.7979939 38.9062399,57.9304375 40.1277811,57.4181334 C41.3493223,56.9058293 42.6934514,56.7717863 43.9901485,57.0331893 C45.2869398,57.2944969 46.4779283,57.9394119 47.4125196,58.8858283 C48.3471108,59.8329131 48.983342,61.0396823 49.240588,62.3524257 C49.4983054,63.6651692 49.3657219,65.0256488 48.8599054,66.2620144 C48.3539946,67.4983801 47.4964451,68.5543032 46.3974918,69.298032 Z M142.028308,69.298032 C141.114557,69.9166922 140.064073,70.2976264 138.970212,70.4064648 C137.875408,70.5162579 136.772117,70.3501362 135.756523,69.9233752 C134.944614,69.583494 134.207201,69.0860836 133.586717,68.4569215 C132.966234,67.828714 132.473996,67.082121 132.138294,66.260105 C131.718666,65.2318688 131.55553,64.1148435 131.66303,63.0073654 C131.771473,61.8998873 132.147724,60.8363264 132.757834,59.9112003 C133.306651,59.0786823 134.031806,58.3807801 134.879548,57.8659937 C135.72729,57.3514938 136.676875,57.0338576 137.660407,56.9359986 C138.644882,56.838044 139.637844,56.9623489 140.567626,57.2998433 C141.498351,57.6374332 142.343265,58.1797156 143.042016,58.8877378 C143.977456,59.8338678 144.61397,61.0396823 144.871404,62.3524257 C145.129782,63.6651692 144.996821,65.0256488 144.490439,66.2620144 C143.984057,67.4983801 143.127827,68.5543032 142.028308,69.298032 Z" id="Shape" fill="#FFAD03"></path>
        </g>
    </g>
</svg>