<?xml version="1.0" encoding="UTF-8"?>
<svg width="374px" height="491px" viewBox="0 0 374 491" version="1.1" xmlns="http://www.w3.org/2000/svg" xmlns:xlink="http://www.w3.org/1999/xlink">
    <title>logo</title>
    <g id="reachy" stroke="none" stroke-width="1" fill="none" fill-rule="evenodd">
        <g id="logo" transform="translate(0.790022, 0.618545)">
            <g id="fait_moi_un_logo_reachy_en_mode_simpliste_que_de_la_ligne_noir_sur_blanc_comprhensible_en_petit_jus_tgwcomhboqc9ozhwpw11_0">
                <g id="Group" transform="translate(9.865111, 224.684139)" stroke="#808080">
                    <path d="M255.644867,10.1473154 L261.304867,10.5673154 C261.376521,10.5728208 261.447413,10.5495332 261.501844,10.5026096 C261.556276,10.4556859 261.589754,10.3889985 261.594867,10.3173154 L262.224867,1.75731543 C262.255921,1.35876881 262.020636,0.985557035 261.644867,0.837315434 L259.564867,0.0373154344 C259.283227,-0.0718442753 258.966257,0.0665510378 258.854867,0.347315434 L255.284867,9.57731543 C255.237043,9.70124341 255.250665,9.84049009 255.321598,9.95280087 C255.392531,10.0651116 255.512413,10.1372463 255.644867,10.1473154" id="Path"></path>
                    <path d="M27.6548665,221.037315 C39.4748665,238.417315 59.2948665,246.657315 79.1048665,250.197315 C91.9448665,252.490649 105.031533,253.617315 118.364867,253.578344 C134.791533,253.517315 151.8582,252.683982 169.564867,251.077315 C189.2182,249.290649 210.974867,246.990649 234.834867,244.177315 C253.254867,242.003982 271.1482,238.483982 288.514867,233.617315 C300.964867,230.117315 314.574867,224.847315 325.274867,216.877315 C329.7882,213.523982 333.3982,209.523982 336.104867,204.877315 C342.334867,194.177315 345.854867,181.637315 347.514867,170.427315 C350.081533,152.973982 351.244867,135.150649 351.004867,116.957315 C350.734867,97.4673154 348.304867,79.0973154 340.474867,61.2973154 C332.894867,44.0473154 314.724867,35.1873154 297.574867,29.9873154 C283.621533,25.7673154 269.9682,22.9673154 256.614867,21.5873154 C205.454867,16.2939821 154.221533,17.6239821 102.914867,25.5773154 C99.7415332,26.0706488 92.3448665,27.5806488 80.7248665,30.1073154 C61.2448665,34.3573154 41.5948665,40.6773154 28.7848665,56.3773154 C22.9581999,63.5106488 18.6948665,71.5739821 15.9948665,80.5673154 C10.9348665,97.4373154 9.05486653,117.607315 8.57486653,136.707315 C8.04819986,157.233982 10.4481999,177.007315 15.7748665,196.027315 C18.1681999,204.560649 22.1281999,212.897315 27.6548665,221.037315" id="Path"></path>
                    <path d="M17.5348665,44.6173154 L20.0548665,44.8873154 C20.1675356,44.899179 20.2693048,44.8195335 20.2848665,44.7073154 L20.3148665,44.5073154 C20.7495726,40.5053503 21.020254,36.6522487 21.0671586,33.7985737 C21.1140632,30.9448988 20.933334,29.3253056 20.5648665,29.2973154 L20.3848665,29.2773154 C20.0186783,29.2315232 19.4945978,30.7773375 18.9281147,33.5741129 C18.3616317,36.3708883 17.7992381,40.1890902 17.3648665,44.1873154 L17.3448665,44.3873154 C17.3393019,44.443064 17.3562445,44.4987248 17.3919262,44.5419183 C17.4276078,44.5851119 17.4790698,44.6122567 17.5348665,44.6173154" id="Path"></path>
                    <path d="M1.77486653,66.9973154 C-0.18513347,71.6439821 -0.521800137,76.9139821 0.76486653,82.8073154 C1.01819986,83.9739821 1.4715332,85.0039821 2.12486653,85.8973154 C2.21047355,86.0217719 2.36314025,86.0816914 2.51054736,86.0486898 C2.65795448,86.0156882 2.77049849,85.8963931 2.79486653,85.7473154 C3.88819986,80.0006488 5.5115332,74.5806488 7.66486653,69.4873154 C9.81819986,64.3939821 12.5748665,59.4539821 15.9348665,54.6673154 C16.0285896,54.5459494 16.0377382,54.3793488 15.9578679,54.2484502 C15.8779975,54.1175516 15.7256615,54.049484 15.5748665,54.0773154 C14.4748665,54.2306488 13.4215332,54.6239821 12.4148665,55.2573154 C7.28819986,58.4373154 3.7415332,62.3506488 1.77486653,66.9973154" id="Path"></path>
                    <path d="M187.944867,141.437315 C185.374867,123.787315 175.984867,107.217315 160.794867,97.9973154 C148.914867,90.7839821 136.3382,88.2573154 123.064867,90.4173154 C101.384867,93.9373154 82.9348665,110.477315 76.1748665,131.297315 C73.8881999,138.350649 72.6048665,144.477315 72.3248665,149.677315 C71.3948665,166.927315 78.0548665,186.297315 91.4348665,198.327315 C120.824867,224.757315 163.074867,213.807315 180.764867,180.357315 C185.084867,172.197315 187.581533,163.590649 188.254867,154.537315 C188.283651,154.198224 188.555364,153.930756 188.894867,153.907315 L244.174867,150.167315 C244.555051,150.137987 244.892705,150.414249 244.944867,150.797315 C247.974867,174.157315 270.324867,191.947315 293.944867,185.577315 C318.094867,179.067315 331.444867,152.437315 324.364867,128.957315 C321.6582,119.977315 317.011533,112.873982 310.424867,107.647315 C300.934867,100.127315 288.264867,97.5073154 276.484867,100.657315 C259.614867,105.177315 247.284867,120.387315 245.124867,137.557315 C245.096667,137.800757 244.899303,137.989722 244.654867,138.007315 L188.404867,141.807315 C188.181245,141.825078 187.980967,141.663984 187.944867,141.437315" id="Path"></path>
                    <path d="M141.656267,103.303115 C129.90225,100.524557 117.431588,102.927916 106.987685,109.98448 C96.5437826,117.041044 88.9821516,128.172774 85.9662665,140.930815 C79.6860364,167.498048 94.4370001,193.72552 118.913467,199.511515 C130.667483,202.290073 143.138145,199.886715 153.582048,192.830151 C164.02595,185.773587 171.587581,174.641857 174.603467,161.883815 C180.883697,135.316583 166.132733,109.089111 141.656267,103.303115" id="Path"></path>
                    <path d="M291.708567,112.366615 C276.479306,109.240553 261.315786,120.433603 257.839867,137.367015 C254.363958,154.300436 263.891914,170.56189 279.121167,173.688015 C294.350427,176.814078 309.513947,165.621028 312.989867,148.687615 C316.465775,131.754195 306.937819,115.492741 291.708567,112.366615" id="Path"></path>
                </g>
                <path d="M279.839978,144.861455 C279.852591,144.488868 280.006295,144.134991 280.269978,143.871455 C283.019978,141.071455 286.229978,142.141455 289.769978,143.341455 C293.536644,144.614788 295.909978,145.414788 296.889978,145.741455 C297.1096,145.807535 297.346581,145.721926 297.473268,145.530744 C297.599956,145.339561 297.58643,145.087955 297.439978,144.911455 C295.279978,142.421455 292.899978,139.671455 292.109978,136.611455 C291.939728,135.976477 291.943181,135.30653 292.119978,134.671455 L307.519978,77.050018 C307.545631,76.9412416 307.527789,76.8234893 307.469978,76.720018 C305.463311,73.4866847 305.003311,70.0233514 306.089978,66.330018 C309.896644,53.370018 312.089978,45.8333514 312.669978,43.720018 C314.059978,38.590018 315.319978,35.090018 320.599978,34.680018 C326.789978,34.190018 330.409978,39.490018 328.939978,45.180018 C325.859978,57.1266847 323.696644,65.610018 322.449978,70.630018 C321.339978,75.110018 320.029978,76.860018 316.499978,78.800018 C315.878566,79.1399319 315.418083,79.7119389 315.219978,80.390018 C314.366644,83.2633514 313.559978,86.0933514 312.799978,88.880018 C306.599978,111.526685 323.439978,50.9247882 301.059978,133.491455 C300.399978,135.901455 300.829978,137.191455 302.589978,139.011455 C305.659978,142.171455 308.759978,145.191455 308.959978,149.581455 C309.008371,150.668629 308.429081,151.687247 307.469978,152.201455 C301.529978,155.381455 295.359978,152.821455 287.589978,150.981455 C287.453164,150.948979 287.328044,150.945503 287.229978,150.971455 C287.216644,150.978122 287.186644,150.991455 287.139978,151.011455 C287.121189,151.021669 287.113169,151.043146 287.11984,151.065382 C287.126511,151.087619 287.146478,151.105967 287.169978,151.111455 C292.249978,152.724788 297.026644,154.141455 301.499978,155.361455 C303.609978,155.931455 306.209978,156.951455 306.309978,159.301455 C306.469978,163.221455 302.149978,163.091455 299.529978,162.321455 C294.669978,160.894788 289.033311,159.408122 282.619978,157.861455 C282.566864,157.848221 282.516383,157.828029 282.469978,157.801455 L278.739978,155.651455 C277.948793,155.193708 277.516764,154.301903 277.649978,153.401455 C278.269978,149.081455 282.609978,150.401455 285.569978,150.721455 C285.649126,150.722968 285.721413,150.670354 285.743176,150.595393 C285.764939,150.520432 285.730215,150.443662 285.659978,150.411455 C282.869978,149.161455 279.669978,148.891455 279.839978,144.861455 Z" id="Path" fill="#010101" fill-rule="nonzero"></path>
                <path d="M22.9899778,172.901455 C21.2166445,172.814788 20.1633111,171.871455 19.8299778,170.071455 C19.3599778,167.571455 22.6799778,165.811455 24.7099778,165.851455 C28.3633111,165.918122 32.7866445,166.101455 37.9799778,166.401455 C38.0831477,166.411253 38.1791663,166.347721 38.210489,166.248934 C38.2418118,166.150147 38.1999442,166.042895 38.1099778,165.991455 C34.1899778,163.701455 29.8799778,161.191455 28.9499778,156.831455 C28.8699778,156.458122 28.9366445,153.671455 29.1499778,148.471455 C29.6966445,135.058122 30.0066445,127.278122 30.0799778,125.131455 C31.1999778,92.2847882 30.1288,117.365759 32.6754667,52.9057588 C32.7454667,51.0057588 32.6754667,49.0357588 32.7454667,46.3957588 C32.7520437,46.0667864 32.6382484,45.7467371 32.4254667,45.4957588 C29.9054667,42.5690922 28.6854667,39.8490922 28.7654667,37.3357588 C29.1321333,25.4757588 29.6288,15.2390922 30.2554667,6.62575885 C30.4054667,4.54575885 31.9254667,2.10575885 33.9054667,1.08575885 C38.1554667,-1.12424115 42.7554667,0.0657588467 44.9054667,4.41575885 C45.3654667,5.34909218 45.6088,6.88909218 45.6354667,9.03575885 C45.7621333,19.2157588 45.7854667,29.0824255 45.7054667,38.6357588 C45.69882,38.8419325 45.6720236,39.0462554 45.6254667,39.2457588 C44.9254667,41.8990922 43.5654667,44.1557588 41.5454667,46.0157588 C41.2696909,46.2719394 41.104685,46.6234737 41.0854667,46.9957588 C40.4454667,57.9690922 39.8421333,71.5090922 39.2754667,87.6157588 C36.2754667,172.695759 37.5099778,145.628122 37.1699778,153.881455 C37.1099778,155.334788 37.7033111,156.504788 38.9499778,157.391455 C42.0999778,159.621455 46.0799778,161.541455 48.1899778,164.871455 C50.0799778,167.871455 49.0699778,171.041455 45.6899778,172.381455 C40.7899778,174.311455 33.1499778,173.961455 28.6999778,173.451455 C28.6627866,173.445754 28.624866,173.455263 28.5947655,173.477839 C28.564665,173.500414 28.5449185,173.534155 28.5399778,173.571455 L28.5399778,173.581455 C28.5340186,173.666333 28.5955324,173.741028 28.6799778,173.751455 C33.1399778,174.238122 38.4099778,174.568122 44.4899778,174.741455 C46.6899778,174.801455 48.1199778,175.711455 48.7799778,177.471455 C49.3199778,178.911455 48.8966445,180.064788 47.5099778,180.931455 C45.6999778,182.071455 43.9999778,181.901455 41.7999778,181.891455 C35.0933111,181.878122 29.0333111,181.568122 23.6199778,180.961455 C20.7199778,180.634788 19.4066445,179.164788 19.6799778,176.551455 C19.7119374,176.210216 19.8647313,175.893968 20.1099778,175.661455 C21.3566445,174.501455 22.7266445,173.938122 24.2199778,173.971455 C25.0599778,173.991455 25.7333111,173.964788 26.2399778,173.891455 C26.4303388,173.862941 26.5823189,173.714749 26.6144983,173.526269 C26.6466778,173.33779 26.5515096,173.153226 26.3799778,173.071455 C26.3666445,173.064788 25.2366445,173.008122 22.9899778,172.901455 Z" id="Shape" fill="#010101" fill-rule="nonzero"></path>
                <rect id="Rectangle" fill="#010101" fill-rule="nonzero" transform="translate(289.839978, 164.291455) rotate(16.900000) translate(-289.839978, -164.291455) " x="274.969978" y="160.601455" width="29.74" height="7.38" rx="3.6"></rect>
                <rect id="Rectangle" fill="#010101" fill-rule="nonzero" transform="translate(287.419978, 171.931455) rotate(15.700000) translate(-287.419978, -171.931455) " x="272.539978" y="168.351455" width="29.76" height="7.16" rx="3.49"></rect>
                <path d="M30.2099778,206.811455 C31.8366445,207.311455 34.7599778,207.664788 38.9799778,207.871455 C40.9733111,207.971455 43.3299778,208.874788 46.0499778,210.581455 C49.8999778,213.001455 48.7699778,217.211455 45.7699778,219.571455 C45.6699778,219.651455 42.2999778,221.734788 35.6599778,225.821455 C34.4933111,226.541455 33.8233111,227.724788 33.6499778,229.371455 C33.1099778,234.558122 33.0166445,239.438122 33.3699778,244.011455 C33.3940459,244.360865 33.6105304,244.666263 33.9299778,244.801455 C40.5699778,247.651455 39.9999778,256.851455 39.2999778,263.051455 C39.2810177,263.230811 39.3693824,263.405535 39.5242897,263.494988 C39.6791971,263.584442 39.8705275,263.571232 40.0099778,263.461455 C44.6599778,260.011455 48.0799778,257.371455 53.2799778,254.861455 C61.8733111,250.721455 72.0166445,247.308122 83.7099778,244.621455 C95.9366445,241.808122 104.599978,239.978122 109.699978,239.131455 C157.729978,231.121455 207.549978,230.061455 256.119978,233.421455 C256.339538,233.437661 256.544025,233.3027 256.619978,233.091455 C258.266644,228.371455 260.419978,223.754788 263.079978,219.241455 C263.879978,217.881455 265.109978,217.481455 266.329978,216.671455 C266.73749,216.393226 267.037458,215.983859 267.179978,215.511455 C269.226644,208.724788 270.553311,204.508122 271.159978,202.861455 C273.479978,196.561455 278.449978,195.711455 284.619978,193.431455 C284.802562,193.36055 284.922032,193.183847 284.919807,192.987991 C284.917581,192.792135 284.794126,192.618192 284.609978,192.551455 C280.676644,191.218122 276.903311,189.911455 273.289978,188.631455 C270.949978,187.801455 268.839978,186.301455 268.679978,183.901455 C268.589043,182.616845 269.506997,181.458679 270.819978,181.201455 C272.513311,180.868122 273.476644,180.678122 273.709978,180.631455 C273.81304,180.618149 273.894378,180.537389 273.908419,180.434424 C273.92246,180.331459 273.865715,180.23187 273.769978,180.191455 C271.229978,178.951455 269.239978,176.121455 272.129978,174.181455 C274.969978,172.281455 278.249978,173.461455 281.349978,174.501455 C286.449978,176.208122 291.003311,177.731455 295.009978,179.071455 C296.049978,179.418122 297.269978,180.051455 298.669978,180.971455 C299.806683,181.711891 300.289251,183.079867 299.819978,184.231455 C299.019978,186.158122 297.389978,186.894788 294.929978,186.441455 C293.696644,186.208122 289.033311,184.904788 280.939978,182.531455 C280.805478,182.497504 280.667136,182.570998 280.619978,182.701455 L280.599978,182.761455 C280.573009,182.852311 280.621111,182.948516 280.709978,182.981455 C285.436644,184.681455 289.379978,186.378122 292.539978,188.071455 C297.119978,190.521455 299.029978,197.681455 292.579978,199.281455 C287.846644,200.454788 284.016644,201.691455 281.089978,202.991455 C279.875063,203.528534 278.967354,204.586916 278.619978,205.871455 L275.489978,217.351455 C275.392294,217.711269 275.559908,218.088401 275.889978,218.251455 C279.089978,219.864788 280.536644,222.564788 280.229978,226.351455 C280.069978,228.364788 279.916644,231.584788 279.769978,236.011455 C279.760163,236.333143 279.987097,236.611459 280.299978,236.661455 C288.626644,238.101455 293.596644,239.001455 295.209978,239.361455 C314.709978,243.701455 334.259978,250.681455 349.169978,264.241455 C359.449978,273.591455 365.649978,290.631455 368.399978,304.811455 C373.899978,333.211455 372.999978,362.721455 369.349978,392.021455 C367.803311,404.394788 364.983311,415.821455 360.889978,426.301455 C355.049978,441.231455 343.439978,451.951455 329.219978,458.861455 C308.959978,468.711455 286.649978,474.051455 264.959978,477.521455 C248.093311,480.221455 225.343311,483.001455 196.709978,485.861455 C162.129978,489.321455 127.849978,491.731455 93.9499778,487.471455 C63.7199778,483.671455 36.1699778,470.991455 22.0199778,442.811455 C9.92997779,418.741455 6.86997779,391.501455 7.12997779,363.811455 C7.24997779,350.158122 8.06664446,337.534788 9.57997779,325.941455 C9.63166924,325.54182 9.53551919,325.139414 9.30997779,324.811455 C8.76997779,324.038122 7.91331113,322.911455 6.73997779,321.431455 C3.89997779,317.838122 1.97664446,313.734788 0.969977794,309.121455 C-1.44335554,298.121455 0.646644461,288.414788 7.23997779,280.001455 C9.46997779,277.171455 12.1599778,275.031455 15.0699778,272.571455 C15.9294301,271.84093 16.5061001,270.832642 16.6999778,269.721455 C18.0066445,262.168122 19.6266445,255.598122 21.5599778,250.011455 C22.1866445,248.191455 23.1333111,246.591455 24.3999778,245.211455 C24.6191892,244.965991 24.7433521,244.646715 24.7499778,244.311455 C24.7499778,244.304788 24.7999778,240.231455 24.8999778,232.091455 C25.0199778,222.881455 30.2299778,219.251455 38.0099778,215.641455 C38.1291643,215.592846 38.1974647,215.466861 38.1731566,215.340459 C38.1488486,215.214057 38.0386922,215.122391 37.9099778,215.121455 C34.1233111,214.908122 29.3066445,214.421455 23.4599778,213.661455 C19.6899778,213.171455 16.6699778,210.971455 19.5399778,206.891455 C19.7258056,206.63505 20.0050953,206.459598 20.3199778,206.401455 L24.2999778,205.671455 C24.3457423,205.666339 24.3802628,205.627503 24.3799778,205.581455 L24.3799778,205.571455 C24.3799778,205.472044 24.299389,205.391455 24.1999778,205.391455 C22.6733111,205.351455 21.3399778,204.984788 20.1999778,204.291455 C19.8871046,204.10263 19.6362853,203.820458 19.4799778,203.481455 C16.9499778,198.161455 23.8899778,197.521455 27.1799778,197.931455 C27.2304247,197.937048 27.2810123,197.922224 27.3204621,197.890288 C27.359912,197.858353 27.3849442,197.811961 27.3899778,197.761455 L27.3999778,197.751455 C27.3818324,197.708031 27.3398132,197.677471 27.2899778,197.671455 L21.0799778,196.711455 C21.0000843,196.698128 20.9198243,196.678063 20.8399778,196.651455 C19.4466445,196.151455 18.8533111,194.898122 19.0599778,192.891455 C19.2899778,190.731455 22.9599778,190.191455 24.7799778,190.261455 C30.3933111,190.461455 36.5366445,190.651455 43.2099778,190.831455 C45.7199778,190.901455 49.7499778,192.261455 48.3699778,195.881455 C48.2719886,196.122963 48.1090633,196.330952 47.8999778,196.481455 C46.6466445,197.388122 45.4966445,197.861455 44.4499778,197.901455 C41.1433111,198.041455 35.6399778,198.021455 27.9399778,197.841455 C27.9028253,197.838706 27.8661092,197.850878 27.8379567,197.875277 C27.8098042,197.899676 27.7925372,197.934289 27.7899778,197.971455 L27.7899778,197.981455 C27.7840186,198.066333 27.8455324,198.141028 27.9299778,198.151455 C32.8833111,198.611455 37.1366445,198.961455 40.6899778,199.201455 C43.4799778,199.391455 51.0199778,199.971455 48.0499778,204.741455 C47.4899778,205.641455 45.8733111,206.234788 43.1999778,206.521455 C41.7399778,206.681455 37.4733111,206.448122 30.3999778,205.821455 C30.1485134,205.812272 29.9279336,205.987868 29.8805061,206.234991 C29.8330787,206.482113 29.97298,206.726893 30.2099778,206.811455 Z M265.509978,234.831455 L271.169978,235.251455 C271.241632,235.25696 271.312524,235.233673 271.366955,235.186749 C271.421387,235.139825 271.454866,235.073138 271.459978,235.001455 L272.089978,226.441455 C272.121033,226.042908 271.885747,225.669696 271.509978,225.521455 L269.429978,224.721455 C269.148338,224.612295 268.831369,224.75069 268.719978,225.031455 L265.149978,234.261455 C265.102154,234.385383 265.115776,234.52463 265.186709,234.63694 C265.257642,234.749251 265.377525,234.821386 265.509978,234.831455 L265.509978,234.831455 Z M37.5199778,445.721455 C49.3399778,463.101455 69.1599778,471.341455 88.9699778,474.881455 C101.809978,477.174788 114.896644,478.301455 128.229978,478.262483 C144.656644,478.201455 161.723311,477.368122 179.429978,475.761455 C199.083311,473.974788 220.839978,471.674788 244.699978,468.861455 C263.119978,466.688122 281.013311,463.168122 298.379978,458.301455 C310.829978,454.801455 324.439978,449.531455 335.139978,441.561455 C339.653311,438.208122 343.263311,434.208122 345.969978,429.561455 C352.199978,418.861455 355.719978,406.321455 357.379978,395.111455 C359.946644,377.658122 361.109978,359.834788 360.869978,341.641455 C360.599978,322.151455 358.169978,303.781455 350.339978,285.981455 C342.759978,268.731455 324.589978,259.871455 307.439978,254.671455 C293.486644,250.451455 279.833311,247.651455 266.479978,246.271455 C215.319978,240.978122 164.086644,242.308122 112.779978,250.261455 C109.606644,250.754788 102.209978,252.264788 90.5899778,254.791455 C71.1099778,259.041455 51.4599778,265.361455 38.6499778,281.061455 C32.8233111,288.194788 28.5599778,296.258122 25.8599778,305.251455 C20.7999778,322.121455 18.9199778,342.291455 18.4399778,361.391455 C17.9133111,381.918122 20.3133111,401.691455 25.6399778,420.711455 C28.0333111,429.244788 31.9933111,437.581455 37.5199778,445.721455 Z M27.3999778,269.301455 L29.9199778,269.571455 C30.0326469,269.583318 30.1344161,269.503673 30.1499778,269.391455 L30.1799778,269.191455 C30.6146838,265.18949 30.8853653,261.336388 30.9322699,258.482713 C30.9791744,255.629038 30.7984452,254.009445 30.4299778,253.981455 L30.2499778,253.961455 C29.8837895,253.915663 29.359709,255.461477 28.793226,258.258252 C28.226743,261.055028 27.6643494,264.87323 27.2299778,268.871455 L27.2099778,269.071455 C27.2044132,269.127203 27.2213558,269.182864 27.2570374,269.226058 C27.2927191,269.269251 27.3441811,269.296396 27.3999778,269.301455 L27.3999778,269.301455 Z M11.6399778,291.681455 C9.67997779,296.328122 9.34331113,301.598122 10.6299778,307.491455 C10.8833111,308.658122 11.3366445,309.688122 11.9899778,310.581455 C12.0755848,310.705911 12.2282515,310.765831 12.3756586,310.732829 C12.5230657,310.699828 12.6356098,310.580533 12.6599778,310.431455 C13.7533111,304.684788 15.3766445,299.264788 17.5299778,294.171455 C19.6833111,289.078122 22.4399778,284.138122 25.7999778,279.351455 C25.8937009,279.230089 25.9028495,279.063488 25.8229792,278.93259 C25.7431088,278.801691 25.5907728,278.733623 25.4399778,278.761455 C24.3399778,278.914788 23.2866445,279.308122 22.2799778,279.941455 C17.1533111,283.121455 13.6066445,287.034788 11.6399778,291.681455 Z" id="Shape" fill="#010101" fill-rule="nonzero"></path>
                <rect id="Rectangle" fill="#010101" fill-rule="nonzero" transform="translate(34.119978, 186.201455) rotate(2.600000) translate(-34.119978, -186.201455) " x="19.4399778" y="182.521455" width="29.36" height="7.36" rx="3.57"></rect>
                <path d="M265.509978,234.831455 C265.377525,234.821386 265.257642,234.749251 265.186709,234.63694 C265.115776,234.52463 265.102154,234.385383 265.149978,234.261455 L268.719978,225.031455 C268.831369,224.75069 269.148338,224.612295 269.429978,224.721455 L271.509978,225.521455 C271.885747,225.669696 272.121033,226.042908 272.089978,226.441455 L271.459978,235.001455 C271.454866,235.073138 271.421387,235.139825 271.366955,235.186749 C271.312524,235.233673 271.241632,235.25696 271.169978,235.251455 L265.509978,234.831455 Z" id="Path" fill="#FFFFFF" fill-rule="nonzero"></path>
                <path d="M37.5199778,445.721455 C31.9933111,437.581455 28.0333111,429.244788 25.6399778,420.711455 C20.3133111,401.691455 17.9133111,381.918122 18.4399778,361.391455 C18.9199778,342.291455 20.7999778,322.121455 25.8599778,305.251455 C28.5599778,296.258122 32.8233111,288.194788 38.6499778,281.061455 C51.4599778,265.361455 71.1099778,259.041455 90.5899778,254.791455 C102.209978,252.264788 109.606644,250.754788 112.779978,250.261455 C164.086644,242.308122 215.319978,240.978122 266.479978,246.271455 C279.833311,247.651455 293.486644,250.451455 307.439978,254.671455 C324.589978,259.871455 342.759978,268.731455 350.339978,285.981455 C358.169978,303.781455 360.599978,322.151455 360.869978,341.641455 C361.109978,359.834788 359.946644,377.658122 357.379978,395.111455 C355.719978,406.321455 352.199978,418.861455 345.969978,429.561455 C343.263311,434.208122 339.653311,438.208122 335.139978,441.561455 C324.439978,449.531455 310.829978,454.801455 298.379978,458.301455 C281.013311,463.168122 263.119978,466.688122 244.699978,468.861455 C220.839978,471.674788 199.083311,473.974788 179.429978,475.761455 C161.723311,477.368122 144.656644,478.201455 128.229978,478.262483 C114.896644,478.301455 101.809978,477.174788 88.9699778,474.881455 C69.1599778,471.341455 49.3399778,463.101455 37.5199778,445.721455 Z M197.809978,366.121455 C195.239978,348.471455 185.849978,331.901455 170.659978,322.681455 C158.779978,315.468122 146.203311,312.941455 132.929978,315.101455 C111.249978,318.621455 92.7999778,335.161455 86.0399778,355.981455 C83.7533111,363.034788 82.4699778,369.161455 82.1899778,374.361455 C81.2599778,391.611455 87.9199778,410.981455 101.299978,423.011455 C130.689978,449.441455 172.939978,438.491455 190.629978,405.041455 C194.949978,396.881455 197.446644,388.274788 198.119978,379.221455 C198.148762,378.882363 198.420475,378.614896 198.759978,378.591455 L254.039978,374.851455 C254.420163,374.822126 254.757816,375.098389 254.809978,375.481455 C257.839978,398.841455 280.189978,416.631455 303.809978,410.261455 C327.959978,403.751455 341.309978,377.121455 334.229978,353.641455 C331.523311,344.661455 326.876644,337.558122 320.289978,332.331455 C310.799978,324.811455 298.129978,322.191455 286.349978,325.341455 C269.479978,329.861455 257.149978,345.071455 254.989978,362.241455 C254.961778,362.484896 254.764414,362.673862 254.519978,362.691455 L198.269978,366.491455 C198.046357,366.509217 197.846078,366.348124 197.809978,366.121455 L197.809978,366.121455 Z" id="Shape" fill="#FFFFFF" fill-rule="nonzero"></path>
                <path d="M27.3999778,269.301455 C27.3441811,269.296396 27.2927191,269.269251 27.2570374,269.226058 C27.2213558,269.182864 27.2044132,269.127203 27.2099778,269.071455 L27.2299778,268.871455 C27.6643494,264.87323 28.226743,261.055028 28.793226,258.258252 C29.359709,255.461477 29.8837895,253.915663 30.2499778,253.961455 L30.4299778,253.981455 C30.7984452,254.009445 30.9791744,255.629038 30.9322699,258.482713 C30.8853653,261.336388 30.6146838,265.18949 30.1799778,269.191455 L30.1499778,269.391455 C30.1344161,269.503673 30.0326469,269.583318 29.9199778,269.571455 L27.3999778,269.301455 Z" id="Path" fill="#FFFFFF" fill-rule="nonzero"></path>
                <path d="M17.5299778,294.171455 C15.3766445,299.264788 13.7533111,304.684788 12.6599778,310.431455 C12.6356098,310.580533 12.5230657,310.699828 12.3756586,310.732829 C12.2282515,310.765831 12.0755848,310.705911 11.9899778,310.581455 C11.3366445,309.688122 10.8833111,308.658122 10.6299778,307.491455 C9.34331113,301.598122 9.67997779,296.328122 11.6399778,291.681455 C13.6066445,287.034788 17.1533111,283.121455 22.2799778,279.941455 C23.2866445,279.308122 24.3399778,278.914788 25.4399778,278.761455 C25.5907728,278.733623 25.7431088,278.801691 25.8229792,278.93259 C25.9028495,279.063488 25.8937009,279.230089 25.7999778,279.351455 C22.4399778,284.138122 19.6833111,289.078122 17.5299778,294.171455 Z" id="Path" fill="#FFFFFF" fill-rule="nonzero"></path>
                <path d="M197.809978,366.121455 C197.846078,366.348124 198.046357,366.509217 198.269978,366.491455 L254.519978,362.691455 C254.764414,362.673862 254.961778,362.484896 254.989978,362.241455 C257.149978,345.071455 269.479978,329.861455 286.349978,325.341455 C298.129978,322.191455 310.799978,324.811455 320.289978,332.331455 C326.876644,337.558122 331.523311,344.661455 334.229978,353.641455 C341.309978,377.121455 327.959978,403.751455 303.809978,410.261455 C280.189978,416.631455 257.839978,398.841455 254.809978,375.481455 C254.757816,375.098389 254.420163,374.822126 254.039978,374.851455 L198.759978,378.591455 C198.420475,378.614896 198.148762,378.882363 198.119978,379.221455 C197.446644,388.274788 194.949978,396.881455 190.629978,405.041455 C172.939978,438.491455 130.689978,449.441455 101.299978,423.011455 C87.9199778,410.981455 81.2599778,391.611455 82.1899778,374.361455 C82.4699778,369.161455 83.7533111,363.034788 86.0399778,355.981455 C92.7999778,335.161455 111.249978,318.621455 132.929978,315.101455 C146.203311,312.941455 158.779978,315.468122 170.659978,322.681455 C185.849978,331.901455 195.239978,348.471455 197.809978,366.121455 Z M151.521378,327.987255 C139.767362,325.208697 127.296699,327.612056 116.852796,334.668619 C106.408894,341.725183 98.8472628,352.856914 95.8313778,365.614955 C89.5511477,392.182187 104.302111,418.409659 128.778578,424.195655 C140.532594,426.974213 153.003257,424.570854 163.447159,417.51429 C173.891062,410.457727 181.452693,399.325996 184.468578,386.567955 C190.748808,360.000723 175.997844,333.77325 151.521378,327.987255 Z M301.573678,337.050755 C286.344418,333.924692 271.180898,345.117742 267.704978,362.051155 C264.22907,378.984576 273.757025,395.246029 288.986278,398.372155 C304.215538,401.498218 319.379058,390.305167 322.854978,373.371755 C326.330886,356.438334 316.80293,340.17688 301.573678,337.050755 L301.573678,337.050755 Z" id="Shape" fill="#010101" fill-rule="nonzero"></path>
                <ellipse id="Oval" fill="#FFFFFF" fill-rule="nonzero" transform="translate(140.149978, 376.091455) rotate(-76.700000) translate(-140.149978, -376.091455) " cx="140.149978" cy="376.091455" rx="49.43" ry="45.54"></ellipse>
                <ellipse id="Oval" fill="#FFFFFF" fill-rule="nonzero" transform="translate(295.279978, 367.711455) rotate(-78.400000) translate(-295.279978, -367.711455) " cx="295.279978" cy="367.711455" rx="31.3" ry="28.15"></ellipse>
            </g>
            <path d="M196.689978,367.711455 C196.752322,367.96034 196.983992,368.128827 197.239978,368.111455 L252.779978,364.621455 C253.058688,364.605001 253.288192,364.392188 253.329978,364.111455 C255.579978,346.841455 266.119978,331.181455 282.789978,324.831455 C306.549978,315.771455 330.379978,330.621455 335.309978,355.141455 C340.209978,379.491455 327.339978,405.711455 302.679978,412.851455 C286.309978,417.591455 269.489978,410.551455 260.419978,396.751455 C256.193311,390.318122 253.723311,383.138122 253.009978,375.211455 C252.978272,374.799108 252.618328,374.488045 252.199978,374.511455 L197.319978,377.961455 C197.036037,377.977262 196.802195,378.190226 196.759978,378.471455 C195.659978,386.181455 194.539978,392.721455 191.449978,400.111455 C182.979978,420.371455 164.569978,436.431455 142.809978,438.551455 C124.619978,440.321455 107.079978,432.871455 95.4399778,418.641455 C90.3066445,412.368122 86.6333111,404.468122 84.4199778,394.941455 C76.2299778,359.651455 99.1599778,319.331455 137.269978,315.641455 C166.579978,312.811455 190.569978,333.051455 195.509978,361.581455 C196.023311,364.548122 196.416644,366.591455 196.689978,367.711455 Z M297.791278,353.994155 C298.576322,359.957053 303.948938,364.167402 309.791378,363.398255 C315.633826,362.629086 319.733683,357.171669 318.948678,351.208755 C318.163633,345.245857 312.791018,341.035508 306.948578,341.804655 C301.10613,342.573824 297.006273,348.031241 297.791278,353.994155 Z M149.468797,347.585897 C146.945757,350.309939 145.554461,353.979729 145.600978,357.787955 C145.697874,365.71816 151.87831,372.072309 159.405378,371.980355 C163.02001,371.936206 166.468119,370.381053 168.991159,367.657012 C171.514198,364.932971 172.905495,361.263181 172.858978,357.454955 C172.762082,349.52475 166.581646,343.170601 159.054578,343.262555 C155.439945,343.306703 151.991836,344.861856 149.468797,347.585897 Z" id="Shape" fill="#000000" fill-rule="nonzero"></path>
        </g>
    </g>
</svg>