<?xml version="1.0" encoding="UTF-8"?>
<svg width="387px" height="517px" viewBox="0 0 387 517" version="1.1" xmlns="http://www.w3.org/2000/svg" xmlns:xlink="http://www.w3.org/1999/xlink">
    <title>logo--black</title>
    <g id="logo--black" stroke="none" stroke-width="1" fill="none" fill-rule="evenodd">
        <path d="M285.63,167.48 C285.642613,167.107413 285.796317,166.753536 286.06,166.49 C288.81,163.69 292.02,164.76 295.56,165.96 C299.326667,167.233333 301.7,168.033333 302.68,168.36 C302.899623,168.42608 303.136603,168.340472 303.26329,168.149289 C303.389978,167.958106 303.376453,167.7065 303.23,167.53 C301.07,165.04 298.69,162.29 297.9,159.23 C297.72975,158.595022 297.733203,157.925075 297.91,157.29 L313.31,99.6685632 C313.335653,99.5597867 313.317812,99.4420345 313.26,99.3385632 C311.253333,96.1052299 310.793333,92.6418965 311.88,88.9485632 C315.686667,75.9885632 317.88,68.4518965 318.46,66.3385632 C319.85,61.2085632 321.11,57.7085632 326.39,57.2985632 C332.58,56.8085632 336.2,62.1085632 334.73,67.7985632 C331.65,79.7452299 329.486667,88.2285632 328.24,93.2485632 C327.13,97.7285632 325.82,99.4785632 322.29,101.418563 C321.668588,101.758477 321.208105,102.330484 321.01,103.008563 C320.156667,105.881897 319.35,108.711897 318.59,111.498563 C312.39,134.14523 329.23,73.5433333 306.85,156.11 C306.19,158.52 306.62,159.81 308.38,161.63 C311.45,164.79 314.55,167.81 314.75,172.2 C314.798394,173.287174 314.219104,174.305792 313.26,174.82 C307.32,178 301.15,175.44 293.38,173.6 C293.243187,173.567524 293.118066,173.564049 293.02,173.59 C293.006667,173.596667 292.976667,173.61 292.93,173.63 C292.911211,173.640214 292.903191,173.661691 292.909862,173.683927 C292.916533,173.706164 292.936501,173.724512 292.96,173.73 C298.04,175.343333 302.816667,176.76 307.29,177.98 C309.4,178.55 312,179.57 312.1,181.92 C312.26,185.84 307.94,185.71 305.32,184.94 C300.46,183.513333 294.823333,182.026667 288.41,180.48 C288.356886,180.466767 288.306405,180.446574 288.26,180.42 L284.53,178.27 C283.738815,177.812253 283.306786,176.920448 283.44,176.02 C284.06,171.7 288.4,173.02 291.36,173.34 C291.439149,173.341513 291.511436,173.288899 291.533199,173.213938 C291.554962,173.138977 291.520237,173.062208 291.45,173.03 C288.66,171.78 285.46,171.51 285.63,167.48 Z" id="Path" fill="#FFFFFF" fill-rule="nonzero"></path>
        <path d="M28.78,195.52 C27.0066667,195.433333 25.9533333,194.49 25.62,192.69 C25.15,190.19 28.47,188.43 30.5,188.47 C34.1533333,188.536667 38.5766667,188.72 43.77,189.02 C43.8731699,189.029798 43.9691885,188.966266 44.0005113,188.867479 C44.031834,188.768692 43.9899664,188.66144 43.9,188.61 C39.98,186.32 35.67,183.81 34.74,179.45 C34.66,179.076667 34.7266667,176.29 34.94,171.09 C35.4866667,157.676667 35.7966667,149.896667 35.87,147.75 C36.99,114.903333 35.9188222,139.984304 38.4654889,75.524304 C38.5354889,73.624304 38.4654889,71.654304 38.5354889,69.014304 C38.5420659,68.6853315 38.4282706,68.3652822 38.2154889,68.114304 C35.6954889,65.1876373 34.4754889,62.4676373 34.5554889,59.954304 C34.9221556,48.094304 35.4188222,37.8576373 36.0454889,29.244304 C36.1954889,27.164304 37.7154889,24.724304 39.6954889,23.704304 C43.9454889,21.494304 48.5454889,22.684304 50.6954889,27.034304 C51.1554889,27.9676373 51.3988222,29.5076373 51.4254889,31.654304 C51.5521556,41.834304 51.5754889,51.7009707 51.4954889,61.254304 C51.4888422,61.4604776 51.4620458,61.6648006 51.4154889,61.864304 C50.7154889,64.5176373 49.3554889,66.774304 47.3354889,68.634304 C47.0597131,68.8904846 46.8947072,69.2420189 46.8754889,69.614304 C46.2354889,80.5876373 45.6321556,94.1276373 45.0654889,110.234304 C42.0654889,195.314304 43.3,168.246667 42.96,176.5 C42.9,177.953333 43.4933333,179.123333 44.74,180.01 C47.89,182.24 51.87,184.16 53.98,187.49 C55.87,190.49 54.86,193.66 51.48,195 C46.58,196.93 38.94,196.58 34.49,196.07 C34.4528088,196.064299 34.4148883,196.073808 34.3847878,196.096384 C34.3546873,196.118959 34.3349407,196.1527 34.33,196.19 L34.33,196.2 C34.3240408,196.284878 34.3855546,196.359573 34.47,196.37 C38.93,196.856667 44.2,197.186667 50.28,197.36 C52.48,197.42 53.91,198.33 54.57,200.09 C55.11,201.53 54.6866667,202.683333 53.3,203.55 C51.49,204.69 49.79,204.52 47.59,204.51 C40.8833333,204.496667 34.8233333,204.186667 29.41,203.58 C26.51,203.253333 25.1966667,201.783333 25.47,199.17 C25.5019596,198.828761 25.6547536,198.512513 25.9,198.28 C27.1466667,197.12 28.5166667,196.556667 30.01,196.59 C30.85,196.61 31.5233333,196.583333 32.03,196.51 C32.220361,196.481486 32.3723411,196.333294 32.4045206,196.144815 C32.4367,195.956335 32.3415318,195.771771 32.17,195.69 C32.1566667,195.683333 31.0266667,195.626667 28.78,195.52 Z" id="Shape" fill="#FFFFFF" fill-rule="nonzero"></path>
        <rect id="Rectangle" fill="#FFFFFF" fill-rule="nonzero" transform="translate(295.630000, 186.910000) rotate(16.900000) translate(-295.630000, -186.910000) " x="280.76" y="183.22" width="29.74" height="7.38" rx="3.6"></rect>
        <rect id="Rectangle" fill="#FFFFFF" fill-rule="nonzero" transform="translate(293.210000, 194.550000) rotate(15.700000) translate(-293.210000, -194.550000) " x="278.33" y="190.97" width="29.76" height="7.16" rx="3.49"></rect>
        <path d="M36,229.43 C37.6266667,229.93 40.55,230.283333 44.77,230.49 C46.7633333,230.59 49.12,231.493333 51.84,233.2 C55.69,235.62 54.56,239.83 51.56,242.19 C51.46,242.27 48.09,244.353333 41.45,248.44 C40.2833333,249.16 39.6133333,250.343333 39.44,251.99 C38.9,257.176667 38.8066667,262.056667 39.16,266.63 C39.1840681,266.97941 39.4005527,267.284808 39.72,267.42 C46.36,270.27 45.79,279.47 45.09,285.67 C45.0710399,285.849356 45.1594046,286.02408 45.314312,286.113533 C45.4692193,286.202987 45.6605497,286.189777 45.8,286.08 C50.45,282.63 53.87,279.99 59.07,277.48 C67.6633333,273.34 77.8066667,269.926667 89.5,267.24 C101.726667,264.426667 110.39,262.596667 115.49,261.75 C163.52,253.74 213.34,252.68 261.91,256.04 C262.129561,256.056206 262.334047,255.921245 262.41,255.71 C264.056667,250.99 266.21,246.373333 268.87,241.86 C269.67,240.5 270.9,240.1 272.12,239.29 C272.527513,239.011772 272.82748,238.602404 272.97,238.13 C275.016667,231.343333 276.343333,227.126667 276.95,225.48 C279.27,219.18 284.24,218.33 290.41,216.05 C290.592584,215.979095 290.712055,215.802392 290.709829,215.606536 C290.707603,215.41068 290.584149,215.236737 290.4,215.17 C286.466667,213.836667 282.693333,212.53 279.08,211.25 C276.74,210.42 274.63,208.92 274.47,206.52 C274.379066,205.23539 275.297019,204.077225 276.61,203.82 C278.303333,203.486667 279.266667,203.296667 279.5,203.25 C279.603062,203.236694 279.6844,203.155934 279.698441,203.052969 C279.712482,202.950004 279.655737,202.850415 279.56,202.81 C277.02,201.57 275.03,198.74 277.92,196.8 C280.76,194.9 284.04,196.08 287.14,197.12 C292.24,198.826667 296.793333,200.35 300.8,201.69 C301.84,202.036667 303.06,202.67 304.46,203.59 C305.596705,204.330437 306.079273,205.698413 305.61,206.85 C304.81,208.776667 303.18,209.513333 300.72,209.06 C299.486667,208.826667 294.823333,207.523333 286.73,205.15 C286.5955,205.116049 286.457158,205.189544 286.41,205.32 L286.39,205.38 C286.363031,205.470857 286.411133,205.567061 286.5,205.6 C291.226667,207.3 295.17,208.996667 298.33,210.69 C302.91,213.14 304.82,220.3 298.37,221.9 C293.636667,223.073333 289.806667,224.31 286.88,225.61 C285.665085,226.147079 284.757376,227.205461 284.41,228.49 L281.28,239.97 C281.182316,240.329815 281.34993,240.706946 281.68,240.87 C284.88,242.483333 286.326667,245.183333 286.02,248.97 C285.86,250.983333 285.706667,254.203333 285.56,258.63 C285.550185,258.951689 285.777119,259.230004 286.09,259.28 C294.416667,260.72 299.386667,261.62 301,261.98 C320.5,266.32 340.05,273.3 354.96,286.86 C365.24,296.21 371.44,313.25 374.19,327.43 C379.69,355.83 378.79,385.34 375.14,414.64 C373.593333,427.013333 370.773333,438.44 366.68,448.92 C360.84,463.85 349.23,474.57 335.01,481.48 C314.75,491.33 292.44,496.67 270.75,500.14 C253.883333,502.84 231.133333,505.62 202.5,508.48 C167.92,511.94 133.64,514.35 99.74,510.09 C69.51,506.29 41.96,493.61 27.81,465.43 C15.72,441.36 12.66,414.12 12.92,386.43 C13.04,372.776667 13.8566667,360.153333 15.37,348.56 C15.4216914,348.160365 15.3255414,347.757959 15.1,347.43 C14.56,346.656667 13.7033333,345.53 12.53,344.05 C9.69,340.456667 7.76666667,336.353333 6.76,331.74 C4.34666667,320.74 6.43666667,311.033333 13.03,302.62 C15.26,299.79 17.95,297.65 20.86,295.19 C21.7194523,294.459475 22.2961223,293.451187 22.49,292.34 C23.7966667,284.786667 25.4166667,278.216667 27.35,272.63 C27.9766667,270.81 28.9233333,269.21 30.19,267.83 C30.4092114,267.584536 30.5333743,267.26526 30.54,266.93 C30.54,266.923333 30.59,262.85 30.69,254.71 C30.81,245.5 36.02,241.87 43.8,238.26 C43.9191866,238.211391 43.9874869,238.085406 43.9631788,237.959004 C43.9388708,237.832602 43.8287144,237.740936 43.7,237.74 C39.9133333,237.526667 35.0966667,237.04 29.25,236.28 C25.48,235.79 22.46,233.59 25.33,229.51 C25.5158278,229.253595 25.7951175,229.078143 26.11,229.02 L30.09,228.29 C30.1357645,228.284884 30.170285,228.246049 30.17,228.2 L30.17,228.19 C30.17,228.090589 30.0894113,228.01 29.99,228.01 C28.4633333,227.97 27.13,227.603333 25.99,226.91 C25.6771268,226.721175 25.4263075,226.439003 25.27,226.1 C22.74,220.78 29.68,220.14 32.97,220.55 C33.0204469,220.555593 33.0710345,220.540769 33.1104843,220.508834 C33.1499342,220.476898 33.1749664,220.430506 33.18,220.38 L33.19,220.37 C33.1718546,220.326576 33.1298354,220.296016 33.08,220.29 L26.87,219.33 C26.7901065,219.316673 26.7098466,219.296608 26.63,219.27 C25.2366667,218.77 24.6433333,217.516667 24.85,215.51 C25.08,213.35 28.75,212.81 30.57,212.88 C36.1833333,213.08 42.3266667,213.27 49,213.45 C51.51,213.52 55.54,214.88 54.16,218.5 C54.0620108,218.741508 53.8990855,218.949497 53.69,219.1 C52.4366667,220.006667 51.2866667,220.48 50.24,220.52 C46.9333333,220.66 41.43,220.64 33.73,220.46 C33.6928475,220.457251 33.6561314,220.469423 33.6279789,220.493822 C33.5998264,220.518221 33.5825594,220.552834 33.58,220.59 L33.58,220.6 C33.5740408,220.684878 33.6355546,220.759573 33.72,220.77 C38.6733333,221.23 42.9266667,221.58 46.48,221.82 C49.27,222.01 56.81,222.59 53.84,227.36 C53.28,228.26 51.6633333,228.853333 48.99,229.14 C47.53,229.3 43.2633333,229.066667 36.19,228.44 C35.9385356,228.430817 35.7179558,228.606414 35.6705283,228.853536 C35.6231009,229.100658 35.7630022,229.345438 36,229.43 Z M271.3,257.45 L276.96,257.87 C277.031654,257.875505 277.102546,257.852218 277.156978,257.805294 C277.211409,257.758371 277.244888,257.691683 277.25,257.62 L277.88,249.06 C277.911055,248.661453 277.675769,248.288242 277.3,248.14 L275.22,247.34 C274.938361,247.23084 274.621391,247.369236 274.51,247.65 L270.94,256.88 C270.892177,257.003928 270.905798,257.143175 270.976731,257.255485 C271.047665,257.367796 271.167547,257.439931 271.3,257.45 L271.3,257.45 Z M43.31,468.34 C55.13,485.72 74.95,493.96 94.76,497.5 C107.6,499.793333 120.686667,500.92 134.02,500.881029 C150.446667,500.82 167.513333,499.986667 185.22,498.38 C204.873333,496.593333 226.63,494.293333 250.49,491.48 C268.91,489.306667 286.803333,485.786667 304.17,480.92 C316.62,477.42 330.23,472.15 340.93,464.18 C345.443333,460.826667 349.053333,456.826667 351.76,452.18 C357.99,441.48 361.51,428.94 363.17,417.73 C365.736667,400.276667 366.9,382.453333 366.66,364.26 C366.39,344.77 363.96,326.4 356.13,308.6 C348.55,291.35 330.38,282.49 313.23,277.29 C299.276667,273.07 285.623333,270.27 272.27,268.89 C221.11,263.596667 169.876667,264.926667 118.57,272.88 C115.396667,273.373333 108,274.883333 96.38,277.41 C76.9,281.66 57.25,287.98 44.44,303.68 C38.6133333,310.813333 34.35,318.876667 31.65,327.87 C26.59,344.74 24.71,364.91 24.23,384.01 C23.7033333,404.536667 26.1033333,424.31 31.43,443.33 C33.8233333,451.863333 37.7833333,460.2 43.31,468.34 Z M33.19,291.92 L35.71,292.19 C35.8226691,292.201864 35.9244383,292.122218 35.94,292.01 L35.97,291.81 C36.404706,287.808035 36.6753875,283.954933 36.7222921,281.101258 C36.7691966,278.247583 36.5884674,276.62799 36.22,276.6 L36.04,276.58 C35.6738117,276.534208 35.1497312,278.080022 34.5832482,280.876798 C34.0167652,283.673573 33.4543716,287.491775 33.02,291.49 L33,291.69 C32.9944354,291.745749 33.011378,291.801409 33.0470596,291.844603 C33.0827413,291.887796 33.1342033,291.914941 33.19,291.92 L33.19,291.92 Z M17.43,314.3 C15.47,318.946667 15.1333333,324.216667 16.42,330.11 C16.6733333,331.276667 17.1266667,332.306667 17.78,333.2 C17.865607,333.324456 18.0182737,333.384376 18.1656808,333.351374 C18.3130879,333.318373 18.425632,333.199078 18.45,333.05 C19.5433333,327.303333 21.1666667,321.883333 23.32,316.79 C25.4733333,311.696667 28.23,306.756667 31.59,301.97 C31.6837231,301.848634 31.6928717,301.682033 31.6130014,301.551135 C31.533131,301.420236 31.380795,301.352169 31.23,301.38 C30.13,301.533333 29.0766667,301.926667 28.07,302.56 C22.9433333,305.74 19.3966667,309.653333 17.43,314.3 Z" id="Shape" fill="#FFFFFF" fill-rule="nonzero"></path>
        <rect id="Rectangle" fill="#010101" fill-rule="nonzero" transform="translate(39.910000, 208.820000) rotate(2.600000) translate(-39.910000, -208.820000) " x="25.23" y="205.14" width="29.36" height="7.36" rx="3.57"></rect>
        <path d="M196.705666,387.766629 C196.741766,387.993297 196.942044,388.154391 197.165666,388.136629 L253.415666,384.336629 C253.660102,384.319035 253.857466,384.13007 253.885666,383.886629 C256.045666,366.716629 268.375666,351.506629 285.245666,346.986629 C297.025666,343.836629 309.695666,346.456629 319.185666,353.976629 C325.772332,359.203295 330.418999,366.306629 333.125666,375.286629 C340.205666,398.766629 326.855666,425.396629 302.705666,431.906629 C279.085666,438.276629 256.735666,420.486629 253.705666,397.126629 C253.653504,396.743562 253.31585,396.4673 252.935666,396.496629 L197.655666,400.236629 C197.316163,400.260069 197.04445,400.527537 197.015666,400.866629 C196.342332,409.919962 193.845666,418.526629 189.525666,426.686629 C171.835666,460.136629 129.585666,471.086629 100.195666,444.656629 C86.8156655,432.626629 80.1556655,413.256629 81.0856655,396.006629 C81.3656655,390.806629 82.6489989,384.679962 84.9356655,377.626629 C91.6956655,356.806629 110.145666,340.266629 131.825666,336.746629 C145.098999,334.586629 157.675666,337.113295 169.555666,344.326629 C184.745666,353.546629 194.135666,370.116629 196.705666,387.766629 Z M150.417066,349.632429 C138.663049,346.853871 126.192387,349.25723 115.748484,356.313793 C105.304582,363.370357 97.7429506,374.502088 94.7270655,387.260129 C88.4468354,413.827361 103.197799,440.054833 127.674266,445.840829 C139.428282,448.619387 151.898944,446.216028 162.342847,439.159464 C172.786749,432.1029 180.348381,420.97117 183.364266,408.213129 C189.644496,381.645897 174.893532,355.418424 150.417066,349.632429 Z M300.469366,358.695929 C285.240105,355.569866 270.076585,366.762916 266.600666,383.696329 C263.124757,400.629749 272.652713,416.891203 287.881966,420.017329 C303.111226,423.143392 318.274746,411.950341 321.750666,395.016929 C325.226574,378.083508 315.698618,361.822054 300.469366,358.695929 L300.469366,358.695929 Z" id="Shape" fill="#FFFFFF" fill-rule="nonzero"></path>
    </g>
</svg>