<?xml version="1.0" encoding="UTF-8"?>
<svg width="367px" height="103px" viewBox="0 0 367 103" version="1.1" xmlns="http://www.w3.org/2000/svg" xmlns:xlink="http://www.w3.org/1999/xlink">
    <title>pollen-logo</title>
    <g id="reachy" stroke="none" stroke-width="1" fill="none" fill-rule="evenodd">
        <g id="background" transform="translate(-1194.000000, -1915.000000)">
            <g id="pollen-logo" transform="translate(1194.645161, 1915.817204)">
                <g id="Group" transform="translate(9.354839, 5.182796)">
                    <path d="M40.1643724,0.134905156 C39.3906889,0.40591285 38.7205948,0.704343942 38.1540901,1.03019843 C25.5744491,8.3441799 12.9802408,15.630738 0.37146521,22.8898726 C0.122203152,23.031829 0.0412739123,23.2738002 0.128677491,23.6157861" id="Path" stroke="#9EEECC"></path>
                    <path d="M0.128677491,23.6157861 C0.128677491,38.7051074 0.136770415,53.7928155 0.152956263,68.8789105 C0.152956263,69.0950714 0.313196158,69.27413 0.633675947,69.4160864" id="Path" stroke="#96A2C3"></path>
                    <path d="M0.633675947,69.4160864 C0.879700836,69.719357 1.20503638,69.9855252 1.60968258,70.2145912 C14.1957979,77.3349958 26.7641089,84.4683055 39.3146154,91.6145203" id="Path" stroke="#FEB0B8"></path>
                    <path d="M39.3146154,91.6145203 C40.1174334,91.9403747 40.6240505,91.988769 40.8344665,91.7597029" id="Path" stroke="#9EEECC"></path>
                    <path d="M40.8344665,91.7597029 C41.015748,91.7338927 41.1646578,91.6871116 41.2811959,91.6193597 C54.110099,84.3150571 66.9325277,77.0010756 79.7484821,69.6774153 C80.2923266,69.3644659 80.4558037,69.1676627 80.2389133,69.0870057" id="Path" stroke="#96A2C3"></path>
                    <line x1="80.2389133" y1="69.0870057" x2="80.3408842" y2="24.6272255" id="Path" stroke="#FEE1B0"></line>
                    <path d="M80.3408842,24.6272255 C80.2340576,24.2820133 80.2227275,23.8642098 80.3068939,23.3738149 C80.3360284,23.1995957 80.318224,23.0592524 80.2534806,22.9527851 C80.146654,22.7817922 80.022023,22.7124271 79.8795875,22.7446899" id="Path" stroke="#FEB0B8"></path>
                    <path d="M79.8795875,22.7446899 C66.7140188,15.1113065 53.6002448,7.56341963 40.5382655,0.101029194 C40.2825291,-0.0441534995 40.1578981,-0.0328615123 40.1641326,0.134905156" id="Path" stroke="#96A2C3"></path>
                    <path d="M79.8795875,22.7446899 C78.8210331,22.8834201 77.2461501,22.7817922 75.1549385,22.4398063 C69.3733536,21.4977319 57.9218662,19.8507149 40.8004762,17.4987553" id="Path" stroke="#96547C"></path>
                    <path d="M40.8004762,17.4987553 C40.5900602,17.6342591 40.4201088,17.6132883 40.290622,17.4358428 C40.2557978,17.3887327 40.2370732,17.3310513 40.2372087,17.2713024 L40.1643724,0.134905156" id="Path" stroke="#369291"></path>
                    <path d="M80.3408842,24.6272255 C79.8294114,24.8885544 79.526736,25.1321387 79.4328581,25.3579784 C76.2863293,33.1397708 71.7882821,44.5253202 65.9387167,59.5146267 C65.9322454,59.530746 65.9241203,59.5469417 65.9144379,59.563021 L65.2977571,60.6422123" id="Path" stroke="#FE9269"></path>
                    <line x1="65.2977571" y1="60.6422123" x2="64.9675658" y2="60.4147594" id="Path" stroke="#9EA086"></line>
                    <path d="M64.9675658,60.4147594 C64.8866366,60.0179268 64.7895215,59.7211088 64.6762205,59.5243056 C56.7160205,45.7416286 48.7720063,31.9508858 40.844178,18.1520774 C40.8312293,18.1294934 40.7956205,18.1036832 40.7373514,18.0746466 C40.6985054,18.0552889 40.6628965,18.0181867 40.6305248,17.9633399" id="Path" stroke="#9C89A1"></path>
                    <path d="M40.8004762,17.4987553 C40.700124,17.6600694 40.6434735,17.8149309 40.6305248,17.9633399" id="Path" stroke="#9EA086"></path>
                    <path d="M40.6305248,17.9633399 C40.4395318,17.8762303 40.2566317,17.8407412 40.0818246,17.8568726" id="Path" stroke="#3CC7B6"></path>
                    <path d="M40.0818246,17.8568726 C39.8519855,17.6084489 39.4343907,17.5277918 38.8290399,17.6149014 C19.4675286,20.4217668 9.40316837,21.8558492 8.63595917,21.9171486 C6.52370602,22.0865284 3.83361809,22.8221207 1.26492402,22.962464 C0.84732914,22.985048 0.521993596,23.1302306 0.288917386,23.3980121 C0.266257199,23.4238223 0.288917386,23.5528736 0.356897947,23.7851659" id="Path" stroke="#9ED17E"></path>
                    <path d="M0.356897947,23.7851659 C0.301866064,23.7045089 0.225792579,23.6480489 0.128677491,23.6157861" id="Path" stroke="#369291"></path>
                    <path d="M65.4240067,60.9761325 L40.9073028,91.4112645 C40.8913055,91.4335947 40.8812855,91.4585607 40.8781683,91.4838558 L40.8344665,91.7597029" id="Path" stroke="#369291"></path>
                    <path d="M39.3146154,91.6145203 C39.4505765,91.3983594 39.4764739,91.2370453 39.3923075,91.1305779 C38.2172149,89.6077728 35.7650589,86.5250603 32.0358396,81.8824404 C26.5779716,75.084664 21.1022993,68.3030191 15.6088225,61.5375056" id="Path" stroke="#9EA086"></path>
                    <path d="M64.9675658,60.4147594 C64.8931109,60.569621 64.7765728,60.6486649 64.6179515,60.6518912 C60.257484,60.7196431 54.3043292,60.706738 46.7584869,60.6131758 C43.5666376,60.5744604 39.3583172,60.6067232 34.1335255,60.7099643 C30.5240814,60.7777162 24.3556547,60.7615848 15.6282455,60.66157" id="Path" stroke="#3CC7B6"></path>
                    <line x1="80.2389133" y1="69.0870057" x2="65.4240067" y2="60.9761325" id="Path" stroke="#968574"></line>
                    <path d="M65.4240067,60.9761325 C65.4272439,60.8696652 65.3851607,60.7583585 65.2977571,60.6422123" id="Path" stroke="#9ED17E"></path>
                    <path d="M40.0818246,17.8568726 C39.842274,17.9891502 39.7014571,18.0923912 39.6593739,18.1665957 C27.9926147,38.5018516 20.0955395,52.2296818 15.9681483,59.3500864 C15.6929889,59.8275761 15.5796879,60.2647373 15.6282455,60.66157" id="Path" stroke="#9CBA99"></path>
                    <line x1="15.6282455" y1="60.66157" x2="15.6088225" y2="61.5375056" id="Path" stroke="#9ED17E"></line>
                    <path d="M15.6088225,61.5375056 C15.5084702,61.3374761 15.3126215,61.1293809 15.0212762,60.91322" id="Path" stroke="#FE9269"></path>
                    <line x1="15.0212762" y1="60.91322" x2="0.356897947" y2="23.7851659" id="Path" stroke="#968574"></line>
                    <path d="M15.0212762,60.91322 C8.63757776,64.400831 4.00195091,66.9834698 1.11439563,68.6611364 C0.936351304,68.7643775 0.776111409,69.0160275 0.633675947,69.4160864" id="Path" stroke="#96547C"></path>
                    <path d="M147.214152,25.696738 C147.258035,38.5550852 157.027813,47.0095574 169.681909,46.9661701 C182.336005,46.9176084 192.042658,38.3905449 191.994282,25.5321977 C191.945543,12.669011 182.175765,4.21937826 169.526525,4.26276548 C156.872429,4.3113273 147.165776,12.8335514 147.214152,25.696738" id="Path" stroke="#96A2C3"></path>
                    <path d="M120.648501,33.6672679 C123.820928,33.7221147 126.656688,33.7108227 129.155783,33.6333919 C138.755609,33.3333477 144.315448,25.9145121 142.693626,16.7196082 C141.343727,9.05880138 135.497398,4.91625519 127.970979,4.8968975 C121.17616,4.87753981 114.567478,4.87270038 108.144934,4.88237923 C108.044928,4.88500301 107.965271,4.96657349 107.965271,5.06627731 L107.965271,45.9497238 C107.965271,46.1154336 108.100059,46.249768 108.266328,46.249768 L120.230906,46.249768 C120.346222,46.249768 120.439704,46.1566006 120.439704,46.0416728 L120.439704,33.8753631 C120.439704,33.7604353 120.533186,33.6672679 120.648501,33.6672679" id="Path" stroke="#96A2C3"></path>
                    <path d="M211.111206,4.87753981 L198.986387,4.87753981 C198.879116,4.87753981 198.792157,4.96420715 198.792157,5.07111673 L198.792157,46.0271545 C198.792157,46.155446 198.896508,46.2594468 199.025233,46.2594468 L229.626197,46.2594468 C229.800511,46.2594468 229.941821,46.1207791 229.941821,45.9497238 L229.941821,35.8692054 C229.941821,35.7275502 229.826599,35.612716 229.684466,35.612716 C225.087685,35.6062634 219.629817,35.6272343 213.310862,35.6756285 C212.326763,35.6820811 211.729505,35.6143291 211.519089,35.4723727 C211.397415,35.3902127 211.32463,35.2523854 211.324859,35.1045766 L211.329714,5.09047442 C211.329714,4.97287388 211.231885,4.87753981 211.111206,4.87753981" id="Path" stroke="#96A2C3"></path>
                    <path d="M248.558783,4.90657634 L236.443676,4.90173692 C236.338307,4.90436311 236.254269,4.99026601 236.254302,5.09531385 L236.239734,46.0077968 C236.239734,46.1342219 236.341131,46.2374553 236.467955,46.2400891 L267.034929,46.249768 C267.209243,46.249768 267.350553,46.1111003 267.350553,45.9400449 L267.355409,35.8692054 C267.355409,35.7275502 267.240187,35.612716 267.098054,35.612716 C262.507747,35.6062634 257.056354,35.6256211 250.743873,35.6707891 C249.759773,35.6772416 249.162515,35.6094897 248.952099,35.4675333 C248.830426,35.3853733 248.75764,35.2475459 248.757869,35.0997371 L248.777292,5.11951096 C248.777292,5.06303719 248.754271,5.00887644 248.713293,4.96894345 C248.672314,4.92901046 248.616736,4.90657634 248.558783,4.90657634" id="Path" stroke="#96A2C3"></path>
                    <path d="M273.658178,25.5999496 C273.651703,38.9696625 273.654941,45.7900228 273.667889,46.0610305 C273.673107,46.1935462 273.782468,46.2982642 273.915533,46.2981622 L303.70073,46.3078411 C303.744516,46.3078411 303.786509,46.2905056 303.81747,46.2596483 C303.848432,46.228791 303.865826,46.1869395 303.865826,46.1433007 L303.865826,35.7772564 C303.865826,35.6703468 303.778866,35.5836795 303.671596,35.5836795 L286.394822,35.5836795 C286.322703,35.5836795 286.253539,35.5556368 286.202543,35.5057206 C286.151548,35.4558043 286.122899,35.3881034 286.122899,35.3175112 L286.122899,30.7442563 C286.122899,30.5464736 286.283775,30.386139 286.482225,30.386139 L301.200017,30.386139 C301.391223,30.3861574 301.546975,30.2330847 301.549631,30.04254 C301.552868,29.3069477 301.554487,27.8309236 301.554487,25.6144678 C301.554487,23.3980121 301.554487,21.921988 301.554487,21.1863957 C301.551831,20.995851 301.396079,20.8427783 301.204872,20.8427967 L286.487081,20.8282784 C286.288631,20.8282784 286.127755,20.6679438 286.127755,20.4701611 L286.132611,15.8969062 C286.132606,15.8263111 286.161253,15.7586076 286.212249,15.7086909 C286.263245,15.6587742 286.332412,15.6307335 286.404533,15.630738 L303.681307,15.6452562 C303.788578,15.6452562 303.875537,15.5585889 303.875537,15.4516793 L303.885249,5.085635 C303.885249,4.99476185 303.811333,4.92109461 303.720153,4.92109461 L273.934956,4.90173692 C273.803775,4.90420121 273.69729,5.00820595 273.692168,5.13886865 C273.675982,5.40987635 273.664652,12.2302367 273.658178,25.5999496" id="Path" stroke="#96A2C3"></path>
                    <path d="M347.465644,5.05659846 C347.465644,5.01424313 347.448762,4.97362257 347.418711,4.94367283 C347.38866,4.91372309 347.347903,4.8968975 347.305405,4.8968975 L335.098038,4.8968975 C335.05554,4.8968975 335.014782,4.91372309 334.984731,4.94367283 C334.95468,4.97362257 334.937798,5.01424313 334.937798,5.05659846 L334.937798,23.7270928 C334.937854,23.7967672 334.892581,23.8584359 334.825933,23.87947 C334.759286,23.9005041 334.686648,23.8760482 334.646453,23.8190419 L321.399955,4.95497058 C321.369923,4.91246568 321.321011,4.88721863 321.26885,4.88721863 L311.678735,4.88721863 C311.590237,4.88721863 311.518495,4.95871921 311.518495,5.04691961 L311.518495,46.123943 C311.518495,46.1662983 311.535377,46.2069189 311.565428,46.2368686 C311.595479,46.2668184 311.636236,46.283644 311.678735,46.283644 L323.852111,46.283644 C323.894609,46.283644 323.935367,46.2668184 323.965418,46.2368686 C323.995468,46.2069189 324.012351,46.1662983 324.012351,46.123943 L324.012351,27.3082659 C324.012295,27.2385916 324.057568,27.1769229 324.124215,27.1558887 C324.190863,27.1348546 324.263501,27.1593106 324.303696,27.2163169 L337.632742,46.1965343 C337.662774,46.2390392 337.711686,46.2643154 337.763847,46.2642863 L347.305405,46.2642863 C347.393903,46.2642863 347.465644,46.1927857 347.465644,46.1045853 L347.465644,5.05659846" id="Path" stroke="#96A2C3"></path>
                    <path d="M172.658487,71.046972 C172.658487,61.6549651 165.019067,54.0412392 155.595366,54.0412392 C146.171664,54.0412392 138.532245,61.6549651 138.532245,71.046972 C138.532245,75.5571728 140.329961,79.8826475 143.529917,83.071841 C146.729873,86.2610346 151.069945,88.0527048 155.595366,88.0527048 C160.120787,88.0527048 164.460858,86.2610346 167.660814,83.071841 C170.86077,79.8826475 172.658487,75.5571728 172.658487,71.046972" id="Path" stroke="#80A4BE"></path>
                    <path d="M244.688747,71.0421326 C244.688747,61.6501257 237.049328,54.0363998 227.625626,54.0363998 C218.201925,54.0363998 210.562505,61.6501257 210.562505,71.0421326 C210.562505,80.4341395 218.201925,88.0478654 227.625626,88.0478654 C232.151047,88.0478654 236.491119,86.2561951 239.691075,83.0670016 C242.891031,79.8778081 244.688747,75.5523334 244.688747,71.0421326" id="Path" stroke="#80A4BE"></path>
                    <path d="M292.590759,71.0518114 C292.590759,77.6092298 295.970369,83.5084865 301.942947,86.2185635 C307.954371,88.9479981 315.626463,88.7205452 321.011495,84.6602692 C321.194349,84.5217472 321.246341,84.2709497 321.132888,84.074699 L319.889815,81.9308346 C319.846664,81.8567952 319.774683,81.8038627 319.690971,81.7846094 C319.607258,81.7653561 319.519283,81.7815 319.447942,81.8292067 C310.173451,88.0478654 296.470512,83.5423625 296.465656,71.0518114 C296.4608,58.5612604 310.158883,54.0412392 319.43823,60.2550585 C319.509572,60.3027652 319.597547,60.3189091 319.681259,60.2996558 C319.764972,60.2804025 319.836952,60.22747 319.880104,60.1534306 L321.123177,58.0095662 C321.23663,57.8133155 321.184637,57.562518 321.001783,57.423996 C315.611896,53.3685594 307.939804,53.1459459 301.92838,55.88022 C295.960658,58.5951364 292.585908,64.4992326 292.590759,71.0518114" id="Path" stroke="#80A4BE"></path>
                    <path d="M344.644451,62.456996 L347.509346,61.6488123 C347.596467,61.6240787 347.670078,61.5657092 347.713838,61.4866603 C347.757598,61.4076115 347.767888,61.3144237 347.742422,61.2277825 C346.473452,57.0142581 343.618268,54.6671379 339.176872,54.1864219 C334.622174,53.6928007 329.004066,55.5559786 327.571619,60.1776277 C326.292937,64.3072688 327.466411,67.5642005 331.092041,69.948423 C333.010064,71.2115124 335.743853,71.835798 340.468502,73.471523 C343.51306,74.5216778 346.470215,77.6721423 344.620172,81.0936144 C342.959504,84.1521298 339.016632,84.9506346 335.826401,84.4376558 C332.653975,83.9246769 330.467267,82.3325067 329.266277,79.6611452 C329.17391,79.458613 328.946924,79.353728 328.732144,79.4143346 L325.886672,80.2176788 C325.803564,80.2418002 325.734316,80.2993744 325.695605,80.3765362 C325.656894,80.453698 325.652228,80.5434546 325.68273,80.6241904 C328.571904,88.2366029 338.545624,89.9013645 344.964931,86.0153077 C348.655304,83.7843337 350.199434,78.7513336 347.956076,74.9959413 C345.53791,70.9501836 341.143452,69.914547 335.826401,68.1287999 C333.354822,67.2964191 330.89781,65.7961979 330.951224,62.8441498 C331.028916,58.4354354 335.904093,56.9158565 339.584755,57.7482373 C342.077376,58.3096104 343.626361,59.8001527 344.231712,62.2198643 C344.253261,62.3068639 344.309476,62.3813429 344.387374,62.4260972 C344.465271,62.4708516 344.558112,62.4820104 344.644451,62.456996" id="Path" stroke="#80A4BE"></path>
                    <path d="M133.817307,83.47945 C127.446557,88.0672231 123.751328,79.6030721 123.333734,74.8362403 C123.323168,74.6895498 123.422553,74.5574822 123.56681,74.5265172 C126.347538,73.9361076 128.325449,72.7214124 129.500542,70.8824316 C132.758753,65.7913585 131.559381,58.0337633 125.543102,55.3188469 C124.319452,54.7671527 122.26223,54.5235684 119.371438,54.588094 C118.322595,54.610678 114.609561,54.6187437 108.232337,54.6122911 C108.143839,54.6122911 108.072097,54.6859584 108.072097,54.7768315 L108.072097,87.2251635 C108.072097,87.3855279 108.202537,87.5155289 108.363443,87.5155289 L111.582808,87.5155289 C111.649775,87.5155289 111.713999,87.4895257 111.761352,87.4432397 C111.808705,87.3969538 111.835307,87.3341765 111.835307,87.2687183 L111.835307,74.9862624 C111.835307,74.8339163 111.959225,74.7104153 112.112085,74.7104153 L119.424851,74.7104153 C119.57605,74.7096828 119.703725,74.8244124 119.721052,74.9765836 C120.366868,81.3162279 123.63479,88.5511654 131.049527,87.9559164 C132.486831,87.8397702 133.893381,87.2283898 135.269178,86.121775 C135.346731,86.0621037 135.367551,85.954208 135.317735,85.870125 L133.948413,83.5036471 C133.936089,83.4822925 133.9148,83.4674754 133.889816,83.4628643 C133.864832,83.4582532 133.838489,83.464279 133.817307,83.47945" id="Path" stroke="#80A4BE"></path>
                    <path d="M197.398555,70.5001172 C201.299345,69.2773563 203.186614,66.6043816 203.060365,62.4811931 C202.900125,57.0900758 197.704468,54.6655248 192.911838,54.62197 C189.428644,54.5897072 185.513287,54.588094 181.165768,54.6171306 C181.082634,54.6171306 181.01524,54.6864644 181.01524,54.7719921 L181.01524,87.3461491 C181.01524,87.4298219 181.081854,87.4983958 181.165768,87.5010106 C188.125683,87.5687625 192.648009,87.5590837 194.732746,87.4719741 C199.904124,87.2493606 204.614206,84.6989846 204.716177,79.1965605 C204.798725,74.603948 201.817292,71.5744691 197.413122,70.7856432 C197.346969,70.7743744 197.29831,70.7194387 197.294877,70.652145 C197.291444,70.5848513 197.334108,70.5222905 197.398555,70.5001172" id="Path" stroke="#80A4BE"></path>
                    <path d="M260.343699,87.5445654 C261.217735,87.5445654 261.755105,87.5300471 261.95581,87.5010106 C262.111441,87.4748515 262.224759,87.3413807 262.222876,87.1864481 L262.281145,58.0482815 C262.281145,57.9012809 262.400715,57.7821133 262.548212,57.7821133 L273.454236,57.7821133 C273.623187,57.7821133 273.760149,57.6456122 273.760149,57.4772296 L273.760149,54.9220142 C273.760149,54.7482861 273.618839,54.6074517 273.444525,54.6074517 C269.161749,54.610678 264.809375,54.6090649 260.387401,54.6026123 C255.96219,54.5961597 251.608197,54.5864809 247.325422,54.5735757 C247.151107,54.5735757 247.009798,54.7144102 247.009798,54.8881383 L247.004942,57.4433537 C247.004942,57.6117362 247.141904,57.7482373 247.310854,57.7482373 L258.216879,57.7772739 C258.362476,57.7799126 258.479114,57.8983108 258.47909,58.0434421 L258.464522,87.1816087 C258.462655,87.3365317 258.57597,87.4699985 258.731589,87.4961712 C258.932293,87.528434 259.469663,87.5445654 260.343699,87.5445654" id="Path" stroke="#80A4BE"></path>
                    <path d="M284.335982,54.8784594 C284.335982,54.7261132 284.212064,54.6026123 284.059204,54.6026123 L280.81556,54.6026123 C280.662699,54.6026123 280.538782,54.7261132 280.538782,54.8784594 L280.538782,87.2638789 C280.538782,87.416225 280.662699,87.539726 280.81556,87.539726 L284.059204,87.539726 C284.212064,87.539726 284.335982,87.416225 284.335982,87.2638789 L284.335982,54.8784594" id="Path" stroke="#80A4BE"></path>
                    <path d="M169.566731,14.9096563 C166.927987,14.918887 164.401268,16.0555069 162.542424,18.0695279 C160.683581,20.0835488 159.64488,22.8099921 159.654754,25.6490697 C159.664762,28.4881489 160.722531,31.2073025 162.595435,33.2083454 C164.468339,35.2093884 167.002958,36.328405 169.641703,36.3192794 C172.280447,36.3100486 174.807166,35.1734288 176.66601,33.1594078 C178.524854,31.1453869 179.563554,28.4189436 179.55368,25.579866 C179.543672,22.7407868 178.485903,20.0216332 176.612999,18.0205903 C174.740095,16.0195473 172.205476,14.9005307 169.566731,14.9096563" id="Path" stroke="#96A2C3"></path>
                    <path d="M120.44456,15.9501399 L120.454271,23.4802823 C120.454271,23.6459921 120.589059,23.7803265 120.755328,23.7803265 L126.460839,23.7706476 C127.508699,23.7694135 128.513058,23.34486 129.252632,22.590526 C129.992206,21.836192 130.406312,20.813973 130.403724,19.749087 L130.403724,19.6426197 C130.39831,17.4288784 128.629474,15.6378378 126.451128,15.640414 L120.745616,15.6500957 C120.579347,15.6500957 120.44456,15.78443 120.44456,15.9501399" id="Path" stroke="#96A2C3"></path>
                    <path d="M155.695054,57.5114443 C148.37136,57.4604864 142.391877,63.4792253 142.339496,70.9546842 C142.287124,78.4301459 148.181692,84.5315231 155.505389,84.5824997 C162.829083,84.6334576 168.808565,78.6147188 168.860947,71.1392598 C168.913319,63.6637982 163.018751,57.562421 155.695054,57.5114443" id="Path" stroke="#80A4BE"></path>
                    <path d="M227.749011,57.5019591 C224.233375,57.4713741 220.84924,58.8680876 218.34108,61.3848377 C215.832921,63.9015878 214.406192,67.3322148 214.374758,70.9220181 C214.30932,78.397377 220.191038,84.508959 227.511953,84.5726273 C231.027589,84.6032123 234.411724,83.2064988 236.919884,80.6897487 C239.428043,78.1729986 240.854772,74.7423715 240.886206,71.1525682 C240.951644,63.6772094 235.069925,57.5656273 227.749011,57.5019591" id="Path" stroke="#80A4BE"></path>
                    <path d="M111.845019,58.0144056 L111.845019,71.332498 C111.845019,71.4741532 111.96024,71.5889874 112.102374,71.5889874 L120.944702,71.5889874 C122.65236,71.5889874 124.290076,70.9134145 125.497572,69.7108871 C126.705068,68.5083596 127.383433,66.8773824 127.383433,65.1767518 L127.383433,64.1701518 C127.383433,62.4695212 126.705068,60.8385439 125.497572,59.6360165 C124.290076,58.433489 122.65236,57.7579162 120.944702,57.7579162 L112.102374,57.7579162 C111.96024,57.7579162 111.845019,57.8727504 111.845019,58.0144056" id="Path" stroke="#80A4BE"></path>
                    <path d="M184.783305,57.8256681 L184.802728,69.2660643 C184.802728,69.3355555 184.859252,69.3918893 184.928978,69.3918893 L192.183475,69.3773711 C194.056465,69.3741093 195.851679,68.7884084 197.173996,67.7491789 C198.496314,66.7099493 199.237359,65.3023656 199.234041,63.8362316 L199.234041,63.1974277 C199.227115,60.1460223 196.062231,57.6785232 192.164052,57.6853108 L184.909555,57.6998431 C184.839829,57.6998431 184.783305,57.7561769 184.783305,57.8256681" id="Path" stroke="#80A4BE"></path>
                    <path d="M184.807584,72.7068942 L184.788161,84.3118308 C184.788161,84.370631 184.835989,84.4182981 184.894988,84.4182981 L193.528519,84.4328304 C197.593079,84.4397465 200.892797,81.8768759 200.899564,78.7077788 L200.899564,78.3690192 C200.902806,76.8464516 200.130009,75.3847425 198.751241,74.3055867 C197.372472,73.2264309 195.500727,72.6182686 193.547942,72.6149451 L184.914411,72.6004268 C184.855412,72.6004268 184.807584,72.6480939 184.807584,72.7068942" id="Path" stroke="#80A4BE"></path>
                </g>
                <path d="M365.354839,0.182795699 L365.354839,102.182796 L-0.64516129,102.182796 L-0.64516129,0.182795699 L365.354839,0.182795699 Z M48.8936435,5.49165284 C48.1191946,5.76365284 47.4484376,6.06317665 46.8813726,6.39022427 C34.2892876,13.7309862 21.6826209,21.0442243 9.06137257,28.3299386 C8.81186394,28.4724147 8.73085465,28.7152719 8.81834469,29.05851 C8.81834469,44.2030814 8.82644562,59.3460338 8.84264747,74.4873671 C8.84264747,74.7043195 9.00304588,74.8840338 9.32384269,75.02651 C9.57011095,75.3308909 9.89576832,75.5980338 10.3008148,75.8279386 C22.8993805,82.9744147 35.4801242,90.1338433 48.0430459,97.3062243 C48.8466581,97.6332719 49.3537763,97.6818433 49.5644005,97.4519386 C49.7458613,97.4260338 49.8949184,97.3790814 50.0115718,97.3110814 C62.8531654,89.9800338 75.6882783,82.6392719 88.5169104,75.2887957 C89.0612929,74.9747005 89.2249317,74.7771767 89.0078268,74.6962243 L89.1098985,30.0736528 C89.0029662,29.7271767 88.9916249,29.3078433 89.0758746,28.8156528 C89.1050379,28.6407957 89.0872159,28.4999386 89.0224084,28.3930814 C88.9154762,28.2214624 88.7907218,28.1518433 88.6481455,28.1842243 C75.4695532,20.5228909 62.3428068,12.9473671 49.2679064,5.45765284 C49.0119171,5.31193856 48.8871627,5.32327189 48.8936435,5.49165284 Z M156.049319,31.1470814 C156.093245,44.05251 165.872687,52.5379386 178.539301,52.4943924 C191.205914,52.4456528 200.922169,43.8873671 200.873745,30.9819386 C200.824958,18.0716528 191.045516,9.59108141 178.383763,9.6346275 C165.717149,9.68336713 156.000894,18.2367957 156.049319,31.1470814 Z M129.457389,39.1467957 C132.632953,39.2018433 135.471519,39.19051 137.973086,39.1127957 C147.582408,38.8116528 153.147747,31.3656528 151.524321,22.1370814 C150.173086,14.4482243 144.320974,10.29051 136.78711,10.2710814 C129.985569,10.2516528 123.37035,10.2467957 116.941452,10.25651 C116.841348,10.2591434 116.761612,10.3410125 116.761612,10.4410814 L116.761612,51.4742243 C116.761612,51.6405409 116.896533,51.7753671 117.062966,51.7753671 L129.039381,51.7753671 C129.15481,51.7753671 129.248385,51.6818586 129.248385,51.56651 L129.248385,39.3556528 C129.248385,39.2403042 129.341959,39.1467957 129.457389,39.1467957 L129.457389,39.1467957 Z M220.00958,10.2516528 L207.872767,10.2516528 C207.765391,10.2516528 207.678345,10.3386375 207.678345,10.4459386 L207.678345,51.5519386 C207.678345,51.6806998 207.7828,51.7850814 207.911651,51.7850814 L238.542887,51.7850814 C238.717373,51.7850814 238.858823,51.6459059 238.858823,51.4742243 L238.858823,41.3567957 C238.858823,41.2146218 238.743487,41.0993671 238.601213,41.0993671 C233.999885,41.0928909 228.536618,41.1139386 222.211412,41.16251 C221.226339,41.1689862 220.628491,41.1009862 220.417867,40.95851 C220.296073,40.8760492 220.223215,40.7377171 220.223444,40.5893671 L220.228305,10.4653671 C220.228305,10.347336 220.130378,10.2516528 220.00958,10.2516528 Z M257.494201,10.2807957 L245.36711,10.2759386 C245.261636,10.2785744 245.177515,10.3647918 245.177548,10.4702243 L245.162966,51.53251 C245.162966,51.659398 245.264463,51.7630093 245.391412,51.7656528 L275.988624,51.7753671 C276.16311,51.7753671 276.30456,51.6361916 276.30456,51.46451 L276.30942,41.3567957 C276.30942,41.2146218 276.194085,41.0993671 276.051811,41.0993671 C271.456964,41.0928909 266.000177,41.1123195 259.681452,41.1576528 C258.696379,41.164129 258.098531,41.096129 257.887906,40.9536528 C257.766113,40.871192 257.693255,40.73286 257.693484,40.58451 L257.712926,10.49451 C257.712926,10.4378294 257.689882,10.3834704 257.648863,10.3433912 C257.607844,10.303312 257.552211,10.2807957 257.494201,10.2807957 Z M282.618424,31.0499386 C282.611944,44.4686052 282.615184,51.3139386 282.628145,51.5859386 C282.633369,51.7189394 282.742837,51.8240409 282.876034,51.8239386 L312.690695,51.8336528 C312.734525,51.8336528 312.776559,51.8162539 312.807551,51.7852836 C312.838543,51.7543133 312.855954,51.7123086 312.855954,51.66851 L312.855954,41.26451 C312.855954,41.1572089 312.768908,41.0702243 312.661532,41.0702243 L295.367667,41.0702243 C295.295478,41.0702243 295.226245,41.0420789 295.175199,40.9919799 C295.124153,40.9418809 295.095476,40.8739321 295.095476,40.8030814 L295.095476,36.2130814 C295.095476,36.0145745 295.256511,35.8536528 295.455157,35.8536528 L310.187508,35.8536528 C310.378903,35.8536713 310.53481,35.7000381 310.537468,35.5087957 C310.540709,34.77051 310.542329,33.2890814 310.542329,31.06451 C310.542329,28.8399386 310.542329,27.35851 310.542329,26.6202243 C310.53967,26.4289819 310.383764,26.2753487 310.192369,26.2753671 L295.460018,26.2607957 C295.261372,26.2607957 295.100337,26.099874 295.100337,25.9013671 L295.105197,21.3113671 C295.105193,21.2405135 295.133868,21.1725621 295.184914,21.1224627 C295.23596,21.0723632 295.305196,21.0442198 295.377389,21.0442243 L312.671253,21.0587957 C312.77863,21.0587957 312.865675,20.971811 312.865675,20.86451 L312.875396,10.46051 C312.875396,10.3693041 312.801408,10.2953671 312.710138,10.2953671 L282.895476,10.2759386 C282.764166,10.2784119 282.657575,10.3827974 282.652448,10.5139386 C282.636246,10.7859386 282.624905,17.6312719 282.618424,31.0499386 Z M356.498902,10.4313671 C356.498902,10.3888567 356.482003,10.3480874 356.451923,10.318028 C356.421842,10.2879686 356.381044,10.2710814 356.338504,10.2710814 L344.119062,10.2710814 C344.076522,10.2710814 344.035724,10.2879686 344.005643,10.318028 C343.975562,10.3480874 343.958663,10.3888567 343.958663,10.4313671 L343.958663,29.1702243 C343.958719,29.2401537 343.913402,29.3020483 343.846688,29.3231594 C343.779974,29.3442705 343.707265,29.319725 343.66703,29.26251 L330.407428,10.3293671 C330.377366,10.2867066 330.328406,10.2613671 330.276193,10.2613671 L320.676592,10.2613671 C320.588006,10.2613671 320.516193,10.3331295 320.516193,10.4216528 L320.516193,51.6490814 C320.516193,51.6915918 320.533092,51.7323611 320.563173,51.7624205 C320.593253,51.7924799 320.634051,51.8093671 320.676592,51.8093671 L332.86201,51.8093671 C332.90455,51.8093671 332.945348,51.7924799 332.975429,51.7624205 C333.005509,51.7323611 333.022408,51.6915918 333.022408,51.6490814 L333.022408,32.76451 C333.022353,32.6945805 333.06767,32.632686 333.134384,32.6115749 C333.201097,32.5904637 333.273807,32.6150092 333.314042,32.6722243 L346.656273,51.7219386 C346.686335,51.7645991 346.735295,51.7899678 346.787508,51.7899386 L356.338504,51.7899386 C356.42709,51.7899386 356.498902,51.7181762 356.498902,51.6296528 L356.498902,10.4313671 Z M181.518823,76.6633671 C181.518823,67.236971 173.871846,59.5953671 164.438823,59.5953671 C155.005799,59.5953671 147.358823,67.236971 147.358823,76.6633671 C147.358823,81.1900822 149.158318,85.5313948 152.361439,88.7322657 C155.56456,91.9331366 159.908925,93.7313671 164.438823,93.7313671 C168.96872,93.7313671 173.313085,91.9331366 176.516207,88.7322657 C179.719328,85.5313948 181.518823,81.1900822 181.518823,76.6633671 L181.518823,76.6633671 Z M253.620337,76.65851 C253.620337,67.2321139 245.97336,59.59051 236.540337,59.59051 C227.107313,59.59051 219.460337,67.2321139 219.460337,76.65851 C219.460337,86.0849061 227.107313,93.72651 236.540337,93.72651 C241.070234,93.72651 245.414599,91.9282794 248.617721,88.7274085 C251.820842,85.5265376 253.620337,81.185225 253.620337,76.65851 Z M301.569734,76.6682243 C301.569734,83.2496528 304.952687,89.17051 310.931173,91.89051 C316.948544,94.6299386 324.628225,94.4016528 330.018584,90.32651 C330.201619,90.1874807 330.253663,89.9357649 330.140098,89.7387957 L328.895795,87.5870814 C328.8526,87.5127709 328.780549,87.4596446 328.696754,87.4403208 C328.612958,87.420997 328.524897,87.4372001 328.453484,87.4850814 C319.169819,93.72651 305.453325,89.20451 305.448464,76.6682243 C305.443604,64.1319386 319.155237,59.5953671 328.443763,65.8319386 C328.515175,65.8798199 328.603237,65.8960229 328.687033,65.8766992 C328.770828,65.8573754 328.842879,65.8042491 328.886074,65.7299386 L330.130377,63.5782243 C330.243942,63.3812551 330.191898,63.1295393 330.008863,62.99051 C324.613643,58.9202243 316.933962,58.6967957 310.916592,61.4410814 C304.942966,64.1659386 301.564879,70.0916528 301.569734,76.6682243 Z M353.674918,68.0419386 L356.542647,67.2307957 C356.629855,67.2059715 356.703538,67.1473883 356.747341,67.06805 C356.791145,66.9887117 356.801445,66.8951827 356.775954,66.8082243 C355.505728,62.5792719 352.647721,60.2235576 348.20193,59.7410814 C343.642727,59.2456528 338.019062,61.1156528 336.585197,65.7542243 C335.30525,69.8989862 336.479885,73.1678433 340.109102,75.5607957 C342.029022,76.82851 344.765516,77.4550814 349.494839,79.0967957 C352.542408,80.1507957 355.502488,83.3127957 353.650616,86.7467957 C351.988305,89.81651 348.041532,90.6179386 344.848145,90.1030814 C341.672581,89.5882243 339.48371,87.9902243 338.281532,85.3090814 C338.189073,85.1058077 337.961863,85.0005387 337.746871,85.0613671 L334.898584,85.8676528 C334.815393,85.8918626 334.746077,85.9496476 334.707328,86.0270919 C334.668578,86.1045363 334.663907,86.1946215 334.69444,86.2756528 C337.586472,93.9159386 347.570058,95.5867957 353.995715,91.68651 C357.689739,89.4473671 359.235396,84.3959386 356.989819,80.6267957 C354.569261,76.5662243 350.170456,75.5267957 344.848145,73.73451 C342.374122,72.8990814 339.914679,71.3933671 339.968145,68.43051 C340.045914,64.0056528 344.925914,62.48051 348.610217,63.3159386 C351.105304,63.8793671 352.655821,65.3753671 353.261771,67.8039386 C353.283341,67.8912567 353.339612,67.9660084 353.417586,68.0109266 C353.495561,68.0558449 353.588494,68.0670445 353.674918,68.0419386 L353.674918,68.0419386 Z M142.639221,89.1413671 C136.262169,93.7459386 132.563285,85.2507957 132.145277,80.46651 C132.134701,80.3192824 132.234185,80.1867311 132.378584,80.1556528 C135.162063,79.5630814 137.14193,78.3439386 138.318185,76.4982243 C141.57962,71.38851 140.379062,63.60251 134.356831,60.8776528 C133.13197,60.3239386 131.072714,60.0794624 128.179062,60.1442243 C127.129181,60.1668909 123.412475,60.1749862 117.028942,60.16851 C116.940357,60.16851 116.868544,60.242447 116.868544,60.3336528 L116.868544,92.9007957 C116.868544,93.0617473 116.999113,93.1922243 117.160177,93.1922243 L120.382727,93.1922243 C120.44976,93.1922243 120.514048,93.1661259 120.561448,93.1196704 C120.608847,93.073215 120.635476,93.0102079 120.635476,92.94451 L120.635476,80.6170814 C120.635476,80.4641774 120.759516,80.3402243 120.912528,80.3402243 L128.232528,80.3402243 C128.383876,80.339489 128.511678,80.4546388 128.529022,80.6073671 C129.175476,86.9702243 132.446632,94.2316528 139.868703,93.6342243 C141.307428,93.5176528 142.71537,92.9040338 144.092528,91.7933671 C144.170158,91.7334773 144.190998,91.6251865 144.141134,91.5407957 L142.770456,89.1656528 C142.758121,89.14422 142.736811,89.1293487 142.711802,89.1247207 C142.686793,89.1200927 142.660423,89.1261406 142.639221,89.1413671 L142.639221,89.1413671 Z M206.283365,76.11451 C210.188013,74.8872719 212.077149,72.20451 211.950775,68.0662243 C211.790377,62.6553671 206.58958,60.2219386 201.792209,60.1782243 C198.305569,60.1458433 194.386339,60.1442243 190.03452,60.1733671 C189.951303,60.1733671 189.883843,60.2429549 189.883843,60.3287957 L189.883843,93.0222243 C189.883843,93.1062035 189.950523,93.1750285 190.03452,93.1776528 C197.001319,93.2456528 201.528119,93.2359386 203.614918,93.14851 C208.791412,92.9250814 213.506153,90.3653671 213.608225,84.8427957 C213.690855,80.2333671 210.706472,77.1927957 206.297946,76.4010814 C206.231728,76.3897714 206.18302,76.3346345 206.179584,76.2670944 C206.176147,76.1995543 206.218854,76.1367644 206.283365,76.11451 L206.283365,76.11451 Z M269.290775,93.2213671 C270.165675,93.2213671 270.703577,93.2067957 270.90448,93.1776528 C271.060265,93.151398 271.173695,93.0174384 271.171811,92.8619386 L271.230138,63.6170814 C271.230138,63.4695425 271.349826,63.3499386 271.497468,63.3499386 L282.414281,63.3499386 C282.583399,63.3499386 282.720496,63.2129377 282.720496,63.0439386 L282.720496,60.4793671 C282.720496,60.3050029 282.579047,60.1636528 282.40456,60.1636528 C278.117548,60.1668909 273.760868,60.1652719 269.33452,60.1587957 C264.904932,60.1523195 260.546632,60.1426052 256.25962,60.1296528 C256.085133,60.1296528 255.943683,60.2710029 255.943683,60.4453671 L255.938823,63.0099386 C255.938823,63.1789377 256.07592,63.3159386 256.245038,63.3159386 L267.161851,63.3450814 C267.307592,63.3477298 267.424345,63.4665615 267.424321,63.6122243 L267.409739,92.8570814 C267.40787,93.0125717 267.521297,93.1465272 267.67707,93.1727957 C267.877973,93.2051767 268.415875,93.2213671 269.290775,93.2213671 Z M293.306791,60.4356528 C293.306791,60.2827489 293.182751,60.1587957 293.029739,60.1587957 L289.782887,60.1587957 C289.629875,60.1587957 289.505835,60.2827489 289.505835,60.4356528 L289.505835,92.9396528 C289.505835,93.0925568 289.629875,93.21651 289.782887,93.21651 L293.029739,93.21651 C293.182751,93.21651 293.306791,93.0925568 293.306791,92.9396528 L293.306791,60.4356528 Z" id="Shape" fill="#FEFEFE" fill-rule="nonzero"></path>
                <path d="M89.3548387,28.1222272 C88.2887001,28.2621451 86.7025337,28.1596471 84.5963395,27.8147331 C78.7733319,26.8645926 67.2397992,25.2034738 49.9957415,22.8313765 C49.7838179,22.9680405 49.6126489,22.9468901 49.4822344,22.7679253 C49.4471607,22.7204119 49.4283019,22.6622366 49.4284384,22.6019761 L49.3548387,5.31885592 C49.3485595,5.14965282 49.4740835,5.13826415 49.7316521,5.28468991 C62.8872152,12.8109738 76.094944,20.4234863 89.3548387,28.1222272 Z" id="Path" fill="#2E4687" fill-rule="nonzero"></path>
                <path d="M49.714138,5.1827957 L49.7875007,21.84803 C49.7873642,21.9061361 49.8062241,21.9622316 49.8413,22.0080464 C49.9717225,22.180613 50.1429021,22.2010073 50.3548387,22.0692291 C50.2537612,22.2261079 50.1967014,22.3767115 50.1836591,22.52104 C49.9912859,22.4363255 49.8070641,22.4018121 49.6309937,22.4175 C49.3994937,22.1759067 48.978881,22.0974673 48.3691557,22.1821818 C28.8677267,24.9118728 18.7306355,26.3065253 17.957882,26.3661393 C15.8303644,26.530862 13.1208363,27.2462293 10.5335794,27.3827138 C10.1129667,27.4046769 9.78528009,27.5458678 9.55051953,27.8062866 C9.52769559,27.8313872 9.55051953,27.9568902 9.61899136,28.1827957 C9.56356179,28.1043563 9.48693855,28.0494487 9.38912165,28.018073 C9.30108644,27.6854899 9.38260052,27.4501717 9.6336639,27.3121184 C22.3335579,20.2525727 35.0187793,13.1663575 47.6893282,6.05347301 C48.2599268,5.73657784 48.9348634,5.44635207 49.714138,5.1827957 Z" id="Path" fill="#3EDE9A" fill-rule="nonzero"></path>
                <path d="M178.776766,9.18296316 C191.488011,9.13927493 201.30568,17.6475281 201.354658,30.5999548 C201.403271,43.5475085 191.649037,52.1337297 178.932912,52.1826283 C166.216786,52.2263167 156.399118,43.7131905 156.35502,30.7656367 C156.306406,17.81321 166.060641,9.23186188 178.776766,9.18296316 Z M178.817169,19.9037181 C176.16549,19.913013 173.626385,21.0575183 171.758429,23.0855118 C169.890474,25.1135052 168.846682,27.8588636 168.856604,30.7176377 C168.866661,33.5764134 169.929615,36.3144315 171.8117,38.3293569 C173.693785,40.3442824 176.240829,41.4710623 178.892509,41.4618734 C181.544188,41.4525786 184.083292,40.3080733 185.951248,38.2800798 C187.819203,36.2520863 188.862996,33.5067279 188.853073,30.6479539 C188.843016,27.7891782 187.780062,25.0511601 185.897977,23.0362347 C184.015892,21.0213092 181.468849,19.8945293 178.817169,19.9037181 L178.817169,19.9037181 Z" id="Shape" fill="#2E4687" fill-rule="nonzero"></path>
                <path d="M130.035263,39.4093719 C129.919973,39.4093719 129.826512,39.503953 129.826512,39.6206247 L129.826512,51.9715429 C129.826512,52.0882146 129.733051,52.1827957 129.617761,52.1827957 L117.655829,52.1827957 C117.489597,52.1827957 117.354839,52.046423 117.354839,51.8781987 L117.354839,10.3743971 C117.354839,10.2731804 117.434478,10.1903721 117.534462,10.1877086 C123.955586,10.1778828 130.562805,10.1827957 137.356121,10.2024471 C144.880875,10.2220985 150.72591,14.4275027 152.075511,22.2045526 C153.696975,31.5389777 148.138366,39.0703849 138.540663,39.3749819 C136.042121,39.4535876 133.206988,39.4650509 130.035263,39.4093719 Z M129.831367,21.4234086 L129.841076,29.0678115 C129.841076,29.2360358 129.975834,29.3724085 130.142066,29.3724085 L135.846316,29.3625828 C136.893944,29.3613299 137.89808,28.9303344 138.637491,28.1645543 C139.376901,27.3987742 139.790915,26.3610443 139.788328,25.2800001 L139.788328,25.1719172 C139.782915,22.9245851 138.014471,21.1063678 135.836606,21.1089831 L130.132357,21.1188116 C129.966125,21.1188116 129.831367,21.2551843 129.831367,21.4234086 Z" id="Shape" fill="#2E4687" fill-rule="nonzero"></path>
                <path d="M220.614698,10.1827957 C220.734798,10.1827957 220.832157,10.2795537 220.832157,10.3989108 L220.827325,40.8613128 C220.827097,41.0113294 220.899533,41.1512153 221.020622,41.2346025 C221.230027,41.3786792 221.824415,41.4474431 222.803786,41.4408942 C229.092381,41.3917771 234.524026,41.370493 239.09872,41.377042 C239.240171,41.377042 239.354839,41.4935914 239.354839,41.6373624 L239.354839,51.8684465 C239.354839,52.0420568 239.214208,52.1827957 239.040731,52.1827957 L208.586795,52.1827957 C208.458689,52.1827957 208.354839,52.0772415 208.354839,51.9470338 L208.354839,10.3792639 C208.354839,10.2707575 208.441381,10.1827957 208.548136,10.1827957 L220.614698,10.1827957 Z" id="Path" fill="#2E4687" fill-rule="nonzero"></path>
                <path d="M257.628091,10.1877114 C257.685828,10.1877114 257.7412,10.2104993 257.782026,10.2510619 C257.822852,10.2916246 257.845788,10.3466393 257.845788,10.4040036 L257.826437,40.856953 C257.826209,41.0070924 257.898724,41.147093 258.019945,41.2305485 C258.229579,41.3747433 258.824616,41.4435635 259.805057,41.4370092 C266.094071,41.391129 271.525199,41.3714661 276.09844,41.3780204 C276.240045,41.3780204 276.354839,41.4946653 276.354839,41.6385541 L276.350001,51.868189 C276.350001,52.0419415 276.209217,52.1827957 276.03555,52.1827957 L245.582211,52.1729642 C245.455858,52.1702889 245.354839,52.0654277 245.354839,51.9370092 L245.369352,10.3794249 C245.369319,10.2727207 245.453045,10.1854633 245.558022,10.1827957 L257.628091,10.1877114 Z" id="Path" fill="#2E4687" fill-rule="nonzero"></path>
                <path d="M311.041833,31.1926134 C311.041833,33.4408602 311.040227,34.9380552 311.037015,35.6841982 C311.034379,35.8774759 310.879813,36.0327442 310.690064,36.0327256 L296.084399,36.0327256 C295.887461,36.0327256 295.727811,36.1953599 295.727811,36.3959794 L295.727811,41.0348294 C295.727811,41.1064341 295.756241,41.1751061 295.806848,41.2257383 C295.857455,41.2763705 295.926093,41.3048153 295.997661,41.3048153 L313.142813,41.3048153 C313.249266,41.3048153 313.335564,41.3927258 313.335564,41.5011688 L313.335564,52.0158953 C313.335564,52.06016 313.318302,52.1026118 313.287577,52.1339117 C313.256851,52.1652116 313.215178,52.1827957 313.171726,52.1827957 L283.613446,52.172978 C283.481394,52.1730815 283.372867,52.0668614 283.367689,51.9324451 C283.354839,51.6575503 283.351626,44.7393642 283.358051,31.1778869 C283.364476,17.6164095 283.37572,10.6982235 283.391783,10.4233287 C283.396865,10.2907918 283.50254,10.1852953 283.632721,10.1827957 L313.191001,10.202431 C313.281486,10.202431 313.354839,10.2771549 313.354839,10.3693315 L313.345201,20.884058 C313.345201,20.992501 313.258904,21.0804114 313.152451,21.0804114 L296.007299,21.0656849 C295.935727,21.0656804 295.867087,21.0941233 295.81648,21.144756 C295.765872,21.1953886 295.737444,21.2640632 295.737448,21.3356709 L295.73263,25.9745208 C295.73263,26.1751404 295.89228,26.3377747 296.089218,26.3377747 L310.694883,26.3525012 C310.884632,26.3524825 311.039198,26.5077508 311.041833,26.7010285 C311.041833,27.4471716 311.041833,28.9443665 311.041833,31.1926134 Z" id="Path" fill="#2E4687" fill-rule="nonzero"></path>
                <path d="M356.354839,10.3546452 L356.354839,52.0011263 C356.354839,52.0906127 356.282991,52.1631558 356.194363,52.1631558 L346.638778,52.1631558 C346.586539,52.1631854 346.537556,52.1375406 346.50748,52.094416 L333.158837,32.8374602 C333.118583,32.7796227 333.045838,32.7548102 332.979093,32.776151 C332.912347,32.7974918 332.867008,32.8600597 332.867063,32.9307499 L332.867063,52.0207662 C332.867063,52.0637391 332.850156,52.104952 332.820061,52.1353384 C332.789966,52.1657248 332.749149,52.1827957 332.706588,52.1827957 L320.515314,52.1827957 C320.472753,52.1827957 320.431936,52.1657248 320.401841,52.1353384 C320.371746,52.104952 320.354839,52.0637391 320.354839,52.0207662 L320.354839,10.3448252 C320.354839,10.2553388 320.426686,10.1827957 320.515314,10.1827957 L330.119529,10.1827957 C330.171767,10.1827957 330.22075,10.2084109 330.250827,10.2515355 L343.5168,29.3906517 C343.557054,29.4484892 343.629799,29.4733017 343.696544,29.4519609 C343.76329,29.4306201 343.80863,29.3680522 343.808574,29.297362 L343.808574,10.3546452 C343.808574,10.3116723 343.825481,10.2704594 343.855576,10.240073 C343.885671,10.2096866 343.926488,10.1926157 343.969049,10.1926157 L356.194363,10.1926157 C356.236924,10.1926157 356.277742,10.2096866 356.307837,10.240073 C356.337932,10.2704594 356.354839,10.3116723 356.354839,10.3546452 Z" id="Path" fill="#2E4687" fill-rule="nonzero"></path>
                <ellipse id="Oval" fill="#FEFEFE" fill-rule="nonzero" transform="translate(178.864643, 31.077573) rotate(-90.200000) translate(-178.864643, -31.077573) " cx="178.864643" cy="31.077573" rx="10.7370238" ry="9.94582359"></ellipse>
                <path d="M129.354839,21.4871979 C129.354839,21.3243363 129.490179,21.1923109 129.65713,21.1923109 L135.386036,21.1827957 C137.573314,21.1802638 139.349402,22.9405191 139.354839,25.1162097 L139.354839,25.220847 C139.357437,26.2674292 138.941634,27.2720779 138.199027,28.013446 C137.45642,28.7548142 136.447943,29.1720703 135.395787,29.1732832 L129.666881,29.1827957 C129.49993,29.1827957 129.36459,29.0507703 129.36459,28.8879088 L129.354839,21.4871979 Z" id="Path" fill="#FEFEFE" fill-rule="nonzero"></path>
                <path d="M49.3548387,23.4589622 C49.1140929,23.5913706 48.9725734,23.6947137 48.9302802,23.7689916 C37.2053079,44.1243592 29.268829,57.8657664 25.1208435,64.9932131 C24.8443112,65.4711751 24.7304449,65.9087686 24.7792447,66.3059938 L24.7597248,67.1827957 C24.6588718,66.9825684 24.4620458,66.7742674 24.1692469,66.5578927 L9.43169844,29.3931186 C9.36337868,29.1605966 9.34060543,29.0314177 9.36337868,29.0055819 C9.59761786,28.7375357 9.92457672,28.5922094 10.3442552,28.5696031 C12.9257662,28.429121 15.6292767,27.6928012 17.7520693,27.5232538 C18.5231066,27.4618939 28.6376846,26.0263932 48.0958031,23.2167517 C48.7041743,23.129556 49.1238529,23.2102928 49.3548387,23.4589622 Z" id="Path" fill="#FEC361" fill-rule="nonzero"></path>
                <path d="M49.5260297,23.1827957 C66.7723002,25.5269348 78.3073128,27.1684753 84.1310676,28.1074171 C86.2375321,28.4482659 87.8239021,28.5495558 88.8901774,28.411287 C89.0336518,28.3791315 89.1591919,28.4482659 89.2667976,28.6186903 C89.3320132,28.7248036 89.3499475,28.8646802 89.3206005,29.0383201 C89.2358202,29.5270844 89.2472329,29.9434986 89.3548387,30.2875629 C88.8396353,30.5480228 88.5347523,30.7907972 88.4401897,31.015886 C85.2707106,38.771803 80.7398554,50.1194941 74.8476242,65.0589595 C74.8411058,65.0750251 74.8329214,65.0911669 74.8231684,65.1071928 L74.2019896,66.1827957 L73.8693899,65.9560991 C73.7878704,65.5605859 73.690047,65.2647549 73.5759197,65.0686061 C65.5576593,51.3317581 57.5557028,37.5868712 49.5700503,23.8339454 C49.5570071,23.8114366 49.5211385,23.7857121 49.4624445,23.7567721 C49.4233151,23.7374788 49.3874465,23.7004999 49.3548387,23.6458355 C49.3678818,23.49792 49.4249455,23.3435734 49.5260297,23.1827957 Z" id="Path" fill="#FE6171" fill-rule="nonzero"></path>
                <path d="M50.1905212,23.2933062 C50.2226631,23.3482835 50.2580193,23.385474 50.2965896,23.4048778 C50.3544451,23.4339834 50.3898013,23.4598551 50.4026581,23.4824928 C58.2742215,37.3141387 66.1618558,51.1376997 74.0655612,64.9531758 C74.178058,65.1504473 74.2744838,65.4479716 74.3548387,65.8457487 C74.2809122,66.0009787 74.1652012,66.0802108 74.0077057,66.0834447 C69.6781851,66.1513579 63.7672806,66.138422 56.2749922,66.0446372 C53.105796,66.0058297 48.9273426,66.0381693 43.739632,66.141656 C40.1558046,66.2095692 34.0311562,66.1933994 25.3656866,66.0931466 C25.3174737,65.6953696 25.4299705,65.257168 25.7031771,64.778542 C29.8012756,57.6411928 37.6423042,43.880694 49.2262627,23.4970456 C49.2680472,23.4226646 49.4078647,23.3191778 49.6457152,23.1865855 C49.8192817,23.1704157 50.0008837,23.2059893 50.1905212,23.2933062 Z" id="Path" fill="#3AB0D1" fill-rule="nonzero"></path>
                <path d="M9.58470503,29.352914 L24.3548387,66.6428549 C17.9251028,70.1456726 13.2560451,72.7395723 10.3476656,74.4245539 C10.1683372,74.5282451 10.0069417,74.7809924 9.86347907,75.1827957 C9.54068807,75.0402203 9.37929257,74.8603809 9.37929257,74.6432775 C9.36299,59.4914038 9.35483871,44.3379098 9.35483871,29.1827957 C9.45265416,29.2151992 9.52927627,29.2719053 9.58470503,29.352914 Z" id="Path" fill="#2E4687" fill-rule="nonzero"></path>
                <path d="M89.3548387,30.1827957 L89.2531602,75.1827957 L74.4807264,66.9733693 C74.4839543,66.8656084 74.4419917,66.7529492 74.3548387,66.6353918 L74.9697516,65.5430874 C74.9794062,65.5268127 74.987508,65.5104203 74.9939607,65.4941052 C80.8267561,50.3226673 85.3119078,38.7987748 88.4494159,30.9224278 C88.5430246,30.6938439 88.8448323,30.4472999 89.3548387,30.1827957 Z" id="Path" fill="#FEC361" fill-rule="nonzero"></path>
                <path d="M181.354839,77.1827957 C181.354839,86.5716364 173.743679,94.1827957 164.354839,94.1827957 C154.965998,94.1827957 147.354839,86.5716364 147.354839,77.1827957 C147.354839,72.6741154 149.145905,68.3500989 152.334023,65.1619804 C155.522142,61.973862 159.846158,60.1827957 164.354839,60.1827957 C173.743679,60.1827957 181.354839,67.793955 181.354839,77.1827957 L181.354839,77.1827957 Z M164.454159,63.651831 C157.157556,63.6008902 151.200194,69.6176001 151.148006,77.090539 C151.095828,84.5634806 156.96859,90.6628009 164.265194,90.7137604 C171.561797,90.7647012 177.519159,84.7479913 177.571347,77.2750524 C177.623525,69.8021108 171.750763,63.7027905 164.454159,63.651831 L164.454159,63.651831 Z" id="Shape" fill="#014A7E" fill-rule="nonzero"></path>
                <path d="M254.354839,77.1827957 C254.354839,86.5716364 246.743679,94.1827957 237.354839,94.1827957 C227.965998,94.1827957 220.354839,86.5716364 220.354839,77.1827957 C220.354839,67.793955 227.965998,60.1827957 237.354839,60.1827957 C241.863519,60.1827957 246.187536,61.973862 249.375654,65.1619804 C252.563772,68.3500989 254.354839,72.6741154 254.354839,77.1827957 Z M237.477767,63.6471867 C233.975136,63.616612 230.60352,65.0128547 228.104639,67.5287563 C225.605757,70.044658 224.184306,73.4741286 224.152989,77.0627217 C224.087793,84.5355605 229.947753,90.6450823 237.241586,90.7087291 C240.744217,90.7393038 244.115833,89.3430612 246.614714,86.8271595 C249.113596,84.3112578 250.535047,80.8817872 250.566364,77.2931941 C250.63156,69.8203553 244.7716,63.7108335 237.477767,63.6471867 L237.477767,63.6471867 Z" id="Shape" fill="#014A7E" fill-rule="nonzero"></path>
                <path d="M305.148185,77.1883716 C305.152939,89.6909838 318.567487,94.2008373 327.646788,87.9761737 C327.716628,87.928421 327.802751,87.9122615 327.884702,87.9315334 C327.966653,87.9508052 328.037118,88.0037889 328.079362,88.0778998 L329.296273,90.2238344 C329.407339,90.4202745 329.35644,90.6713142 329.177434,90.80997 C323.905736,94.8741667 316.39511,95.1018392 310.510202,92.369769 C304.663322,89.6570751 301.354839,83.7521219 301.354839,77.1883716 C301.35009,70.6294654 304.653815,64.719668 310.495941,62.0021301 C316.380849,59.2652157 323.891475,59.4880442 329.167927,63.5473968 C329.346933,63.6860526 329.397831,63.9370922 329.286766,64.1335324 L328.069855,66.279467 C328.027611,66.3535779 327.957146,66.4065615 327.875195,66.4258334 C327.793244,66.4451053 327.707121,66.4289458 327.637281,66.381193 C318.553226,60.1613735 305.143432,64.6857594 305.148185,77.1883716 Z" id="Path" fill="#014A7E" fill-rule="nonzero"></path>
                <path d="M353.655449,68.3101284 C353.058845,65.885403 351.532241,64.3917722 349.075637,63.829236 C345.448157,62.9951304 340.643422,64.517858 340.566853,68.9357075 C340.514211,71.8938724 342.935721,73.3972022 345.371588,74.2313077 C350.611812,76.020755 354.942773,77.0585374 357.325998,81.1126782 C359.536942,84.8758519 358.015124,89.9192806 354.378073,92.1548774 C348.05152,96.0489863 338.221913,94.3807753 335.374485,86.7525893 C335.344423,86.6716863 335.349022,86.5817438 335.387174,86.5044221 C335.425325,86.4271004 335.493573,86.3694069 335.57548,86.3452355 L338.379837,85.5402267 C338.591514,85.4794945 338.81522,85.5845968 338.906252,85.7875486 C340.089889,88.4644454 342.245001,90.0599147 345.371588,90.5739565 C348.515722,91.0879982 352.401623,90.2878389 354.038296,87.2229861 C355.861607,83.7944244 352.947181,80.637432 349.946614,79.5851012 C345.290233,77.9459869 342.595944,77.3204078 340.705635,76.0547011 C337.132393,73.6655384 335.975875,70.4018581 337.236081,66.2636602 C338.64783,61.6324348 344.184761,59.7653963 348.673647,60.2600403 C353.050869,60.7417524 355.864797,63.0937359 357.115432,67.315991 C357.14053,67.4028117 357.130389,67.4961926 357.087261,67.5754052 C357.044133,67.6546179 356.971586,67.7131084 356.885724,67.7378932 L354.062224,68.5477515 C353.977132,68.5728177 353.885633,68.5616358 353.808861,68.5167887 C353.732089,68.4719416 353.676686,68.3973083 353.655449,68.3101284 Z" id="Path" fill="#014A7E" fill-rule="nonzero"></path>
                <path d="M142.842687,89.5925649 C142.863656,89.5771272 142.889736,89.5709953 142.914471,89.5756876 C142.939205,89.5803798 142.960281,89.5954574 142.972481,89.6171876 L144.328116,92.0252838 C144.377433,92.1108455 144.356822,92.2206387 144.280043,92.2813594 C142.918,93.4074357 141.52551,94.0295683 140.102575,94.1477571 C132.761959,94.7534745 129.526704,87.3912991 128.887345,80.9401622 C128.870191,80.7853149 128.743792,80.6685675 128.594105,80.6693129 L121.354441,80.6693129 C121.203108,80.6693129 121.080429,80.7949859 121.080429,80.9500113 L121.080429,93.4484735 C121.080429,93.5150829 121.054093,93.5789642 121.007213,93.6260642 C120.960334,93.6731642 120.896752,93.6996246 120.830454,93.6996246 L117.643272,93.6996246 C117.483974,93.6996246 117.354839,93.5673374 117.354839,93.4041527 L117.354839,60.3851656 C117.354839,60.2926943 117.425863,60.2177315 117.513477,60.2177315 C123.826951,60.2242976 127.502867,60.21609 128.541225,60.1931089 C131.40312,60.1274484 133.439776,60.3753165 134.651194,60.9367132 C140.607332,63.6993756 141.794714,71.5934005 138.569073,76.7740081 C137.405728,78.6453303 135.447589,79.8813878 132.694658,80.4821807 C132.551844,80.5136902 132.453452,80.6480805 132.463912,80.7973508 C132.877332,85.6480148 136.535622,94.2610213 142.842687,89.5925649 Z M121.090044,63.6796775 L121.090044,77.2319896 C121.090044,77.376136 121.204114,77.4929898 121.344826,77.4929898 L130.098763,77.4929898 C131.789349,77.4929898 133.410694,76.8055359 134.60612,75.5818601 C135.801545,74.3581843 136.473128,72.6985238 136.473128,70.9679849 L136.473128,69.9436822 C136.473128,68.2131433 135.801545,66.5534828 134.60612,65.329807 C133.410694,64.1061312 131.789349,63.4186773 130.098763,63.4186773 L121.344826,63.4186773 C121.204114,63.4186773 121.090044,63.5355311 121.090044,63.6796775 Z" id="Shape" fill="#014A7E" fill-rule="nonzero"></path>
                <path d="M206.252508,76.1110428 C206.189972,76.1332504 206.148572,76.195908 206.151903,76.263306 C206.155235,76.3307039 206.202452,76.3857247 206.266644,76.3970109 C210.540262,77.1870585 213.433317,80.221229 213.353216,84.8209539 C213.254268,90.3318993 208.683806,92.8862249 203.665721,93.1091831 C201.642781,93.1964277 197.254509,93.2061215 190.500905,93.1382646 C190.419478,93.1356458 190.354839,93.0669657 190.354839,92.9831633 L190.354839,60.3585602 C190.354839,60.2729001 190.420235,60.2034589 190.500905,60.2034589 C194.719552,60.1743774 198.518847,60.175993 201.89879,60.2083058 C206.549353,60.2519281 211.590997,62.6802338 211.746487,68.0797001 C211.868994,72.209274 210.037668,74.8863882 206.252508,76.1110428 Z M194.011209,63.4169653 L194.030056,74.8750788 C194.030056,74.9446776 194.084904,75.0010986 194.152563,75.0010986 L201.192017,74.9865579 C203.009487,74.9832911 204.751486,74.3966832 206.034606,73.3558442 C207.317727,72.3150052 208.036805,70.9052417 208.033586,69.4368371 L208.033586,68.797044 C208.026864,65.740913 204.955796,63.2695925 201.17317,63.2763906 L194.133716,63.2909454 C194.066057,63.2909454 194.011209,63.3473665 194.011209,63.4169653 L194.011209,63.4169653 Z M194.034768,78.3212372 L194.01592,89.9441459 C194.01592,90.0030372 194.06233,90.0507781 194.11958,90.0507781 L202.49719,90.0653329 C206.441266,90.0722597 209.643171,87.5054201 209.649738,84.3314152 L209.649738,83.9921309 C209.652884,82.4672054 208.902995,81.0032326 207.565097,79.9224056 C206.227199,78.8415785 204.410937,78.2324745 202.516038,78.2291458 L194.138428,78.214605 C194.081178,78.214605 194.034768,78.2623459 194.034768,78.3212372 L194.034768,78.3212372 Z" id="Shape" fill="#014A7E" fill-rule="nonzero"></path>
                <path d="M269.359557,60.2118578 C273.656714,60.218316 277.886236,60.2199306 282.048124,60.2167015 C282.217518,60.2167015 282.354839,60.3576598 282.354839,60.5315407 L282.354839,63.0890044 C282.354839,63.2575352 282.221743,63.3941563 282.057561,63.3941563 L271.459376,63.3941563 C271.316042,63.3941563 271.199848,63.5134288 271.199848,63.6605588 L271.143223,92.8243633 C271.145053,92.9794322 271.034933,93.1130205 270.883695,93.1392026 C270.688656,93.1682647 270.166454,93.1827957 269.317089,93.1827957 C268.467724,93.1827957 267.945522,93.1666501 267.750483,93.1343589 C267.599257,93.1081632 267.489141,92.9745789 267.490955,92.8195196 L267.505111,63.6557151 C267.505134,63.5104561 267.391789,63.3919537 267.250302,63.3893127 L256.652116,63.3602506 C256.487934,63.3602506 256.354839,63.2236294 256.354839,63.0550986 L256.359557,60.497635 C256.359557,60.323754 256.496878,60.1827957 256.666272,60.1827957 C260.82816,60.1957122 265.059255,60.2053995 269.359557,60.2118578 Z" id="Path" fill="#014A7E" fill-rule="nonzero"></path>
                <rect id="Rectangle" fill="#014A7E" fill-rule="nonzero" x="289.354839" y="60.1827957" width="4" height="33" rx="0.57"></rect>
                <ellipse id="Oval" fill="#FEFEFE" fill-rule="nonzero" transform="translate(164.865738, 76.646822) rotate(-89.600000) translate(-164.865738, -76.646822) " cx="164.865738" cy="76.6468223" rx="13.5766074" ry="13.2562441"></ellipse>
                <ellipse id="Oval" fill="#FEFEFE" fill-rule="nonzero" transform="translate(236.869812, 76.637114) rotate(-89.500000) translate(-236.869812, -76.637114) " cx="236.869812" cy="76.6371143" rx="13.5766074" ry="13.2513901"></ellipse>
                <path d="M121.354839,63.4424178 C121.354839,63.2990325 121.473483,63.1827957 121.619839,63.1827957 L130.724839,63.1827957 C132.483224,63.1827957 134.16959,63.8666198 135.412957,65.0838346 C136.656323,66.3010494 137.354839,67.9519469 137.354839,69.6733485 L137.354839,70.6922429 C137.354839,72.4136445 136.656323,74.064542 135.412957,75.2817568 C134.16959,76.4989716 132.483224,77.1827957 130.724839,77.1827957 L121.619839,77.1827957 C121.473483,77.1827957 121.354839,77.0665589 121.354839,76.9231736 L121.354839,63.4424178 Z" id="Path" fill="#FEFEFE" fill-rule="nonzero"></path>
                <path d="M194.354839,63.3146814 C194.354839,63.2493845 194.4096,63.1964509 194.47715,63.1964509 L201.505371,63.1827957 C205.281961,63.1764178 208.348128,65.4949851 208.354839,68.3622157 L208.354839,68.962463 C208.358053,70.340105 207.640122,71.6627306 206.359049,72.639235 C205.077976,73.6157394 203.338757,74.1660889 201.524188,74.1691537 L194.495968,74.1827957 C194.428417,74.1827957 194.373656,74.1298621 194.373656,74.0645652 L194.354839,63.3146814 Z" id="Path" fill="#FEFEFE" fill-rule="nonzero"></path>
                <path d="M73.8965319,66.1827957 L74.2279471,66.4067322 C74.3156746,66.5210828 74.3579138,66.6306687 74.3548387,66.7354901 L49.7470887,96.7001022 C49.7310322,96.7220873 49.7209749,96.7466673 49.7178462,96.7715714 L49.6739825,97.0431539 C49.4627865,97.2686787 48.9542917,97.2210326 48.148498,96.9002157 C48.284963,96.6873966 48.3109564,96.5285764 48.226478,96.4237551 C47.0470299,94.9244921 44.5857849,91.8894376 40.8427431,87.3185915 C35.3646454,80.6259071 29.8686773,73.9491048 24.3548387,67.2881845 L24.3743337,66.4257906 C33.1340914,66.5242592 39.3253815,66.5401412 42.9482041,66.4734367 C48.1923617,66.3717918 52.4162805,66.3400277 55.6199604,66.3781446 C63.1937716,66.4702603 69.1689921,66.4829659 73.5456217,66.4162614 C73.704831,66.413085 73.8218011,66.3352631 73.8965319,66.1827957 Z" id="Path" fill="#3EDE9A" fill-rule="nonzero"></path>
                <path d="M24.8140292,66.1827957 C25.1068242,66.4010597 25.3036474,66.6111795 25.404499,66.8131551 C30.9253104,73.6444918 36.4282288,80.4921168 41.9132542,87.3560303 C45.6610295,92.0438192 48.125387,95.1565242 49.3063266,96.694145 C49.3909118,96.8016482 49.3648856,96.9645317 49.228248,97.1827957 C36.6152923,89.9670538 23.9844435,82.7643426 11.3357018,75.574662 C10.9290421,75.3433674 10.6020878,75.0746095 10.3548387,74.7683884 C10.4979829,74.3644371 10.6590201,74.1103388 10.8379504,74.0060933 C13.7398736,72.3121042 18.3985666,69.7043384 24.8140292,66.1827957 Z" id="Path" fill="#FE6171" fill-rule="nonzero"></path>
                <path d="M74.2574029,67.1827957 L89.2609027,75.3506938 C89.4805541,75.431918 89.3149959,75.6301048 88.7642283,75.9452544 C75.7851273,83.3204051 62.7994695,90.6858089 49.807255,98.0414657 C49.6892333,98.109694 49.5384279,98.156804 49.3548387,98.1827957 L49.3990968,97.9050092 C49.4022537,97.8795362 49.4124013,97.8543947 49.4286022,97.8319075 L74.2574029,67.1827957 Z" id="Path" fill="#2E4687" fill-rule="nonzero"></path>
                <path d="M194.374127,78.290771 C194.374127,78.2311379 194.421625,78.1827957 194.480215,78.1827957 L203.05405,78.1975196 C204.993332,78.2008902 206.852135,78.8176666 208.22137,79.9121077 C209.590605,81.0065489 210.358058,82.488962 210.354839,84.0330955 L210.354839,84.3766534 C210.348118,87.5906382 207.071216,90.1898098 203.034761,90.1827957 L194.460927,90.1680576 C194.402336,90.1680576 194.354839,90.1197154 194.354839,90.0600822 L194.374127,78.290771 Z" id="Path" fill="#FEFEFE" fill-rule="nonzero"></path>
            </g>
        </g>
    </g>
</svg>