<svg width="80" height="92" viewBox="0 0 80 92" fill="none" xmlns="http://www.w3.org/2000/svg">
  <path d="M40.1644 0.135C39.3907 0.406 38.7206 0.704 38.1541 1.03C25.5744 8.344 12.9802 15.631 0.3715 22.89C0.1222 23.032 0.0413 23.274 0.1287 23.616C0.1287 38.705 0.1368 53.793 0.153 68.879C0.153 69.095 0.3132 69.274 0.6337 69.416C0.8797 69.719 1.205 69.986 1.6097 70.215C14.1958 77.335 26.7641 84.468 39.3146 91.615C40.1174 91.94 40.624 91.989 40.8345 91.76C41.0157 91.734 41.1647 91.687 41.2812 91.619C54.1101 84.315 66.9325 77.001 79.7485 69.677C80.2923 69.364 80.4558 69.168 80.2389 69.087L80.3409 24.627C80.2341 24.282 80.2227 23.864 80.3069 23.374C80.336 23.2 80.3182 23.059 80.2535 22.953C80.1467 22.782 80.022 22.712 79.8796 22.745C66.714 15.111 53.6002 7.563 40.5383 0.101C40.2825 -0.044 40.1579 -0.033 40.1641 0.135" fill="#9EEECC"/>
  <path d="M40.8005 17.499C40.59 17.634 40.4201 17.613 40.2906 17.436C40.2558 17.389 40.2371 17.331 40.2372 17.271L40.1644 0.135" stroke="#369291" stroke-width="0.5"/>
  <path d="M79.8796 22.745C78.821 22.883 77.2461 22.782 75.1549 22.44C69.3734 21.498 57.9219 19.851 40.8005 17.499" stroke="#96547C" stroke-width="0.5"/>
  <path d="M80.3409 24.627C79.8294 24.889 79.5267 25.132 79.4329 25.358C76.2863 33.14 71.7883 44.525 65.9387 59.515C65.9322 59.531 65.9241 59.547 65.9144 59.563L65.2978 60.642" stroke="#FE9269" stroke-width="0.5"/>
  <path d="M64.9676 60.415C64.8867 60.018 64.7895 59.721 64.6762 59.524C56.716 45.742 48.772 31.951 40.8442 18.152C40.8312 18.129 40.7956 18.104 40.7374 18.075C40.6985 18.055 40.6629 18.018 40.6305 17.963" stroke="#9C89A1" stroke-width="0.5"/>
  <path d="M40.0818 17.857C39.8422 17.989 39.7015 18.092 39.6594 18.167C27.9926 38.502 20.0955 52.23 15.9681 59.35C15.693 59.828 15.5797 60.265 15.6282 60.662" stroke="#9CBA99" stroke-width="0.5"/>
  <path d="M15.0213 60.913C8.6376 64.401 4.002 66.983 1.1144 68.661C0.9364 68.764 0.7761 69.016 0.6337 69.416" stroke="#96547C" stroke-width="0.5"/>
  <path d="M65.424 60.976L40.9073 91.411C40.8913 91.434 40.8813 91.459 40.8782 91.484L40.8345 91.76" stroke="#369291" stroke-width="0.5"/>
  <path d="M39.3146 91.615C39.4506 91.398 39.4765 91.237 39.3923 91.131C38.2172 89.608 35.7651 86.525 32.0358 81.882C26.578 75.085 21.1023 68.303 15.6088 61.538" stroke="#9EA086" stroke-width="0.5"/>
  <path d="M80.2389 69.087L65.424 60.976" stroke="#968574" stroke-width="0.5"/>
  <path d="M0.3569 23.785C0.3019 23.705 0.2258 23.648 0.1287 23.616" stroke="#369291" stroke-width="0.5"/>
  <path d="M15.0213 60.913L0.3569 23.785" stroke="#968574" stroke-width="0.5"/>
  <path d="M64.9676 60.415C64.8931 60.57 64.7766 60.649 64.618 60.652C60.2575 60.72 54.3043 60.707 46.7585 60.613C43.5666 60.574 39.3583 60.607 34.1335 60.71C30.5241 60.778 24.3557 60.762 15.6282 60.662" stroke="#3CC7B6" stroke-width="0.5"/>
  <!-- Filled center hexagon -->
  <path d="M40.1644 0.135L79.8796 22.745L80.3409 24.627L65.424 60.976L40.8345 91.76L39.3146 91.615L15.6088 61.538L15.0213 60.913L0.3569 23.785L0.1287 23.616L40.1644 0.135Z" fill="#2E4687" fill-opacity="0.9"/>
  <path d="M40.8005 17.499L64.9676 60.415L15.6282 60.662L40.0818 17.857L40.8005 17.499Z" fill="#3AB0D1" fill-opacity="0.8"/>
  <path d="M40.8005 17.499L79.8796 22.745L64.9676 60.415L40.8005 17.499Z" fill="#FE6171" fill-opacity="0.8"/>
  <path d="M40.0818 17.857L15.6282 60.662L0.3569 23.785L40.0818 17.857Z" fill="#FEC361" fill-opacity="0.8"/>
  <path d="M15.6282 60.662L40.8345 91.76L64.9676 60.415L15.6282 60.662Z" fill="#3EDE9A" fill-opacity="0.8"/>
</svg>

