<?xml version="1.0" encoding="UTF-8"?>
<svg width="378px" height="449px" viewBox="0 0 378 449" version="1.1" xmlns="http://www.w3.org/2000/svg" xmlns:xlink="http://www.w3.org/1999/xlink">
    <title>reachy-update-box</title>
    <g id="reachy" stroke="none" stroke-width="1" fill="none" fill-rule="evenodd">
        <g id="reachy-update-box" transform="translate(0.719567, 0.121113)" fill-rule="nonzero">
            <path d="M208.710433,133.468887 C208.834622,133.469726 208.952156,133.412834 209.028538,133.314909 C209.10492,133.216983 209.131484,133.089134 209.100433,132.968887 C208.2071,129.375554 208.293767,125.695554 209.360433,121.928887 C211.060433,115.935554 212.4371,111.318887 213.490433,108.078887 C214.280433,105.628887 215.100433,104.538887 216.990433,102.118887 C217.863767,100.998887 218.490433,99.6955535 218.870433,98.2088868 C222.4971,84.0088868 228.140433,62.9922202 235.800433,35.1588868 C235.913518,34.7531673 235.98719,34.3412714 236.020433,33.9288868 C236.260433,30.9488868 236.000433,28.2388868 236.800433,25.0488868 C239.490433,14.3788868 241.040433,3.89888684 252.280433,0.708886844 C264.540433,-2.76111316 274.760433,7.00888684 274.440433,19.0988868 C274.400433,20.6522202 273.3271,25.2288868 271.220433,32.8288868 C270.120433,36.7888868 267.190433,41.2588868 266.350433,44.4788868 C261.410433,63.2455535 255.7271,83.6255535 249.300433,105.618887 C248.981392,106.700221 248.995333,107.850356 249.340433,108.918887 C250.4871,112.49222 250.5971,116.438887 249.670433,120.758887 C248.743767,125.07222 247.300433,130.295554 245.340433,136.428887 C245.196099,136.883843 245.244993,137.378115 245.475667,137.795975 C245.70634,138.213836 246.098539,138.518591 246.560433,138.638887 C249.240433,139.325554 252.053767,140.308887 255.000433,141.588887 C257.130433,142.508887 260.420433,145.298887 263.610433,146.148887 C294.470433,154.328887 327.463767,163.30222 362.590433,173.068887 C369.670433,175.035554 373.9171,179.445554 375.330433,186.298887 C376.890433,193.828887 373.800433,198.858887 368.680433,205.078887 C354.160433,222.705554 345.813767,232.848887 343.640433,235.508887 C341.520433,238.108887 343.010433,238.748887 344.850433,240.758887 C352.123767,248.71222 361.0371,258.385554 371.590433,269.778887 C376.680433,275.278887 378.260433,282.148887 375.730433,289.298887 C373.120433,296.678887 366.990433,298.808887 359.140433,301.718887 C351.560433,304.53222 343.6071,307.428887 335.280433,310.408887 C334.37465,310.732252 333.767441,311.587139 333.760433,312.548887 C333.480433,338.755554 333.4371,357.755554 333.630433,369.548887 C333.743767,376.475554 333.263767,381.135554 332.190433,383.528887 C330.2171,387.94222 326.833767,391.225554 322.040433,393.378887 C313.8671,397.05222 304.910433,400.855554 295.170433,404.788887 C295.0571,404.835554 276.843767,412.488887 240.530433,427.748887 C225.470433,434.075554 213.900433,439.015554 205.820433,442.568887 C199.720433,445.255554 195.2071,447.038887 192.280433,447.918887 C186.870433,449.548887 180.990433,447.608887 175.030433,444.978887 C152.503767,435.05222 131.3871,425.958887 111.680433,417.698887 C99.2104334,412.478887 90.7204334,408.598887 77.1504334,403.218887 C74.2704334,402.078887 67.3104334,399.215554 56.2704334,394.628887 C46.6904334,390.64222 41.9637667,383.56222 42.0904334,373.388887 C42.2837667,357.695554 42.3071001,337.948887 42.1604334,314.148887 C42.1537667,312.688887 41.4371001,311.688887 40.0104334,311.148887 C28.4171001,306.78222 21.9404334,304.345554 20.5804334,303.838887 C8.5204334,299.388887 -0.0495666003,296.648887 0.000215757006,283.288887 C0.0204333997,276.478887 3.0304334,272.048887 7.6704334,267.248887 C11.4104334,263.38222 19.6804334,254.198887 32.4804334,239.698887 C33.9504334,238.028887 33.3204334,236.968887 32.0904334,235.558887 C29.1971001,232.225554 24.3371001,226.305554 17.5104334,217.798887 C13.2504334,212.488887 9.1404334,208.128887 5.8604334,203.828887 C0.747100066,197.108887 -0.346233267,190.135554 2.5804334,182.908887 C4.58710007,177.955554 8.43376673,174.658887 14.1204334,173.018887 C35.5871001,166.818887 63.1304334,159.07222 96.7504334,149.778887 C101.040433,148.588887 105.170433,147.848887 109.080433,146.538887 C109.265163,146.476109 109.415163,146.339151 109.493295,146.161924 C109.571428,145.984696 109.570388,145.783768 109.490433,145.608887 C108.183767,142.775554 107.5271,139.615554 107.520433,136.128887 C107.5071,131.84222 107.673767,126.178887 108.020433,119.138887 C108.100433,117.57222 108.833767,115.145554 110.220433,111.858887 C110.445162,111.323714 110.567288,110.747004 110.580433,110.158887 L112.300433,43.0988868 C112.333639,41.916258 112.229608,40.7350073 111.990433,39.5788868 C111.550433,37.4488868 110.920433,35.1288868 110.950433,32.9988868 C110.983767,30.4588868 111.000433,26.5822202 111.000433,21.3688868 C111.010433,11.3988868 115.190433,3.08888684 125.630433,0.778886844 C135.790433,-1.47111316 144.240433,6.22888684 145.850433,15.8288868 C147.150433,23.5688868 146.720433,33.3488868 144.480433,41.1288868 C144.447253,41.2417084 144.430412,41.3562299 144.430433,41.4688868 L142.560433,108.808887 C142.527681,110.020949 142.817415,111.224724 143.400433,112.298887 C147.280433,119.448887 146.470433,128.658887 146.070433,137.158887 C146.064242,137.345572 146.142563,137.525068 146.282969,137.645973 C146.423375,137.766878 146.61038,137.815858 146.790433,137.778887 C154.110433,136.408887 162.890433,135.088887 171.250433,134.508887 C183.3971,133.66222 195.883767,133.315554 208.710433,133.468887 Z M176.420433,443.888887 C178.8271,444.968887 181.390433,445.795554 184.110433,446.368887 C187.8371,447.148887 191.283767,446.88222 194.450433,445.568887 C224.810433,432.928887 277.400433,410.188887 319.740433,392.878887 C328.033767,389.485554 332.190433,383.348887 332.210433,374.468887 C332.250433,353.72222 332.213767,332.40222 332.100433,310.508887 C332.101592,310.041013 332.393588,309.625019 332.830433,309.468887 C343.210433,305.708887 351.953767,302.595554 359.060433,300.128887 C365.260433,297.975554 369.2471,295.99222 371.020433,294.178887 C376.310433,288.788887 377.290433,278.368887 371.950433,272.428887 C364.810433,264.495554 354.5171,253.165554 341.070433,238.438887 C340.675639,238.008968 340.641991,237.361233 340.990433,236.898887 C345.623767,230.73222 350.040433,225.13222 354.240433,220.098887 C363.9271,208.485554 369.3471,201.90222 370.500433,200.348887 C373.340433,196.508887 374.553767,192.535554 374.140433,188.428887 C373.100433,178.098887 365.190433,175.318887 356.310433,173.018887 C343.2371,169.638887 329.9571,166.098887 316.470433,162.398887 C315.230433,162.058887 313.9171,161.695554 312.530433,161.308887 C295.290433,156.508887 278.583767,151.975554 262.410433,147.708887 C261.100433,147.368887 259.090433,146.368887 257.700433,145.438887 C253.253767,142.425554 248.493767,140.38222 243.420433,139.308887 C243.188186,139.261307 242.992107,139.106722 242.891638,138.891993 C242.791168,138.677264 242.798137,138.427675 242.910433,138.218887 C245.060433,134.078887 246.200433,127.838887 247.080433,124.178887 C248.610433,117.898887 249.760433,113.978887 247.740433,108.978887 C247.390386,108.117386 247.337602,107.163758 247.590433,106.268887 L265.310433,42.7288868 C265.436782,42.2900281 265.607658,41.8645147 265.820433,41.4588868 C268.720433,35.9055535 270.863767,29.4688868 272.250433,22.1488868 C276.420433,0.158886844 247.400433,-6.74111316 241.430433,13.7988868 C239.423767,20.7122202 238.1871,25.5222202 237.720433,28.2288868 C237.693805,28.4086665 237.677096,28.5891175 237.670433,28.7688868 L237.600433,34.8188868 C237.600439,34.8986016 237.590362,34.9792131 237.570433,35.0588868 C229.8371,62.7588868 223.963767,84.4122202 219.950433,100.018887 C219.663767,101.13222 218.6771,102.568887 216.990433,104.328887 C216.190433,105.16222 215.340433,107.06222 214.440433,110.028887 C211.960433,118.148887 208.530433,126.308887 210.630433,134.208887 C210.693865,134.447438 210.640637,134.701935 210.486918,134.895069 C210.333199,135.088202 210.097134,135.197176 209.850433,135.188887 C194.8571,134.78222 180.3771,135.28222 166.410433,136.688887 C158.870433,137.448887 151.703767,138.57222 144.910433,140.058887 C144.745214,140.095877 144.572166,140.05471 144.441302,139.947284 C144.310437,139.839858 144.236343,139.678147 144.240433,139.508887 C144.453767,133.175554 144.563767,127.465554 144.570433,122.378887 C144.5771,118.885554 143.740433,115.758887 142.060433,112.998887 C141.460433,112.005554 141.150433,110.865554 141.130433,109.578887 C141.050433,103.445554 141.283767,92.7888868 141.830433,77.6088868 C142.260433,65.5888868 142.000433,53.0988868 142.560433,42.3288868 C142.606904,41.4055289 142.7647,40.4889674 143.030433,39.5988868 C144.2371,35.5188868 144.793767,31.1388868 144.700433,26.4588868 C144.640433,23.1888868 145.000433,17.0888868 143.800433,13.6188868 C137.630433,-4.28111316 114.570433,-0.571113156 112.670433,17.6988868 C112.483767,19.4588868 112.3871,24.3722202 112.380433,32.4388868 C112.370433,35.4888868 113.310433,38.4188868 113.810433,41.3888868 C113.837,41.5284219 113.84707,41.6694012 113.840433,41.8088868 L112.060433,111.338887 C112.047266,111.811821 111.916839,112.278611 111.680433,112.698887 C110.493767,114.765554 109.783767,117.075554 109.550433,119.628887 C109.4371,120.835554 109.2671,125.958887 109.040433,134.998887 C108.920433,139.788887 109.630433,142.508887 111.320433,146.228887 C111.464848,146.544988 111.463865,146.908423 111.317743,147.223738 C111.171622,147.539053 110.894964,147.774736 110.560433,147.868887 C102.200433,150.228887 94.6004334,152.988887 86.9204334,154.558887 C84.1271001,155.13222 80.6504334,156.04222 76.4904334,157.288887 C65.9404334,160.448887 57.6004334,162.498887 43.8904334,166.488887 C29.7171001,170.62222 20.9771001,173.105554 17.6704334,173.938887 C13.5304334,174.985554 10.6704334,176.13222 9.0904334,177.378887 C0.7404334,183.968887 0.7404334,195.048887 7.2204334,202.928887 C14.4471001,211.72222 21.7837667,220.548887 29.2304334,229.408887 C31.0304334,231.548887 32.9471001,234.068887 34.9804334,236.968887 C35.4895035,237.689361 35.4526677,238.663465 34.8904334,239.348887 C27.2171001,248.64222 18.3871001,258.438887 8.4004334,268.738887 C4.9504334,272.308887 1.8404334,276.788887 1.5704334,282.078887 C0.9904334,293.538887 7.8504334,297.588887 18.1104334,301.188887 C25.0304334,303.615554 33.0371001,306.568887 42.1304334,310.048887 C43.1957402,310.458349 43.8992079,311.483742 43.9004334,312.628887 C43.9137667,348.475554 43.8804334,367.778887 43.8004334,370.538887 C43.6404334,376.17222 44.1137667,380.16222 45.2204334,382.508887 C47.2137667,386.735554 50.3671001,389.90222 54.6804334,392.008887 C64.0404334,396.578887 73.9704334,399.878887 83.8404334,404.228887 C98.5271001,410.708887 117.353767,418.73222 140.320433,428.298887 C142.900433,429.378887 146.100433,431.078887 148.740433,432.158887 C160.553767,436.998887 169.780433,440.908887 176.420433,443.888887 Z" id="Shape" fill="#C9C9C9"></path>
            <path d="M176.420433,443.888887 C169.780433,440.908887 160.553767,436.998887 148.740433,432.158887 C146.100433,431.078887 142.900433,429.378887 140.320433,428.298887 C117.353767,418.73222 98.5271001,410.708887 83.8404334,404.228887 C73.9704334,399.878887 64.0404334,396.578887 54.6804334,392.008887 C50.3671001,389.90222 47.2137667,386.735554 45.2204334,382.508887 C44.1137667,380.16222 43.6404334,376.17222 43.8004334,370.538887 C43.8804334,367.778887 43.9137667,348.475554 43.9004334,312.628887 C43.8992079,311.483742 43.1957402,310.458349 42.1304334,310.048887 C33.0371001,306.568887 25.0304334,303.615554 18.1104334,301.188887 C7.8504334,297.588887 0.9904334,293.538887 1.5704334,282.078887 C1.8404334,276.788887 4.9504334,272.308887 8.4004334,268.738887 C18.3871001,258.438887 27.2171001,248.64222 34.8904334,239.348887 C35.4526677,238.663465 35.4895035,237.689361 34.9804334,236.968887 C32.9471001,234.068887 31.0304334,231.548887 29.2304334,229.408887 C21.7837667,220.548887 14.4471001,211.72222 7.2204334,202.928887 C0.7404334,195.048887 0.7404334,183.968887 9.0904334,177.378887 C10.6704334,176.13222 13.5304334,174.985554 17.6704334,173.938887 C20.9771001,173.105554 29.7171001,170.62222 43.8904334,166.488887 C57.6004334,162.498887 65.9404334,160.448887 76.4904334,157.288887 C80.6504334,156.04222 84.1271001,155.13222 86.9204334,154.558887 C94.6004334,152.988887 102.200433,150.228887 110.560433,147.868887 C110.894964,147.774736 111.171622,147.539053 111.317743,147.223738 C111.463865,146.908423 111.464848,146.544988 111.320433,146.228887 C109.630433,142.508887 108.920433,139.788887 109.040433,134.998887 C109.2671,125.958887 109.4371,120.835554 109.550433,119.628887 C109.783767,117.075554 110.493767,114.765554 111.680433,112.698887 C111.916839,112.278611 112.047266,111.811821 112.060433,111.338887 L113.840433,41.8088868 C113.84707,41.6694012 113.837,41.5284219 113.810433,41.3888868 C113.310433,38.4188868 112.370433,35.4888868 112.380433,32.4388868 C112.3871,24.3722202 112.483767,19.4588868 112.670433,17.6988868 C114.570433,-0.571113156 137.630433,-4.28111316 143.800433,13.6188868 C145.000433,17.0888868 144.640433,23.1888868 144.700433,26.4588868 C144.793767,31.1388868 144.2371,35.5188868 143.030433,39.5988868 C142.7647,40.4889674 142.606904,41.4055289 142.560433,42.3288868 C142.000433,53.0988868 142.260433,65.5888868 141.830433,77.6088868 C141.283767,92.7888868 141.050433,103.445554 141.130433,109.578887 C141.150433,110.865554 141.460433,112.005554 142.060433,112.998887 C143.740433,115.758887 144.5771,118.885554 144.570433,122.378887 C144.563767,127.465554 144.453767,133.175554 144.240433,139.508887 C144.236343,139.678147 144.310437,139.839858 144.441302,139.947284 C144.572166,140.05471 144.745214,140.095877 144.910433,140.058887 C151.703767,138.57222 158.870433,137.448887 166.410433,136.688887 C180.3771,135.28222 194.8571,134.78222 209.850433,135.188887 C210.097134,135.197176 210.333199,135.088202 210.486918,134.895069 C210.640637,134.701935 210.693865,134.447438 210.630433,134.208887 C208.530433,126.308887 211.960433,118.148887 214.440433,110.028887 C215.340433,107.06222 216.190433,105.16222 216.990433,104.328887 C218.6771,102.568887 219.663767,101.13222 219.950433,100.018887 C223.963767,84.4122202 229.8371,62.7588868 237.570433,35.0588868 C237.590362,34.9792131 237.600439,34.8986016 237.600433,34.8188868 L237.670433,28.7688868 C237.677096,28.5891175 237.693805,28.4086665 237.720433,28.2288868 C238.1871,25.5222202 239.423767,20.7122202 241.430433,13.7988868 C247.400433,-6.74111316 276.420433,0.158886844 272.250433,22.1488868 C270.863767,29.4688868 268.720433,35.9055535 265.820433,41.4588868 C265.607658,41.8645147 265.436782,42.2900281 265.310433,42.7288868 L247.590433,106.268887 C247.337602,107.163758 247.390386,108.117386 247.740433,108.978887 C249.760433,113.978887 248.610433,117.898887 247.080433,124.178887 C246.200433,127.838887 245.060433,134.078887 242.910433,138.218887 C242.798137,138.427675 242.791168,138.677264 242.891638,138.891993 C242.992107,139.106722 243.188186,139.261307 243.420433,139.308887 C248.493767,140.38222 253.253767,142.425554 257.700433,145.438887 C259.090433,146.368887 261.100433,147.368887 262.410433,147.708887 C278.583767,151.975554 295.290433,156.508887 312.530433,161.308887 C313.9171,161.695554 315.230433,162.058887 316.470433,162.398887 C329.9571,166.098887 343.2371,169.638887 356.310433,173.018887 C365.190433,175.318887 373.100433,178.098887 374.140433,188.428887 C374.553767,192.535554 373.340433,196.508887 370.500433,200.348887 C369.3471,201.90222 363.9271,208.485554 354.240433,220.098887 C350.040433,225.13222 345.623767,230.73222 340.990433,236.898887 C340.641991,237.361233 340.675639,238.008968 341.070433,238.438887 C354.5171,253.165554 364.810433,264.495554 371.950433,272.428887 C377.290433,278.368887 376.310433,288.788887 371.020433,294.178887 C369.2471,295.99222 365.260433,297.975554 359.060433,300.128887 C351.953767,302.595554 343.210433,305.708887 332.830433,309.468887 C332.393588,309.625019 332.101592,310.041013 332.100433,310.508887 C332.213767,332.40222 332.250433,353.72222 332.210433,374.468887 C332.190433,383.348887 328.033767,389.485554 319.740433,392.878887 C277.400433,410.188887 224.810433,432.928887 194.450433,445.568887 C191.283767,446.88222 187.8371,447.148887 184.110433,446.368887 C181.390433,445.795554 178.8271,444.968887 176.420433,443.888887 Z M233.070433,113.468887 L228.230433,112.648887 C227.723051,112.566618 227.22715,112.849991 227.040433,113.328887 L227.020433,113.378887 C226.953982,113.581773 226.979613,113.803682 227.090744,113.987623 C227.201875,114.171564 227.387678,114.299614 227.600433,114.338887 L234.600433,115.598887 C234.9646,115.666143 235.338795,115.554008 235.607587,115.297075 C235.876379,115.040141 236.007474,114.669278 235.960433,114.298887 C235.853767,113.49222 235.090433,112.338887 233.670433,110.838887 C233.180589,110.331646 232.99443,109.602205 233.180433,108.918887 L253.840433,33.4188868 C253.948557,33.0247414 254.296223,32.7458002 254.700433,32.7288868 C255.200433,32.7088868 255.623767,32.5055535 255.970433,32.1188868 C256.082105,31.9939184 256.161048,31.8463295 256.200433,31.6888868 L259.300433,18.7388868 C259.651865,17.2910506 258.816686,15.8174611 257.390433,15.3688868 L257.160433,15.2788868 C256.535174,15.0459396 255.839889,15.0934784 255.252154,15.4093616 C254.66442,15.7252448 254.241145,16.278887 254.090433,16.9288868 L250.970433,30.4188868 C250.882558,30.8080015 250.990629,31.2179252 251.260433,31.5188868 C251.8671,32.1655535 251.960433,33.2688868 251.540433,34.8288868 C243.453767,64.6955535 236.680433,89.5155535 231.220433,109.288887 C231.03953,109.930634 231.201895,110.621631 231.650433,111.118887 L233.330433,112.988887 C233.412024,113.080108 233.427566,113.21273 233.369275,113.320343 C233.310985,113.427956 233.191412,113.487391 233.070433,113.468887 Z M128.310433,119.418887 L123.320433,119.778887 C122.799826,119.821386 122.379288,120.221105 122.310433,120.738887 L122.300433,120.788887 C122.282419,121.009623 122.361588,121.227237 122.517227,121.384798 C122.672867,121.542359 122.889493,121.624191 123.110433,121.608887 L130.340433,121.158887 C130.717603,121.140155 131.062471,120.94065 131.268188,120.622184 C131.473905,120.303719 131.515629,119.904749 131.380433,119.548887 C131.080433,118.775554 130.043767,117.815554 128.270433,116.668887 C127.667378,116.283037 127.310661,115.607551 127.330433,114.888887 L129.560433,35.1188868 C129.573979,34.7016994 129.852922,34.3419033 130.250433,34.2288868 C130.743767,34.0822202 131.113767,33.7755535 131.360433,33.3088868 C131.439265,33.1583065 131.480433,32.9936004 131.480433,32.8288868 L131.430433,19.2588868 C131.428099,17.7379818 130.243312,16.4788727 128.720433,16.3788868 L128.470433,16.3488868 C127.794619,16.2713664 127.118065,16.486746 126.612931,16.9402188 C126.107797,17.3936917 125.822789,18.041532 125.830433,18.7188868 L126.000433,32.8388868 C126.005972,33.2438997 126.210869,33.6238895 126.550433,33.8588868 C127.310433,34.3522202 127.670433,35.4222202 127.630433,37.0688868 C126.830433,68.6022202 126.110433,94.8222202 125.470433,115.728887 C125.446684,116.409008 125.775194,117.054701 126.340433,117.438887 L128.460433,118.878887 C128.565742,118.953475 128.613896,119.087109 128.579754,119.210019 C128.545613,119.332928 128.436924,119.41722 128.310433,119.418887 L128.310433,119.418887 Z M226.560433,120.128887 L234.060433,121.088887 C234.47036,121.148906 234.860661,120.893727 234.9701,120.494146 C235.07954,120.094565 234.873734,119.676121 234.490433,119.518887 L229.880433,117.508887 C229.815276,117.482013 229.769075,117.422826 229.75882,117.353095 C229.748565,117.283363 229.775772,117.213381 229.830433,117.168887 C229.9771,117.095554 231.5371,117.568887 234.510433,118.588887 C234.706589,118.657206 234.922294,118.641116 235.106143,118.544453 C235.289993,118.44779 235.425522,118.27921 235.480433,118.078887 L235.590433,117.688887 C235.662954,117.420206 235.62251,117.133747 235.47865,116.897134 C235.334789,116.660521 235.100261,116.494725 234.830433,116.438887 L228.560433,115.088887 C227.927825,114.95376 227.26819,115.116282 226.770765,115.529828 C226.27334,115.943374 225.993097,116.56224 226.010433,117.208887 C225.9971,117.928887 225.7071,118.81222 225.140433,119.858887 C224.980309,120.15925 224.95181,120.512538 225.061719,120.834684 C225.171627,121.156829 225.410116,121.419028 225.720433,121.558887 C228.4271,122.758887 231.173767,123.38222 233.960433,123.428887 C234.209079,123.43555 234.419495,123.251436 234.440433,123.008887 L234.460433,122.738887 C234.498623,122.364387 234.245832,122.024425 233.880433,121.958887 L226.530433,120.608887 C226.492862,120.601734 226.459853,120.579522 226.439076,120.547412 C226.418299,120.515302 226.411563,120.47609 226.420433,120.438887 L226.500433,120.168887 C226.502835,120.155493 226.510591,120.143656 226.521914,120.136107 C226.533236,120.128559 226.547146,120.125952 226.560433,120.128887 Z M122.950433,124.858887 C123.510433,125.018887 123.7171,125.35222 123.570433,125.858887 C123.523767,126.025554 123.323767,126.168887 122.970433,126.288887 C122.370433,126.628887 122.183767,127.095554 122.410433,127.688887 C122.5171,127.96222 122.740433,128.11222 123.080433,128.138887 C125.640433,128.325554 128.4171,128.285554 131.410433,128.018887 C131.763776,127.990087 132.068229,127.758705 132.190587,127.425976 C132.312946,127.093246 132.230934,126.719745 131.980433,126.468887 L130.820433,125.278887 C130.7471,124.89222 130.833767,124.505554 131.080433,124.118887 C131.600433,124.385554 131.853767,123.938887 131.840433,122.778887 C131.837926,122.616163 131.769424,122.461438 131.650638,122.350194 C131.531852,122.23895 131.372972,122.18073 131.210433,122.188887 L123.460433,122.508887 C123.223158,122.52212 123.000927,122.626067 122.840433,122.798887 C122.1871,123.51222 122.223767,124.198887 122.950433,124.858887 Z M233.712033,125.473287 C233.8329,125.002547 233.549272,124.522955 233.078533,124.402087 L225.174933,122.372787 C224.704194,122.251921 224.224602,122.535548 224.103733,123.006287 L224.088833,123.064487 C223.967967,123.535227 224.251594,124.014818 224.722333,124.135687 L232.625933,126.164987 C233.096673,126.285853 233.576265,126.002226 233.697133,125.531487 L233.712033,125.473287 Z M232.560433,129.078887 L232.970433,127.568887 C233.041287,127.320465 232.898368,127.061425 232.650433,126.988887 L227.190433,125.498887 C226.287467,125.251563 225.39247,125.118939 224.702334,125.130191 C224.012198,125.141444 223.583458,125.29565 223.510433,125.558887 L223.390433,125.988887 C223.252875,126.538964 224.656227,127.397064 226.530433,127.908887 L231.990433,129.408887 C232.238625,129.47267 232.492167,129.325883 232.560433,129.078887 Z M228.640433,131.998887 L225.880433,133.158887 C225.062717,133.505375 224.460633,134.218956 224.260433,135.078887 C223.0871,140.09222 221.4671,144.728887 219.400433,148.988887 C219.255421,149.291039 218.947644,149.476495 218.620433,149.458887 C202.193767,148.598887 185.2471,149.015554 167.780433,150.708887 C156.040433,151.848887 142.430433,153.988887 131.990433,159.328887 C131.630433,159.508887 130.460433,160.39222 128.480433,161.978887 C128.374377,162.062117 128.232162,162.082924 128.106708,162.033564 C127.981253,161.984205 127.891343,161.872071 127.870433,161.738887 C127.590433,159.825554 127.4571,158.39222 127.470433,157.438887 C127.503767,155.685554 127.0671,154.63222 126.160433,154.278887 C125.838121,154.151624 125.622066,153.845219 125.610433,153.498887 C125.500433,150.498887 125.330433,145.528887 127.550433,143.168887 C128.223767,142.448887 129.413767,141.52222 131.120433,140.388887 C131.694033,140.011044 131.964769,139.312617 131.796278,138.64539 C131.627786,137.978164 131.056608,137.486839 130.370433,137.418887 L126.610433,137.048887 C126.57315,137.046512 126.538439,137.028271 126.514024,136.998222 C126.489609,136.968172 126.477515,136.928808 126.480433,136.888887 L126.510433,136.588887 C126.515622,136.53807 126.554432,136.49926 126.600433,136.498887 L131.460433,136.118887 C131.625074,136.106148 131.777831,136.028256 131.884834,135.902481 C131.991836,135.776706 132.044243,135.613441 132.030433,135.448887 L132.000433,135.028887 C131.992904,134.906676 131.935903,134.792581 131.842055,134.711872 C131.748207,134.631162 131.625256,134.590499 131.500433,134.598887 L123.910433,135.198887 C123.030495,135.271566 122.317079,135.946532 122.196735,136.820224 C122.076392,137.693917 122.581657,138.530127 123.410433,138.828887 C124.283767,139.14222 126.0771,139.358887 128.790433,139.478887 C128.950252,139.488001 129.086085,139.598858 129.127048,139.753606 C129.168011,139.908355 129.104813,140.071897 128.970433,140.158887 C126.770433,141.548887 125.010433,142.618887 124.560433,145.388887 C124.193767,147.64222 123.903767,150.318887 123.690433,153.418887 C123.683785,153.458737 123.677092,153.495549 123.670433,153.528887 L122.190433,158.718887 C122.104225,159.046679 121.848226,159.302679 121.520433,159.388887 C70.6804334,173.455554 44.0937667,180.858887 41.7604334,181.598887 C38.6204334,182.598887 30.8004334,184.698887 18.3004334,187.898887 C16.2871001,188.41222 15.6637667,189.79222 16.4304334,192.038887 C16.4899712,192.217483 16.5814711,192.383538 16.7004334,192.528887 L53.0204334,236.758887 C53.3775706,237.189169 53.4444077,237.790703 53.1904334,238.288887 C52.6904334,239.26222 52.0104334,240.248887 51.1504334,241.248887 C40.1504334,253.98222 28.4271001,267.34222 15.9804334,281.328887 C14.8504334,282.598887 14.3604334,285.008887 16.3704334,285.778887 C37.2171001,293.665554 50.8237667,298.765554 57.1904334,301.078887 C57.4473729,301.168225 57.6198129,301.41285 57.6204334,301.688887 C57.7071001,328.94222 57.7404334,353.688887 57.7204334,375.928887 C57.7204334,378.108887 58.7304334,378.638887 60.5104334,379.388887 C100.4571,396.22222 138.4571,412.46222 174.510433,428.108887 C178.540433,429.858887 182.440433,431.228887 186.420433,433.208887 C186.789022,433.387293 187.215573,433.398231 187.590433,433.238887 L317.120433,378.538887 C317.884354,378.211186 318.379816,377.460128 318.380433,376.628887 L318.380433,301.478887 C318.381734,300.716304 318.858549,300.039147 319.570433,299.788887 C329.930433,296.028887 342.863767,291.325554 358.370433,285.678887 C360.690433,284.828887 363.010433,283.478887 360.710433,280.938887 C347.123767,265.885554 334.420433,251.845554 322.600433,238.818887 C322.232229,238.411329 322.198952,237.799869 322.520433,237.348887 C323.933767,235.368887 325.5971,233.205554 327.510433,230.858887 C336.3371,220.07222 346.883767,207.28222 359.150433,192.488887 C359.783767,191.72222 360.120433,191.00222 360.160433,190.328887 C360.224587,189.292331 359.538631,188.358085 358.530433,188.108887 C352.783767,186.708887 346.443767,185.06222 339.510433,183.168887 C305.9771,174.008887 285.6971,168.468887 278.670433,166.548887 C265.843767,163.028887 257.9671,160.838887 255.040433,159.978887 C253.972942,159.667246 252.955353,159.198886 252.020433,158.588887 C249.833767,157.168887 247.9771,156.038887 246.450433,155.198887 C240.640433,152.028887 233.000433,151.118887 224.820433,150.008887 C224.45465,149.961142 224.166896,149.669277 224.120433,149.298887 C223.500433,144.398887 224.163767,139.775554 226.110433,135.428887 C226.213587,135.203318 226.39543,135.02504 226.620433,134.928887 L230.690433,133.208887 C231.303026,132.947408 231.687716,132.33182 231.654232,131.666598 C231.620748,131.001377 231.176186,130.427529 230.540433,130.228887 L224.010433,128.218887 C223.565468,128.083 223.089089,128.300696 222.900605,128.726059 C222.712121,129.151421 222.870865,129.65055 223.270433,129.888887 C224.7971,130.775554 226.573767,131.38222 228.600433,131.708887 C228.6704,131.714728 228.726954,131.76832 228.736547,131.837871 C228.74614,131.907422 228.706206,131.974323 228.640433,131.998887 Z M123.730433,131.318887 C123.683767,131.71222 123.7071,132.095554 123.800433,132.468887 C123.260433,132.52222 122.893767,132.618887 122.700433,132.758887 C122.39013,132.985892 122.263118,133.388065 122.386758,133.752116 C122.510398,134.116167 122.856063,134.357808 123.240433,134.348887 C125.8671,134.30222 128.5771,134.165554 131.370433,133.938887 C131.683066,133.913578 131.960628,133.729051 132.10495,133.450571 C132.249272,133.172091 132.240007,132.838916 132.080433,132.568887 C131.8471,132.168887 131.320433,132.04222 130.500433,132.188887 L130.250433,131.078887 L131.700433,130.678887 C132.071614,130.577593 132.315838,130.223624 132.278777,129.84066 C132.241716,129.457696 131.934149,129.157126 131.550433,129.128887 C128.703767,128.908887 125.9171,128.938887 123.190433,129.218887 C122.793876,129.26297 122.451009,129.522491 122.306537,129.887921 C122.162064,130.253351 122.241157,130.661025 122.510433,130.938887 C122.763767,131.198887 123.170433,131.325554 123.730433,131.318887 Z" id="Shape" fill="#ECEDED"></path>
            <path d="M233.330433,112.988887 L231.650433,111.118887 C231.201895,110.621631 231.03953,109.930634 231.220433,109.288887 C236.680433,89.5155535 243.453767,64.6955535 251.540433,34.8288868 C251.960433,33.2688868 251.8671,32.1655535 251.260433,31.5188868 C250.990629,31.2179252 250.882558,30.8080015 250.970433,30.4188868 L254.090433,16.9288868 C254.241145,16.278887 254.66442,15.7252448 255.252154,15.4093616 C255.839889,15.0934784 256.535174,15.0459396 257.160433,15.2788868 L257.390433,15.3688868 C258.816686,15.8174611 259.651865,17.2910506 259.300433,18.7388868 L256.200433,31.6888868 C256.161048,31.8463295 256.082105,31.9939184 255.970433,32.1188868 C255.623767,32.5055535 255.200433,32.7088868 254.700433,32.7288868 C254.296223,32.7458002 253.948557,33.0247414 253.840433,33.4188868 L233.180433,108.918887 C232.99443,109.602205 233.180589,110.331646 233.670433,110.838887 C235.090433,112.338887 235.853767,113.49222 235.960433,114.298887 C236.007474,114.669278 235.876379,115.040141 235.607587,115.297075 C235.338795,115.554008 234.9646,115.666143 234.600433,115.598887 L227.600433,114.338887 C227.387678,114.299614 227.201875,114.171564 227.090744,113.987623 C226.979613,113.803682 226.953982,113.581773 227.020433,113.378887 L227.040433,113.328887 C227.22715,112.849991 227.723051,112.566618 228.230433,112.648887 L233.070433,113.468887 C233.191412,113.487391 233.310985,113.427956 233.369275,113.320343 C233.427566,113.21273 233.412024,113.080108 233.330433,112.988887 L233.330433,112.988887 Z" id="Path" fill="#040404"></path>
            <path d="M128.310433,119.418887 C128.436924,119.41722 128.545613,119.332928 128.579754,119.210019 C128.613896,119.087109 128.565742,118.953475 128.460433,118.878887 L126.340433,117.438887 C125.775194,117.054701 125.446684,116.409008 125.470433,115.728887 C126.110433,94.8222202 126.830433,68.6022202 127.630433,37.0688868 C127.670433,35.4222202 127.310433,34.3522202 126.550433,33.8588868 C126.210869,33.6238895 126.005972,33.2438997 126.000433,32.8388868 L125.830433,18.7188868 C125.822789,18.041532 126.107797,17.3936917 126.612931,16.9402188 C127.118065,16.486746 127.794619,16.2713664 128.470433,16.3488868 L128.720433,16.3788868 C130.243312,16.4788727 131.428099,17.7379818 131.430433,19.2588868 L131.480433,32.8288868 C131.480433,32.9936004 131.439265,33.1583065 131.360433,33.3088868 C131.113767,33.7755535 130.743767,34.0822202 130.250433,34.2288868 C129.852922,34.3419033 129.573979,34.7016994 129.560433,35.1188868 L127.330433,114.888887 C127.310661,115.607551 127.667378,116.283037 128.270433,116.668887 C130.043767,117.815554 131.080433,118.775554 131.380433,119.548887 C131.515629,119.904749 131.473905,120.303719 131.268188,120.622184 C131.062471,120.94065 130.717603,121.140155 130.340433,121.158887 L123.110433,121.608887 C122.889493,121.624191 122.672867,121.542359 122.517227,121.384798 C122.361588,121.227237 122.282419,121.009623 122.300433,120.788887 L122.310433,120.738887 C122.379288,120.221105 122.799826,119.821386 123.320433,119.778887 L128.310433,119.418887 Z" id="Path" fill="#040404"></path>
            <path d="M226.560433,120.128887 C226.547146,120.125952 226.533236,120.128559 226.521914,120.136107 C226.510591,120.143656 226.502835,120.155493 226.500433,120.168887 L226.420433,120.438887 C226.411563,120.47609 226.418299,120.515302 226.439076,120.547412 C226.459853,120.579522 226.492862,120.601734 226.530433,120.608887 L233.880433,121.958887 C234.245832,122.024425 234.498623,122.364387 234.460433,122.738887 L234.440433,123.008887 C234.419495,123.251436 234.209079,123.43555 233.960433,123.428887 C231.173767,123.38222 228.4271,122.758887 225.720433,121.558887 C225.410116,121.419028 225.171627,121.156829 225.061719,120.834684 C224.95181,120.512538 224.980309,120.15925 225.140433,119.858887 C225.7071,118.81222 225.9971,117.928887 226.010433,117.208887 C225.993097,116.56224 226.27334,115.943374 226.770765,115.529828 C227.26819,115.116282 227.927825,114.95376 228.560433,115.088887 L234.830433,116.438887 C235.100261,116.494725 235.334789,116.660521 235.47865,116.897134 C235.62251,117.133747 235.662954,117.420206 235.590433,117.688887 L235.480433,118.078887 C235.425522,118.27921 235.289993,118.44779 235.106143,118.544453 C234.922294,118.641116 234.706589,118.657206 234.510433,118.588887 C231.5371,117.568887 229.9771,117.095554 229.830433,117.168887 C229.775772,117.213381 229.748565,117.283363 229.75882,117.353095 C229.769075,117.422826 229.815276,117.482013 229.880433,117.508887 L234.490433,119.518887 C234.873734,119.676121 235.07954,120.094565 234.9701,120.494146 C234.860661,120.893727 234.47036,121.148906 234.060433,121.088887 L226.560433,120.128887 Z M228.670433,116.548887 C228.789289,116.519388 228.853411,116.407264 228.820635,116.286243 C228.787858,116.165222 228.668238,116.072431 228.540433,116.068887 C228.440433,116.06222 228.340433,116.08222 228.240433,116.128887 C228.198758,116.151258 228.169117,116.190922 228.15947,116.237228 C228.149823,116.283534 228.161159,116.331735 228.190433,116.368887 C228.343767,116.54222 228.503767,116.60222 228.670433,116.548887 Z M226.820433,118.518887 C227.813767,118.785554 228.563767,118.84222 229.070433,118.688887 C229.172879,118.660847 229.24471,118.568805 229.247019,118.462617 C229.249327,118.356428 229.181564,118.261352 229.080433,118.228887 C227.840433,117.775554 227.1071,117.56222 226.880433,117.588887 C226.655749,117.61368 226.483246,117.794767 226.468639,118.021173 C226.454032,118.247579 226.601401,118.456075 226.820433,118.518887 L226.820433,118.518887 Z" id="Shape" fill="#040404"></path>
            <path d="M228.670433,116.548887 C228.503767,116.60222 228.343767,116.54222 228.190433,116.368887 C228.161159,116.331735 228.149823,116.283534 228.15947,116.237228 C228.169117,116.190922 228.198758,116.151258 228.240433,116.128887 C228.340433,116.08222 228.440433,116.06222 228.540433,116.068887 C228.668238,116.072431 228.787858,116.165222 228.820635,116.286243 C228.853411,116.407264 228.789289,116.519388 228.670433,116.548887 Z" id="Path" fill="#B28B5A"></path>
            <path d="M226.820433,118.518887 C226.601401,118.456075 226.454032,118.247579 226.468639,118.021173 C226.483246,117.794767 226.655749,117.61368 226.880433,117.588887 C227.1071,117.56222 227.840433,117.775554 229.080433,118.228887 C229.181564,118.261352 229.249327,118.356428 229.247019,118.462617 C229.24471,118.568805 229.172879,118.660847 229.070433,118.688887 C228.563767,118.84222 227.813767,118.785554 226.820433,118.518887 Z" id="Path" fill="#C9C9C9"></path>
            <path d="M131.080433,124.118887 L122.950433,124.858887 C122.223767,124.198887 122.1871,123.51222 122.840433,122.798887 C123.000927,122.626067 123.223158,122.52212 123.460433,122.508887 L131.210433,122.188887 C131.372972,122.18073 131.531852,122.23895 131.650638,122.350194 C131.769424,122.461438 131.837926,122.616163 131.840433,122.778887 C131.853767,123.938887 131.600433,124.385554 131.080433,124.118887 Z" id="Path" fill="#040404"></path>
            <rect id="Rectangle" fill="#040404" transform="translate(228.900433, 124.268887) rotate(14.400000) translate(-228.900433, -124.268887) " x="223.940433" y="123.358887" width="9.92" height="1.82" rx="0.88"></rect>
            <path d="M131.080433,124.118887 C130.833767,124.505554 130.7471,124.89222 130.820433,125.278887 C130.533767,125.285554 130.243767,125.215554 129.950433,125.068887 C129.881462,125.034689 129.801602,125.030423 129.730933,125.057163 C129.660265,125.083903 129.605509,125.139104 129.580433,125.208887 C129.573767,125.22222 129.583767,125.32222 129.610433,125.508887 C129.63125,125.672256 129.776177,125.790833 129.940433,125.778887 C130.3871,125.745554 130.740433,125.848887 131.000433,126.088887 C131.099249,126.182127 131.130822,126.326399 131.079984,126.45239 C131.029146,126.57838 130.906287,126.660338 130.770433,126.658906 C130.450433,126.65222 130.140433,126.578887 129.840433,126.438887 C129.649888,126.340181 129.437243,126.288734 129.220433,126.288887 L122.970433,126.288887 C123.323767,126.168887 123.523767,126.025554 123.570433,125.858887 C123.7171,125.35222 123.510433,125.018887 122.950433,124.858887 L131.080433,124.118887 Z" id="Path" fill="#B28B5A"></path>
            <path d="M130.820433,125.278887 L131.980433,126.468887 C132.230934,126.719745 132.312946,127.093246 132.190587,127.425976 C132.068229,127.758705 131.763776,127.990087 131.410433,128.018887 C128.4171,128.285554 125.640433,128.325554 123.080433,128.138887 C122.740433,128.11222 122.5171,127.96222 122.410433,127.688887 C122.183767,127.095554 122.370433,126.628887 122.970433,126.288887 L129.220433,126.288887 C129.437243,126.288734 129.649888,126.340181 129.840433,126.438887 C130.140433,126.578887 130.450433,126.65222 130.770433,126.658887 C130.906287,126.660338 131.029146,126.57838 131.079984,126.45239 C131.130822,126.326399 131.099249,126.182127 131.000433,126.088887 C130.740433,125.848887 130.3871,125.745554 129.940433,125.778887 C129.776177,125.790833 129.63125,125.672256 129.610433,125.508887 C129.583767,125.32222 129.573767,125.22222 129.580433,125.208887 C129.605509,125.139104 129.660265,125.083903 129.730933,125.057163 C129.801602,125.030423 129.881462,125.034689 129.950433,125.068887 C130.243767,125.215554 130.533767,125.285554 130.820433,125.278887 Z" id="Path" fill="#040404"></path>
            <path d="M232.560433,129.078887 C232.492167,129.325883 232.238625,129.47267 231.990433,129.408887 L226.530433,127.908887 C224.656227,127.397064 223.252875,126.538964 223.390433,125.988887 L223.510433,125.558887 C223.583458,125.29565 224.012198,125.141444 224.702334,125.130191 C225.39247,125.118939 226.287467,125.251563 227.190433,125.498887 L232.650433,126.988887 C232.898368,127.061425 233.041287,127.320465 232.970433,127.568887 L232.560433,129.078887 Z" id="Path" fill="#040404"></path>
            <path d="M228.600433,131.708887 C226.573767,131.38222 224.7971,130.775554 223.270433,129.888887 C222.870865,129.65055 222.712121,129.151421 222.900605,128.726059 C223.089089,128.300696 223.565468,128.083 224.010433,128.218887 L230.540433,130.228887 C231.176186,130.427529 231.620748,131.001377 231.654232,131.666598 C231.687716,132.33182 231.303026,132.947408 230.690433,133.208887 L226.620433,134.928887 C226.39543,135.02504 226.213587,135.203318 226.110433,135.428887 C224.163767,139.775554 223.500433,144.398887 224.120433,149.298887 C224.166896,149.669277 224.45465,149.961142 224.820433,150.008887 C233.000433,151.118887 240.640433,152.028887 246.450433,155.198887 C247.9771,156.038887 249.833767,157.168887 252.020433,158.588887 C252.955353,159.198886 253.972942,159.667246 255.040433,159.978887 C257.9671,160.838887 265.843767,163.028887 278.670433,166.548887 C285.6971,168.468887 305.9771,174.008887 339.510433,183.168887 C346.443767,185.06222 352.783767,186.708887 358.530433,188.108887 C359.538631,188.358085 360.224587,189.292331 360.160433,190.328887 C360.120433,191.00222 359.783767,191.72222 359.150433,192.488887 C346.883767,207.28222 336.3371,220.07222 327.510433,230.858887 C325.5971,233.205554 323.933767,235.368887 322.520433,237.348887 C322.198952,237.799869 322.232229,238.411329 322.600433,238.818887 C334.420433,251.845554 347.123767,265.885554 360.710433,280.938887 C363.010433,283.478887 360.690433,284.828887 358.370433,285.678887 C342.863767,291.325554 329.930433,296.028887 319.570433,299.788887 C318.858549,300.039147 318.381734,300.716304 318.380433,301.478887 L318.380433,376.628887 C318.379816,377.460128 317.884354,378.211186 317.120433,378.538887 L187.590433,433.238887 C187.215573,433.398231 186.789022,433.387293 186.420433,433.208887 C182.440433,431.228887 178.540433,429.858887 174.510433,428.108887 C138.4571,412.46222 100.4571,396.22222 60.5104334,379.388887 C58.7304334,378.638887 57.7204334,378.108887 57.7204334,375.928887 C57.7404334,353.688887 57.7071001,328.94222 57.6204334,301.688887 C57.6198129,301.41285 57.4473729,301.168225 57.1904334,301.078887 C50.8237667,298.765554 37.2171001,293.665554 16.3704334,285.778887 C14.3604334,285.008887 14.8504334,282.598887 15.9804334,281.328887 C28.4271001,267.34222 40.1504334,253.98222 51.1504334,241.248887 C52.0104334,240.248887 52.6904334,239.26222 53.1904334,238.288887 C53.4444077,237.790703 53.3775706,237.189169 53.0204334,236.758887 L16.7004334,192.528887 C16.5814711,192.383538 16.4899712,192.217483 16.4304334,192.038887 C15.6637667,189.79222 16.2871001,188.41222 18.3004334,187.898887 C30.8004334,184.698887 38.6204334,182.598887 41.7604334,181.598887 C44.0937667,180.858887 70.6804334,173.455554 121.520433,159.388887 C121.848226,159.302679 122.104225,159.046679 122.190433,158.718887 L123.670433,153.528887 C123.677092,153.495549 123.683785,153.458737 123.690433,153.418887 C123.903767,150.318887 124.193767,147.64222 124.560433,145.388887 C125.010433,142.618887 126.770433,141.548887 128.970433,140.158887 C129.104813,140.071897 129.168011,139.908355 129.127048,139.753606 C129.086085,139.598858 128.950252,139.488001 128.790433,139.478887 C126.0771,139.358887 124.283767,139.14222 123.410433,138.828887 C122.581657,138.530127 122.076392,137.693917 122.196735,136.820224 C122.317079,135.946532 123.030495,135.271566 123.910433,135.198887 L131.500433,134.598887 C131.625256,134.590499 131.748207,134.631162 131.842055,134.711872 C131.935903,134.792581 131.992904,134.906676 132.000433,135.028887 L132.030433,135.448887 C132.044243,135.613441 131.991836,135.776706 131.884834,135.902481 C131.777831,136.028256 131.625074,136.106148 131.460433,136.118887 L126.600433,136.498887 C126.554432,136.49926 126.515622,136.53807 126.510433,136.588887 L126.480433,136.888887 C126.477515,136.928808 126.489609,136.968172 126.514024,136.998222 C126.538439,137.028271 126.57315,137.046512 126.610433,137.048887 L130.370433,137.418887 C131.056608,137.486839 131.627786,137.978164 131.796278,138.64539 C131.964769,139.312617 131.694033,140.011044 131.120433,140.388887 C129.413767,141.52222 128.223767,142.448887 127.550433,143.168887 C125.330433,145.528887 125.500433,150.498887 125.610433,153.498887 C125.622066,153.845219 125.838121,154.151624 126.160433,154.278887 C127.0671,154.63222 127.503767,155.685554 127.470433,157.438887 C127.4571,158.39222 127.590433,159.825554 127.870433,161.738887 C127.891343,161.872071 127.981253,161.984205 128.106708,162.033564 C128.232162,162.082924 128.374377,162.062117 128.480433,161.978887 C130.460433,160.39222 131.630433,159.508887 131.990433,159.328887 C142.430433,153.988887 156.040433,151.848887 167.780433,150.708887 C185.2471,149.015554 202.193767,148.598887 218.620433,149.458887 C218.947644,149.476495 219.255421,149.291039 219.400433,148.988887 C221.4671,144.728887 223.0871,140.09222 224.260433,135.078887 C224.460633,134.218956 225.062717,133.505375 225.880433,133.158887 L228.640433,131.998887 C228.706206,131.974323 228.74614,131.907422 228.736547,131.837871 C228.726954,131.76832 228.6704,131.714728 228.600433,131.708887 Z M141.410433,157.728887 C129.960433,160.348887 122.350433,169.518887 120.850433,180.888887 C119.670433,189.868887 119.723767,201.215554 121.010433,214.928887 C122.280433,228.438887 129.200433,240.128887 142.330433,244.668887 C145.9971,245.935554 151.810433,246.795554 159.770433,247.248887 C164.9571,247.54222 170.8371,247.46222 177.410433,247.008887 C194.370433,245.828887 206.550433,244.168887 220.770433,242.598887 C225.363767,242.09222 230.8371,240.895554 237.190433,239.008887 C241.3171,237.775554 245.123767,235.925554 248.610433,233.458887 C254.800433,229.298887 257.540433,222.708887 258.660433,215.698887 C260.620433,203.398887 261.003767,191.295554 259.810433,179.388887 C259.4771,176.04222 258.2371,172.115554 256.090433,167.608887 C251.090433,157.108887 240.150433,153.558887 229.550433,152.328887 C221.6171,151.40222 213.2771,150.938518 204.530433,150.938518 C187.010433,150.918887 170.910433,151.708887 154.530433,154.368887 C149.670433,155.155554 145.2971,156.275554 141.410433,157.728887 Z M120.630433,163.958887 L22.7704334,191.248887 C22.5559433,191.307666 22.3854793,191.470516 22.3169669,191.682098 C22.2484546,191.89368 22.2911082,192.125539 22.4304334,192.298887 L57.1004334,235.458887 C57.3300921,235.741547 57.706461,235.856438 58.0504334,235.748887 L118.610433,217.208887 C119.132476,217.044573 119.464088,216.532464 119.400433,215.988887 C118.173767,205.735554 117.910433,195.588887 118.610433,185.548887 C118.635683,185.101127 118.480859,184.661859 118.180433,184.328887 C115.2271,181.10222 114.370433,177.158887 115.610433,172.498887 C116.430433,169.428887 118.700433,166.898887 121.020433,164.658887 C121.152727,164.524269 121.181216,164.316908 121.089928,164.153059 C120.998641,163.98921 120.810274,163.909611 120.630433,163.958887 L120.630433,163.958887 Z M117.810433,171.878887 C116.990433,174.048887 116.520433,179.898887 118.690433,181.978887 C118.774417,182.058506 118.895757,182.084717 119.005117,182.046862 C119.114477,182.009006 119.193645,181.913389 119.210433,181.798887 C119.703767,178.318887 120.380433,175.445554 121.240433,173.178887 C122.100433,170.91222 123.503767,168.318887 125.450433,165.398887 C125.519987,165.301788 125.52757,165.173367 125.469928,165.068757 C125.412286,164.964147 125.299672,164.901958 125.180433,164.908887 C122.170433,165.028887 118.630433,169.708887 117.810433,171.878887 Z M257.250433,165.858887 C260.590433,172.01222 262.253767,179.76222 262.240433,189.108887 C262.2271,199.255554 261.540433,208.768887 260.180433,217.648887 C260.139407,217.922075 260.287094,218.188733 260.540433,218.298887 C262.1471,218.978887 263.830433,219.56222 265.590433,220.048887 C269.963767,221.26222 284.163767,225.435554 308.190433,232.568887 C311.550433,233.568887 314.820433,234.928887 317.670433,235.878887 C317.849807,235.946013 318.051999,235.8894 318.170433,235.738887 L353.510433,192.168887 C353.639052,192.009267 353.678897,191.795717 353.616494,191.600455 C353.554091,191.405193 353.397784,191.254331 353.200433,191.198887 L257.840433,165.118887 C257.640951,165.059159 257.425193,165.126704 257.29538,165.28952 C257.165567,165.452336 257.147775,165.677719 257.250433,165.858887 L257.250433,165.858887 Z M148.090433,247.798887 C147.3571,247.55222 145.413767,247.095554 142.260433,246.428887 C131.360433,244.118887 123.190433,232.448887 120.640433,222.278887 C120.570753,221.995892 120.387627,221.754072 120.134115,221.61029 C119.880604,221.466507 119.579076,221.433449 119.300433,221.518887 L65.6204334,237.958887 C65.3832125,238.035876 65.2217686,238.255896 65.2194772,238.505287 C65.2172342,238.754679 65.3746514,238.977597 65.6104334,239.058887 L130.160433,260.898887 C130.478955,261.008897 130.832329,260.927349 131.070433,260.688887 C132.250433,259.495554 133.2871,258.445554 134.180433,257.538887 C138.313767,253.365554 142.950433,250.398887 148.090433,248.638887 C148.268958,248.572438 148.388508,248.4013 148.388508,248.212189 C148.388508,248.023077 148.268958,247.857312 148.090433,247.798887 Z M216.510433,245.108887 C218.783767,247.328887 221.133767,248.515554 223.560433,248.668887 C230.3671,249.095554 235.3471,249.438887 238.500433,249.698887 C244.940433,250.238887 250.133767,252.54222 254.080433,256.608887 C254.525968,257.067148 255.196082,257.226884 255.800433,257.018887 L309.820433,238.608887 C309.98231,238.559648 310.092132,238.409312 310.08985,238.240128 C310.087497,238.070944 309.973598,237.923673 309.810433,237.878887 L259.930433,222.478887 C259.622788,222.382131 259.289247,222.412192 259.003859,222.562396 C258.718471,222.7126 258.504854,222.970517 258.410433,223.278887 C252.990433,240.408887 231.360433,242.338887 216.680433,244.598887 C216.567516,244.614617 216.473273,244.692992 216.437221,244.801149 C216.401168,244.909307 216.429537,245.028552 216.510433,245.108887 Z M21.3104334,282.958887 C25.2504334,284.845554 29.7337667,286.648887 34.7604334,288.368887 C44.3504334,291.658887 54.1304334,295.538887 63.2604334,298.848887 C88.0337667,307.82222 112.973767,317.075554 138.080433,326.608887 C143.8071,328.78222 147.243767,330.155554 148.390433,330.728887 C148.765481,330.913991 149.223244,330.8006 149.480433,330.458887 L183.490433,284.438887 C183.65971,284.207216 183.708357,283.908604 183.621088,283.636881 C183.533819,283.365158 183.321347,283.153676 183.050433,283.068887 C169.790433,278.90222 158.583767,275.195554 149.430433,271.948887 C132.140433,265.808887 117.140433,261.088887 96.4204334,253.958887 C88.7004334,251.305554 79.4571001,248.24222 68.6904334,244.768887 C65.3704334,243.698887 61.3504334,241.878887 58.5804334,240.608887 C58.1299212,240.402016 57.5970109,240.515921 57.2704334,240.888887 L21.1704334,282.278887 C21.0824055,282.382128 21.046929,282.520206 21.0742882,282.653093 C21.1016474,282.785981 21.1887823,282.898815 21.3104334,282.958887 L21.3104334,282.958887 Z M224.900433,329.558887 C225.025674,329.731402 225.249691,329.800643 225.450433,329.728887 L355.240433,282.508887 C355.38914,282.453481 355.500851,282.328157 355.538869,282.174085 C355.576887,282.020013 355.536297,281.857109 355.430433,281.738887 L318.400433,240.568887 C318.27379,240.42433 318.073131,240.369247 317.890433,240.428887 L191.290433,283.578887 C191.147271,283.630745 191.037204,283.747453 190.993813,283.893405 C190.950422,284.039357 190.978853,284.19724 191.070433,284.318887 L224.900433,329.558887 Z M175.580433,248.608887 C175.133767,248.548887 174.6871,248.578887 174.240433,248.698887 C171.453767,248.89222 168.6571,248.988887 165.850433,248.988887 C163.180433,248.978887 161.530433,249.718887 160.550433,251.978887 C160.40238,252.320956 160.381081,252.700782 160.490433,253.048887 C161.690433,256.868887 164.1271,258.138887 167.800433,256.858887 C168.017388,256.788598 168.255509,256.810246 168.460433,256.918887 C168.8271,257.118887 169.2271,256.978887 169.660433,256.498887 C169.752421,256.400369 169.820999,256.276927 169.860433,256.138887 C170.573767,253.198887 172.013767,250.835554 174.180433,249.048887 C175.000433,249.10222 175.6971,249.038887 176.270433,248.858887 C177.0771,249.118887 177.793767,249.085554 178.420433,248.758887 C178.686528,248.622385 178.988651,248.576715 179.280433,248.628887 C188.520433,250.36222 197.603767,249.658887 206.530433,246.518887 C206.749862,246.462913 206.885406,246.243056 206.836853,246.021868 C206.788299,245.80068 206.573131,245.657809 206.350433,245.698887 L175.580433,248.608887 Z M212.150433,246.378887 L212.330433,249.838887 C212.333033,249.905209 212.3619,249.967776 212.410672,250.012796 C212.459443,250.057815 212.524115,250.081593 212.590433,250.078887 L212.810433,250.058887 C213.442779,250.027628 213.93,249.473358 213.900433,248.818887 L213.820433,247.238887 C213.804398,246.923497 213.66787,246.627202 213.440919,246.415255 C213.213968,246.203309 212.915207,246.093096 212.610433,246.108887 L212.390433,246.118887 C212.324111,246.121487 212.261544,246.150354 212.216525,246.199125 C212.171505,246.247896 212.147728,246.312569 212.150433,246.378887 Z M219.840433,249.098887 L215.770433,246.088887 C215.620908,245.982315 215.422772,245.970558 215.263498,246.058804 C215.104224,246.147051 215.01313,246.319057 215.030433,246.498887 L215.250433,249.258887 C215.260658,249.402253 215.327615,249.535628 215.436478,249.629475 C215.545341,249.723322 215.687125,249.769898 215.830433,249.758887 L219.730433,249.458887 C219.814712,249.4548 219.88736,249.39826 219.912017,249.317565 C219.936674,249.23687 219.908035,249.149381 219.840433,249.098887 L219.840433,249.098887 Z M208.320433,247.418887 C208.0071,247.85222 207.943767,248.688887 208.130433,249.928887 C208.181927,250.261508 208.485783,250.494905 208.820433,250.458887 C210.373767,250.285554 211.263767,250.048887 211.490433,249.748887 C211.710433,249.448887 211.673767,248.528887 211.380433,246.988887 C211.319415,246.651148 210.999285,246.42439 210.660433,246.478887 C209.420433,246.67222 208.640433,246.985554 208.320433,247.418887 Z M178.980433,249.948887 C178.973767,249.515554 178.803767,249.35222 178.470433,249.458887 C178.4371,249.625554 178.6071,249.788887 178.980433,249.948887 C180.573767,251.548887 181.280433,253.528887 181.100433,255.888887 C181.090991,256.006072 181.141012,256.120169 181.233595,256.192625 C181.326177,256.265081 181.448952,256.286216 181.560433,256.248887 C186.953767,254.328887 192.193767,252.78222 197.280433,251.608887 C199.1871,251.168887 202.163767,250.908887 206.210433,250.828887 C206.390197,250.823888 206.559957,250.745778 206.679333,250.613137 C206.79871,250.480496 206.857034,250.305179 206.840433,250.128887 L206.700433,248.328887 C206.687046,248.153202 206.594504,247.993149 206.449767,247.895354 C206.305029,247.797559 206.124376,247.77302 205.960433,247.828887 C196.510433,251.018887 188.730433,251.808887 178.980433,249.948887 Z M153.240433,267.408887 C155.040433,260.555554 157.573767,254.468887 160.840433,249.148887 C160.88262,249.080339 160.885903,248.994726 160.849092,248.923148 C160.812281,248.85157 160.74073,248.804443 160.660433,248.798887 L152.920433,248.048887 C152.758947,248.030111 152.602216,248.118523 152.530433,248.268887 C149.510433,254.868887 149.4971,261.275554 152.490433,267.488887 C152.563568,267.641816 152.725157,267.73204 152.893718,267.71406 C153.06228,267.69608 153.201203,267.573802 153.240433,267.408887 Z M174.740433,258.288887 C172.680433,256.208887 172.150433,254.258887 174.830433,252.338887 C175.329981,251.979899 175.960494,251.853158 176.532722,251.996706 C177.104949,252.140255 177.552276,252.537382 177.740433,253.068887 C178.093767,254.048887 177.953767,254.98222 177.320433,255.868887 C177.133186,256.140746 176.757839,256.207773 176.480433,256.018887 L176.230433,255.828887 C176.139807,255.76292 176.07931,255.663464 176.062407,255.552654 C176.045504,255.441843 176.073597,255.328873 176.140433,255.238887 L176.840433,254.288887 C177.018027,254.039212 177.009705,253.70233 176.82,253.461729 C176.630295,253.221127 176.304651,253.134442 176.020433,253.248887 C174.440433,253.908887 174.100433,255.06222 175.000433,256.708887 C175.533767,257.675554 176.193767,258.08222 176.980433,257.928887 C181.870433,256.948887 180.590433,250.728887 176.090433,249.908887 C175.713788,249.838155 175.326502,249.925023 175.020433,250.148887 C173.200433,251.468887 171.8871,253.545554 171.080433,256.378887 C170.988734,256.703407 171.135018,257.04613 171.430433,257.198887 C172.123767,257.545554 172.423767,257.868887 172.330433,258.168887 C172.248965,258.426533 172.048547,258.630663 171.790433,258.718887 C170.850433,259.045554 170.2371,259.398887 169.950433,259.778887 C169.864086,259.894642 169.863034,260.053095 169.947837,260.169986 C170.032641,260.286877 170.183597,260.33505 170.320433,260.288887 L174.650433,258.718887 C174.733876,258.68765 174.795512,258.615862 174.813765,258.528654 C174.832018,258.441446 174.804345,258.350965 174.740433,258.288887 Z M147.630433,250.328887 C141.703767,252.88222 136.803767,256.63222 132.930433,261.578887 C132.857009,261.66948 132.833452,261.790512 132.867212,261.903707 C132.900971,262.016901 132.987873,262.108259 133.100433,262.148887 L148.640433,267.398887 C148.72929,267.428045 148.828024,267.402384 148.889699,267.334101 C148.951374,267.265818 148.963548,267.168688 148.920433,267.088887 C146.2271,261.635554 145.903767,256.148887 147.950433,250.628887 C147.981612,250.53931 147.957112,250.439774 147.887917,250.374904 C147.818722,250.309988 147.717814,250.292 147.630433,250.328887 L147.630433,250.328887 Z M150.160433,265.238887 C148.553767,260.005554 148.6671,255.075554 150.500433,250.448887 C150.525178,250.369589 150.492445,250.283657 150.421214,250.240918 C150.349984,250.19818 150.258757,250.209736 150.200433,250.268887 C146.870433,253.978887 147.880433,262.248887 149.760433,265.418887 C149.815632,265.519529 149.938931,265.560819 150.043606,265.513715 C150.148281,265.466611 150.19915,265.346946 150.160433,265.238887 L150.160433,265.238887 Z M252.410433,257.228887 C249.8171,254.608887 246.440433,252.89222 242.280433,252.078887 C236.530433,250.958887 229.540433,250.088887 223.260433,250.468887 C216.213767,250.895554 209.603767,251.51222 203.430433,252.318887 C193.600433,253.608887 184.180433,256.798887 174.550433,260.428887 C169.103767,262.48222 164.293767,265.898887 160.120433,270.678887 C160.052398,270.752604 160.027226,270.855937 160.053333,270.954338 C160.079439,271.05274 160.153379,271.133225 160.250433,271.168887 L187.290433,280.318887 C187.575664,280.415987 187.88824,280.415987 188.180433,280.318887 L252.100433,258.528887 C252.357177,258.441364 252.551065,258.228241 252.613984,257.964387 C252.676903,257.700534 252.600053,257.42285 252.410433,257.228887 Z M158.450433,270.028887 C159.230433,269.18222 160.4571,267.668887 162.130433,265.488887 C163.790433,263.315554 164.7171,261.228887 164.910433,259.228887 C164.944671,258.889587 164.722294,258.577404 164.390433,258.498887 C162.0571,257.965554 160.570433,256.42222 159.930433,253.868887 C159.897491,253.721408 159.770805,253.615707 159.618703,253.608793 C159.4666,253.601879 159.325065,253.695389 159.270433,253.838887 L153.960433,268.178887 C153.899247,268.345963 153.907031,268.530516 153.982069,268.691847 C154.057107,268.853178 154.193235,268.978036 154.360433,269.038887 L157.590433,270.238887 C157.89324,270.348327 158.232146,270.265571 158.450433,270.028887 Z M165.230433,263.898887 C167.0571,262.618887 168.120433,260.92222 168.420433,258.808887 C168.468262,258.476835 168.263133,258.160596 167.940433,258.068887 C167.7871,258.028887 167.350433,258.09222 166.630433,258.258887 C166.383524,258.315175 166.187092,258.507755 166.120433,258.758887 L164.790433,263.588887 C164.763203,263.70416 164.808812,263.824408 164.905639,263.892627 C165.002467,263.960846 165.131049,263.963324 165.230433,263.898887 L165.230433,263.898887 Z M61.9504334,315.928887 L61.9904334,374.438887 C61.9906645,374.658962 62.1197767,374.858499 62.3204334,374.948887 L84.7204334,385.068887 L90.3004334,387.218887 L184.380433,427.938887 C184.587713,428.026165 184.824955,428.003622 185.012087,427.878868 C185.19922,427.754113 185.311275,427.54379 185.310433,427.318887 L185.380433,308.248887 L185.460577,290.308887 C185.465238,290.125291 185.349167,289.961941 185.173342,289.904855 C184.997516,289.847769 184.802277,289.910044 184.690433,290.058887 L151.750433,334.618887 C151.283318,335.251268 150.450701,335.496155 149.710433,335.218887 L62.4204334,302.898887 C62.3101506,302.859896 62.1877992,302.876917 62.0923467,302.944529 C61.9968942,303.012141 61.9404329,303.121914 61.9404329,303.238887 L61.9504334,315.928887 Z M189.770433,419.928887 L189.490433,427.228887 C189.485318,427.391138 189.562558,427.544982 189.695735,427.637803 C189.828912,427.730623 189.99998,427.749842 190.150433,427.688887 L313.230433,375.698887 C313.649287,375.52206 313.921233,375.116112 313.920433,374.668887 L313.980433,316.938887 L313.960433,302.988887 C313.959703,302.775026 313.855395,302.574776 313.680567,302.451601 C313.505738,302.328426 313.282064,302.297598 313.080433,302.368887 L223.950433,334.998887 L212.320433,319.788887 L189.810433,290.058887 C189.741326,289.971691 189.624182,289.935821 189.519745,289.969876 C189.415309,290.003931 189.347078,290.10025 189.350315,290.208887 L189.770433,419.928887 Z" id="Shape" fill="#040404"></path>
            <path d="M130.250433,131.078887 L123.730433,131.318887 C123.170433,131.325554 122.763767,131.198887 122.510433,130.938887 C122.241157,130.661025 122.162064,130.253351 122.306537,129.887921 C122.451009,129.522491 122.793876,129.26297 123.190433,129.218887 C125.9171,128.938887 128.703767,128.908887 131.550433,129.128887 C131.934149,129.157126 132.241716,129.457696 132.278777,129.84066 C132.315838,130.223624 132.071614,130.577593 131.700433,130.678887 L130.250433,131.078887 Z" id="Path" fill="#040404"></path>
            <path d="M130.250433,131.078887 L130.500433,132.188887 L123.800433,132.468887 C123.7071,132.095554 123.683767,131.71222 123.730433,131.318887 L130.250433,131.078887 Z" id="Path" fill="#C9C9C9"></path>
            <path d="M130.500433,132.188887 C131.320433,132.04222 131.8471,132.168887 132.080433,132.568887 C132.240007,132.838916 132.249272,133.172091 132.10495,133.450571 C131.960628,133.729051 131.683066,133.913578 131.370433,133.938887 C128.5771,134.165554 125.8671,134.30222 123.240433,134.348887 C122.856063,134.357808 122.510398,134.116167 122.386758,133.752116 C122.263118,133.388065 122.39013,132.985892 122.700433,132.758887 C122.893767,132.618887 123.260433,132.52222 123.800433,132.468887 L130.500433,132.188887 Z" id="Path" fill="#040404"></path>
            <path d="M248.610433,233.458887 C244.980433,234.158887 241.280433,235.208887 237.790433,235.428887 C232.930433,235.728887 228.8171,236.128887 225.450433,236.628887 C217.440433,237.818887 208.160433,238.268887 200.870433,239.648887 C196.4571,240.48222 192.3671,240.875554 188.600433,240.828887 C179.4271,240.728887 174.830433,240.678887 174.810433,240.678887 C157.920433,240.188887 139.400433,234.608887 134.340433,216.338887 C132.3471,209.125554 131.403767,201.165554 131.510433,192.458887 C131.5771,187.065554 131.873767,182.52222 132.400433,178.828887 C133.2271,172.955554 134.2571,168.535554 135.490433,165.568887 C136.1171,164.075554 138.090433,161.46222 141.410433,157.728887 C145.2971,156.275554 149.670433,155.155554 154.530433,154.368887 C170.910433,151.708887 187.010433,150.918887 204.530433,150.938518 C213.2771,150.938518 221.6171,151.40222 229.550433,152.328887 C240.150433,153.558887 251.090433,157.108887 256.090433,167.608887 C258.2371,172.115554 259.4771,176.04222 259.810433,179.388887 C261.003767,191.295554 260.620433,203.398887 258.660433,215.698887 C257.540433,222.708887 254.800433,229.298887 248.610433,233.458887 Z M216.210433,198.588887 L194.280433,200.298887 C193.888966,200.334151 193.537664,200.05311 193.480433,199.658887 C190.120433,174.928887 159.000433,173.928887 150.840433,195.708887 C148.7871,201.175554 148.520433,207.075554 150.040433,213.408887 C153.610433,228.348887 169.920433,234.518887 182.450433,225.538887 C188.6771,221.085554 192.3571,215.06222 193.490433,207.468887 C193.538051,207.171521 193.789464,206.949439 194.090433,206.938887 L216.080433,206.008887 C216.726895,205.978578 217.295756,206.431957 217.410433,207.068887 C220.910433,226.548887 242.860433,222.718887 248.030433,207.568887 C250.0171,201.74222 249.813767,196.348887 247.420433,191.388887 C244.770433,185.888887 239.160433,182.628887 233.260433,182.998887 C225.6471,183.478887 220.570433,187.325554 218.030433,194.538887 C217.823767,195.11222 217.390433,196.33222 216.730433,198.198887 C216.652004,198.417067 216.448648,198.569584 216.210433,198.588887 L216.210433,198.588887 Z" id="Shape" fill="#ECEDED"></path>
            <path d="M141.410433,157.728887 C138.090433,161.46222 136.1171,164.075554 135.490433,165.568887 C134.2571,168.535554 133.2271,172.955554 132.400433,178.828887 C131.873767,182.52222 131.5771,187.065554 131.510433,192.458887 C131.403767,201.165554 132.3471,209.125554 134.340433,216.338887 C139.400433,234.608887 157.920433,240.188887 174.810433,240.678887 C174.830433,240.678887 179.4271,240.728887 188.600433,240.828887 C192.3671,240.875554 196.4571,240.48222 200.870433,239.648887 C208.160433,238.268887 217.440433,237.818887 225.450433,236.628887 C228.8171,236.128887 232.930433,235.728887 237.790433,235.428887 C241.280433,235.208887 244.980433,234.158887 248.610433,233.458887 C245.123767,235.925554 241.3171,237.775554 237.190433,239.008887 C230.8371,240.895554 225.363767,242.09222 220.770433,242.598887 C206.550433,244.168887 194.370433,245.828887 177.410433,247.008887 C170.8371,247.46222 164.9571,247.54222 159.770433,247.248887 C151.810433,246.795554 145.9971,245.935554 142.330433,244.668887 C129.200433,240.128887 122.280433,228.438887 121.010433,214.928887 C119.723767,201.215554 119.670433,189.868887 120.850433,180.888887 C122.350433,169.518887 129.960433,160.348887 141.410433,157.728887 Z" id="Path" fill="#C9C9C9"></path>
            <path d="M120.630433,163.958887 C120.810274,163.909611 120.998641,163.98921 121.089928,164.153059 C121.181216,164.316908 121.152727,164.524269 121.020433,164.658887 C118.700433,166.898887 116.430433,169.428887 115.610433,172.498887 C114.370433,177.158887 115.2271,181.10222 118.180433,184.328887 C118.480859,184.661859 118.635683,185.101127 118.610433,185.548887 C117.910433,195.588887 118.173767,205.735554 119.400433,215.988887 C119.464088,216.532464 119.132476,217.044573 118.610433,217.208887 L58.0504334,235.748887 C57.706461,235.856438 57.3300921,235.741547 57.1004334,235.458887 L22.4304334,192.298887 C22.2911082,192.125539 22.2484546,191.89368 22.3169669,191.682098 C22.3854793,191.470516 22.5559433,191.307666 22.7704334,191.248887 L120.630433,163.958887 Z" id="Path" fill="#CCA46E"></path>
            <path d="M121.240433,173.178887 C120.380433,175.445554 119.703767,178.318887 119.210433,181.798887 C119.193645,181.913389 119.114477,182.009006 119.005117,182.046862 C118.895757,182.084717 118.774417,182.058506 118.690433,181.978887 C116.520433,179.898887 116.990433,174.048887 117.810433,171.878887 C118.630433,169.708887 122.170433,165.028887 125.180433,164.908887 C125.299672,164.901958 125.412286,164.964147 125.469928,165.068757 C125.52757,165.173367 125.519987,165.301788 125.450433,165.398887 C123.503767,168.318887 122.100433,170.91222 121.240433,173.178887 Z" id="Path" fill="#ECEDED"></path>
            <path d="M257.840433,165.118887 L353.200433,191.198887 C353.397784,191.254331 353.554091,191.405193 353.616494,191.600455 C353.678897,191.795717 353.639052,192.009267 353.510433,192.168887 L318.170433,235.738887 C318.051999,235.8894 317.849807,235.946013 317.670433,235.878887 C314.820433,234.928887 311.550433,233.568887 308.190433,232.568887 C284.163767,225.435554 269.963767,221.26222 265.590433,220.048887 C263.830433,219.56222 262.1471,218.978887 260.540433,218.298887 C260.287094,218.188733 260.139407,217.922075 260.180433,217.648887 C261.540433,208.768887 262.2271,199.255554 262.240433,189.108887 C262.253767,179.76222 260.590433,172.01222 257.250433,165.858887 C257.147775,165.677719 257.165567,165.452336 257.29538,165.28952 C257.425193,165.126704 257.640951,165.059159 257.840433,165.118887 Z" id="Path" fill="#CCA46E"></path>
            <path d="M216.730433,198.198887 C217.390433,196.33222 217.823767,195.11222 218.030433,194.538887 C220.570433,187.325554 225.6471,183.478887 233.260433,182.998887 C239.160433,182.628887 244.770433,185.888887 247.420433,191.388887 C249.813767,196.348887 250.0171,201.74222 248.030433,207.568887 C242.860433,222.718887 220.910433,226.548887 217.410433,207.068887 C217.295756,206.431957 216.726895,205.978578 216.080433,206.008887 L194.090433,206.938887 C193.789464,206.949439 193.538051,207.171521 193.490433,207.468887 C192.3571,215.06222 188.6771,221.085554 182.450433,225.538887 C169.920433,234.518887 153.610433,228.348887 150.040433,213.408887 C148.520433,207.075554 148.7871,201.175554 150.840433,195.708887 C159.000433,173.928887 190.120433,174.928887 193.480433,199.658887 C193.537664,200.05311 193.888966,200.334151 194.280433,200.298887 L216.210433,198.588887 C216.448648,198.569584 216.652004,198.417067 216.730433,198.198887 Z M238.432633,193.630087 C237.784524,193.78209 237.245959,194.281749 236.935417,195.019142 C236.624875,195.756536 236.567795,196.671261 236.776733,197.562087 C237.211857,199.417101 238.658642,200.664251 240.008233,200.347687 C240.656343,200.195683 241.194908,199.696025 241.50545,198.958631 C241.815992,198.221237 241.873072,197.306513 241.664133,196.415687 C241.229009,194.560672 239.782225,193.313523 238.432633,193.630087 L238.432633,193.630087 Z M182.920433,195.068887 C181.460433,195.495554 180.500433,196.55222 180.040433,198.238887 C179.968144,198.501904 179.957877,198.779131 180.010433,199.048887 C180.343767,200.72222 180.6571,201.96222 180.950433,202.768887 C181.116085,203.217696 181.416557,203.59611 181.784799,203.819686 C182.15304,204.043261 182.558404,204.09339 182.910433,203.958887 C186.180433,202.698887 184.900433,197.768887 183.830433,195.478887 C183.671919,195.134279 183.283579,194.959312 182.920433,195.068887 Z" id="Shape" fill="#040404"></path>
            <ellipse id="Oval" fill="#ECEDED" transform="translate(239.220433, 196.988887) rotate(-103.200000) translate(-239.220433, -196.988887) " cx="239.220433" cy="196.988887" rx="3.45" ry="2.51"></ellipse>
            <path d="M183.830433,195.478887 C184.900433,197.768887 186.180433,202.698887 182.910433,203.958887 C182.558404,204.09339 182.15304,204.043261 181.784799,203.819686 C181.416557,203.59611 181.116085,203.217696 180.950433,202.768887 C180.6571,201.96222 180.343767,200.72222 180.010433,199.048887 C179.957877,198.779131 179.968144,198.501904 180.040433,198.238887 C180.500433,196.55222 181.460433,195.495554 182.920433,195.068887 C183.283579,194.959312 183.671919,195.134279 183.830433,195.478887 L183.830433,195.478887 Z" id="Path" fill="#ECEDED"></path>
            <path d="M148.090433,247.798887 C148.268958,247.857312 148.388508,248.023077 148.388508,248.212189 C148.388508,248.4013 148.268958,248.572438 148.090433,248.638887 C142.950433,250.398887 138.313767,253.365554 134.180433,257.538887 C133.2871,258.445554 132.250433,259.495554 131.070433,260.688887 C130.832329,260.927349 130.478955,261.008897 130.160433,260.898887 L65.6104334,239.058887 C65.3746514,238.977597 65.2172342,238.754679 65.2194772,238.505287 C65.2217686,238.255896 65.3832125,238.035876 65.6204334,237.958887 L119.300433,221.518887 C119.579076,221.433449 119.880604,221.466507 120.134115,221.61029 C120.387627,221.754072 120.570753,221.995892 120.640433,222.278887 C123.190433,232.448887 131.360433,244.118887 142.260433,246.428887 C145.413767,247.095554 147.3571,247.55222 148.090433,247.798887 Z" id="Path" fill="#B28B5A"></path>
            <path d="M216.680433,244.598887 C231.360433,242.338887 252.990433,240.408887 258.410433,223.278887 C258.504854,222.970517 258.718471,222.7126 259.003859,222.562396 C259.289247,222.412192 259.622788,222.382131 259.930433,222.478887 L309.810433,237.878887 C309.973598,237.923673 310.087497,238.070944 310.08985,238.240128 C310.092132,238.409312 309.98231,238.559648 309.820433,238.608887 L255.800433,257.018887 C255.196082,257.226884 254.525968,257.067148 254.080433,256.608887 C250.133767,252.54222 244.940433,250.238887 238.500433,249.698887 C235.3471,249.438887 230.3671,249.095554 223.560433,248.668887 C221.133767,248.515554 218.783767,247.328887 216.510433,245.108887 C216.429537,245.028552 216.401168,244.909307 216.437221,244.801149 C216.473273,244.692992 216.567516,244.614617 216.680433,244.598887 Z" id="Path" fill="#B28B5A"></path>
            <path d="M21.3104334,282.958887 C21.1887823,282.898815 21.1016474,282.785981 21.0742882,282.653093 C21.046929,282.520206 21.0824055,282.382128 21.1704334,282.278887 L57.2704334,240.888887 C57.5970109,240.515921 58.1299212,240.402016 58.5804334,240.608887 C61.3504334,241.878887 65.3704334,243.698887 68.6904334,244.768887 C79.4571001,248.24222 88.7004334,251.305554 96.4204334,253.958887 C117.140433,261.088887 132.140433,265.808887 149.430433,271.948887 C158.583767,275.195554 169.790433,278.90222 183.050433,283.068887 C183.321347,283.153676 183.533819,283.365158 183.621088,283.636881 C183.708357,283.908604 183.65971,284.207216 183.490433,284.438887 L149.480433,330.458887 C149.223244,330.8006 148.765481,330.913991 148.390433,330.728887 C147.243767,330.155554 143.8071,328.78222 138.080433,326.608887 C112.973767,317.075554 88.0337667,307.82222 63.2604334,298.848887 C54.1304334,295.538887 44.3504334,291.658887 34.7604334,288.368887 C29.7337667,286.648887 25.2504334,284.845554 21.3104334,282.958887 Z" id="Path" fill="#CCA46E"></path>
            <path d="M224.900433,329.558887 L191.070433,284.318887 C190.978853,284.19724 190.950422,284.039357 190.993813,283.893405 C191.037204,283.747453 191.147271,283.630745 191.290433,283.578887 L317.890433,240.428887 C318.073131,240.369247 318.27379,240.42433 318.400433,240.568887 L355.430433,281.738887 C355.536297,281.857109 355.576887,282.020013 355.538869,282.174085 C355.500851,282.328157 355.38914,282.453481 355.240433,282.508887 L225.450433,329.728887 C225.249691,329.800643 225.025674,329.731402 224.900433,329.558887 Z" id="Path" fill="#CCA46E"></path>
            <path d="M176.270433,248.858887 C176.003767,248.818887 175.773767,248.735554 175.580433,248.608887 L206.350433,245.698887 C206.573131,245.657809 206.788299,245.80068 206.836853,246.021868 C206.885406,246.243056 206.749862,246.462913 206.530433,246.518887 C197.603767,249.658887 188.520433,250.36222 179.280433,248.628887 C178.988651,248.576715 178.686528,248.622385 178.420433,248.758887 C177.793767,249.085554 177.0771,249.118887 176.270433,248.858887 Z" id="Path" fill="#C9C9C9"></path>
            <path d="M212.150433,246.378887 C212.147728,246.312569 212.171505,246.247896 212.216525,246.199125 C212.261544,246.150354 212.324111,246.121487 212.390433,246.118887 L212.610433,246.108887 C212.915207,246.093096 213.213968,246.203309 213.440919,246.415255 C213.66787,246.627202 213.804398,246.923497 213.820433,247.238887 L213.900433,248.818887 C213.93,249.473358 213.442779,250.027628 212.810433,250.058887 L212.590433,250.078887 C212.524115,250.081593 212.459443,250.057815 212.410672,250.012796 C212.3619,249.967776 212.333033,249.905209 212.330433,249.838887 L212.150433,246.378887 Z" id="Path" fill="#ECEDED"></path>
            <path d="M219.730433,249.458887 L215.830433,249.758887 C215.687125,249.769898 215.545341,249.723322 215.436478,249.629475 C215.327615,249.535628 215.260658,249.402253 215.250433,249.258887 L215.030433,246.498887 C215.01313,246.319057 215.104224,246.147051 215.263498,246.058804 C215.422772,245.970558 215.620908,245.982315 215.770433,246.088887 L219.840433,249.098887 C219.908035,249.149381 219.936674,249.23687 219.912017,249.317565 C219.88736,249.39826 219.814712,249.4548 219.730433,249.458887 L219.730433,249.458887 Z" id="Path" fill="#ECEDED"></path>
            <path d="M211.490433,249.748887 C211.263767,250.048887 210.373767,250.285554 208.820433,250.458887 C208.485783,250.494905 208.181927,250.261508 208.130433,249.928887 C207.943767,248.688887 208.0071,247.85222 208.320433,247.418887 C208.640433,246.985554 209.420433,246.67222 210.660433,246.478887 C210.999285,246.42439 211.319415,246.651148 211.380433,246.988887 C211.673767,248.528887 211.710433,249.448887 211.490433,249.748887 Z M209.710433,248.618887 C209.823767,248.598887 209.9071,248.545554 209.960433,248.458887 C209.985442,248.415571 209.985442,248.362203 209.960433,248.318887 C209.900433,248.19222 209.7771,248.208887 209.590433,248.368887 C209.545155,248.415823 209.533082,248.487283 209.560706,248.544833 C209.58833,248.602383 209.649141,248.63246 209.710433,248.618887 L209.710433,248.618887 Z" id="Shape" fill="#C9C9C9"></path>
            <path d="M178.980433,249.948887 C188.730433,251.808887 196.510433,251.018887 205.960433,247.828887 C206.124376,247.77302 206.305029,247.797559 206.449767,247.895354 C206.594504,247.993149 206.687046,248.153202 206.700433,248.328887 L206.840433,250.128887 C206.857034,250.305179 206.79871,250.480496 206.679333,250.613137 C206.559957,250.745778 206.390197,250.823888 206.210433,250.828887 C202.163767,250.908887 199.1871,251.168887 197.280433,251.608887 C192.193767,252.78222 186.953767,254.328887 181.560433,256.248887 C181.448952,256.286216 181.326177,256.265081 181.233595,256.192625 C181.141012,256.120169 181.090991,256.006072 181.100433,255.888887 C181.280433,253.528887 180.573767,251.548887 178.980433,249.948887 Z" id="Path" fill="#ECEDED"></path>
            <path d="M153.240433,267.408887 C153.201203,267.573802 153.06228,267.69608 152.893718,267.71406 C152.725157,267.73204 152.563568,267.641816 152.490433,267.488887 C149.4971,261.275554 149.510433,254.868887 152.530433,248.268887 C152.602216,248.118523 152.758947,248.030111 152.920433,248.048887 L160.660433,248.798887 C160.74073,248.804443 160.812281,248.85157 160.849092,248.923148 C160.885903,248.994726 160.88262,249.080339 160.840433,249.148887 C157.573767,254.468887 155.040433,260.555554 153.240433,267.408887 Z" id="Path" fill="#C9C9C9"></path>
            <path d="M209.710433,248.618887 C209.649141,248.63246 209.58833,248.602383 209.560706,248.544833 C209.533082,248.487283 209.545155,248.415823 209.590433,248.368887 C209.7771,248.208887 209.900433,248.19222 209.960433,248.318887 C209.985442,248.362203 209.985442,248.415571 209.960433,248.458887 C209.9071,248.545554 209.823767,248.598887 209.710433,248.618887 Z" id="Path" fill="#B28B5A"></path>
            <path d="M174.240433,248.698887 C174.333767,249.098887 174.313767,249.215554 174.180433,249.048887 C172.013767,250.835554 170.573767,253.198887 169.860433,256.138887 C169.820999,256.276927 169.752421,256.400369 169.660433,256.498887 C169.2271,256.978887 168.8271,257.118887 168.460433,256.918887 C168.255509,256.810246 168.017388,256.788598 167.800433,256.858887 C164.1271,258.138887 161.690433,256.868887 160.490433,253.048887 C160.381081,252.700782 160.40238,252.320956 160.550433,251.978887 C161.530433,249.718887 163.180433,248.978887 165.850433,248.988887 C168.6571,248.988887 171.453767,248.89222 174.240433,248.698887 Z M167.780433,252.298887 C167.961278,252.348723 168.153244,252.272593 168.250778,252.112358 C168.348313,251.952122 168.327765,251.746636 168.200433,251.608887 C164.270433,247.398887 160.790433,254.368887 165.750433,255.408887 C165.932841,255.448107 166.124536,255.43068 166.300433,255.358887 L168.200433,254.558887 C168.43307,254.459694 168.540274,254.187218 168.440433,253.948887 L168.300433,253.608887 C168.234466,253.454776 168.109798,253.33331 167.954022,253.271375 C167.798247,253.20944 167.62421,253.212144 167.470433,253.278887 L166.180433,253.818887 C165.814865,253.969033 165.395784,253.899005 165.098891,253.638163 C164.801997,253.377321 164.6786,252.970743 164.780433,252.588887 L164.880433,252.198887 C164.982412,251.841914 165.351854,251.632712 165.710433,251.728887 L167.780433,252.298887 Z" id="Shape" fill="#C9C9C9"></path>
            <path d="M175.580433,248.608887 C175.773767,248.735554 176.003767,248.818887 176.270433,248.858887 C175.6971,249.038887 175.000433,249.10222 174.180433,249.048887 C174.313767,249.215554 174.333767,249.098887 174.240433,248.698887 C174.6871,248.578887 175.133767,248.548887 175.580433,248.608887 Z" id="Path" fill="#B28B5A"></path>
            <path d="M178.980433,249.948887 C178.6071,249.788887 178.4371,249.625554 178.470433,249.458887 C178.803767,249.35222 178.973767,249.515554 178.980433,249.948887 Z" id="Path" fill="#B28B5A"></path>
            <path d="M174.740433,258.288887 C174.804345,258.350965 174.832018,258.441446 174.813765,258.528654 C174.795512,258.615862 174.733876,258.68765 174.650433,258.718887 L170.320433,260.288887 C170.183597,260.33505 170.032641,260.286877 169.947837,260.169986 C169.863034,260.053095 169.864086,259.894642 169.950433,259.778887 C170.2371,259.398887 170.850433,259.045554 171.790433,258.718887 C172.048547,258.630663 172.248965,258.426533 172.330433,258.168887 C172.423767,257.868887 172.123767,257.545554 171.430433,257.198887 C171.135018,257.04613 170.988734,256.703407 171.080433,256.378887 C171.8871,253.545554 173.200433,251.468887 175.020433,250.148887 C175.326502,249.925023 175.713788,249.838155 176.090433,249.908887 C180.590433,250.728887 181.870433,256.948887 176.980433,257.928887 C176.193767,258.08222 175.533767,257.675554 175.000433,256.708887 C174.100433,255.06222 174.440433,253.908887 176.020433,253.248887 C176.304651,253.134442 176.630295,253.221127 176.82,253.461729 C177.009705,253.70233 177.018027,254.039212 176.840433,254.288887 L176.140433,255.238887 C176.073597,255.328873 176.045504,255.441843 176.062407,255.552654 C176.07931,255.663464 176.139807,255.76292 176.230433,255.828887 L176.480433,256.018887 C176.757839,256.207773 177.133186,256.140746 177.320433,255.868887 C177.953767,254.98222 178.093767,254.048887 177.740433,253.068887 C177.552276,252.537382 177.104949,252.140255 176.532722,251.996706 C175.960494,251.853158 175.329981,251.979899 174.830433,252.338887 C172.150433,254.258887 172.680433,256.208887 174.740433,258.288887 Z" id="Path" fill="#ECEDED"></path>
            <path d="M147.950433,250.628887 C145.903767,256.148887 146.2271,261.635554 148.920433,267.088887 C148.963548,267.168688 148.951374,267.265818 148.889699,267.334101 C148.828024,267.402384 148.72929,267.428045 148.640433,267.398887 L133.100433,262.148887 C132.987873,262.108259 132.900971,262.016901 132.867212,261.903707 C132.833452,261.790512 132.857009,261.66948 132.930433,261.578887 C136.803767,256.63222 141.703767,252.88222 147.630433,250.328887 C147.717814,250.292 147.818722,250.309988 147.887917,250.374904 C147.957112,250.439774 147.981612,250.53931 147.950433,250.628887 L147.950433,250.628887 Z" id="Path" fill="#C9C9C9"></path>
            <path d="M149.760433,265.418887 C147.880433,262.248887 146.870433,253.978887 150.200433,250.268887 C150.258757,250.209736 150.349984,250.19818 150.421214,250.240918 C150.492445,250.283657 150.525178,250.369589 150.500433,250.448887 C148.6671,255.075554 148.553767,260.005554 150.160433,265.238887 C150.19915,265.346946 150.148281,265.466611 150.043606,265.513715 C149.938931,265.560819 149.815632,265.519529 149.760433,265.418887 L149.760433,265.418887 Z" id="Path" fill="#B28B5A"></path>
            <path d="M167.780433,252.298887 L165.710433,251.728887 C165.351854,251.632712 164.982412,251.841914 164.880433,252.198887 L164.780433,252.588887 C164.6786,252.970743 164.801997,253.377321 165.098891,253.638163 C165.395784,253.899005 165.814865,253.969033 166.180433,253.818887 L167.470433,253.278887 C167.62421,253.212144 167.798247,253.20944 167.954022,253.271375 C168.109798,253.33331 168.234466,253.454776 168.300433,253.608887 L168.440433,253.948887 C168.540274,254.187218 168.43307,254.459694 168.200433,254.558887 L166.300433,255.358887 C166.124536,255.43068 165.932841,255.448107 165.750433,255.408887 C160.790433,254.368887 164.270433,247.398887 168.200433,251.608887 C168.327765,251.746636 168.348313,251.952122 168.250778,252.112358 C168.153244,252.272593 167.961278,252.348723 167.780433,252.298887 L167.780433,252.298887 Z" id="Path" fill="#040404"></path>
            <path d="M252.410433,257.228887 C252.600053,257.42285 252.676903,257.700534 252.613984,257.964387 C252.551065,258.228241 252.357177,258.441364 252.100433,258.528887 L188.180433,280.318887 C187.88824,280.415987 187.575664,280.415987 187.290433,280.318887 L160.250433,271.168887 C160.153379,271.133225 160.079439,271.05274 160.053333,270.954338 C160.027226,270.855937 160.052398,270.752604 160.120433,270.678887 C164.293767,265.898887 169.103767,262.48222 174.550433,260.428887 C184.180433,256.798887 193.600433,253.608887 203.430433,252.318887 C209.603767,251.51222 216.213767,250.895554 223.260433,250.468887 C229.540433,250.088887 236.530433,250.958887 242.280433,252.078887 C246.440433,252.89222 249.8171,254.608887 252.410433,257.228887 Z" id="Path" fill="#ECEDED"></path>
            <path d="M157.590433,270.238887 L154.360433,269.038887 C154.193235,268.978036 154.057107,268.853178 153.982069,268.691847 C153.907031,268.530516 153.899247,268.345963 153.960433,268.178887 L159.270433,253.838887 C159.325065,253.695389 159.4666,253.601879 159.618703,253.608793 C159.770805,253.615707 159.897491,253.721408 159.930433,253.868887 C160.570433,256.42222 162.0571,257.965554 164.390433,258.498887 C164.722294,258.577404 164.944671,258.889587 164.910433,259.228887 C164.7171,261.228887 163.790433,263.315554 162.130433,265.488887 C160.4571,267.668887 159.230433,269.18222 158.450433,270.028887 C158.232146,270.265571 157.89324,270.348327 157.590433,270.238887 L157.590433,270.238887 Z" id="Path" fill="#C9C9C9"></path>
            <path d="M164.790433,263.588887 L166.120433,258.758887 C166.187092,258.507755 166.383524,258.315175 166.630433,258.258887 C167.350433,258.09222 167.7871,258.028887 167.940433,258.068887 C168.263133,258.160596 168.468262,258.476835 168.420433,258.808887 C168.120433,260.92222 167.0571,262.618887 165.230433,263.898887 C165.131049,263.963324 165.002467,263.960846 164.905639,263.892627 C164.808812,263.824408 164.763203,263.70416 164.790433,263.588887 L164.790433,263.588887 Z" id="Path" fill="#ECEDED"></path>
            <path d="M185.380433,308.248887 C182.9271,310.348887 181.113767,312.62222 179.940433,315.068887 C178.673767,317.70222 177.3571,319.93222 175.990433,321.758887 C171.850433,327.308887 169.160433,332.298887 165.290433,337.188887 C162.630433,340.56222 159.8571,344.575554 156.970433,349.228887 C156.348161,350.242805 155.097598,350.677783 153.980433,350.268887 C140.813767,345.495554 131.923767,342.30222 127.310433,340.688887 C124.940433,339.858887 121.490433,338.218887 118.380433,337.318887 C117.100433,336.95222 114.830433,336.18222 111.570433,335.008887 C99.3304334,330.598887 87.5004334,326.068887 75.5704334,321.768887 C70.9504334,320.10222 66.4104334,318.155554 61.9504334,315.928887 L61.9404329,303.238887 C61.9404329,303.121914 61.9968942,303.012141 62.0923467,302.944529 C62.1877992,302.876917 62.3101506,302.859896 62.4204334,302.898887 L149.710433,335.218887 C150.450701,335.496155 151.283318,335.251268 151.750433,334.618887 L184.690433,290.058887 C184.802277,289.910044 184.997516,289.847769 185.173342,289.904855 C185.349167,289.961941 185.465238,290.125291 185.460577,290.308887 L185.380433,308.248887 Z" id="Path" fill="#B28B5A"></path>
            <path d="M212.320433,319.788887 C212.220433,323.638887 214.180433,326.628887 216.350433,329.568887 C217.8971,331.668887 218.9271,332.945554 219.440433,333.398887 C220.680433,334.505554 222.183767,335.038887 223.950433,334.998887 L313.080433,302.368887 C313.282064,302.297598 313.505738,302.328426 313.680567,302.451601 C313.855395,302.574776 313.959703,302.775026 313.960433,302.988887 L313.980433,316.938887 C307.453767,318.865554 298.020433,322.15222 285.680433,326.798887 C283.300433,327.698887 281.883767,328.55222 281.430433,329.358887 C281.269922,329.641927 280.968901,329.811733 280.650433,329.798887 C278.080433,329.708887 274.730433,330.468887 272.880433,332.298887 C272.213767,332.95222 271.840433,333.30222 271.760433,333.348887 C271.471436,333.519528 271.145006,333.615739 270.810433,333.628887 C267.190433,333.768887 263.263767,334.61222 259.030433,336.158887 C245.963767,340.938887 236.053767,344.358887 229.300433,346.418887 C229.2871,346.425554 226.423767,347.445554 220.710433,349.478887 C219.82451,349.791607 218.83778,349.570176 218.170433,348.908887 C214.890433,345.668887 212.830433,341.488887 209.950433,337.568887 C205.323767,331.288887 202.270433,326.978887 200.790433,324.638887 C200.1371,323.598887 199.113767,322.385554 197.720433,320.998887 C197.576579,320.862106 197.368351,320.817177 197.180895,320.88247 C196.993439,320.947764 196.858183,321.112334 196.830433,321.308887 C196.690433,322.48222 196.6271,323.548887 196.640433,324.508887 C196.9471,343.12222 197.020433,361.66222 196.860433,380.128887 C196.790433,388.608887 196.180433,394.678887 198.510433,401.158887 C197.7971,401.445554 197.620433,402.45222 197.980433,404.178887 C196.700433,405.97222 195.383767,408.29222 194.030433,411.138887 C192.990433,413.308887 191.780433,414.978887 190.350433,416.738887 C190.207005,416.908566 190.116628,417.113652 190.090433,417.328887 L189.770433,419.928887 L189.350315,290.208887 C189.347078,290.10025 189.415309,290.003931 189.519745,289.969876 C189.624182,289.935821 189.741326,289.971691 189.810433,290.058887 L212.320433,319.788887 Z" id="Path" fill="#B28B5A"></path>
            <path d="M185.380433,308.248887 L185.310433,427.318887 C185.311275,427.54379 185.19922,427.754113 185.012087,427.878868 C184.824955,428.003622 184.587713,428.026165 184.380433,427.938887 L90.3004334,387.218887 C87.4804334,380.308887 88.0404334,372.858887 88.0604334,362.698887 C88.0604334,361.158887 87.8204334,358.218887 87.3404334,353.878887 C87.2903223,353.393837 86.887905,353.021387 86.4004334,353.008887 L84.8304334,352.968887 C84.5828562,352.962494 84.3441246,353.061901 84.1728308,353.242711 C84.001537,353.423521 83.9135387,353.668996 83.9304334,353.918887 C84.6104334,362.698887 85.1137667,371.725554 85.4404334,380.998887 C85.4671001,381.77222 85.2271001,383.128887 84.7204334,385.068887 L62.3204334,374.948887 C62.1197767,374.858499 61.9906645,374.658962 61.9904334,374.438887 L61.9504334,315.928887 C66.4104334,318.155554 70.9504334,320.10222 75.5704334,321.768887 C87.5004334,326.068887 99.3304334,330.598887 111.570433,335.008887 C114.830433,336.18222 117.100433,336.95222 118.380433,337.318887 C121.490433,338.218887 124.940433,339.858887 127.310433,340.688887 C131.923767,342.30222 140.813767,345.495554 153.980433,350.268887 C155.097598,350.677783 156.348161,350.242805 156.970433,349.228887 C159.8571,344.575554 162.630433,340.56222 165.290433,337.188887 C169.160433,332.298887 171.850433,327.308887 175.990433,321.758887 C177.3571,319.93222 178.673767,317.70222 179.940433,315.068887 C181.113767,312.62222 182.9271,310.348887 185.380433,308.248887 Z M73.4681334,343.003387 C73.4717828,342.586992 73.3098623,342.186204 73.0179961,341.889199 C72.7261298,341.592194 72.3282283,341.423304 71.9118334,341.419687 L71.8518334,341.419127 C71.435456,341.415564 71.0346936,341.577496 70.7377104,341.86936 C70.4407273,342.161223 70.2718511,342.559109 70.2682334,342.975487 L70.0327334,369.954387 C70.029084,370.370781 70.1910045,370.77157 70.4828707,371.068574 C70.774737,371.365579 71.1726385,371.534469 71.5890334,371.538087 L71.6490334,371.538646 C72.0654108,371.54221 72.4661732,371.380277 72.7631564,371.088414 C73.0601395,370.796551 73.2290157,370.398664 73.2326334,369.982287 L73.4681334,343.003387 Z M82.3026334,356.183787 C82.306416,355.751496 82.1383152,355.335409 81.835312,355.027061 C81.5323088,354.718713 81.119224,354.543363 80.6869334,354.539587 L80.6069334,354.538824 C80.1746428,354.535104 79.7585554,354.703205 79.4502074,355.006208 C79.1418594,355.309211 78.9665095,355.722296 78.9627334,356.154587 L78.8182334,372.713987 C78.8144508,373.146277 78.9825516,373.562365 79.2855548,373.870713 C79.588558,374.179061 80.0016428,374.354411 80.4339334,374.358187 L80.5139334,374.358949 C80.946224,374.362669 81.3623114,374.194569 81.6706594,373.891565 C81.9790074,373.588562 82.1543573,373.175477 82.1581334,372.743187 L82.3026334,356.183787 Z" id="Shape" fill="#CCA46E"></path>
            <path d="M313.980433,316.938887 L313.920433,374.668887 C313.921233,375.116112 313.649287,375.52206 313.230433,375.698887 L190.150433,427.688887 C189.99998,427.749842 189.828912,427.730623 189.695735,427.637803 C189.562558,427.544982 189.485318,427.391138 189.490194,427.228887 L189.770433,419.928887 L190.090433,417.328887 C190.116628,417.113652 190.207005,416.908566 190.350433,416.738887 C191.780433,414.978887 192.990433,413.308887 194.030433,411.138887 C195.383767,408.29222 196.700433,405.97222 197.980433,404.178887 C205.413767,401.725554 212.440433,398.935554 219.060433,395.808887 C219.820433,395.448887 220.2971,394.95222 220.490433,394.318887 C220.659038,393.76997 220.497205,393.173014 220.074443,392.784415 C219.651681,392.395815 219.043235,392.284736 218.510433,392.498887 C211.7571,395.178887 205.090433,398.065554 198.510433,401.158887 C196.180433,394.678887 196.790433,388.608887 196.860433,380.128887 C197.020433,361.66222 196.9471,343.12222 196.640433,324.508887 C196.6271,323.548887 196.690433,322.48222 196.830433,321.308887 C196.858183,321.112334 196.993439,320.947764 197.180895,320.88247 C197.368351,320.817177 197.576579,320.862106 197.720433,320.998887 C199.113767,322.385554 200.1371,323.598887 200.790433,324.638887 C202.270433,326.978887 205.323767,331.288887 209.950433,337.568887 C212.830433,341.488887 214.890433,345.668887 218.170433,348.908887 C218.83778,349.570176 219.82451,349.791607 220.710433,349.478887 C226.423767,347.445554 229.2871,346.425554 229.300433,346.418887 C236.053767,344.358887 245.963767,340.938887 259.030433,336.158887 C263.263767,334.61222 267.190433,333.768887 270.810433,333.628887 C271.145006,333.615739 271.471436,333.519528 271.760433,333.348887 C271.840433,333.30222 272.213767,332.95222 272.880433,332.298887 C274.730433,330.468887 278.080433,329.708887 280.650433,329.798887 C280.968901,329.811733 281.269922,329.641927 281.430433,329.358887 C281.883767,328.55222 283.300433,327.698887 285.680433,326.798887 C298.020433,322.15222 307.453767,318.865554 313.980433,316.938887 Z M208.699533,387.462387 C208.53172,387.095842 208.225169,386.810975 207.84732,386.670454 C207.469471,386.529932 207.051275,386.545268 206.684733,386.713087 L198.828933,390.309687 C198.462389,390.4775 198.177522,390.784051 198.037,391.1619 C197.896479,391.539749 197.911815,391.957945 198.079633,392.324487 L198.121333,392.415387 C198.289147,392.781931 198.595697,393.066799 198.973547,393.20732 C199.351396,393.347841 199.769591,393.332506 200.136133,393.164687 L207.991933,389.568087 C208.358478,389.400273 208.643345,389.093723 208.783867,388.715874 C208.924388,388.338024 208.909052,387.919829 208.741233,387.553287 L208.699533,387.462387 Z M231.115033,398.564387 C230.774236,397.773111 229.85652,397.407914 229.065233,397.748687 L198.829933,410.770087 C198.038658,411.110884 197.673461,412.028601 198.014233,412.819887 L198.045833,412.893387 C198.386631,413.684662 199.304347,414.049859 200.095633,413.709087 L230.330933,400.687687 C231.122209,400.346889 231.487406,399.429173 231.146633,398.637887 L231.115033,398.564387 Z" id="Shape" fill="#CCA46E"></path>
            <path d="M212.320433,319.788887 L223.950433,334.998887 C222.183767,335.038887 220.680433,334.505554 219.440433,333.398887 C218.9271,332.945554 217.8971,331.668887 216.350433,329.568887 C214.180433,326.628887 212.220433,323.638887 212.320433,319.788887 Z" id="Path" fill="#CCA46E"></path>
            <rect id="Rectangle" fill="#040404" transform="translate(71.750433, 356.478887) rotate(0.500000) translate(-71.750433, -356.478887) " x="70.1504334" y="341.418887" width="3.2" height="30.12" rx="1.57"></rect>
            <path d="M90.3004334,387.218887 L84.7204334,385.068887 C85.2271001,383.128887 85.4671001,381.77222 85.4404334,380.998887 C85.1137667,371.725554 84.6104334,362.698887 83.9304334,353.918887 C83.9135387,353.668996 84.001537,353.423521 84.1728308,353.242711 C84.3441246,353.061901 84.5828562,352.962494 84.8304334,352.968596 L86.4004334,353.008887 C86.887905,353.021387 87.2903223,353.393837 87.3404334,353.878887 C87.8204334,358.218887 88.0604334,361.158887 88.0604334,362.698887 C88.0404334,372.858887 87.4804334,380.308887 90.3004334,387.218887 Z" id="Path" fill="#B28B5A"></path>
            <rect id="Rectangle" fill="#040404" transform="translate(80.560433, 364.448887) rotate(0.500000) translate(-80.560433, -364.448887) " x="78.8904334" y="354.538887" width="3.34" height="19.82" rx="1.63"></rect>
            <rect id="Rectangle" fill="#040404" transform="translate(203.410433, 389.938887) rotate(-24.600000) translate(-203.410433, -389.938887) " x="197.570433" y="388.368887" width="11.68" height="3.14" rx="1.52"></rect>
            <path d="M197.980433,404.178887 C197.620433,402.45222 197.7971,401.445554 198.510433,401.158887 C205.090433,398.065554 211.7571,395.178887 218.510433,392.498887 C219.043235,392.284736 219.651681,392.395815 220.074443,392.784415 C220.497205,393.173014 220.659038,393.76997 220.490433,394.318887 C220.2971,394.95222 219.820433,395.448887 219.060433,395.808887 C212.440433,398.935554 205.413767,401.725554 197.980433,404.178887 Z" id="Path" fill="#040404"></path>
            <rect id="Rectangle" fill="#040404" transform="translate(214.580433, 405.728887) rotate(-23.300000) translate(-214.580433, -405.728887) " x="196.560433" y="404.128887" width="36.04" height="3.2" rx="1.56"></rect>
        </g>
    </g>
</svg>