<svg xmlns="http://www.w3.org/2000/svg" width="784" height="784" preserveAspectRatio="none" style="display:block" viewBox="0 0 2048 2048"><defs><linearGradient id="k" x1="1088" x2="1100" y1="899" y2="856" gradientUnits="userSpaceOnUse"><stop class="stop0" offset="0" stop-color="#9B6A41"/><stop class="stop1" offset="1" stop-color="#BC906D"/></linearGradient><linearGradient id="j" x1="905" x2="952" y1="1130" y2="1198" gradientUnits="userSpaceOnUse"><stop class="stop0" offset="0" stop-color="#A07249"/><stop class="stop1" offset="1" stop-color="#CE9B6F"/></linearGradient><linearGradient id="i" x1="1213" x2="1257" y1="251" y2="209" gradientUnits="userSpaceOnUse"><stop class="stop0" offset="0" stop-color="#A0704B"/><stop class="stop1" offset="1" stop-color="#C29467"/></linearGradient><linearGradient id="h" x1="1335" x2="1423" y1="1092" y2="1064" gradientUnits="userSpaceOnUse"><stop class="stop0" offset="0" stop-color="#9E714B"/><stop class="stop1" offset="1" stop-color="#C99869"/></linearGradient><linearGradient id="g" x1="1645" x2="1591" y1="406" y2="455" gradientUnits="userSpaceOnUse"><stop class="stop0" offset="0" stop-color="#845E3C"/><stop class="stop1" offset="1" stop-color="#A06E49"/></linearGradient><linearGradient id="f" x1="690" x2="784" y1="1079" y2="1029" gradientUnits="userSpaceOnUse"><stop class="stop0" offset="0" stop-color="#A06F48"/><stop class="stop1" offset="1" stop-color="#C7996A"/></linearGradient><linearGradient id="e" x1="880" x2="957" y1="789" y2="718" gradientUnits="userSpaceOnUse"><stop class="stop0" offset="0" stop-color="#A07149"/><stop class="stop1" offset="1" stop-color="#C69667"/></linearGradient><linearGradient id="d" x1="742" x2="827" y1="478" y2="417" gradientUnits="userSpaceOnUse"><stop class="stop0" offset="0" stop-color="#A87850"/><stop class="stop1" offset="1" stop-color="#C29263"/></linearGradient><linearGradient id="c" x1="583" x2="652" y1="653" y2="572" gradientUnits="userSpaceOnUse"><stop class="stop0" offset="0" stop-color="#A5774F"/><stop class="stop1" offset="1" stop-color="#C39363"/></linearGradient><linearGradient id="b" x1="1215" x2="1306" y1="518" y2="464" gradientUnits="userSpaceOnUse"><stop class="stop0" offset="0" stop-color="#A3724B"/><stop class="stop1" offset="1" stop-color="#C49566"/></linearGradient><linearGradient id="a" x1="1335" x2="1410" y1="608" y2="684" gradientUnits="userSpaceOnUse"><stop class="stop0" offset="0" stop-color="#A5764F"/><stop class="stop1" offset="1" stop-color="#C19062"/></linearGradient></defs><path fill="#F4F3F2" d="M1526 43c51-4 95 40 88 92q-7 35-18 71c-1 6-11 27-2 31q28 13 54 29 19 13 36 30a342 342 0 0 1 50 442 380 380 0 0 1-234 159l-1 103c-1 17-6 62-3 76l19 10c154 90 141 293 128 446q-5 61-20 117-7 26-20 48c-45 83-115 117-202 142-1 43-3 72-33 105-37 40-93 36-139 18-10-4-37-19-43-19-11-2-39 2-53 3-39 29-71 55-122 60-72 7-113-38-119-107-15-3-59 0-78-1-76-4-154-12-222-50q-25-15-47-34c-80-67-108-175-114-276q-4-39-4-80c0-29 4-59 3-88 0-6-8-15-10-20q-21-43-12-89c6-41 29-63 47-98q6-14 9-29c10-27 11-52 14-80-17-38-20-35-19-80l1-101-1-1c-9-7-27-15-38-22a330 330 0 0 1-163-323c13-124 94-224 205-279q15-6 29-15c-2-37-3-82 2-118 13-67 85-82 135-43 41 31 19 120 29 135l37 5 41 7q7-12 18-22c83-80 206-115 319-115 89 0 191 31 257 91q15 14 29 30l16 20c16-6 36-7 53-12 6-30 23-111 39-134q22-28 59-34"/><path d="M1527 106c18-1 30 7 25 26q-10 49-25 96c-2 6-12 9-17 11-4 8-9 26-12 36a266 266 0 0 1 231 247q9 121-70 213a319 319 0 0 1-224 109l2 106c0 41-4 82-4 123l-3 45c19 6 41 14 58 25 118 73 102 239 95 359-3 59-11 128-41 178-44 72-135 94-210 112-6 28 0 22 5 49 4 17 1 40-10 55-30 40-104-4-132-25-14 10-14 5-29 6l-19 4q-15 3-27-7c-18 22-54 47-78 59-36 17-78 20-86-29-5-27 8-45-3-69H819c-90-3-186-15-250-85s-72-162-77-252c-3-51 2-95 4-145-13-21-21-23-27-51l-1-8c-2-35 8-47 27-74 7-9 16-27 21-38 9-17 7-46 20-61q-1-31 4-63c4-25 19-29 37-41-10-1-58 0-54-17 7-6 66 1 71 7 14 16-33 32-36 46-5 20-7 48-7 70 15 6 12 18 12 33v36c20-19 51-40 79-48q-8-57-14-118c-4-61-2-115 1-176-30-2-39-3-70-9 8 7 52 33 29 44-9 4-35 1-45 1-6 1-18 1-21-5 4-13 44-8 56-8-8-5-30-19-30-30v-4c-3-4-12-5-17-7q-45-15-86-40a268 268 0 0 1-82-376c47-72 119-119 202-138l1-24-6-6-6-12c-3-32-2-68 0-100 0-6 1-16 6-20q22-11 34 9c2 29 1 81-1 110-1 10-7 13-14 18l-1 22a314 314 0 0 1 180 20c72-126 247-165 382-144 89 14 167 64 207 147q67-28 139-25l10-38-4-7c-7-14 15-86 21-103 3-10 5-14 14-19"/><path fill="#F4F3F2" d="M995 166c64-9 144-10 205 16q-15 25-5 52 8 23 31 35c27 13 54 5 73-19 27 34 34 52 47 92 2 5 6 18 14 16 7-10-4-38-9-48q62-27 131-24l-4 15-23 89-11 44q-20-12-32-31l-13-19c-12 8-3 22 3 31 22 28 55 48 90 54 10 1 28 2 32-8q-1-4-5-5c-26 0-40-3-63-15l11-46 29-108c62 12 95 28 143 70-38-1-67 22-68 61q0 26 19 45 18 18 43 18c30-1 52-20 57-49a271 271 0 0 1 12 199 287 287 0 0 1-135 160l2-15c-10-9-18-11-30-15-18-1-29 1-42 13q-7 6-12 13c-9 15-10 22-10 39q-46 7-93 10l-77 6c26-35 46-74 51-118l-2-2-4 4q-8 26-20 53-17 36-43 66c-26 0-56 5-82 6l-145 4c2-52 5-82-1-135h-5l-1 65q0 36-4 71h-88l-138-6c-32-40-59-87-68-138-1-8-2-20-6-26q-6 6-4 14c5 52 32 110 63 149l-129-8c2-14 2-22-1-36-15-40-53-53-91-35l-1 1c-21 16-26 29-30 54-69-23-112-42-163-96q24-2 35-21l6-4v2h1c19-17 16-38 9-60q-2-8-8-15l-5-5a61 61 0 0 0-90 5l-1-3c-19-63-5-132 25-188 16 12 39 15 58 13l9-2q22-9 32-32 10-24 1-48c-7-10-12-14-21-21 41-31 67-42 116-57q3-1 4 1l-2 98-2 48c-13 5-22 7-36 9l-24 2v4c3 9 21 8 28 7 37-3 73-20 97-49 6-7 21-28 10-34-4 1-3 0-6 3-11 24-34 41-56 53 1-23 1-52 3-74-1-16 0-54 1-72 45-6 61-8 107-3q36 6 68 19c-3 8-18 46-11 52 4-2 8-13 9-17q27-71 89-113 5 10 13 19l7 5q22 14 49 9 24-6 37-27t7-46l-4-11c17-5 29-8 47-10"/><path fill="#C9C9CB" d="M444 646c7 3 38 48 50 59 25 25 60 50 93 65l-1 1c-21 16-26 29-30 54-69-23-112-42-163-96q24-2 35-21l6-4v2h1c19-17 16-38 9-60m-79-206c16 12 39 15 58 13-22 44-14 100 1 145 3 9 12 26 12 33l-5-5a61 61 0 0 0-90 5l-1-3c-19-63-5-132 25-188m694 280q2-1 5 2c9 24 18 64 23 89 25 23 53 20 84 22q27 0 52-6c34-5 54-15 78-41l19-24c5-7 24-37 29-40h5l-4 4q-8 26-20 53-17 36-43 66c-26 0-56 5-82 6l-145 4c2-52 5-82-1-135m-304-8c10 13 12 24 19 38q13 23 30 43c29 33 50 41 92 44 39 4 93 6 129-12 16-31 15-92 26-104l3-1-1 65q0 36-4 71h-88l-138-6c-32-40-59-87-68-138"/><path fill="#C9C9CB" d="m751 812-13-47c-3-12-10-81 6-83q3 1 5 4-6 6-4 14c5 52 32 110 63 149l-129-8c2-14 2-22-1-36 9 0 23 4 32 5 15 2 26 2 41 2m88-585q5 10 13 19-35 30-63 68l-21 31c-7 12-25 38-41 22-9-8-10-31-16-41-5-10-25-34-27-40q36 6 68 19c-3 8-18 46-11 52 4-2 8-13 9-17q27-71 89-113m517 497v1l2 5c10 23-1 57-6 79 41 1 61-2 101-13 6-1 28-9 32-9-9 15-10 22-10 39q-46 7-93 10l-77 6c26-35 46-74 51-118m183 37q14-6 27-14c37-25 77-50 106-84 7-7 23-29 30-32a287 287 0 0 1-135 160l2-15c-10-9-18-11-30-15m-188-451q62-27 131-24l-4 15q-8 0-15 2-43 9-78 38c-8 6-17 26-28 24-9-2-15-15-11-23 2 5 6 18 14 16 7-10-4-38-9-48m-907 40c41-31 67-42 116-57-4 11-15 15-25 21q-22 12-42 29c-6 6-22 24-28 28-7-10-12-14-21-21m56 101c3-27 39-50 62-59l-2 48c-13 5-22 7-36 9zm967-56 1 2 22 14c11 10 25 31 29 45-26 0-40-3-63-15zm-894 40c1-23 1-52 3-74v24q20-9 41-6l12 3c-11 24-34 41-56 53m826-51c20-7 36 1 56 6l-11 44q-20-12-32-31zM948 176c17-5 29-8 47-10-7 11-32 14-43 21z"/><path d="M1367 586c51-4 83 46 60 90-4 8-20 14-27 19-9 8-6 11-19 14-16 0-29-1-43-11a60 60 0 0 1-14-87q16-22 43-25"/><path fill="url(#a)" d="M1367 591c47-2 77 41 55 84-4 8-18 8-24 13-9 7-6 13-18 16-75 3-88-98-13-113"/><path fill="#0D0302" d="M1405 624c14-1 17 9 8 19-14 1-16-11-8-19"/><path fill="#664333" d="M1407 628a6 6 0 1 1 4 11 6 6 0 0 1-4-11"/><path fill="#0D0302" d="M1370 600c13 0 19 10 6 18q-21-3-6-18"/><path fill="#664333" d="M1372 603a6 6 0 1 1 3 11 6 6 0 0 1-3-11"/><path fill="#0D0302" d="M1335 626a9 9 0 1 1 6 18 9 9 0 0 1-6-18"/><path fill="#764F37" d="M1337 630a5 5 0 1 1 3 10 5 5 0 0 1-3-10"/><path fill="#0D0302" d="M1370 642a9 9 0 1 1 8 16 9 9 0 0 1-8-16"/><path fill="#764F37" d="M1371 645a6 6 0 1 1 6 10 6 6 0 0 1-6-10"/><path fill="#0D0302" d="M1349 672a8 8 0 1 1 8 14 8 8 0 0 1-8-14"/><path fill="#764F37" d="M1351 675a5 5 0 0 1 6 5 5 5 0 1 1-6-5"/><path fill="#0D0302" d="M1394 667a8 8 0 1 1 6 14 8 8 0 0 1-6-14"/><path fill="#764F37" d="M1395 669a5 5 0 1 1 3 9 5 5 0 0 1-3-9"/><path d="M986 482q20-2 37 6 23 13 31 36c5 17 4 41-10 54q-11 7-23 12c-6 4-9 11-16 13q-23 4-44-9t-27-36q-5-25 8-47 16-23 44-29"/><path fill="#BB8A5D" d="M964 590a53 53 0 0 1-24-58c9-48 75-62 102-20q13 22 7 49-3 10-13 16c-19 8-18 4-30 21-17 2-27 0-42-8"/><path fill="#A2734C" d="M964 590a53 53 0 0 1-24-58c9-48 75-62 102-20-6 1-23-12-36-13l-1 2c-6-4-8-5-14-3q-5 4-6 10v-3c-6-1-17 14-21 18a9 9 0 0 1-7 17c-3 4-1 16-1 21 1 7 8 24 8 29"/><path fill="#0D0302" d="M957 540a9 9 0 1 1 5-18 9 9 0 0 1-5 18"/><path fill="#764F37" d="M959 526a5 5 0 1 1 3 10 5 5 0 0 1-3-10"/><path fill="#0D0302" d="M985 508q1-7 6-10c6-2 8-1 14 3v8q-3 4-6 5-8 2-14-6"/><path fill="#664333" d="M994 500q7 0 8 6c-1 4-2 3-4 5h-1q-6 1-8-5 1-4 5-6"/><path fill="#0D0302" d="M1029 520a10 10 0 1 1 5 18 10 10 0 0 1-5-18"/><path fill="#764F37" d="M1029 524a6 6 0 1 1 5 11 6 6 0 0 1-5-11"/><path fill="#0D0302" d="M992 538a9 9 0 1 1 8 16 9 9 0 0 1-8-16"/><path fill="#764F37" d="M993 541a6 6 0 1 1 6 10 6 6 0 0 1-6-10"/><path fill="#0D0302" d="M971 567a8 8 0 1 1 7 15 8 8 0 0 1-7-15"/><path fill="#764F37" d="M973 570a4 4 0 1 1 3 8 4 4 0 0 1-3-8"/><path fill="#0D0302" d="M1017 562a8 8 0 1 1 3 15 8 8 0 0 1-3-15"/><path fill="#764F37" d="M1018 565a4 4 0 1 1 1 8 4 4 0 0 1-1-8"/><path d="M1260 428c14 0 20 2 31 8l7 17c10 6 7 10 20 15l4 15q4 25-11 46a61 61 0 0 1-45 24c-33 0-60-20-65-54q-3-26 13-47 18-22 46-24"/><path fill="url(#b)" d="M1265 434c11 0 14 1 23 5 1 8 1 8 4 15q9 14 23 19 8 29-9 53a56 56 0 0 1-39 21q-24 2-41-13a55 55 0 0 1-20-39c-2-36 25-60 59-61"/><path fill="#A2734C" d="M1265 434c11 0 14 1 23 5 1 8 1 8 4 15-11-6-17-15-27-20"/><path fill="#0D0302" d="M1223 492a10 10 0 1 1 7 18 10 10 0 0 1-7-18"/><path fill="#664333" d="M1225 495a6 6 0 1 1 3 11 6 6 0 0 1-3-11"/><path fill="#0D0302" d="M1236 449a10 10 0 1 1 8 18 10 10 0 0 1-8-18"/><path fill="#764F37" d="M1238 452a6 6 0 1 1 5 11 6 6 0 0 1-5-11"/><path fill="#664333" d="m1238 452 6 10a6 6 0 1 1-6-10"/><path fill="#0D0302" d="M1263 479a9 9 0 1 1 5 17 9 9 0 0 1-5-17"/><path fill="#764F37" d="M1264 482a5 5 0 1 1 3 11 5 5 0 0 1-3-11"/><path fill="#0D0302" d="M1256 520a9 9 0 1 1 5 17 9 9 0 0 1-5-17"/><path fill="#764F37" d="M1257 523a5 5 0 1 1 3 10 5 5 0 0 1-3-10"/><path fill="#0D0302" d="M1295 498a8 8 0 1 1 5 15 8 8 0 0 1-5-15"/><path fill="#764F37" d="M1296 501a5 5 0 1 1 3 8 5 5 0 0 1-3-8"/><path fill="#0D0302" d="M1280 454a7 7 0 1 1 5 14 7 7 0 0 1-5-14"/><path d="M619 549c14 1 20 3 31 9l2 6q5 18 23 25c18 41-12 82-55 85-79-1-86-118-1-125"/><path fill="url(#c)" d="M605 557c8-3 33-5 40 5v7c4 1 4 7 8 11 7 7 10 10 19 15 8 30-4 59-35 70q-23 7-45-4a55 55 0 0 1-22-76q12-20 35-28"/><path fill="#A2734C" d="M605 557c8-3 33-5 40 5v7q-6-3-11-10z"/><path fill="#0D0302" d="M595 570a10 10 0 1 1 6 18 10 10 0 0 1-6-18"/><path fill="#664333" d="M596 573a6 6 0 1 1 4 11 6 6 0 0 1-4-11"/><path fill="#0D0302" d="M581 613a10 10 0 1 1 4 18 10 10 0 0 1-4-18"/><path fill="#664333" d="M580 617a6 6 0 1 1 6 10 6 6 0 0 1-6-10"/><path fill="#0D0302" d="M621 600a9 9 0 1 1 5 17 9 9 0 0 1-5-17"/><path fill="#764F37" d="M621 603a6 6 0 1 1 4 11 6 6 0 0 1-4-11"/><path fill="#0D0302" d="M614 642a9 9 0 1 1 3 17 9 9 0 0 1-3-17"/><path fill="#664333" d="M614 646a5 5 0 1 1 4 8 5 5 0 0 1-4-8"/><path fill="#0D0302" d="M653 618a8 8 0 1 1 3 16 8 8 0 0 1-3-16"/><path fill="#764F37" d="M652 622a5 5 0 1 1 5 8 5 5 0 0 1-5-8"/><path fill="#0D0302" d="M637 575a7 7 0 1 1 5 14 7 7 0 0 1-5-14"/><path fill="#764F37" d="M638 578a4 4 0 1 1 3 8 4 4 0 0 1-3-8"/><path d="M1236 683c14 7 13 30 10 43-17 62-101 59-119 0-15-52 43-96 90-70q1 10 9 18z"/><path fill="#BB8A5D" d="M1153 665q15-11 32-11c8-1 23-1 28 7 0 5-2 4-3 7l5-2c2 3 1 7 6 13 6 4 7 7 11 10q5 0 8 6c6 13 2 31-5 44-12 2-25 11-40 10l-2-2a9 9 0 0 0-16-4c-5-3-15-11-18-16q6-15-10-17l-2-1c-1-16 7-38 6-44"/><path fill="#0D0302" d="M1164 668a10 10 0 1 1 4 19 10 10 0 0 1-4-19"/><path fill="#764F37" d="M1164 671a6 6 0 1 1 4 12 6 6 0 0 1-4-12"/><path fill="#0D0302" d="M1189 698a9 9 0 1 1 4 18 9 9 0 0 1-4-18"/><path fill="#764F37" d="M1190 702a6 6 0 1 1 2 11 6 6 0 0 1-2-11"/><path fill="#0D0302" d="M1220 717a8 8 0 1 1 5 14 8 8 0 0 1-5-14"/><path fill="#764F37" d="M1221 720a4 4 0 1 1 3 8 4 4 0 0 1-3-8"/><path fill="#0D0302" d="M1205 673a7 7 0 1 1 6 14 7 7 0 0 1-6-14"/><path fill="#764F37" d="M1206 676a4 4 0 1 1 4 8 4 4 0 0 1-4-8"/><path fill="#A2734C" d="M1153 665c1 6-7 28-6 44l2 1q16 2 10 17c3 5 13 13 18 16a9 9 0 0 1 16 4l2 2c15 1 28-8 40-10l-6 9a56 56 0 0 1-41 18c-52 1-80-62-35-101"/><path fill="#0D0302" d="M1149 710q16 2 10 17c-14 8-23-6-10-17"/><path fill="#664333" d="M1149 715a6 6 0 1 1 6 10 6 6 0 0 1-6-10"/><path fill="#0D0302" d="M1177 743a9 9 0 1 1 14 10 9 9 0 0 1-14-10"/><path fill="#664333" d="M1182 743a5 5 0 1 1 4 10 5 5 0 0 1-4-10"/><path fill="#0D0302" d="m1226 674 10 9-4 6c-4-3-5-6-11-10 4-3 4-2 5-5"/><path d="M1089 265q15 0 29 7l8 19q8 5 14 12 9 7 10 19c3 39-23 64-59 68q-23 1-41-14a63 63 0 0 1 39-111"/><path fill="#BB8A5D" d="M1057 283c13-10 45-20 58-5l1 5c3 12 16 23 26 28 4 20 5 33-8 51a55 55 0 0 1-50 22q-23-2-39-21c-21-26-13-61 12-80"/><path fill="#A2734C" d="M1134 362a55 55 0 0 1-50 22q-23-2-39-21c-21-26-13-61 12-80-4 11-11 36-6 47a10 10 0 0 1 11 14c2 4 13 12 17 16q16-8 15 10c17 4 29-7 40-8"/><path fill="#0D0302" d="M1051 330a10 10 0 1 1 6 18 10 10 0 0 1-6-18"/><path fill="#664333" d="M1052 333a6 6 0 1 1 4 11 6 6 0 0 1-4-11"/><path fill="#0D0302" d="M1079 360q16-8 15 10c-4 1-10 7-15 1q-2-5 0-11"/><path fill="#764F37" d="M1085 361a5 5 0 1 1 3 9 5 5 0 0 1-3-9"/><path fill="#0D0302" d="M1066 286a10 10 0 1 1 3 19 10 10 0 0 1-3-19"/><path fill="#764F37" d="M1067 290a6 6 0 1 1 2 11 6 6 0 0 1-2-11"/><path fill="#0D0302" d="M1091 316a9 9 0 1 1 5 18 9 9 0 0 1-5-18"/><path fill="#664333" d="M1092 319a6 6 0 1 1 3 11 6 6 0 0 1-3-11"/><path fill="#0D0302" d="M1124 335a8 8 0 1 1 3 16 8 8 0 0 1-3-16"/><path fill="#764F37" d="M1123 339a5 5 0 1 1 4 8 5 5 0 0 1-4-8"/><path d="M1107 291a8 8 0 1 1 6 14 8 8 0 0 1-6-14m-330 94c17-1 26 0 41 8q4 22 25 31l2 7c8 36-11 69-48 77-80 11-102-104-20-123"/><path fill="url(#d)" d="M780 390c8 0 29 0 33 8q0 3-3 4v1c12 5 7 16 30 26 7 36-7 65-45 73-77 7-88-96-15-112"/><path fill="#0D0302" d="M764 405a10 10 0 1 1 3 19 10 10 0 0 1-3-19"/><path fill="#664333" d="M763 408a6 6 0 1 1 5 11 6 6 0 0 1-5-11"/><path fill="#0D0302" d="M749 448a10 10 0 1 1 5 18 10 10 0 0 1-5-18"/><path fill="#664333" d="M749 452a6 6 0 1 1 5 10 6 6 0 0 1-5-10"/><path fill="#0D0302" d="M788 435a9 9 0 1 1 6 17 9 9 0 0 1-6-17"/><path fill="#764F37" d="M789 438a6 6 0 1 1 3 11 6 6 0 0 1-3-11"/><path fill="#0D0302" d="M781 477a9 9 0 1 1 4 17 9 9 0 0 1-4-17m38-23a8 8 0 1 1 6 14 8 8 0 0 1-6-14"/><path fill="#764F37" d="M820 457a4 4 0 1 1 3 8 4 4 0 0 1-3-8"/><path fill="#0D0302" d="M806 409a8 8 0 1 1 2 15 8 8 0 0 1-2-15"/><path d="M1579 558q18-1 34 9c1 7 1 9 4 16 3 1 19 14 20 16 11 16 6 42-5 57a63 63 0 0 1-45 26q-23 1-42-13a62 62 0 0 1-9-88q16-21 43-23"/><path fill="#BB8A5D" d="M1554 572c13-10 38-13 52-3l7 18c4 4 7 4 11 11l10 4c5 16 6 34-5 49a54 54 0 0 1-61 23q-23-6-35-26c-14-26-5-62 21-76"/><path fill="#A2734C" d="M1629 651a54 54 0 0 1-61 23q-23-6-35-26c-14-26-5-62 21-76l-6 10c-2 7-8 33-5 39q18-1 11 17 6 12 17 17a8 8 0 1 0 16 7c18 4 28-5 42-11"/><path fill="#0D0302" d="M1543 621q18-1 11 17-5 5-11 3c-8-6-5-14 0-20"/><path fill="#664333" d="M1544 625a6 6 0 1 1 5 11 6 6 0 0 1-5-11"/><path fill="#0D0302" d="M1571 655a8 8 0 1 1 16 7 8 8 0 0 1-16-7"/><path fill="#764F37" d="M1578 654a5 5 0 1 1 2 10 5 5 0 0 1-2-10"/><path fill="#0D0302" d="M1558 579a10 10 0 1 1 6 18 10 10 0 0 1-6-18"/><path fill="#664333" d="M1559 582a6 6 0 1 1 4 12 6 6 0 0 1-4-12"/><path fill="#0D0302" d="M1583 609a9 9 0 1 1 6 18 9 9 0 0 1-6-18"/><path fill="#664333" d="M1584 612a5 5 0 1 1 4 11 5 5 0 0 1-4-11"/><path fill="#0D0302" d="M1615 628a8 8 0 1 1 5 15 8 8 0 0 1-5-15"/><path fill="#764F37" d="M1616 631a4 4 0 1 1 2 8 4 4 0 0 1-2-8"/><path fill="#0D0302" d="M1600 584a7 7 0 1 1 6 14 7 7 0 0 1-6-14"/><path fill="#764F37" d="M1601 587a4 4 0 1 1 3 8 4 4 0 0 1-3-8"/><path d="M911 691c15-1 24-1 38 7q5 23 27 31l4 13a60 60 0 0 1-51 72c-32 2-60-14-68-46a62 62 0 0 1 50-77"/><path fill="url(#e)" d="M913 696c24-1 29 0 38 21 3 7 14 15 21 17 11 36-6 67-44 74-77 5-87-96-15-112"/><path fill="#0D0302" d="M896 711a10 10 0 1 1 5 18 10 10 0 0 1-5-18"/><path fill="#764F37" d="M897 714a6 6 0 1 1 4 12 6 6 0 0 1-4-12"/><path fill="#0D0302" d="M884 754a10 10 0 1 1 2 19 10 10 0 0 1-2-19"/><path fill="#764F37" d="M882 758a6 6 0 1 1 5 11 6 6 0 0 1-5-11"/><path fill="#0D0302" d="M921 741a9 9 0 1 1 6 18 9 9 0 0 1-6-18"/><path fill="#664333" d="M922 744a6 6 0 1 1 4 11 6 6 0 0 1-4-11"/><path fill="#0D0302" d="M915 783a9 9 0 1 1 2 17 9 9 0 0 1-2-17"/><path fill="#764F37" d="M915 787a5 5 0 1 1 4 9 5 5 0 0 1-4-9"/><path fill="#0D0302" d="M952 760a8 8 0 1 1 8 14 8 8 0 0 1-8-14"/><path fill="#764F37" d="M953 763a5 5 0 1 1 5 7 5 5 0 0 1-5-7"/><path fill="#0D0302" d="M939 715a7 7 0 1 1 3 15 7 7 0 0 1-3-15"/><path fill="#F4F3F2" d="M1415 1133c17-6 43 8 57 16 46 23 70 63 86 110q8 25 11 49c11 83 6 281-31 353q-21 41-60 64c-45 30-91 42-143 54 2-14 3-22 1-35-19-66-90-16-120 11q-13 12-24 27c-15-11-24-9-39 1-16-7-25-8-38 4l-23-18c-39-24-131-74-145 3q-4 26 3 50c-96 5-235 8-319-39-53-30-94-93-108-152-20-79-20-167-16-248q1-35 6-68 8-37 26-69c23-39 70-81 113-92 35 12 91 19 129 25a1660 1660 0 0 0 526-15c32-7 76-21 108-31"/><path fill="#C9C9CB" d="M652 1154c35 12 91 19 129 25a1660 1660 0 0 0 526-15c32-7 76-21 108-31 6 2 4-3 6 1-25 26-161 61-202 68-98 15-213 22-312 13-81-7-176-13-250-45q-20 20-33 44c-31 67-36 168-33 240 4 81 21 183 83 239 62 57 128 64 208 73l65 6q-4 26 3 50c-96 5-235 8-319-39-53-30-94-93-108-152-20-79-20-167-16-248q1-35 6-68 8-37 26-69c23-39 70-81 113-92m684 590c15 5 70-13 88-16 14-3 40-5 54-3-45 30-91 42-143 54 2-14 3-22 1-35m-244 25 47-5 50-6 27-3q-13 12-24 27c-15-11-24-9-39 1-16-7-25-8-38 4z"/><path d="M893 1319c94-7 158 66 174 153 20-1 31-4 50-7l40-3q42-5 85-5c11-58 45-100 102-115q47-10 87 12c67 40 76 137 39 201-22 38-73 67-117 66q-30-1-56-18c-34-23-43-52-57-89q-56 0-110 4c-27 1-35-4-65 2-6 42-18 73-44 106-57 70-167 91-238 31-40-35-55-76-60-127a187 187 0 0 1 170-211"/><path fill="#3A3A3A" d="M906 1331c38 1 64 9 93 34 31 28 54 82 56 123 2 46-18 107-50 140-36 38-67 49-118 51-159 7-196-223-88-308 35-27 62-38 107-40"/><path d="M900 1344c28-4 63 12 86 29 74 56 79 165 26 238-26 35-68 54-111 59-138 4-189-162-115-261 31-40 62-60 114-65"/><path fill="#F4F3F2" d="M935 1392q22 0 40 14c36 26 39 96-16 101-67 2-97-105-24-115m-68 85c25-1 38 28 17 40-24 1-38-27-17-40m-54 90c24-2 36 28 15 36-16 1-31-7-27-26q5-7 12-10m581-180c61-5 84 81 32 95-59 4-87-80-32-95"/><path fill="#3A3A3A" d="M1210 1465h30q-2 19-1 39l-97 1c-8 0-25 2-30-4-1-13-4-28 13-28q43-2 85-8m-143 11 25-1c13-1 12 24 11 33l-1 1-36 4z"/><path fill="#F4F3F2" d="M1340 1451c21-1 35 23 18 36h-3c-17 1-32-22-15-36m-36 81c21-1 36 22 15 33-21 3-36-20-15-33"/><path d="M1213 1585c50-2 40 57 16 83-33 34-74 47-117 25-23-13-60-53-39-83 18-25 67-5 93-10 16-4 31-12 47-15"/><path fill="#DE827F" d="M1127 1645c25-1 56 7 73 29 7 8-27 16-32 17q-49 7-78-33 16-12 37-13"/><path fill="#F4F3F2" d="M1154 866c77-1 149-11 225-16-5 37 3 65 44 75l-3 105c-54-40-137 46-64 106l-67 17q-44 9-87 14c-14 3-36 5-51 7-54 7-105 6-159 6l-2-18a61 61 0 0 0-70-45q-27 6-43 30c-5 10-6 16-9 27q-61-3-122-14l-91-15q-18-115-16-234c20 12 45 14 65 0l6-15c10-9 3-10 17-22l3-16q154 12 310 12 13 26 40 35 23 6 45-5 19-12 29-34"/><path fill="#C9C9CB" d="m704 911 6-15c8 13-3 88 4 101-32 18-49 54-29 88a62 62 0 0 0 73 28l3-1c9 13 99 33 116 35-5 10-6 16-9 27q-61-3-122-14l-91-15q-18-115-16-234c20 12 45 14 65 0"/><path d="M714 997q16-6 34-5c26 2 21 30 45 39 15 33 0 66-32 81l-3 1q-18 6-35 1-25-6-38-29c-20-34-3-70 29-88"/><path fill="url(#f)" d="M731 997c48-6 24 28 59 37 14 33-8 69-43 76q-19 3-37-7-20-12-26-35-5-23 8-44 13-22 39-27"/><path fill="#0D0302" d="M713 1013a10 10 0 1 1 8 17 10 10 0 0 1-8-17m-14 42a9 9 0 1 1 7 17 9 9 0 0 1-7-17"/><path fill="#664333" d="M700 1059a6 6 0 1 1 6 9 6 6 0 0 1-6-9"/><path fill="#0D0302" d="M741 1043a9 9 0 1 1 1 18 9 9 0 0 1-1-18"/><path fill="#764F37" d="M739 1046a6 6 0 1 1 5 11 6 6 0 0 1-5-11"/><path fill="#0D0302" d="M731 1085a9 9 0 1 1 7 16 9 9 0 0 1-7-16"/><path fill="#764F37" d="M734 1087a5 5 0 1 1 2 11 5 5 0 0 1-2-11"/><path fill="#0D0302" d="M771 1061a8 8 0 1 1 5 16 8 8 0 0 1-5-16"/><path fill="#764F37" d="M771 1065a5 5 0 1 1 5 8 5 5 0 0 1-5-8"/><path fill="#0D0302" d="M755 1017a8 8 0 1 1 6 14 8 8 0 0 1-6-14"/><path fill="#764F37" d="M757 1020a4 4 0 0 1 5 6 4 4 0 0 1-8-1q-1-3 3-5"/><path fill="#C9C9CB" d="M990 1162c22-2 60 3 84 4h79c11 0 41-4 49 1-14 3-36 5-51 7-54 7-105 6-159 6z"/><path d="M893 909c17-1 25 0 40 8 5 29 25 20 30 42 6 37-16 64-49 73q-23 4-42-7a63 63 0 0 1-21-86q15-24 42-30"/><path fill="#BB8A5D" d="M868 927q21-16 46-13c4 1 11 4 13 7q6 23 28 32 8 23-3 45v1c-49 74-150-10-84-72"/><path fill="#A2734C" d="M868 927c0 10-10 26-7 38l1 8a9 9 0 0 1 11 15q8 10 18 18a9 9 0 0 0 16 8h7c16 1 25-16 38-15-49 74-150-10-84-72"/><path fill="#0D0302" d="M862 973a9 9 0 1 1 9 16 9 9 0 0 1-9-16"/><path fill="#664333" d="M864 976a6 6 0 1 1 6 9 6 6 0 0 1-6-9"/><path fill="#0D0302" d="M891 1006a9 9 0 0 1 16-1 9 9 0 1 1-16 1"/><path fill="#764F37" d="M897 1005a5 5 0 1 1 4 9 5 5 0 0 1-4-9"/><path fill="#0D0302" d="M878 929a10 10 0 1 1 7 18 10 10 0 0 1-7-18"/><path fill="#764F37" d="M880 931q8 2 8 9c-2 2 0 1-3 1q-6 3-9-2 1-5 4-8"/><path fill="#0D0302" d="M905 959a9 9 0 1 1 2 19 9 9 0 0 1-2-19"/><path fill="#664333" d="M904 963a6 6 0 1 1 4 11 6 6 0 0 1-4-11"/><path fill="#0D0302" d="M935 978a8 8 0 1 1 6 15 8 8 0 0 1-6-15"/><path fill="#764F37" d="M936 982a5 5 0 1 1 5 8 5 5 0 0 1-5-8"/><path fill="#0D0302" d="M920 934a8 8 0 1 1 5 15 8 8 0 0 1-5-15"/><path d="M1123 1006c13 0 21 2 33 9q2 21 24 29c18 40-10 83-53 86-83-1-85-116-4-124"/><path fill="#BB8A5D" d="M1090 1024c16-11 42-19 59-7l1 5c1 10 12 16 16 24l11 4q9 26-6 50a55 55 0 0 1-86 8c-26-27-20-60 5-84"/><path fill="#A2734C" d="M1171 1100a55 55 0 0 1-86 8c-26-27-20-60 5-84-1 12-8 34-6 46a9 9 0 0 1 11 15c2 5 14 16 19 17a9 9 0 0 1 16 2l1 6c16 7 30-10 40-10"/><path fill="#0D0302" d="M1084 1070a9 9 0 1 1 9 16 9 9 0 0 1-9-16"/><path fill="#664333" d="M1087 1072a6 6 0 0 1 7 7 6 6 0 1 1-7-7"/><path fill="#0D0302" d="M1114 1102a9 9 0 1 1 15 9 9 9 0 0 1-15-9"/><path fill="#764F37" d="M1121 1102a5 5 0 1 1 2 10 5 5 0 0 1-2-10"/><path fill="#0D0302" d="M1100 1026a10 10 0 1 1 6 19 10 10 0 0 1-6-19"/><path fill="#664333" d="M1102 1030a6 6 0 1 1 3 11 6 6 0 0 1-3-11"/><path fill="#0D0302" d="M1127 1057a9 9 0 1 1 3 18 9 9 0 0 1-3-18"/><path fill="#664333" d="M1127 1061a6 6 0 1 1 4 10 6 6 0 0 1-4-10"/><path fill="#0D0302" d="M1158 1075a8 8 0 1 1 4 15 8 8 0 0 1-4-15"/><path fill="#764F37" d="M1158 1079a5 5 0 1 1 4 8q-4 1-6-2-2-4 2-6"/><path fill="#0D0302" d="M1143 1031a8 8 0 1 1 4 15 8 8 0 0 1-4-15"/><path fill="#764F37" d="M1143 1035a4 4 0 1 1 5 7 4 4 0 0 1-5-7"/><path d="M1272 886c15-1 24 0 37 8 4 26 26 21 30 44 7 36-18 64-52 71q-23 3-41-10a62 62 0 0 1-17-86q15-22 43-27"/><path fill="#BB8A5D" d="M1250 899c13-6 44-14 55-1v2l-4 2 4 2c2 3 6 12 8 13 19 15 25 11 21 41l-6 18c-17 36-77 37-96 2-8-15-11-24-8-41q6-24 26-38"/><path fill="#A2734C" d="M1328 976c-17 36-77 37-96 2-8-15-11-24-8-41q6-24 26-38c-5 13-13 34-11 48l1 1q18 2 10 17c3 6 13 15 19 15a8 8 0 0 1 15 7c8 9 34-11 44-11"/><path fill="#0D0302" d="M1240 948q18 2 10 17-7 5-13 0-5-10 3-17"/><path fill="#764F37" d="M1242 952a6 6 0 1 1 3 11 6 6 0 0 1-3-11"/><path fill="#0D0302" d="M1269 980a8 8 0 1 1 13 12 8 8 0 0 1-13-12"/><path fill="#764F37" d="M1273 982a5 5 0 1 1 5 9 5 5 0 0 1-5-9"/><path fill="#0D0302" d="M1256 906a10 10 0 1 1 3 19 10 10 0 0 1-3-19"/><path fill="#664333" d="M1255 910a6 6 0 1 1 6 10 6 6 0 0 1-6-10"/><path fill="#0D0302" d="M1280 936a9 9 0 1 1 5 18 9 9 0 0 1-5-18"/><path fill="#664333" d="M1281 940a6 6 0 1 1 3 11 6 6 0 0 1-3-11"/><path fill="#0D0302" d="M1312 955a8 8 0 1 1 5 15 8 8 0 0 1-5-15"/><path fill="#764F37" d="M1313 958a5 5 0 1 1 2 9 5 5 0 0 1-2-9"/><path fill="#0D0302" d="M1296 911a7 7 0 1 1 6 14 7 7 0 0 1-6-14"/><path fill="#C53C3B" d="M960 1811c-8-22-2-66 26-68 36-2 85 24 114 45l12 9 2 28-23-7c-13-1-31-2-42 7h23l42 8-1 29c-22 27-70 64-105 69-55 9-38-53-38-84 0-7-9-26-10-36"/><path fill="#A42928" d="M960 1811c5 3 20 31 20 37 0 38 6 71 52 47 26-14 43-27 64-49-11-1-53-4-50-18l3-3h23l42 8-1 29c-22 27-70 64-105 69-55 9-38-53-38-84 0-7-9-26-10-36m140-23 12 9 2 28-23-7c6-4 8-23 9-30"/><path fill="#C53C3B" d="M1198 1790q26-31 61-52c28-17 65-27 65 20 0 19-7 36-7 55 0 7 6 23 8 31 2 22-1 55-30 56-29 0-72-21-94-40 7-16 7-20 7-38 15-6 32-14 49-13h8c-12-15-45-4-58 4-2-9-4-14-9-23"/><path fill="#A42928" d="M1208 1822c15-6 32-14 49-13h8l-1 1q-2 7-8 9c-9 3-47 2-38 21 6 12 34 24 46 29 8 2 31 4 39 4 14-12 17-26 22-29 2 22-1 55-30 56-29 0-72-21-94-40 7-16 7-20 7-38"/><path fill="#BB8A5D" d="M1595 377c16-14 27-17 49-14 17 14 33 40 43 61l-2 15c-7 19-31 35-51 36q-23 1-41-16a55 55 0 0 1-16-38q-1-27 18-44"/><path fill="url(#g)" d="M1595 377c2 10-12 38-1 42 14 1 16 12 5 21 5 5 14 16 21 17a9 9 0 0 1 17-3l1 8c10 2 27-8 35-14q5-6 12-9c-7 19-31 35-51 36q-23 1-41-16a55 55 0 0 1-16-38q-1-27 18-44"/><path fill="#0D0302" d="M1594 419c14 1 16 12 5 21-15-1-15-12-5-21m26 38a9 9 0 1 1 18 2 9 9 0 0 1-18-2"/><path fill="#764F37" d="M1627 453a5 5 0 1 1 4 10 5 5 0 0 1-4-10"/><path d="M1607 377a10 10 0 1 1 6 19 10 10 0 0 1-6-19"/><path fill="#664333" d="M1609 381a6 6 0 1 1 4 11 6 6 0 0 1-4-11"/><path fill="#0D0302" d="M1636 407c14 4 10 14 0 20-14-5-10-14 0-20"/><path fill="#764F37" d="M1636 411a6 6 0 1 1 0 11 6 6 0 0 1 0-11"/><path fill="#0D0302" d="M1665 426a8 8 0 1 1 6 15 8 8 0 0 1-6-15"/><path fill="#764F37" d="M1667 429a4 4 0 1 1 2 8 4 4 0 0 1-2-8"/><path fill="#0D0302" d="M1649 383a7 7 0 1 1 7 13 7 7 0 0 1-7-13"/><path fill="#A2734C" d="M343 637c13-14 24-21 44-23 32-2 57 26 58 57q1 20-16 30h-2q-2 4 1 7-12 20-35 21l-4-7c-5-4-12-14-16-20q-11-17-19-35l-7-19z"/><path fill="#764F37" d="M388 695q1-5 5-6l4 2 14 1q1 4-1 9-1 3 2 5h7c-8 5-10 11-16 15l-14 1c-5-4-12-14-16-20 10-5 12 4 15-7"/><path fill="#91674C" d="M388 695c0 9 0 19 11 23 6-1 5-7 9-13 4 0 1 4 4 1h7c-8 5-10 11-16 15l-14 1c-5-4-12-14-16-20 10-5 12 4 15-7"/><path fill="#402518" d="m397 691 14 1c-2 7-5 18-15 14q-6-8 1-15"/><path fill="#281209" d="m425 703 2-14q-3-1-5-4-1-3 2-5h4c7 6 1 13 1 21h-2q-2 4 1 7-12 20-35 21l-4-7 14-1c6-4 8-10 16-15z"/><path fill="#664333" d="m425 703-2 6c-7 6-10 12-20 12 6-4 8-10 16-15z"/><path fill="#402518" d="M347 648c4-4 5-5 11-8l2 1 1 1c-3 2-2 2-5 2 0 7 11 5-2 23z"/><path fill="#0D0302" d="M420 649a9 9 0 1 1 5 18 9 9 0 0 1-5-18"/><path fill="#664333" d="M420 652a6 6 0 1 1 4 12 6 6 0 0 1-4-12"/><path fill="#281209" d="M379 661c13 1 20 9 9 20-10-1-18-12-9-20"/><path fill="#664333" d="M379 665q7-1 11 4 1 5-1 8-12 0-10-12"/><path fill="#0D0302" d="M384 621c12 0 18 11 6 17-11-1-17-9-6-17"/><path fill="#664333" d="M384 625q6-1 9 4 1 3-2 7-5-1-9-5c0-4 0-2 2-6"/><path fill="url(#h)" d="M1383 1026c8 0 29 0 32 9h-3l-1 1 3 4c11 13 3 38 4 54l-1 25-23 6-1-2v-8q-5-6-12-2-3 4-4 9l3 6q-6 5-16 6c-50-31-36-97 19-108"/><path d="M1350 1082a10 10 0 1 1 6 18 10 10 0 0 1-6-18"/><path fill="#664333" d="M1351 1086a6 6 0 1 1 5 10 6 6 0 0 1-5-10"/><path fill="#0D0302" d="M1366 1041a9 9 0 1 1 3 19 9 9 0 0 1-3-19"/><path fill="#764F37" d="M1366 1044a6 6 0 1 1 3 12 6 6 0 0 1-3-12"/><path fill="#0D0302" d="M1392 1071a9 9 0 1 1 2 18 9 9 0 0 1-2-18"/><path fill="#764F37" d="M1392 1074a6 6 0 1 1 2 11 6 6 0 0 1-2-11"/><path d="M1407 1046a8 8 0 1 1 5 15 8 8 0 0 1-5-15"/><path fill="#A2734C" d="m618 766 7 1q24 4 38 22c14 17 13 32 10 52-17 0-30-2-47-4-18 0-47-6-64-10 2-34 20-58 56-61"/><path fill="#0D0302" d="M581 801h2c13 0 13 13 4 20-14 0-15-13-6-20"/><path fill="#664333" d="M583 805a6 6 0 1 1 2 11 6 6 0 0 1-2-11"/><path fill="#0D0302" d="M614 816c11 0 19 9 10 19-13 1-18-10-10-19"/><path fill="#664333" d="M614 820q7-1 10 4c1 4 0 4-1 8q-12-1-9-12"/><path fill="#0D0302" d="M651 802a9 9 0 1 1 7 17 9 9 0 0 1-7-17"/><path fill="#764F37" d="M653 805a6 6 0 1 1 3 11 6 6 0 0 1-3-11"/><path fill="#0D0302" d="M617 775a9 9 0 1 1 4 17 9 9 0 0 1-4-17"/><path fill="#764F37" d="M616 779a5 5 0 1 1 6 9 5 5 0 0 1-6-9"/><path fill="#A2734C" d="M404 386q17-18 36-33c11 10 23 18 24 35l-1 14q-6 34-38 44c-19 5-41-1-57-11 10-18 19-30 32-45z"/><path fill="#BB8A5D" d="M450 398c0-5 0-12 6-13q9 6 7 17-6 34-38 44l-1-3 15-30c13 4 13-6 11-15"/><path fill="#0D0302" d="M404 386q10-5 16 4c1 11-15 18-20 0z"/><path fill="#664333" d="M408 386q5 1 9 4c0 5 0 3-3 7q-7 2-10-4c1-5 0-3 4-7"/><path fill="#281209" d="M438 394c6-1 6-1 11 3l1 1c2 9 2 19-11 15q-4-9-1-19"/><path fill="#664333" d="M441 396q11 5 5 15-5 0-6-5-1-4 1-10"/><path fill="#764F37" d="M438 394c-3-6-5-16-2-22h2q5 3 7 10l-4 3c6 5 5-1 8 4v8c-5-4-5-4-11-3"/><path fill="#0D0302" d="M410 421c16 1 17 11 5 20-12-2-19-13-5-20"/><path fill="#664333" d="M410 425a6 6 0 1 1 6 11 6 6 0 0 1-6-11"/><path fill="#C53C3B" d="M1126 1789c25-5 27 9 36 10l-3-5q1-3 5-5c34-15 37 44 27 64q-3 7-10 12h-13l-1-4c-10 6-15 11-28 11-4-1-12-4-13-7-5-9-1-27-2-38-1-10-5-21-4-31q2-4 6-7"/><path fill="#A42928" d="m1126 1789 8 21q1 14 4 26c3 7 7 16 16 15 10-1 21-9 31-4l6 6q-3 7-10 12h-13l-1-4c-10 6-15 11-28 11-4-1-12-4-13-7-5-9-1-27-2-38-1-10-5-21-4-31q2-4 6-7"/><path fill="#BB8A5D" d="M897 194c18-7 27-11 46-16q11 23 0 46-10 21-32 29a57 57 0 0 1-56-12l-12-16c10-7 30-20 40-24l2 1 1-1c4-3 4-4 9-5z"/><path fill="#A2734C" d="M883 201q1 7 7 10l2 1c-4 1-12 8-16 11a8 8 0 0 0-11 11l-10 7-12-16c10-7 30-20 40-24"/><path fill="#0D0302" d="M865 234a8 8 0 1 1 13-9 8 8 0 0 1-13 9"/><path fill="#764F37" d="M869 225a4 4 0 1 1 4 8 4 4 0 0 1-4-8"/><path fill="#0D0302" d="m895 196 2-2c4 9 6 13-5 18l-2-1q-6-3-7-10l2 1 1-1c4-3 4-4 9-5"/><path fill="#764F37" d="m895 196 2 8q-1 3-4 3-6-1-7-6c4-3 4-4 9-5"/><path fill="#0D0302" d="M925 192a10 10 0 1 1 9 18 10 10 0 0 1-9-18"/><path fill="#764F37" d="M928 195a6 6 0 1 1 3 12 6 6 0 0 1-3-12"/><path fill="#0D0302" d="M910 227c13 0 12 9 4 16-12 0-11-9-4-16"/><path fill="#764F37" d="M911 230c4 1 2 0 5 3 0 4 0 3-2 7-4 0-2 0-5-2z"/><path fill="url(#i)" d="M1204 184c16 8 35 15 49 26l1 5v1c10 2 10 2 18 8l9 9 3 2 11 12q-10 13-25 19c-28 10-61-5-70-33q-9-26 4-49"/><path fill="#281209" d="m1272 224 9 9 3 2c-10 12-23 4-16-7z"/><path fill="#91674C" d="m1272 224 9 9q-3 5-9 4l-4-9z"/><path fill="#0D0302" d="M1211 216a9 9 0 1 1 9 16 9 9 0 0 1-9-16"/><path fill="#91674C" d="M1214 219a6 6 0 1 1 5 11 6 6 0 0 1-5-11"/><path fill="#0D0302" d="M1244 245a9 9 0 1 1 9 17 9 9 0 0 1-9-17"/><path fill="#764F37" d="M1246 248a6 6 0 1 1 5 10 6 6 0 0 1-5-10"/><path fill="#A2734C" d="M1269 248h4c4 0 4-1 8 1v2c-3 2-2 1-5 1l-3 4c0-3-4-4-4-8"/><path fill="#402518" d="m1215 193 1 1q1 5-2 9l-1-1z"/><path fill="url(#j)" d="M924 1122h2c37-3 58 24 61 58-14 0-33 0-47-2q-3 0-5-4l-3-5q-9-1-13 8l-45-3q7-43 50-52"/><path fill="#0D0302" d="M963 1154a9 9 0 1 1 7 18 9 9 0 0 1-7-18"/><path fill="#664333" d="M964 1157a6 6 0 1 1 5 11 6 6 0 0 1-5-11"/><path fill="#0D0302" d="M893 1155a9 9 0 1 1 5 16 9 9 0 0 1-5-16"/><path fill="#764F37" d="M893 1159a5 5 0 1 1 3 9 5 5 0 0 1-3-9"/><path fill="#0D0302" d="M929 1129q19 4 4 17c-13-1-15-10-4-17"/><path fill="#764F37" d="M930 1132a5 5 0 1 1 2 10 5 5 0 0 1-2-10"/><path fill="#A2734C" d="m652 853 68 4q4 0 4 3c1 11-6 13-12 20-5 6-9 19-12 26-15 15-44 11-60 0 0-8-2-34 4-38 11 0 10-5 8-15"/><path fill="#0D0302" d="M673 870q20 1 6 14-16 0-6-14"/><path fill="#664333" d="M674 873a4 4 0 1 1 5 7 4 4 0 0 1-5-7"/><path fill="#0D0302" d="M659 892a7 7 0 1 1 6 13 7 7 0 0 1-6-13"/><path fill="#764F37" d="M660 895a4 4 0 1 1 3 7 4 4 0 0 1-3-7"/><path fill="#0D0302" d="M699 861a7 7 0 1 1 6 12 7 7 0 0 1-6-12"/><path fill="#A2734C" d="M1479 825q0-18 10-34 32-43 76-13c0 5 1 5-1 8q-5 1-9-3l3 7 5 1 1 1c-3 4-14 8-19 10-9 5-35 14-47 17-2 0 0-1-3-2-7 5-8 5-16 8"/><path fill="#BB8A5D" d="m1558 790 5 1 1 1c-3 4-14 8-19 10l-2-1q5-8 15-11"/><path fill="#0D0302" d="M1565 778c0 5 1 5-1 8q-5 1-9-3 4-5 10-5"/><path d="M1534 780c11 2 11 15 4 21l-2-1c-4-4-13-3-12-12q4-5 10-8"/><path fill="#664333" d="m1534 783 4 4c0 4-1 3-4 6-4-1-2 0-4-3q1-4 4-7"/><path fill="#0D0302" d="M1508 786a7 7 0 1 1 6 12 7 7 0 0 1-6-12"/><path fill="#F4F3F2" d="M544 1202c5 1 4 0 6 3-1 7-12 19-17 26-21 33-27 62-35 99h-1l-2-2-1-2c-32-54 4-97 50-124"/><path fill="url(#k)" d="m1140 867 6 1q2 3-1 5a57 57 0 0 1-80 19c-10-8-14-12-20-23l45-1z"/><path fill="#0D0302" d="M1091 877a8 8 0 1 1 7 15 8 8 0 0 1-7-15"/><path fill="#764F37" d="M1092 879a5 5 0 1 1 5 9 5 5 0 0 1-5-9"/><path fill="#BB8A5D" d="M1423 922c-15-7-26-13-34-27-7-11-9-32-5-44 2-2 31-5 37-5l1 2-5 10h4l3 3c0 3 0 1-3 5h-3c7 11 5 42 5 56"/><path fill="#402518" d="M1417 858h4l3 3c0 3 0 1-3 5h-3q-2-3-1-8"/><path fill="#0D0302" d="M1402 875a9 9 0 1 1 3 18 9 9 0 0 1-3-18"/><path fill="#664333" d="M1401 878a5 5 0 1 1 4 11 5 5 0 0 1-4-11"/><path fill="#3A3A3A" d="M570 125c3 0 11-1 11 4 1 22 7 95-4 111-4 0-11-2-11-7 0-20-5-93 4-108m959-6c2 0 12 0 12 3-6 26-15 80-27 102q-6 2-11-4c-1-12 19-89 26-101M544 1133l5 3c3 8 1 45 1 55l-11 2h-3l-1-2c-2-10 5-47 9-58"/><path fill="#664333" d="M641 852c5 1 5 1 8 4v8q-4 3-7 1-2-6-1-13"/><path fill="#F4F3F2" d="M521 1192c2 2 3 9 4 12l-10 5h-1z"/><path fill="#664333" d="M1384 1115a5 5 0 1 1 4 10 5 5 0 0 1-4-10"/><path d="M532 890c14-1 72-2 65 22-2 3 0 18-3 18-17 4-43 1-61-1q-10-1-9-10c6-10 50-1 60-5v-2l-1-2c-14-5-53 0-60-11-1-3-1-1 1-5q3-3 8-4m-4 46c12 0 66-3 70 9q-3 5-7 8c-13 0-58 2-67-5q-3-8 4-12m2 42c12 0 61-4 66 6q0 8-10 9c-12 1-59 5-66-5q1-9 10-10m5-21h44q11-1 18 7-2 8-11 8h-47q-11 2-17-6c0-7 7-8 13-9"/></svg>