<?xml version="1.0" encoding="UTF-8"?>
<svg width="508px" height="508px" viewBox="0 0 508 508" version="1.1" xmlns="http://www.w3.org/2000/svg" xmlns:xlink="http://www.w3.org/1999/xlink">
    <title>rocket</title>
    <g id="reachy" stroke="none" stroke-width="1" fill="none" fill-rule="evenodd">
        <g id="rocket">
            <g id="Group" transform="translate(76.807842, 56.496667)">
                <path d="M170.422158,284.303333 L170.692158,288.503333 C170.712081,288.862252 170.691959,289.224452 170.632158,289.583333 C170.478825,290.39 169.932158,291.55 168.992158,293.063333 C162.345492,303.703333 156.735492,311.91 152.162158,317.683333 C149.335492,321.256667 147.612158,324.12 146.992158,326.273333 C144.472158,334.993333 147.342158,344.493333 155.252158,349.273333 C158.605492,351.293333 161.758825,352.436667 164.712158,352.703333 C171.052158,353.273333 175.342158,350.363333 180.842158,346.903333 C188.648825,342.003333 195.185492,337.873333 200.452158,334.513333 C214.052158,325.846667 226.825492,316.456667 238.772158,306.343333 C248.432158,298.173333 256.602158,289.813333 259.782158,278.143333 C260.635492,275.003333 261.102158,269.21 261.182158,260.763333 C261.282158,250.476667 261.432158,239.866667 261.632158,228.933333 C261.651145,228.14535 261.97847,227.400777 262.542158,226.863333 C269.162158,220.493333 274.932158,215.193333 280.092158,209.403333 C310.222158,175.623333 331.702158,133.543333 340.132158,88.7533333 C342.292158,77.3 343.675492,68.1933333 344.282158,61.4333333 C345.382158,49.2933333 345.515492,36.4 344.682158,22.7533333 C344.062158,12.4333333 340.512158,3.23333333 329.512158,0.653333333 C327.538825,0.186666667 324.682158,-0.03 320.942158,0 C269.752158,0.463333333 221.492158,20.1433333 180.992158,50.8233333 C159.685492,66.9633333 141.488825,86.2133333 126.402158,108.573333 C125.902682,109.30352 125.137212,109.806646 124.272158,109.973333 C111.245492,112.446667 97.5821584,115.16 83.2821584,118.113333 C74.5154917,119.913333 67.2654917,124.16 61.5321584,130.853333 C56.5921584,136.62 51.8254917,143.343333 47.2321584,151.023333 C36.3921584,169.156667 27.168825,188.066667 19.5621584,207.753333 C16.6421584,215.3 15.3021584,220.616667 15.5421584,223.703333 C16.4221584,235.023333 27.1421584,242.673333 38.3121584,241.123333 C42.9821584,240.473333 47.2621584,237.033333 50.7621584,233.823333 C53.1021584,231.676667 57.3254917,227.61 63.4321584,221.623333 C66.7421584,218.393333 69.6621584,216.173333 74.4221584,212.193333 C76.3921584,210.543333 78.3221584,209.573333 80.7221584,210.093333 C81.0605637,210.162778 81.3520889,210.375853 81.5209974,210.677201 C81.6899059,210.978549 81.7195244,211.338424 81.6021584,211.663333 C80.0421584,216.013333 81.0221584,219.333333 82.4321584,224.123333 C82.5243785,224.439243 82.5448729,224.773984 82.4921584,225.103333 C82.218825,226.776667 81.7521584,228.23 81.0921584,229.463333 C80.9105982,229.813693 80.6197105,230.097571 80.2621584,230.273333 C76.4021584,232.213333 74.7821584,232.913333 71.7621584,234.953333 C53.4121584,247.373333 41.0421584,266.023333 31.6221584,286.003333 C30.1321584,289.173333 27.4321584,293.983333 26.6921584,298.143333 C25.778825,303.303333 27.4554917,307.946667 31.7221584,312.073333 C31.7799629,312.127743 31.792416,312.214915 31.7521584,312.283333 C19.8254917,334.176667 10.5921584,351.373333 4.05215835,363.873333 C1.81882502,368.146667 0.578825018,371.016667 0.332158351,372.483333 C-0.834508315,379.563333 1.07215835,385.036667 6.05215835,388.903333 C10.8421584,392.633333 17.5121584,393.243333 22.8921584,390.213333 C24.298825,389.42 25.9721584,388.253333 27.9121584,386.713333 C45.4054917,372.84 61.9221584,359.88 77.4621584,347.833333 C77.672251,347.670844 77.9667253,347.674992 78.1721584,347.843333 C86.9521584,355.053333 95.4621584,350.773333 103.282158,345.083333 C117.882158,334.463333 131.192158,323.853333 141.152158,308.993333 C145.852158,301.983333 148.072158,295.773333 151.432158,287.263333 C151.702199,286.582619 152.459831,286.234637 153.152158,286.473333 C158.912158,288.46 164.528825,287.666667 170.002158,284.093333 C170.082848,284.039224 170.186386,284.032638 170.273282,284.076086 C170.360178,284.119534 170.417032,284.206316 170.422158,284.303333" id="Path" stroke="#7A7A79"></path>
                <path d="M101.092158,240.473333 C70.9921584,241.873333 53.4621584,274.283333 41.8921584,299.443333 C41.5121584,300.283333 41.528825,300.946667 41.9421584,301.433333 C42.2813255,301.826081 42.7713412,302.058632 43.2994929,302.077494 C43.8276447,302.096357 44.3484659,301.899908 44.7421584,301.533333 C49.6221584,296.953333 55.8321584,292.073333 62.7921584,289.873333 C62.9289944,289.827171 63.0799512,289.875343 63.1647545,289.992234 C63.2495578,290.109125 63.248506,290.267578 63.1621584,290.383333 C57.4754917,298.61 52.2754917,306.856667 47.5621584,315.123333 C35.8154917,335.696667 24.898825,355.886667 14.8121584,375.693333 C14.6634098,375.986788 14.6525615,376.33103 14.78264,376.630016 C14.9127185,376.929003 15.1697994,377.150729 15.4821584,377.233333 C16.008825,377.366667 16.478825,377.266667 16.8921584,376.933333 C20.9121584,373.64 24.8754917,370.443333 28.7821584,367.343333 C45.148825,354.336667 59.628825,342.816667 72.2221584,332.783333 C79.6821584,326.836667 86.8121584,320.816667 93.6121584,314.723333 C93.6972359,314.653108 93.816478,314.641704 93.9133244,314.694529 C94.0101708,314.747354 94.06514,314.853783 94.0521584,314.963333 C93.2454917,321.016667 91.1121584,327.01 87.6521584,332.943333 C86.9254917,334.19 86.7721584,335.256667 87.1921584,336.143333 C87.331428,336.435583 87.6006431,336.647713 87.9337208,336.727651 C88.2667985,336.80759 88.6328993,336.747936 88.9421584,336.563333 C102.782158,328.273333 115.842158,317.823333 125.812158,304.973333 C133.998825,294.426667 137.698825,282.883333 136.912158,270.343333 C136.907172,270.210914 136.979574,270.087662 137.097665,270.027543 C137.215756,269.967424 137.358016,269.981393 137.462158,270.063333 C137.475492,270.076667 138.728825,271.146667 141.222158,273.273333 C146.092158,277.413333 148.582158,271.913333 151.062158,268.843333 C151.284173,268.570256 151.674585,268.509525 151.962158,268.703333 C155.555492,271.096667 157.978825,272.466667 159.232158,272.813333 C160.378825,273.126667 161.428825,272.743333 162.382158,271.663333 C163.788825,270.083333 166.428825,266.963333 170.302158,262.303333 C170.71495,261.811044 171.435384,261.715565 171.962158,262.083333 C174.488825,263.856667 176.875492,264.65 179.122158,264.463333 C179.589209,264.427255 180.01977,264.717056 180.162158,265.163333 C181.902158,270.783333 183.118825,275.046667 183.812158,277.953333 C185.242158,283.913333 186.652158,290.453333 184.292158,295.853333 C182.985492,298.826667 180.472158,303.07 176.752158,308.583333 C172.192158,315.336667 166.912158,322.693333 160.912158,330.653333 C160.546087,331.140318 160.424358,331.767405 160.582158,332.353333 C161.482158,335.703333 164.782158,339.053333 168.382158,336.953333 C192.202158,323.123333 214.222158,308.853333 233.882158,291.453333 C239.082158,286.843333 244.222158,280.073333 245.462158,272.713333 C246.022158,269.366667 246.315492,266.713333 246.342158,264.753333 C246.675492,236.14 246.842158,221.803333 246.842158,221.743333 C246.849045,221.423239 246.982303,221.120707 247.212158,220.903333 C247.332158,220.79 249.518825,218.76 253.772158,214.813333 C282.625492,187.993333 303.672158,155.79 316.912158,118.203333 C324.078825,97.8633333 328.362158,77.7166667 329.762158,57.7633333 C330.762158,43.4433333 331.112158,32.4333333 329.142158,19.7733333 C328.902158,18.2333333 328.488825,17.2366667 327.902158,16.7833333 C327.643288,16.5841624 327.357471,16.419397 327.052158,16.2933333 C326.032158,15.8866667 324.242158,15.65 321.682158,15.5833333 C309.402158,15.2833333 297.278825,16.3866667 285.312158,18.8933333 C251.165492,26.0466667 219.942158,40.1666667 191.642158,61.2533333 C171.662158,76.1466667 154.438825,94.07 139.972158,115.023333 C139.385492,115.876667 137.565492,118.573333 134.512158,123.113333 C134.345549,123.356691 134.086978,123.525481 133.792158,123.583333 C125.058825,125.31 109.972158,128.133333 88.5321584,132.053333 C81.9454917,133.26 76.488825,136.32 72.1621584,141.233333 C67.7754917,146.226667 63.8354917,151.703333 60.3421584,157.663333 C48.528825,177.836667 38.4921584,199.043333 30.2321584,221.283333 C29.1721584,224.123333 31.2921584,225.013333 33.4321584,226.203333 C35.3121584,227.256667 37.2654917,226.733333 39.2921584,224.633333 C46.6321584,217.04 56.008825,208.403333 67.4221584,198.723333 C68.8821584,197.483333 71.8821584,195.403333 73.4921584,195.203333 C81.978825,194.17 90.9621584,194.533333 100.442158,196.293333 C100.654881,196.332416 100.807483,196.527408 100.802158,196.753333 C100.695492,199.006667 101.692158,201.303333 103.792158,203.643333 C104.329746,204.23526 104.334052,205.139524 103.802158,205.743333 C102.108825,207.683333 100.132158,210 97.8721584,212.693333 C96.0221584,214.903333 93.8221584,216.743333 96.2921584,219.363333 C96.5054917,219.583333 97.9121584,221.296667 100.512158,224.503333 C100.728676,224.769844 100.711402,225.154179 100.472158,225.393333 L95.2421584,230.623333 C94.3484944,231.518487 94.3484944,232.970425 95.2421584,233.873333 L101.302158,239.923333 C101.394416,240.012389 101.424604,240.147919 101.378865,240.267712 C101.333125,240.387505 101.220293,240.468427 101.092158,240.473333" id="Path" stroke="#7A7A79"></path>
                <line x1="245.732158" y1="37.4633333" x2="252.462158" y2="48.8233333" id="Path" stroke="#734744"></line>
                <path d="M252.462158,48.8233333 C254.622158,52.61 257.135492,56.1533333 260.002158,59.4533333 C265.628825,65.9266667 271.815492,71.8066667 278.562158,77.0933333 C281.088825,79.0733333 283.585492,81.09 286.052158,83.1433333 C288.138825,84.89 292.662158,87.5833333 299.622158,91.2233333" id="Path" stroke="#6C1B1A"></path>
                <path d="M299.622158,91.2233333 C305.562158,94.3433333 311.692158,96.91 318.012158,98.9233333 C318.352557,99.0347479 318.723809,99.0031184 319.041901,98.8356026 C319.359993,98.6680867 319.598035,98.3788454 319.702158,98.0333333 C321.122158,93.2633333 321.642158,88.6733333 322.802158,84.0133333 C326.942158,67.2133333 327.712158,48.2833333 327.332158,32.3833333 C327.245492,28.7833333 326.792158,24.8133333 325.972158,20.4733333" id="Path" stroke="#501716"></path>
                <path d="M325.972158,20.4733333 C325.985492,20.0933333 325.812158,19.63 325.452158,19.0833333" id="Path" stroke="#6C1B1A"></path>
                <path d="M325.452158,19.0833333 C324.072158,18.6566667 322.475492,18.5033333 320.662158,18.6233333" id="Path" stroke="#734744"></path>
                <path d="M320.662158,18.6233333 C307.282158,18.3233333 294.802158,20.3933333 281.142158,23.1133333 C275.475492,24.24 269.902158,25.71 264.422158,27.5233333 C257.742158,29.7233333 251.488825,31.9566667 245.662158,34.2233333 C245.048825,34.4633333 244.735492,34.9033333 244.722061,35.5433333 C244.715492,36.11 245.052158,36.75 245.732158,37.4633333" id="Path" stroke="#6C1B1A"></path>
                <path d="M320.662158,18.6233333 C317.035492,18.57 313.675492,19.1 310.582158,20.2133333 C310.16025,20.3563531 309.911773,20.7921064 310.003549,21.2280406 C310.095325,21.6639748 310.498399,21.9625595 310.942158,21.9233333 L323.372158,21.1233333 C323.947174,21.0861202 324.46702,20.7682288 324.762158,20.2733333 L325.452158,19.0833333" id="Path" stroke="#DF615E"></path>
                <path d="M325.972158,20.4733333 C325.078825,23.8066667 324.382158,28.92 323.882158,35.8133333 C323.142158,46.08 320.572158,56.72 316.172158,67.7333333 C313.472158,74.5133333 310.662158,81.7833333 308.242158,87.0533333 C307.528825,88.6066667 306.468825,90.2033333 305.062158,91.8433333 C304.864541,92.0729337 304.556084,92.1795609 304.252158,92.1233333 L299.622158,91.2233333" id="Path" stroke="#BC3230"></path>
                <path d="M252.462158,48.8233333 C252.895492,48.9233333 253.235492,48.61 253.482158,47.8833333" id="Path" stroke="#DF615E"></path>
                <path d="M253.482158,47.8833333 L254.742158,49.2133333 C254.925828,49.4038229 255.185969,49.5027499 255.452158,49.4833333 L258.842158,49.2633333 C259.421974,49.2244032 259.949361,48.9137778 260.263084,48.426423 C260.576806,47.9390681 260.639559,47.332935 260.432158,46.7933333 C260.118825,45.96 259.518825,45.2166667 258.632158,44.5633333" id="Path" stroke="#6C1B1A"></path>
                <path d="M258.632158,44.5633333 C262.145492,43.19 265.645492,41.7366667 269.132158,40.2033333 C278.372158,36.1333333 285.482158,34.1233333 296.362158,30.1633333 C298.982158,29.2033333 299.945492,27.6433333 299.252158,25.4833333 C299.15722,25.1922122 298.936493,24.9604492 298.652158,24.8533333 C296.652158,24.1066667 294.498825,23.9733333 292.192158,24.4533333 C279.545492,27.06 266.975492,30.5066667 254.482158,34.7933333 C253.448825,35.1466667 252.972158,35.71 253.052158,36.4833333" id="Path" stroke="#DF615E"></path>
                <path d="M253.052158,36.4833333 C253.052158,32.6133333 249.292158,34.1633333 248.442158,36.4433333" id="Path" stroke="#6C1B1A"></path>
                <path d="M248.442158,36.4433333 C247.355492,35.8233333 246.452158,36.1633333 245.732158,37.4633333" id="Path" stroke="#DF615E"></path>
                <path d="M258.632158,44.5633333 C255.698825,44.2833333 253.982158,45.39 253.482158,47.8833333" id="Path" stroke="#734744"></path>
                <path d="M248.442158,36.4433333 C249.312158,40.0033333 252.862158,39.2733333 253.052158,36.4833333" id="Path" stroke="#734744"></path>
                <path d="M158.282158,250.313333 L177.372158,260.863333 C177.731867,261.065851 178.163571,261.091679 178.542158,260.933333 C181.762158,259.626667 184.908825,258.156667 187.982158,256.523333 C204.728825,247.636667 220.752158,237.243333 236.052158,225.343333 C269.398825,199.403333 293.985492,166.763333 309.812158,127.423333 C312.752158,120.123333 315.498825,112.356667 318.052158,104.123333 C318.320114,103.252591 317.85835,102.324665 317.002158,102.013333 L305.882158,97.9633333" id="Path" stroke="#646464"></path>
                <path d="M305.882158,97.9633333 C278.752158,85.9933333 253.982158,64.4033333 241.922158,36.8833333 C241.756418,36.5140161 241.339451,36.331593 240.962158,36.4633333 C238.848825,37.17 236.702158,38.0466667 234.522158,39.0933333 C196.652158,57.2633333 163.502158,84.9333333 140.532158,120.093333 C130.025492,136.173333 121.112158,152.763333 113.792158,169.863333 C109.765492,179.27 106.612158,188.12 104.332158,196.413333 C104.134981,197.15323 104.254497,197.942758 104.662158,198.593333 C110.902158,208.373333 118.705492,217.39 128.072158,225.643333 C128.124983,225.69078 128.195491,225.713526 128.266084,225.705894 C128.336677,225.698263 128.400694,225.660973 128.442158,225.603333 C136.395492,213.81 145.238825,202.783333 154.972158,192.523333 C160.342158,186.873333 168.282158,179.943333 175.892158,176.203333 C178.718825,174.81 180.692158,174.223333 181.812158,174.443333 C188.262158,175.703333 185.342158,182.673333 183.712158,186.493333 C178.665492,198.353333 171.932158,209.053333 163.512158,218.593333 C158.512158,224.26 151.968825,231.3 143.882158,239.713333 C143.819396,239.779243 143.788768,239.869403 143.798396,239.959904 C143.808024,240.050405 143.856935,240.132103 143.932158,240.183333 L158.282158,250.313333" id="Path" stroke="#7A7A79"></path>
                <path d="M305.882158,97.9633333 C303.995492,101.49 300.615492,108.006667 295.742158,117.513333 C289.888825,128.933333 282.252158,140.976667 272.832158,153.643333 C249.365492,185.176667 220.828825,211.136667 187.222158,231.523333 C177.095492,237.663333 168.948825,242.266667 162.782158,245.333333 C159.915492,246.76 158.415492,248.42 158.282158,250.313333" id="Path" stroke="#DDDEDD"></path>
                <path d="M125.182158,128.643333 C120.422158,129.403333 115.692158,130.29 110.992158,131.303333 C101.742158,133.303333 96.2521584,133.943333 86.5221584,136.143333 C83.3354917,136.856667 80.858825,137.946667 79.0921584,139.413333 C74.318825,143.38 70.2721584,148.013333 66.9521584,153.313333 C62.0854917,161.086667 57.4454917,169.246667 53.0321584,177.793333" id="Path" stroke="#734744"></path>
                <path d="M53.0321584,177.793333 C51.2854917,180.5 49.7154917,183.563333 48.3221584,186.983333 C47.908825,188.01 47.4454917,189.013333 46.9321584,189.993333 C46.298825,191.226667 45.8254917,192.223333 45.5121584,192.983333 C41.7121584,202.21 38.4154917,210.11 35.6221584,216.683333 C35.4154917,217.156667 34.9654917,218.7 34.2721584,221.313333 C34.1551399,221.758848 34.3363762,222.229254 34.7220664,222.481087 C35.1077565,222.73292 35.6113306,222.709655 35.9721584,222.423333 L37.5221584,221.193333" id="Path" stroke="#6C1B1A"></path>
                <path d="M37.5221584,221.193333 C42.9821584,216.58 48.3554917,211.75 53.6421584,206.703333 C59.7554917,200.85 64.8154917,196.65 68.8221584,194.103333 C72.3821584,191.83 76.8154917,190.79 82.1221584,190.983333 C87.7754917,191.183333 93.7854917,191.773333 100.152158,192.753333 C101.112734,192.903668 102.018431,192.255473 102.192158,191.293333 C102.438825,189.96 102.775492,188.71 103.202158,187.543333 C108.308825,173.503333 113.818825,160.636667 119.732158,148.943333 C123.612158,141.283333 127.712158,135.443333 131.212158,128.383333 C131.299117,128.210076 131.28033,128.002498 131.163678,127.847668 C131.047025,127.692838 130.852679,127.617531 130.662158,127.653333 L125.182158,128.643333" id="Path" stroke="#501716"></path>
                <path d="M37.5221584,221.193333 C38.8554917,216.453333 41.0154917,212.226667 44.0021584,208.513333 C45.4754917,206.68 48.6421584,203.556667 53.5021584,199.143333 C56.6421584,196.296667 60.078825,193.45 63.8121584,190.603333 C71.3821584,184.823333 80.0721584,183.183333 89.4221584,181.473333 C93.6754917,180.693333 96.698825,178.39 98.4921584,174.563333 C102.312158,166.443333 107.852158,154.323333 113.652158,145.253333 C115.662158,142.113333 119.422158,137.553333 121.902158,133.393333" id="Path" stroke="#BC3230"></path>
                <path d="M121.902158,133.393333 L126.052158,129.823333 C126.180348,129.71432 126.234676,129.539693 126.192158,129.373333 C126.085492,128.953333 125.748825,128.71 125.182158,128.643333" id="Path" stroke="#C35E5A"></path>
                <path d="M121.902158,133.393333 C117.235492,134.66 112.532158,135.82 107.792158,136.873333 C99.8421584,138.633333 92.0821584,141.163333 86.2621584,143.563333 C81.8221584,145.396667 78.8454917,147.003333 77.3321584,148.383333 C74.0121584,151.423333 69.0954917,157.016667 62.5821584,165.163333 C62.4301206,165.348376 62.2436198,165.504358 62.0321584,165.623333 C61.2654917,166.056667 60.7221584,166.623333 60.4021584,167.323333 C59.5554917,169.183333 58.5621584,170.873333 57.4221584,172.393333 C57.1645479,172.736911 56.9745678,173.123656 56.8621584,173.533333 C56.108825,176.32 54.8321584,177.74 53.0321584,177.793333" id="Path" stroke="#DF615E"></path>
                <line x1="118.662158" y1="245.753333" x2="100.072158" y2="274.153333" id="Path" stroke="#6C1B1A"></line>
                <path d="M100.072158,274.153333 C99.2121584,275.066667 98.4954917,276.29 97.9221584,277.823333 C97.7606485,278.267102 97.8958157,278.76587 98.2588644,279.065779 C98.621913,279.365689 99.1330641,279.400837 99.5321584,279.153333 C101.118825,278.186667 102.815492,276.86 104.622158,275.173333 C111.355492,268.9 118.042158,262.266667 124.682158,255.273333 C126.682158,253.173333 128.072158,251.373333 129.792158,249.653333 C138.718825,240.746667 145.572158,233.666667 150.352158,228.413333 C152.172158,226.413333 154.585492,223.746667 157.592158,220.413333 C162.992158,214.433333 167.942158,208.073333 172.442158,201.333333 C175.582158,196.613333 178.072158,191.233333 180.262158,186.363333 C181.322158,184.003333 182.012158,181.503333 182.332158,178.863333 C182.385492,178.41 182.232158,178.053333 181.872158,177.793333 C181.778825,177.72 181.565492,177.726667 181.232158,177.813333" id="Path" stroke="#501716"></path>
                <path d="M181.232158,177.813333 C176.542158,178.233333 170.032158,183.533333 166.762158,186.353333 C156.322158,195.326667 147.052158,205.39 138.952158,216.543333 C131.985492,226.136667 125.222158,235.873333 118.662158,245.753333" id="Path" stroke="#734744"></path>
                <path d="M181.232158,177.813333 C181.432158,178.466667 181.242158,179.016667 180.662158,179.463333 C178.822158,180.89 177.822158,182.073333 177.662158,183.013333" id="Path" stroke="#C35E5A"></path>
                <path d="M177.662158,183.013333 C172.182158,186.593333 168.225492,189.54 165.792158,191.853333 C162.372158,195.106667 156.212158,201.53 147.312158,211.123333 C144.558825,214.096667 141.478825,217.746667 138.072158,222.073333 C136.172158,224.486667 133.928825,227.293333 131.342158,230.493333 C127.248825,235.553333 123.555492,240.916667 120.262158,246.583333 C120.0903,246.884549 119.762177,247.0619 119.416034,247.040664 C119.06989,247.019429 118.765907,246.803298 118.632158,246.483333 C118.618825,246.443333 118.628825,246.2 118.662158,245.753333" id="Path" stroke="#DF615E"></path>
                <path d="M100.072158,274.153333 C101.852158,273.826667 103.435492,272.733333 104.822158,270.873333 C106.602158,268.486667 107.848825,266.84 108.562158,265.933333 C111.562158,262.093333 113.092158,259.083333 115.882158,254.293333 C117.482158,251.543333 119.042158,250.223333 121.692158,248.783333 C123.038825,248.05 124.082158,247.266667 124.822158,246.433333 C127.162158,243.806667 129.392158,241.556667 131.512158,239.683333 C131.810029,239.418586 132.060356,239.103986 132.252158,238.753333 L133.592158,236.303333 C133.678622,236.157029 133.779103,236.019704 133.892158,235.893333 L141.982158,227.253333 C142.002101,227.2334 142.02557,227.213284 142.052158,227.193333 C144.022158,225.563333 145.222158,224.663333 146.522158,222.993333 C148.352158,220.633333 150.942158,218.623333 152.952158,216.203333 C155.678825,212.923333 159.862158,208.21 165.502158,202.063333 C170.735492,196.376667 174.788825,190.026667 177.662158,183.013333" id="Path" stroke="#BC3230"></path>
                <path d="M119.142158,238.503333 L125.892158,229.253333 C126.19419,228.851886 126.138047,228.281818 125.762158,227.933333 C118.722158,221.443333 112.782158,215.633333 107.372158,208.353333 C107.300564,208.25841 107.192188,208.198365 107.075136,208.188771 C106.958083,208.179176 106.843886,208.220977 106.762158,208.303333 L99.0321584,216.033333 C98.6109225,216.451676 98.5976456,217.128799 99.0021584,217.563333 L118.442158,238.543333 C118.533494,238.644427 118.665714,238.698698 118.801735,238.690925 C118.937756,238.683153 119.062933,238.614174 119.142158,238.503333" id="Path" stroke="#313233"></path>
                <path d="M174.032158,329.783333 C180.352158,325.683333 188.062158,321.563333 193.322158,318.093333 C205.508825,310.06 217.215492,301.313333 228.442158,291.853333 C234.772158,286.513333 240.882158,280.073333 242.092158,272.223333 C242.858825,267.27 243.255492,264.356667 243.282158,263.483333 C243.595492,254.336667 243.578825,245.203333 243.232158,236.083333" id="Path" stroke="#6C1B1A"></path>
                <path d="M243.232158,236.083333 L243.542253,224.833333 C243.546239,224.604319 243.417402,224.393638 243.211683,224.292921 C243.005964,224.192205 242.760542,224.219655 242.582158,224.363333 C223.788825,239.483333 204.228825,252.23 183.902158,262.603333 C183.338753,262.893005 183.070877,263.547814 183.272158,264.143333 C185.372158,270.423333 187.002158,276.47 188.162158,282.283333 C189.588825,289.423333 188.472158,296.036667 184.812158,302.123333 C180.512158,309.283333 175.788825,316.32 170.642158,323.233333 C168.582158,325.993333 167.002158,328.623333 164.532158,331.983333 C164.329193,332.262353 164.260971,332.617243 164.346017,332.951629 C164.431063,333.286015 164.66055,333.565188 164.972158,333.713333 C165.712158,334.073333 166.445492,334.033333 167.172158,333.593333 C169.402158,332.233333 171.792158,331.193333 174.032158,329.783333" id="Path" stroke="#501716"></path>
                <path d="M243.232158,236.083333 L243.072158,233.793333 C243.045186,233.422456 242.780267,233.112165 242.418205,233.027378 C242.056143,232.942591 241.680998,233.102994 241.492158,233.423333 C240.345492,235.376667 238.782158,236.783333 236.802158,237.643333 C236.350974,237.836725 235.98766,238.189353 235.782158,238.633333 L235.402158,239.473333 C235.330021,239.637424 235.220306,239.781425 235.082158,239.893333 C224.142158,248.8 212.315492,257.08 199.602158,264.733333 C197.082158,266.253333 195.842158,267.393333 195.892158,270.333333 C196.032158,278.583333 196.572158,282.793333 195.692158,288.353333 C195.085492,292.126667 194.548825,294.653333 194.082158,295.933333 C193.455492,297.633333 192.145492,300.566667 190.152158,304.733333 C188.918825,307.313333 187.282158,310.07 185.242158,313.003333 C181.435492,318.463333 177.352158,323.526667 172.992158,328.193333 C172.779725,328.415725 172.702219,328.734629 172.788887,329.029714 C172.875555,329.324798 173.113203,329.55114 173.412158,329.623333 L174.032158,329.783333" id="Path" stroke="#BC3230"></path>
                <path d="M117.591558,242.179233 C117.641135,242.127547 117.668146,242.05828 117.666705,241.986676 C117.665145,241.915072 117.635257,241.846998 117.583558,241.797433 L102.859658,227.677733 C102.752037,227.57456 102.581162,227.578141 102.477958,227.685733 L98.3527584,231.987433 C98.3031813,232.03912 98.2761711,232.108386 98.2776121,232.17999 C98.2791718,232.251595 98.3090598,232.319669 98.3607584,232.369233 L113.084658,246.488933 C113.192279,246.592107 113.363155,246.588525 113.466358,246.480933 L117.591558,242.179233" id="Path" stroke="#313233"></path>
                <path d="M140.812158,242.813333 L133.582158,250.043333 C133.397673,250.230449 133.300028,250.486126 133.313365,250.74715 C133.326702,251.008174 133.449776,251.25018 133.652158,251.413333 C141.412158,257.7 149.722158,263.453333 158.582158,268.673333 C158.943231,268.889456 159.399965,268.861655 159.732158,268.603333 C162.825492,266.25 165.318825,263.463333 167.212158,260.243333 C167.327963,260.045943 167.357127,259.809496 167.292757,259.589882 C167.228388,259.370268 167.076197,259.186977 166.872158,259.083333 C158.145492,254.59 149.758825,249.15 141.712158,242.763333 C141.438615,242.552718 141.054116,242.574079 140.812158,242.813333" id="Path" stroke="#313233"></path>
                <path d="M128.752158,264.343333 L124.612158,260.503333 C124.354671,260.264893 123.953196,260.278275 123.712158,260.533333 C119.052158,265.373333 113.052158,271.373333 105.712158,278.533333 C104.298825,279.913333 102.675492,281.283333 100.842158,282.643333 C100.197242,283.119114 99.3592079,283.246316 98.6021584,282.983333 C95.1121584,281.763333 92.4521584,279.673333 95.0421584,275.593333 C99.788825,268.1 105.265492,259.74 111.472158,250.513333 C111.650955,250.25751 111.607805,249.90799 111.372158,249.703333 L106.652158,245.443333" id="Path" stroke="#7A6D32"></path>
                <path d="M106.652158,245.443333 C105.945492,244.363333 105.125492,243.803333 104.192158,243.763333 C79.8221584,242.613333 64.3721584,264.733333 53.5321584,283.093333 C51.6921584,286.206667 50.0454917,289.546667 48.5921584,293.113333 C48.5460579,293.225364 48.5802211,293.354387 48.6757218,293.428924 C48.7712226,293.503461 48.9046791,293.505264 49.0021584,293.433333 C53.5921584,290.173333 61.2221584,285.213333 66.9421584,285.453333 C68.0539799,285.499842 68.9813414,286.198427 69.2121584,287.163333 C69.3254917,287.61 69.1521584,288.136667 68.6921584,288.743333 C63.5854917,295.603333 59.0454917,302.4 55.0721584,309.133333 C43.818825,328.22 33.3321584,347.286667 23.6121584,366.333333 C23.5541028,366.430716 23.5756705,366.555879 23.6629716,366.628214 C23.7502726,366.700549 23.8772631,366.698477 23.9621584,366.623333 C43.1621584,351.83 62.368825,336.5 81.5821584,320.633333 C85.3754917,317.5 89.4721584,313.933333 93.8721584,309.933333 C94.5454917,309.326667 95.0521584,309.03 95.3921584,309.043333 C96.6669156,309.100408 97.6612381,310.285605 97.6321584,311.713333 C97.498825,317.806667 96.0754917,323.636667 93.3621584,329.203333 C93.2838731,329.359362 93.3219629,329.548657 93.4545036,329.662264 C93.5870444,329.77587 93.7799386,329.784561 93.9221584,329.683333 C111.942158,316.903333 133.642158,298.993333 133.722694,274.513333 C133.742158,269.683333 133.222158,266.283333 128.752158,264.343333" id="Path" stroke="#78551B"></path>
                <path d="M106.652158,245.443333 C106.678825,246.97 105.922158,247.95 104.382158,248.383333 C98.448825,250.05 93.2821584,252.736667 88.8821584,256.443333 C84.2421584,260.35 81.188825,263.3 79.7221584,265.293333 C77.728825,268 76.228825,270.253333 75.2221584,272.053333 C75.0456022,272.367427 75.0339954,272.747928 75.1910263,273.073916 C75.3480573,273.399904 75.654197,273.630839 76.0121584,273.693333 L83.6121584,275.003333 C83.9639873,275.06283 84.2754572,275.265399 84.4725122,275.562876 C84.6695673,275.860353 84.7346037,276.226164 84.6521584,276.573333 C84.3521584,278.123333 82.7821584,280.613333 80.7221584,284.443333 C76.2821584,292.683333 73.2321584,302.033333 69.7121584,311.863333 C69.6445174,312.049969 69.6961679,312.258975 69.8429577,312.392619 C69.9897476,312.526264 70.2026686,312.558136 70.3821584,312.473333 C78.248825,308.693333 85.8221584,304.536667 93.1021584,300.003333 C96.9121584,297.623333 100.322158,294.523333 103.912158,292.323333 C104.380311,292.034857 104.96527,292.012339 105.454215,292.263971 C105.943159,292.515604 106.264816,293.004707 106.302158,293.553333 L106.812158,301.403333 C106.824321,301.610422 106.954039,301.792237 107.145904,301.871115 C107.337768,301.949993 107.557857,301.911987 107.712158,301.773333 C110.685492,299.073333 113.088825,296.81 114.922158,294.983333 C118.242158,291.683333 121.632158,285.973333 123.752158,281.573333 C125.992158,276.9 126.992158,271.826667 126.752158,266.353333 C126.718825,265.6 126.865492,265.106667 127.192158,264.873333 C127.532158,264.62 128.052158,264.443333 128.752158,264.343333" id="Path" stroke="#F2C24D"></path>
                <path d="M148.162158,266.553333 L130.722158,253.813333 C130.570511,253.708823 130.36821,253.725681 130.242158,253.853333 L127.062158,257.033333 C126.95092,257.146088 126.88988,257.298518 126.893507,257.454072 C126.897468,257.609626 126.965754,257.754275 127.082158,257.853333 C132.388825,262.553333 138.075492,266.926667 144.142158,270.973333 C144.256574,271.05392 144.41222,271.0413 144.512158,270.943333 L148.212158,267.233333 C148.306359,267.139372 148.355197,267.009313 148.345549,266.878103 C148.335901,266.746893 148.268758,266.627987 148.162158,266.553333" id="Path" stroke="#313233"></path>
                <path d="M311.562158,23.4033333 C309.942158,21.9633333 305.192158,20.9033333 304.632158,24.4433333 C304.568918,24.831554 304.656381,25.2277029 304.874738,25.5420624 C305.093095,25.8564218 305.423873,26.0623947 305.792158,26.1133333 C307.612158,26.3533333 309.462158,25.9966667 311.342158,25.0433333 C311.638627,24.8953087 311.842516,24.610035 311.886573,24.2816085 C311.93063,23.953182 311.809134,23.624259 311.562158,23.4033333" id="Path" stroke="#DF615E"></path>
                <path d="M271.067458,59.1080333 C270.559232,58.5997839 269.859484,58.3246809 269.122161,58.3432471 C268.384838,58.3618133 267.670341,58.6725278 267.135858,59.2070333 C266.601353,59.7415158 266.290638,60.4560134 266.272072,61.1933363 C266.253506,61.9306593 266.528609,62.6304065 267.036858,63.1386333 C267.545085,63.6468828 268.244832,63.9219858 268.982155,63.9034196 C269.719478,63.8848534 270.433976,63.5741388 270.968458,63.0396333 C271.502964,62.5051509 271.813678,61.7906533 271.832245,61.0533303 C271.850811,60.3160073 271.575708,59.6162602 271.067458,59.1080333" id="Path" stroke="#6C1B1A"></path>
                <path d="M285.119158,72.6841333 C284.854994,71.7315024 283.868593,71.1733837 282.915958,71.4375333 L281.566858,71.8117333 C280.614227,72.0758976 280.056109,73.0622984 280.320258,74.0149333 L280.705158,75.4025333 C280.969323,76.3551643 281.955723,76.913283 282.908358,76.6491333 L284.257458,76.2749333 C285.210089,76.0107691 285.768208,75.0243683 285.504058,74.0717333 L285.119158,72.6841333" id="Path" stroke="#6C1B1A"></path>
                <path d="M302.222158,85.1033333 C302.222158,83.6011188 301.004373,82.3833333 299.502158,82.3833333 C297.999944,82.3833333 296.782158,83.6011188 296.782158,85.1033333 C296.782158,86.6055479 297.999944,87.8233333 299.502158,87.8233333 C301.004373,87.8233333 302.222158,86.6055479 302.222158,85.1033333" id="Path" stroke="#6C1B1A"></path>
                <path d="M317.933358,91.9196333 C317.784115,91.2627215 317.356396,90.697371 316.744295,90.3479529 C316.132195,89.9985349 315.385854,89.8936721 314.669458,90.0564333 C313.953046,90.2191797 313.32526,90.6362291 312.924211,91.215832 C312.523162,91.7954348 312.381705,92.4901109 312.530958,93.1470333 C312.680202,93.8039451 313.107921,94.3692957 313.720021,94.7187137 C314.332122,95.0681317 315.078463,95.1729945 315.794858,95.0102333 C316.511271,94.847487 317.139057,94.4304375 317.540106,93.8508347 C317.941154,93.2712318 318.082612,92.5765557 317.933358,91.9196333" id="Path" stroke="#501716"></path>
                <path d="M273.472158,122.213333 C273.472158,99.1112622 254.744229,80.3833333 231.642158,80.3833333 C208.540087,80.3833333 189.812158,99.1112622 189.812158,122.213333 C189.812158,145.315404 208.540087,164.043333 231.642158,164.043333 C254.744229,164.043333 273.472158,145.315404 273.472158,122.213333" id="Path" stroke="#7A7A79"></path>
                <path d="M270.022158,122.203333 C270.022158,101.039782 252.86571,83.8833333 231.702158,83.8833333 C210.538607,83.8833333 193.382158,101.039782 193.382158,122.203333 C193.382158,143.366885 210.538607,160.523333 231.702158,160.523333 C252.86571,160.523333 270.022158,143.366885 270.022158,122.203333" id="Path" stroke="#313233"></path>
                <path d="M263.872158,122.163333 C263.872158,113.633971 260.483882,105.453949 254.452712,99.4227793 C248.421543,93.3916093 240.241521,90.0033333 231.712158,90.0033333 C223.182796,90.0033333 215.002774,93.3916093 208.971604,99.4227793 C202.940434,105.453949 199.552158,113.633971 199.552158,122.163333 C199.552158,139.924811 213.950681,154.323333 231.712158,154.323333 C249.473636,154.323333 263.872158,139.924811 263.872158,122.163333" id="Path" stroke="#313233"></path>
                <path d="M260.432158,122.213333 C260.432158,106.368284 247.587208,93.5233333 231.742158,93.5233333 C215.897109,93.5233333 203.052158,106.368284 203.052158,122.213333 C203.052158,129.822394 206.074846,137.119808 211.455265,142.500227 C216.835683,147.880646 224.133097,150.903333 231.742158,150.903333 C239.351219,150.903333 246.648633,147.880646 252.029052,142.500227 C257.409471,137.119808 260.432158,129.822394 260.432158,122.213333" id="Path" stroke="#265467"></path>
                <path d="M250.282158,108.193333 C250.901987,107.110875 250.721862,105.747655 249.842158,104.863333 C248.068825,103.083333 246.178825,101.8 244.172158,101.013333 C237.932158,98.56 231.775492,97.97 225.702158,99.2433333 C221.528825,100.116667 218.138825,101.816667 215.532158,104.343333 C212.532158,107.253333 213.352158,111.073333 217.452158,112.153333 C217.79417,112.245414 218.150578,112.255695 218.492158,112.183333 C227.278825,110.39 236.562158,109.966667 246.342158,110.913333 C246.747781,110.952497 247.155923,110.879861 247.522158,110.703333 C248.755492,110.096667 249.675492,109.26 250.282158,108.193333" id="Path" stroke="#89B7CB"></path>
                <path d="M251.572158,108.203333 L249.622158,111.033333 C249.442049,111.29423 249.373488,111.616209 249.431686,111.927849 C249.489884,112.239489 249.670028,112.515024 249.932158,112.693333 L250.502158,113.083333 C251.243213,113.594287 252.126627,113.833979 252.95764,113.749564 C253.788654,113.66515 254.499031,113.263561 254.932158,112.633333 L254.962158,112.583333 C255.861141,111.273554 255.34212,109.354068 253.802158,108.293333 L253.222158,107.893333 C252.68057,107.524969 251.943119,107.66352 251.572158,108.203333" id="Path" stroke="#9FCEE0"></path>
                <path d="M213.360258,113.242733 C211.891618,112.099468 209.658745,112.511587 208.372958,114.163233 C207.087213,115.814904 207.23545,118.080636 208.704058,119.223933 C210.172699,120.367199 212.405572,119.95508 213.691358,118.303433 C214.977104,116.651763 214.828867,114.386031 213.360258,113.242733" id="Path" stroke="#9FCEE0"></path>
            </g>
            <path d="M508,0 L508,508 L0,508 L0,0 L508,0 Z M250.41605,297.374371 L250.54979,299.462888 C250.559659,299.641366 250.549691,299.821476 250.52007,299.999935 C250.444119,300.401063 250.173336,300.977892 249.707721,301.730421 C246.415395,307.021331 243.636566,311.102227 241.371234,313.973109 C239.971087,315.750006 239.11746,317.173844 238.810352,318.244624 C237.562108,322.580783 238.983719,327.30481 242.901819,329.681741 C244.562842,330.686218 246.124798,331.254759 247.587687,331.387363 C250.728111,331.670805 252.853098,330.223761 255.57744,328.503221 C259.444355,326.066617 262.682194,324.012909 265.290958,322.342095 C272.027513,318.032457 278.354592,313.363129 284.272193,308.334113 C289.057129,304.27145 293.104015,300.114307 294.67918,294.311213 C295.101866,292.749798 295.333022,289.86897 295.372649,285.66873 C295.422183,280.553521 295.496483,275.277529 295.59555,269.840755 C295.604955,269.448918 295.76709,269.078667 296.046305,268.811414 C299.325422,265.64383 302.183505,263.00832 304.739433,260.12915 C319.663875,243.331506 330.303669,222.406554 334.479343,200.134012 C335.549266,194.438659 336.23448,189.910224 336.534983,186.548706 C337.079851,180.511897 337.145896,174.100481 336.733117,167.314458 C336.426009,162.182673 334.66757,157.607827 329.218886,156.32488 C328.241425,156.092823 326.826418,155.985082 324.973865,156 C299.61767,156.2304 275.712805,166.016594 255.65174,181.272714 C245.097804,189.298587 236.084359,198.870956 228.611406,209.989823 C228.363998,210.35292 227.984833,210.603108 227.556342,210.685996 C221.103779,211.9159 214.335853,213.265148 207.252563,214.733741 C202.910127,215.628819 199.318948,217.740542 196.479028,221.068909 C194.032073,223.936476 191.670977,227.279761 189.395738,231.098763 C184.026308,240.115853 179.457668,249.519152 175.689821,259.308662 C174.243443,263.061362 173.579694,265.705159 173.698574,267.240054 C174.134469,272.869104 179.444459,276.673189 184.977351,275.902427 C187.290565,275.579204 189.410598,273.868609 191.144271,272.272385 C192.303355,271.204921 194.395319,269.182706 197.420164,266.205741 C199.059723,264.599571 200.506101,263.495641 202.863895,261.516523 C203.839705,260.696034 204.795702,260.213686 205.984506,260.472264 C206.15213,260.506797 206.296532,260.612751 206.380199,260.762601 C206.463865,260.912451 206.478536,261.091405 206.4204,261.252972 C205.647678,263.416078 206.133106,265.067001 206.831528,267.448905 C206.877208,267.605996 206.88736,267.772452 206.861248,267.936226 C206.725857,268.768318 206.494701,269.491011 206.16778,270.104306 C206.077846,270.278528 205.93376,270.419691 205.756652,270.507091 C203.844659,271.471787 203.042216,271.819873 201.546305,272.834296 C192.456908,279.010339 186.329615,288.284349 181.66356,298.219723 C180.925511,299.796056 179.588107,302.187906 179.221559,304.256532 C178.769153,306.822425 179.599664,309.131396 181.713093,311.183447 C181.741726,311.210503 181.747895,311.253851 181.727954,311.287873 C175.820259,322.174682 171.246666,330.725999 168.007176,336.941824 C166.900928,339.066807 166.286712,340.49396 166.16453,341.223284 C165.586639,344.743927 166.531077,347.465629 168.997846,349.388391 C171.3705,351.243193 174.674384,351.546525 177.339286,350.039809 C178.036057,349.645312 178.864918,349.065168 179.825867,348.299379 C188.490927,341.400642 196.672209,334.956075 204.369714,328.965678 C204.47378,328.884877 204.619643,328.88694 204.721402,328.970651 C209.070442,332.555938 213.285743,330.42764 217.159262,327.598196 C224.391152,322.317232 230.98406,317.04124 235.917596,309.651868 C238.24567,306.166033 239.345314,303.078012 241.009639,298.846278 C241.1434,298.507783 241.518681,298.334743 241.861615,298.453438 C244.714745,299.44134 247.496876,299.046842 250.208009,297.269945 C250.247978,297.243039 250.299264,297.239763 250.342306,297.261369 C250.385349,297.282974 250.413511,297.326128 250.41605,297.374371 Z" id="Shape" fill-rule="nonzero"></path>
            <path d="M246.81,340.59 C241.336667,344.163333 235.72,344.956667 229.96,342.97 C229.267672,342.731304 228.510041,343.079286 228.24,343.76 C224.88,352.27 222.66,358.48 217.96,365.49 C208,380.35 194.69,390.96 180.09,401.58 C172.27,407.27 163.76,411.55 154.98,404.34 C154.774567,404.171658 154.480093,404.167511 154.27,404.33 C138.73,416.376667 122.213333,429.336667 104.72,443.21 C102.78,444.75 101.106667,445.916667 99.7,446.71 C94.32,449.74 87.65,449.13 82.86,445.4 C77.88,441.533333 75.9733333,436.06 77.14,428.98 C77.3866667,427.513333 78.6266667,424.643333 80.86,420.37 C87.4,407.87 96.6333333,390.673333 108.56,368.78 C108.600258,368.711581 108.587805,368.62441 108.53,368.57 C104.263333,364.443333 102.586667,359.8 103.5,354.64 C104.24,350.48 106.94,345.67 108.43,342.5 C117.85,322.52 130.22,303.87 148.57,291.45 C151.59,289.41 153.21,288.71 157.07,286.77 C157.427552,286.594238 157.71844,286.31036 157.9,285.96 C158.56,284.726667 159.026667,283.273333 159.3,281.6 C159.352715,281.270651 159.33222,280.935909 159.24,280.62 C157.83,275.83 156.85,272.51 158.41,268.16 C158.527366,267.835091 158.497748,267.475215 158.328839,267.173867 C158.159931,266.872519 157.868405,266.659445 157.53,266.59 C155.13,266.07 153.2,267.04 151.23,268.69 C146.47,272.67 143.55,274.89 140.24,278.12 C134.133333,284.106667 129.91,288.173333 127.57,290.32 C124.07,293.53 119.79,296.97 115.12,297.62 C103.95,299.17 93.23,291.52 92.35,280.2 C92.11,277.113333 93.45,271.796667 96.37,264.25 C103.976667,244.563333 113.2,225.653333 124.04,207.52 C128.633333,199.84 133.4,193.116667 138.34,187.35 C144.073333,180.656667 151.323333,176.41 160.09,174.61 C174.39,171.656667 188.053333,168.943333 201.08,166.47 C201.945053,166.303313 202.710524,165.800187 203.21,165.07 C218.296667,142.71 236.493333,123.46 257.8,107.32 C298.3,76.64 346.56,56.96 397.75,56.4966667 C401.49,56.4666667 404.346667,56.6833333 406.32,57.15 C417.32,59.73 420.87,68.93 421.49,79.25 C422.323333,92.8966667 422.19,105.79 421.09,117.93 C420.483333,124.69 419.1,133.796667 416.94,145.25 C408.51,190.04 387.03,232.12 356.9,265.9 C351.74,271.69 345.97,276.99 339.35,283.36 C338.786311,283.897444 338.458987,284.642017 338.44,285.43 C338.24,296.363333 338.09,306.973333 337.99,317.26 C337.91,325.706667 337.443333,331.5 336.59,334.64 C333.41,346.31 325.24,354.67 315.58,362.84 C303.633333,372.953333 290.86,382.343333 277.26,391.01 C271.993333,394.37 265.456667,398.5 257.65,403.4 C252.15,406.86 247.86,409.77 241.52,409.2 C238.566667,408.933333 235.413333,407.79 232.06,405.77 C224.15,400.99 221.28,391.49 223.8,382.77 C224.42,380.616667 226.143333,377.753333 228.97,374.18 C233.543333,368.406667 239.153333,360.2 245.8,349.56 C246.74,348.046667 247.286667,346.886667 247.44,346.08 C247.4998,345.721119 247.519922,345.358919 247.5,345 L247.23,340.8 C247.224873,340.702983 247.16802,340.6162 247.081124,340.572752 C246.994228,340.529304 246.89069,340.535891 246.81,340.59 Z M177.9,296.97 C147.8,298.37 130.27,330.78 118.7,355.94 C118.32,356.78 118.336667,357.443333 118.75,357.93 C119.089167,358.322748 119.579183,358.555299 120.107335,358.574161 C120.635486,358.593024 121.156308,358.396574 121.55,358.03 C126.43,353.45 132.64,348.57 139.6,346.37 C139.736836,346.323837 139.887793,346.37201 139.972596,346.488901 C140.057399,346.605792 140.056348,346.764245 139.97,346.88 C134.283333,355.106667 129.083333,363.353333 124.37,371.62 C112.623333,392.193333 101.706667,412.383333 91.62,432.19 C91.4712515,432.483455 91.4604032,432.827697 91.5904817,433.126683 C91.7205602,433.425669 91.9776411,433.647395 92.29,433.73 C92.8166667,433.863333 93.2866667,433.763333 93.7,433.43 C97.72,430.136667 101.683333,426.94 105.59,423.84 C121.956667,410.833333 136.436667,399.313333 149.03,389.28 C156.49,383.333333 163.62,377.313333 170.42,371.22 C170.505078,371.149775 170.62432,371.13837 170.721166,371.191196 C170.818012,371.244021 170.872982,371.35045 170.86,371.46 C170.053333,377.513333 167.92,383.506667 164.46,389.44 C163.733333,390.686667 163.58,391.753333 164,392.64 C164.13927,392.93225 164.408485,393.144379 164.741562,393.224318 C165.07464,393.304257 165.440741,393.244603 165.75,393.06 C179.59,384.77 192.65,374.32 202.62,361.47 C210.806667,350.923333 214.506667,339.38 213.72,326.84 C213.715013,326.707581 213.787416,326.584329 213.905507,326.52421 C214.023598,326.464091 214.165858,326.47806 214.27,326.56 C214.283333,326.573333 215.536667,327.643333 218.03,329.77 C222.9,333.91 225.39,328.41 227.87,325.34 C228.092015,325.066923 228.482426,325.006192 228.77,325.2 C232.363333,327.593333 234.786667,328.963333 236.04,329.31 C237.186667,329.623333 238.236667,329.24 239.19,328.16 C240.596667,326.58 243.236667,323.46 247.11,318.8 C247.522791,318.307711 248.243225,318.212232 248.77,318.58 C251.296667,320.353333 253.683333,321.146667 255.93,320.96 C256.397051,320.923921 256.827612,321.213722 256.97,321.66 C258.71,327.28 259.926667,331.543333 260.62,334.45 C262.05,340.41 263.46,346.95 261.1,352.35 C259.793333,355.323333 257.28,359.566667 253.56,365.08 C249,371.833333 243.72,379.19 237.72,387.15 C237.353928,387.636985 237.2322,388.264072 237.39,388.85 C238.29,392.2 241.59,395.55 245.19,393.45 C269.01,379.62 291.03,365.35 310.69,347.95 C315.89,343.34 321.03,336.57 322.27,329.21 C322.83,325.863333 323.123333,323.21 323.15,321.25 C323.483333,292.636667 323.65,278.3 323.65,278.24 C323.656887,277.919905 323.790145,277.617374 324.02,277.4 C324.14,277.286667 326.326667,275.256667 330.58,271.31 C359.433333,244.49 380.48,212.286667 393.72,174.7 C400.886667,154.36 405.17,134.213333 406.57,114.26 C407.57,99.94 407.92,88.93 405.95,76.27 C405.71,74.73 405.296667,73.7333333 404.71,73.28 C404.45113,73.080829 404.165312,72.9160637 403.86,72.79 C402.84,72.3833333 401.05,72.1466667 398.49,72.08 C386.21,71.78 374.086667,72.8833333 362.12,75.39 C327.973333,82.5433333 296.75,96.6633333 268.45,117.75 C248.47,132.643333 231.246667,150.566667 216.78,171.52 C216.193333,172.373333 214.373333,175.07 211.32,179.61 C211.153391,179.853358 210.89482,180.022148 210.6,180.08 C201.866667,181.806667 186.78,184.63 165.34,188.55 C158.753333,189.756667 153.296667,192.816667 148.97,197.73 C144.583333,202.723333 140.643333,208.2 137.15,214.16 C125.336667,234.333333 115.3,255.54 107.04,277.78 C105.98,280.62 108.1,281.51 110.24,282.7 C112.12,283.753333 114.073333,283.23 116.1,281.13 C123.44,273.536667 132.816667,264.9 144.23,255.22 C145.69,253.98 148.69,251.9 150.3,251.7 C158.786667,250.666667 167.77,251.03 177.25,252.79 C177.462723,252.829083 177.615325,253.024074 177.61,253.25 C177.503333,255.503333 178.5,257.8 180.6,260.14 C181.137588,260.731926 181.141894,261.63619 180.61,262.24 C178.916667,264.18 176.94,266.496667 174.68,269.19 C172.83,271.4 170.63,273.24 173.1,275.86 C173.313333,276.08 174.72,277.793333 177.32,281 C177.536517,281.26651 177.519244,281.650846 177.28,281.89 L172.05,287.12 C171.156336,288.015154 171.156336,289.467092 172.05,290.37 L178.11,296.42 C178.202258,296.509056 178.232446,296.644585 178.186706,296.764379 C178.140967,296.884172 178.028135,296.965094 177.9,296.97 Z" id="Shape" fill="#F3F4F2" fill-rule="nonzero"></path>
            <path d="M177.9,296.97 C178.028135,296.965094 178.140967,296.884172 178.186706,296.764379 C178.232446,296.644585 178.202258,296.509056 178.11,296.42 L172.05,290.37 C171.156336,289.467092 171.156336,288.015154 172.05,287.12 L177.28,281.89 C177.519244,281.650846 177.536517,281.26651 177.32,281 C174.72,277.793333 173.313333,276.08 173.1,275.86 C170.63,273.24 172.83,271.4 174.68,269.19 C176.94,266.496667 178.916667,264.18 180.61,262.24 C181.141894,261.63619 181.137588,260.731926 180.6,260.14 C178.5,257.8 177.503333,255.503333 177.61,253.25 C177.615325,253.024074 177.462723,252.829083 177.25,252.79 C167.77,251.03 158.786667,250.666667 150.3,251.7 C148.69,251.9 145.69,253.98 144.23,255.22 C132.816667,264.9 123.44,273.536667 116.1,281.13 C114.073333,283.23 112.12,283.753333 110.24,282.7 C108.1,281.51 105.98,280.62 107.04,277.78 C115.3,255.54 125.336667,234.333333 137.15,214.16 C140.643333,208.2 144.583333,202.723333 148.97,197.73 C153.296667,192.816667 158.753333,189.756667 165.34,188.55 C186.78,184.63 201.866667,181.806667 210.6,180.08 C210.89482,180.022148 211.153391,179.853358 211.32,179.61 C214.373333,175.07 216.193333,172.373333 216.78,171.52 C231.246667,150.566667 248.47,132.643333 268.45,117.75 C296.75,96.6633333 327.973333,82.5433333 362.12,75.39 C374.086667,72.8833333 386.21,71.78 398.49,72.08 C401.05,72.1466667 402.84,72.3833333 403.86,72.79 C404.165312,72.9160637 404.45113,73.080829 404.71,73.28 C405.296667,73.7333333 405.71,74.73 405.95,76.27 C407.92,88.93 407.57,99.94 406.57,114.26 C405.17,134.213333 400.886667,154.36 393.72,174.7 C380.48,212.286667 359.433333,244.49 330.58,271.31 C326.326667,275.256667 324.14,277.286667 324.02,277.4 C323.790145,277.617374 323.656887,277.919905 323.65,278.24 C323.65,278.3 323.483333,292.636667 323.15,321.25 C323.123333,323.21 322.83,325.863333 322.27,329.21 C321.03,336.57 315.89,343.34 310.69,347.95 C291.03,365.35 269.01,379.62 245.19,393.45 C241.59,395.55 238.29,392.2 237.39,388.85 C237.2322,388.264072 237.353928,387.636985 237.72,387.15 C243.72,379.19 249,371.833333 253.56,365.08 C257.28,359.566667 259.793333,355.323333 261.1,352.35 C263.46,346.95 262.05,340.41 260.62,334.45 C259.926667,331.543333 258.71,327.28 256.97,321.66 C256.827612,321.213722 256.397051,320.923921 255.93,320.96 C253.683333,321.146667 251.296667,320.353333 248.77,318.58 C248.243225,318.212232 247.522791,318.307711 247.11,318.8 C243.236667,323.46 240.596667,326.58 239.19,328.16 C238.236667,329.24 237.186667,329.623333 236.04,329.31 C234.786667,328.963333 232.363333,327.593333 228.77,325.2 C228.482426,325.006192 228.092015,325.066923 227.87,325.34 C225.39,328.41 222.9,333.91 218.03,329.77 C215.536667,327.643333 214.283333,326.573333 214.27,326.56 C214.165858,326.47806 214.023598,326.464091 213.905507,326.52421 C213.787416,326.584329 213.715013,326.707581 213.72,326.84 C214.506667,339.38 210.806667,350.923333 202.62,361.47 C192.65,374.32 179.59,384.77 165.75,393.06 C165.440741,393.244603 165.07464,393.304257 164.741562,393.224318 C164.408485,393.144379 164.13927,392.93225 164,392.64 C163.58,391.753333 163.733333,390.686667 164.46,389.44 C167.92,383.506667 170.053333,377.513333 170.86,371.46 C170.872982,371.35045 170.818012,371.244021 170.721166,371.191196 C170.62432,371.13837 170.505078,371.149775 170.42,371.22 C163.62,377.313333 156.49,383.333333 149.03,389.28 C136.436667,399.313333 121.956667,410.833333 105.59,423.84 C101.683333,426.94 97.72,430.136667 93.7,433.43 C93.2866667,433.763333 92.8166667,433.863333 92.29,433.73 C91.9776411,433.647395 91.7205602,433.425669 91.5904817,433.126683 C91.4604032,432.827697 91.4712515,432.483455 91.62,432.19 C101.706667,412.383333 112.623333,392.193333 124.37,371.62 C129.083333,363.353333 134.283333,355.106667 139.97,346.88 C140.056348,346.764245 140.057399,346.605792 139.972596,346.488901 C139.887793,346.37201 139.736836,346.323837 139.6,346.37 C132.64,348.57 126.43,353.45 121.55,358.03 C121.156308,358.396574 120.635486,358.593024 120.107335,358.574161 C119.579183,358.555299 119.089167,358.322748 118.75,357.93 C118.336667,357.443333 118.32,356.78 118.7,355.94 C130.27,330.78 147.8,298.37 177.9,296.97 Z M322.54,93.96 L329.27,105.32 C331.43,109.106667 333.943333,112.65 336.81,115.95 C342.436667,122.423333 348.623333,128.303333 355.37,133.59 C357.896667,135.57 360.393333,137.586667 362.86,139.64 C364.946667,141.386667 369.47,144.08 376.43,147.72 C382.37,150.84 388.5,153.406667 394.82,155.42 C395.160399,155.531415 395.531651,155.499785 395.849743,155.332269 C396.167835,155.164753 396.405877,154.875512 396.51,154.53 C397.93,149.76 398.45,145.17 399.61,140.51 C403.75,123.71 404.52,104.78 404.14,88.88 C404.053333,85.28 403.6,81.31 402.78,76.97 C402.793333,76.59 402.62,76.1266667 402.26,75.58 C400.88,75.1533333 399.283333,75 397.47,75.12 C384.09,74.82 371.61,76.89 357.95,79.61 C352.283333,80.7366667 346.71,82.2066667 341.23,84.02 C334.55,86.22 328.296667,88.4533333 322.47,90.72 C321.856667,90.96 321.543333,91.4 321.529903,92.04 C321.523333,92.6066667 321.86,93.2466667 322.54,93.96 Z M235.09,306.81 L254.18,317.36 C254.539709,317.562518 254.971412,317.588346 255.35,317.43 C258.57,316.123333 261.716667,314.653333 264.79,313.02 C281.536667,304.133333 297.56,293.74 312.86,281.84 C346.206667,255.9 370.793333,223.26 386.62,183.92 C389.56,176.62 392.306667,168.853333 394.86,160.62 C395.127956,159.749258 394.666192,158.821332 393.81,158.51 L382.69,154.46 C355.56,142.49 330.79,120.9 318.73,93.38 C318.56426,93.0106828 318.147293,92.8282597 317.77,92.96 C315.656667,93.6666667 313.51,94.5433333 311.33,95.59 C273.46,113.76 240.31,141.43 217.34,176.59 C206.833333,192.67 197.92,209.26 190.6,226.36 C186.573333,235.766667 183.42,244.616667 181.14,252.91 C180.942823,253.649897 181.062338,254.439425 181.47,255.09 C187.71,264.87 195.513333,273.886667 204.88,282.14 C204.932825,282.187446 205.003333,282.210193 205.073925,282.202561 C205.144518,282.194929 205.208536,282.15764 205.25,282.1 C213.203333,270.306667 222.046667,259.28 231.78,249.02 C237.15,243.37 245.09,236.44 252.7,232.7 C255.526667,231.306667 257.5,230.72 258.62,230.94 C265.07,232.2 262.15,239.17 260.52,242.99 C255.473333,254.85 248.74,265.55 240.32,275.09 C235.32,280.756667 228.776667,287.796667 220.69,296.21 C220.627238,296.27591 220.59661,296.366069 220.606238,296.45657 C220.615866,296.547071 220.664776,296.62877 220.74,296.68 L235.09,306.81 Z M201.99,185.14 C197.23,185.9 192.5,186.786667 187.8,187.8 C178.55,189.8 173.06,190.44 163.33,192.64 C160.143333,193.353333 157.666667,194.443333 155.9,195.91 C151.126667,199.876667 147.08,204.51 143.76,209.81 C138.893333,217.583333 134.253333,225.743333 129.84,234.29 C128.093333,236.996667 126.523333,240.06 125.13,243.48 C124.716667,244.506667 124.253333,245.51 123.74,246.49 C123.106667,247.723333 122.633333,248.72 122.32,249.48 C118.52,258.706667 115.223333,266.606667 112.43,273.18 C112.223333,273.653333 111.773333,275.196667 111.08,277.81 C110.962982,278.255515 111.144218,278.72592 111.529908,278.977753 C111.915598,279.229586 112.419172,279.206322 112.78,278.92 L114.33,277.69 C119.79,273.076667 125.163333,268.246667 130.45,263.2 C136.563333,257.346667 141.623333,253.146667 145.63,250.6 C149.19,248.326667 153.623333,247.286667 158.93,247.48 C164.583333,247.68 170.593333,248.27 176.96,249.25 C177.920575,249.400335 178.826273,248.75214 179,247.79 C179.246667,246.456667 179.583333,245.206667 180.01,244.04 C185.116667,230 190.626667,217.133333 196.54,205.44 C200.42,197.78 204.52,191.94 208.02,184.88 C208.106959,184.706742 208.088172,184.499164 207.971519,184.344335 C207.854867,184.189505 207.660521,184.114198 207.47,184.15 L201.99,185.14 Z M195.47,302.25 L176.88,330.65 C176.02,331.563333 175.303333,332.786667 174.73,334.32 C174.56849,334.763769 174.703657,335.262536 175.066706,335.562446 C175.429755,335.862356 175.940906,335.897503 176.34,335.65 C177.926667,334.683333 179.623333,333.356667 181.43,331.67 C188.163333,325.396667 194.85,318.763333 201.49,311.77 C203.49,309.67 204.88,307.87 206.6,306.15 C215.526667,297.243333 222.38,290.163333 227.16,284.91 C228.98,282.91 231.393333,280.243333 234.4,276.91 C239.8,270.93 244.75,264.57 249.25,257.83 C252.39,253.11 254.88,247.73 257.07,242.86 C258.13,240.5 258.82,238 259.14,235.36 C259.193333,234.906667 259.04,234.55 258.68,234.29 C258.586667,234.216667 258.373333,234.223333 258.04,234.31 C253.35,234.73 246.84,240.03 243.57,242.85 C233.13,251.823333 223.86,261.886667 215.76,273.04 C208.793333,282.633333 202.03,292.37 195.47,302.25 Z M195.95,295 L202.7,285.75 C203.002032,285.348553 202.945889,284.778484 202.57,284.43 C195.53,277.94 189.59,272.13 184.18,264.85 C184.108406,264.755077 184.00003,264.695032 183.882977,264.685437 C183.765925,264.675843 183.651727,264.717644 183.57,264.8 L175.84,272.53 C175.418764,272.948343 175.405487,273.625466 175.81,274.06 L195.25,295.04 C195.341336,295.141094 195.473555,295.195365 195.609577,295.187592 C195.745598,295.179819 195.870774,295.11084 195.95,295 L195.95,295 Z M250.84,386.28 C257.16,382.18 264.87,378.06 270.13,374.59 C282.316667,366.556667 294.023333,357.81 305.25,348.35 C311.58,343.01 317.69,336.57 318.9,328.72 C319.666667,323.766667 320.063333,320.853333 320.09,319.98 C320.403333,310.833333 320.386667,301.7 320.04,292.58 L320.350094,281.33 C320.35408,281.100985 320.225244,280.890305 320.019525,280.789588 C319.813805,280.688871 319.568384,280.716322 319.39,280.86 C300.596667,295.98 281.036667,308.726667 260.71,319.1 C260.146595,319.389672 259.878719,320.04448 260.08,320.64 C262.18,326.92 263.81,332.966667 264.97,338.78 C266.396667,345.92 265.28,352.533333 261.62,358.62 C257.32,365.78 252.596667,372.816667 247.45,379.73 C245.39,382.49 243.81,385.12 241.34,388.48 C241.137035,388.75902 241.068812,389.11391 241.153859,389.448296 C241.238905,389.782682 241.468392,390.061854 241.78,390.21 C242.52,390.57 243.253333,390.53 243.98,390.09 C246.21,388.73 248.6,387.69 250.84,386.28 Z M194.3994,298.6759 C194.448977,298.624213 194.475987,298.554947 194.474546,298.483343 C194.472987,298.411739 194.443099,298.343665 194.3914,298.2941 L179.6675,284.1744 C179.559879,284.071227 179.389004,284.074808 179.2858,284.1824 L175.1606,288.4841 C175.111023,288.535787 175.084013,288.605053 175.085454,288.676657 C175.087013,288.748261 175.116901,288.816335 175.1686,288.8659 L189.8925,302.9856 C190.000121,303.088773 190.170996,303.085192 190.2742,302.9776 L194.3994,298.6759 Z M217.619999,299.31 L210.39,306.54 C210.205515,306.727116 210.10787,306.982793 210.121207,307.243817 C210.134544,307.504841 210.257618,307.746847 210.46,307.91 C218.22,314.196667 226.53,319.95 235.39,325.17 C235.751072,325.386123 236.207807,325.358321 236.54,325.1 C239.633333,322.746667 242.126667,319.96 244.02,316.74 C244.135804,316.542609 244.164968,316.306163 244.100599,316.086549 C244.036229,315.866935 243.884039,315.683644 243.68,315.58 C234.953333,311.086667 226.566667,305.646667 218.52,299.26 C218.246456,299.049385 217.861958,299.070746 217.619999,299.31 L217.619999,299.31 Z M205.56,320.84 L201.42,317 C201.162513,316.761559 200.761037,316.774942 200.52,317.03 C195.86,321.87 189.86,327.87 182.52,335.03 C181.106667,336.41 179.483333,337.78 177.65,339.14 C177.005084,339.615781 176.16705,339.742982 175.41,339.48 C171.92,338.26 169.26,336.17 171.85,332.09 C176.596667,324.596667 182.073333,316.236667 188.28,307.01 C188.458797,306.754177 188.415646,306.404657 188.18,306.2 L183.46,301.94 C182.753333,300.86 181.933333,300.3 181,300.26 C156.63,299.11 141.18,321.23 130.34,339.59 C128.5,342.703333 126.853333,346.043333 125.4,349.61 C125.3539,349.722031 125.388063,349.851053 125.483563,349.925591 C125.579064,350.000128 125.712521,350.00193 125.81,349.93 C130.4,346.67 138.03,341.71 143.75,341.95 C144.861822,341.996509 145.789183,342.695094 146.02,343.66 C146.133333,344.106667 145.96,344.633333 145.5,345.24 C140.393333,352.1 135.853333,358.896667 131.88,365.63 C120.626667,384.716667 110.14,403.783333 100.42,422.83 C100.361944,422.927383 100.383512,423.052545 100.470813,423.124881 C100.558114,423.197216 100.685105,423.195144 100.77,423.12 C119.97,408.326667 139.176667,392.996667 158.39,377.13 C162.183333,373.996667 166.28,370.43 170.68,366.43 C171.353333,365.823333 171.86,365.526667 172.2,365.54 C173.474757,365.597075 174.46908,366.782272 174.44,368.21 C174.306667,374.303333 172.883333,380.133333 170.17,385.7 C170.091715,385.856028 170.129805,386.045324 170.262345,386.15893 C170.394886,386.272537 170.58778,386.281227 170.73,386.18 C188.75,373.4 210.45,355.49 210.530536,331.01 C210.55,326.18 210.03,322.78 205.56,320.84 Z M224.97,323.05 L207.53,310.31 C207.378353,310.20549 207.176052,310.222348 207.05,310.35 L203.87,313.53 C203.758762,313.642755 203.697722,313.795184 203.701349,313.950738 C203.70531,314.106292 203.773596,314.250941 203.89,314.35 C209.196667,319.05 214.883333,323.423333 220.95,327.47 C221.064416,327.550587 221.220061,327.537967 221.32,327.44 L225.02,323.73 C225.114201,323.636038 225.163039,323.50598 225.153391,323.37477 C225.143743,323.243559 225.076599,323.124653 224.97,323.05 Z" id="Shape" fill="#000000" fill-rule="nonzero"></path>
            <path d="M397.47,75.12 C393.843333,75.0666667 390.483333,75.5966667 387.39,76.71 C386.968092,76.8530198 386.719615,77.288773 386.811391,77.7247072 C386.903166,78.1606414 387.30624,78.4592262 387.75,78.42 L400.18,77.62 C400.755016,77.5827869 401.274862,77.2648955 401.57,76.77 L402.26,75.58 C402.62,76.1266667 402.793333,76.59 402.780714,76.97 C401.886667,80.3033333 401.19,85.4166667 400.69,92.31 C399.95,102.576667 397.38,113.216667 392.98,124.23 C390.28,131.01 387.47,138.28 385.05,143.55 C384.336667,145.103333 383.276667,146.7 381.87,148.34 C381.672382,148.5696 381.363925,148.676228 381.06,148.62 L376.43,147.72 C369.47,144.08 364.946667,141.386667 362.86,139.64 C360.393333,137.586667 357.896667,135.57 355.37,133.59 C348.623333,128.303333 342.436667,122.423333 336.81,115.95 C333.943333,112.65 331.43,109.106667 329.27,105.32 C329.703333,105.42 330.043333,105.106667 330.29,104.38 L331.55,105.71 C331.73367,105.90049 331.993811,105.999417 332.26,105.98 L335.65,105.76 C336.229816,105.72107 336.757203,105.410444 337.070925,104.92309 C337.384648,104.435735 337.447401,103.829602 337.24,103.29 C336.926667,102.456667 336.326667,101.713333 335.44,101.06 C338.953333,99.6866667 342.453333,98.2333333 345.94,96.7 C355.18,92.63 362.29,90.62 373.17,86.66 C375.79,85.7 376.753333,84.14 376.06,81.98 C375.965061,81.6888789 375.744335,81.4571159 375.46,81.35 C373.46,80.6033333 371.306667,80.47 369,80.95 C356.353333,83.5566667 343.783333,87.0033333 331.29,91.29 C330.256667,91.6433333 329.78,92.2066667 329.86,92.98 C329.86,89.11 326.1,90.66 325.25,92.94 C324.163333,92.32 323.26,92.66 322.54,93.96 C321.86,93.2466667 321.523333,92.6066667 321.529903,92.04 C321.543333,91.4 321.856667,90.96 322.47,90.72 C328.296667,88.4533333 334.55,86.22 341.23,84.02 C346.71,82.2066667 352.283333,80.7366667 357.95,79.61 C371.61,76.89 384.09,74.82 397.47,75.12 Z M388.37,79.9 C386.75,78.46 382,77.4 381.44,80.94 C381.37676,81.3282207 381.464222,81.7243696 381.68258,82.038729 C381.900937,82.3530885 382.231715,82.5590614 382.6,82.61 C384.42,82.85 386.27,82.4933333 388.15,81.54 C388.446469,81.3919754 388.650358,81.1067017 388.694415,80.7782752 C388.738472,80.4498487 388.616975,80.1209257 388.37,79.9 Z M347.8753,115.6047 C347.367073,115.096451 346.667326,114.821348 345.930003,114.839914 C345.19268,114.85848 344.478182,115.169194 343.9437,115.7037 C343.409194,116.238182 343.09848,116.95268 343.079914,117.690003 C343.061348,118.427326 343.336451,119.127073 343.8447,119.6353 C344.352927,120.143549 345.052674,120.418652 345.789997,120.400086 C346.52732,120.38152 347.241818,120.070806 347.7763,119.5363 C348.310806,119.001818 348.62152,118.28732 348.640086,117.549997 C348.658652,116.812674 348.383549,116.112927 347.8753,115.6047 Z M361.927,129.1808 C361.662836,128.228169 360.676435,127.67005 359.7238,127.9342 L358.3747,128.3084 C357.422069,128.572564 356.86395,129.558965 357.1281,130.5116 L357.513,131.8992 C357.777164,132.851831 358.763565,133.40995 359.7162,133.1458 L361.0653,132.7716 C362.017931,132.507436 362.57605,131.521035 362.3119,130.5684 L361.927,129.1808 Z M379.03,141.6 C379.03,140.097785 377.812215,138.88 376.31,138.88 C374.807785,138.88 373.59,140.097785 373.59,141.6 C373.59,143.102215 374.807785,144.32 376.31,144.32 C377.812215,144.32 379.03,143.102215 379.03,141.6 Z" id="Shape" fill="#D83534" fill-rule="nonzero"></path>
            <path d="M397.47,75.12 C399.283333,75 400.88,75.1533333 402.26,75.58 L401.57,76.77 C401.274862,77.2648955 400.755016,77.5827869 400.18,77.62 L387.75,78.42 C387.30624,78.4592262 386.903166,78.1606414 386.811391,77.7247072 C386.719615,77.288773 386.968092,76.8530198 387.39,76.71 C390.483333,75.5966667 393.843333,75.0666667 397.47,75.12 Z" id="Path" fill="#E68D88" fill-rule="nonzero"></path>
            <path d="M376.43,147.72 L381.06,148.62 C381.363925,148.676228 381.672382,148.5696 381.87,148.34 C383.276667,146.7 384.336667,145.103333 385.05,143.55 C387.47,138.28 390.28,131.01 392.98,124.23 C397.38,113.216667 399.95,102.576667 400.69,92.31 C401.19,85.4166667 401.886667,80.3033333 402.78,76.97 C403.6,81.31 404.053333,85.28 404.14,88.88 C404.52,104.78 403.75,123.71 399.61,140.51 C398.45,145.17 397.93,149.76 396.51,154.53 C396.405877,154.875512 396.167835,155.164753 395.849743,155.332269 C395.531651,155.499785 395.160399,155.531415 394.82,155.42 C388.5,153.406667 382.37,150.84 376.43,147.72 Z M394.7412,148.4163 C394.591956,147.759388 394.164237,147.194038 393.552137,146.84462 C392.940037,146.495202 392.193695,146.390339 391.4773,146.5531 C390.760887,146.715846 390.133101,147.132896 389.732053,147.712499 C389.331004,148.292102 389.189546,148.986778 389.3388,149.6437 C389.488044,150.300612 389.915763,150.865962 390.527863,151.21538 C391.139963,151.564798 391.886305,151.669661 392.6027,151.5069 C393.319113,151.344154 393.946899,150.927104 394.347947,150.347501 C394.748996,149.767898 394.890454,149.073222 394.7412,148.4163 L394.7412,148.4163 Z" id="Shape" fill="#A02E2C" fill-rule="nonzero"></path>
            <path d="M388.37,79.9 C388.616975,80.1209257 388.738472,80.4498487 388.694415,80.7782752 C388.650358,81.1067017 388.446469,81.3919754 388.15,81.54 C386.27,82.4933333 384.42,82.85 382.6,82.61 C382.231715,82.5590614 381.900937,82.3530885 381.68258,82.038729 C381.464222,81.7243696 381.37676,81.3282207 381.44,80.94 C382,77.4 386.75,78.46 388.37,79.9 Z" id="Path" fill="#E68D88" fill-rule="nonzero"></path>
            <path d="M335.44,101.06 C332.506667,100.78 330.79,101.886667 330.29,104.38 C330.043333,105.106667 329.703333,105.42 329.27,105.32 L322.54,93.96 C323.26,92.66 324.163333,92.32 325.25,92.94 C326.12,96.5 329.67,95.77 329.86,92.98 C329.78,92.2066667 330.256667,91.6433333 331.29,91.29 C343.783333,87.0033333 356.353333,83.5566667 369,80.95 C371.306667,80.47 373.46,80.6033333 375.46,81.35 C375.744335,81.4571159 375.965061,81.6888789 376.06,81.98 C376.753333,84.14 375.79,85.7 373.17,86.66 C362.29,90.62 355.18,92.63 345.94,96.7 C342.453333,98.2333333 338.953333,99.6866667 335.44,101.06 Z" id="Path" fill="#E68D88" fill-rule="nonzero"></path>
            <path d="M329.86,92.98 C329.67,95.77 326.12,96.5 325.25,92.94 C326.1,90.66 329.86,89.11 329.86,92.98 Z" id="Path" fill="#000000" fill-rule="nonzero"></path>
            <path d="M382.69,154.46 C380.803333,157.986667 377.423333,164.503333 372.55,174.01 C366.696667,185.43 359.06,197.473333 349.64,210.14 C326.173333,241.673333 297.636667,267.633333 264.03,288.02 C253.903333,294.16 245.756667,298.763333 239.59,301.83 C236.723333,303.256667 235.223333,304.916667 235.09,306.81 L220.74,296.68 C220.664776,296.62877 220.615866,296.547071 220.606238,296.45657 C220.59661,296.366069 220.627238,296.27591 220.69,296.21 C228.776667,287.796667 235.32,280.756667 240.32,275.09 C248.74,265.55 255.473333,254.85 260.52,242.99 C262.15,239.17 265.07,232.2 258.62,230.94 C257.5,230.72 255.526667,231.306667 252.7,232.7 C245.09,236.44 237.15,243.37 231.78,249.02 C222.046667,259.28 213.203333,270.306667 205.25,282.1 C205.208536,282.15764 205.144518,282.194929 205.073925,282.202561 C205.003333,282.210193 204.932825,282.187446 204.88,282.14 C195.513333,273.886667 187.71,264.87 181.47,255.09 C181.062338,254.439425 180.942823,253.649897 181.14,252.91 C183.42,244.616667 186.573333,235.766667 190.6,226.36 C197.92,209.26 206.833333,192.67 217.34,176.59 C240.31,141.43 273.46,113.76 311.33,95.59 C313.51,94.5433333 315.656667,93.6666667 317.77,92.96 C318.147293,92.8282597 318.56426,93.0106828 318.73,93.38 C330.79,120.9 355.56,142.49 382.69,154.46 Z M350.28,178.71 C350.28,155.607929 331.552071,136.88 308.45,136.88 C285.347929,136.88 266.62,155.607929 266.62,178.71 C266.62,201.812071 285.347929,220.54 308.45,220.54 C331.552071,220.54 350.28,201.812071 350.28,178.71 Z" id="Shape" fill="#F3F4F2" fill-rule="nonzero"></path>
            <path d="M335.44,101.06 C336.326667,101.713333 336.926667,102.456667 337.24,103.29 C337.447401,103.829602 337.384648,104.435735 337.070925,104.92309 C336.757203,105.410444 336.229816,105.72107 335.65,105.76 L332.26,105.98 C331.993811,105.999417 331.73367,105.90049 331.55,105.71 L330.29,104.38 C330.79,101.886667 332.506667,100.78 335.44,101.06 Z" id="Path" fill="#000000" fill-rule="nonzero"></path>
            <ellipse id="Oval" fill="#000000" fill-rule="nonzero" transform="translate(345.860000, 117.620000) rotate(-45.000000) translate(-345.860000, -117.620000) " cx="345.86" cy="117.62" rx="2.85" ry="2.71"></ellipse>
            <rect id="Rectangle" fill="#000000" fill-rule="nonzero" transform="translate(359.720000, 130.540000) rotate(-15.500000) translate(-359.720000, -130.540000) " x="357.23" y="128.03" width="4.98" height="5.02" rx="1.79"></rect>
            <path d="M350.28,178.71 C350.28,201.812071 331.552071,220.54 308.45,220.54 C285.347929,220.54 266.62,201.812071 266.62,178.71 C266.62,155.607929 285.347929,136.88 308.45,136.88 C331.552071,136.88 350.28,155.607929 350.28,178.71 Z M346.83,178.7 C346.83,157.536448 329.673552,140.38 308.51,140.38 C287.346448,140.38 270.19,157.536448 270.19,178.7 C270.19,199.863552 287.346448,217.02 308.51,217.02 C329.673552,217.02 346.83,199.863552 346.83,178.7 L346.83,178.7 Z" id="Shape" fill="#000000" fill-rule="nonzero"></path>
            <circle id="Oval" fill="#000000" fill-rule="nonzero" cx="376.31" cy="141.6" r="2.72"></circle>
            <path d="M346.83,178.7 C346.83,199.863552 329.673552,217.02 308.51,217.02 C287.346448,217.02 270.19,199.863552 270.19,178.7 C270.19,157.536448 287.346448,140.38 308.51,140.38 C329.673552,140.38 346.83,157.536448 346.83,178.7 L346.83,178.7 Z M340.68,178.66 C340.68,170.130638 337.291724,161.950616 331.260554,155.919446 C325.229384,149.888276 317.049362,146.5 308.52,146.5 C299.990638,146.5 291.810616,149.888276 285.779446,155.919446 C279.748276,161.950616 276.36,170.130638 276.36,178.66 C276.36,196.421478 290.758522,210.82 308.52,210.82 C326.281478,210.82 340.68,196.421478 340.68,178.66 Z" id="Shape" fill="#626466" fill-rule="nonzero"></path>
            <ellipse id="Oval" fill="#000000" fill-rule="nonzero" transform="translate(392.040000, 149.030000) rotate(-12.800000) translate(-392.040000, -149.030000) " cx="392.04" cy="149.03" rx="2.77" ry="2.54"></ellipse>
            <path d="M340.68,178.66 C340.68,196.421478 326.281478,210.82 308.52,210.82 C290.758522,210.82 276.36,196.421478 276.36,178.66 C276.36,170.130638 279.748276,161.950616 285.779446,155.919446 C291.810616,149.888276 299.990638,146.5 308.52,146.5 C317.049362,146.5 325.229384,149.888276 331.260554,155.919446 C337.291724,161.950616 340.68,170.130638 340.68,178.66 Z M337.24,178.71 C337.24,162.864951 324.395049,150.02 308.55,150.02 C292.704951,150.02 279.86,162.864951 279.86,178.71 C279.86,186.319061 282.882688,193.616475 288.263106,198.996894 C293.643525,204.377312 300.940939,207.4 308.55,207.4 C316.159061,207.4 323.456475,204.377312 328.836894,198.996894 C334.217312,193.616475 337.24,186.319061 337.24,178.71 L337.24,178.71 Z" id="Shape" fill="#000000" fill-rule="nonzero"></path>
            <path d="M337.24,178.71 C337.24,186.319061 334.217312,193.616475 328.836894,198.996894 C323.456475,204.377312 316.159061,207.4 308.55,207.4 C292.704951,207.4 279.86,194.555049 279.86,178.71 C279.86,162.864951 292.704951,150.02 308.55,150.02 C316.159061,150.02 323.456475,153.042688 328.836894,158.423106 C334.217312,163.803525 337.24,171.100939 337.24,178.71 L337.24,178.71 Z M327.09,164.69 C327.709829,163.607542 327.529703,162.244322 326.65,161.36 C324.876667,159.58 322.986667,158.296667 320.98,157.51 C314.74,155.056667 308.583333,154.466667 302.51,155.74 C298.336667,156.613333 294.946667,158.313333 292.34,160.84 C289.34,163.75 290.16,167.57 294.26,168.65 C294.602011,168.742081 294.958419,168.752362 295.3,168.68 C304.086667,166.886667 313.37,166.463333 323.15,167.41 C323.555622,167.449163 323.963764,167.376528 324.33,167.2 C325.563333,166.593333 326.483333,165.756667 327.09,164.69 Z M328.38,164.7 L326.43,167.53 C326.24989,167.790896 326.18133,168.112876 326.239528,168.424516 C326.297726,168.736156 326.47787,169.011691 326.74,169.19 L327.31,169.58 C328.051054,170.090954 328.934469,170.330645 329.765482,170.246231 C330.596495,170.161816 331.306872,169.760227 331.74,169.13 L331.77,169.08 C332.668983,167.77022 332.149961,165.850735 330.61,164.79 L330.03,164.39 C329.488412,164.021636 328.750961,164.160187 328.38,164.7 Z M290.1681,169.7394 C288.69946,168.596134 286.466587,169.008253 285.1808,170.6599 C283.895054,172.311571 284.043291,174.577303 285.5119,175.7206 C286.98054,176.863866 289.213413,176.451747 290.4992,174.8001 C291.784946,173.148429 291.636709,170.882697 290.1681,169.7394 Z" id="Shape" fill="#4BA7CD" fill-rule="nonzero"></path>
            <path d="M235.09,306.81 C235.223333,304.916667 236.723333,303.256667 239.59,301.83 C245.756667,298.763333 253.903333,294.16 264.03,288.02 C297.636667,267.633333 326.173333,241.673333 349.64,210.14 C359.06,197.473333 366.696667,185.43 372.55,174.01 C377.423333,164.503333 380.803333,157.986667 382.69,154.46 L393.81,158.51 C394.666192,158.821332 395.127956,159.749258 394.86,160.62 C392.306667,168.853333 389.56,176.62 386.62,183.92 C370.793333,223.26 346.206667,255.9 312.86,281.84 C297.56,293.74 281.536667,304.133333 264.79,313.02 C261.716667,314.653333 258.57,316.123333 255.35,317.43 C254.971412,317.588346 254.539709,317.562518 254.18,317.36 L235.09,306.81 Z" id="Path" fill="#C7C7C8" fill-rule="nonzero"></path>
            <path d="M327.09,164.69 C326.483333,165.756667 325.563333,166.593333 324.33,167.2 C323.963764,167.376528 323.555622,167.449163 323.15,167.41 C313.37,166.463333 304.086667,166.886667 295.3,168.68 C294.958419,168.752362 294.602011,168.742081 294.26,168.65 C290.16,167.57 289.34,163.75 292.34,160.84 C294.946667,158.313333 298.336667,156.613333 302.51,155.74 C308.583333,154.466667 314.74,155.056667 320.98,157.51 C322.986667,158.296667 324.876667,159.58 326.65,161.36 C327.529703,162.244322 327.709829,163.607542 327.09,164.69 L327.09,164.69 Z" id="Path" fill="#C7C7C8" fill-rule="nonzero"></path>
            <path d="M328.38,164.7 C328.750961,164.160187 329.488412,164.021636 330.03,164.39 L330.61,164.79 C332.149961,165.850735 332.668983,167.77022 331.77,169.08 L331.74,169.13 C331.306872,169.760227 330.596495,170.161816 329.765482,170.246231 C328.934469,170.330645 328.051054,170.090954 327.31,169.58 L326.74,169.19 C326.47787,169.011691 326.297726,168.736156 326.239528,168.424516 C326.18133,168.112876 326.24989,167.790896 326.43,167.53 L328.38,164.7 Z" id="Path" fill="#F3F4F2" fill-rule="nonzero"></path>
            <ellipse id="Oval" fill="#F3F4F2" fill-rule="nonzero" transform="translate(287.840000, 172.730000) rotate(-52.100000) translate(-287.840000, -172.730000) " cx="287.84" cy="172.73" rx="3.79" ry="3.37"></ellipse>
            <path d="M114.33,277.69 C115.663333,272.95 117.823333,268.723333 120.81,265.01 C122.283333,263.176667 125.45,260.053333 130.31,255.64 C133.45,252.793333 136.886667,249.946667 140.62,247.1 C148.19,241.32 156.88,239.68 166.23,237.97 C170.483333,237.19 173.506667,234.886667 175.3,231.06 C179.12,222.94 184.66,210.82 190.46,201.75 C192.47,198.61 196.23,194.05 198.71,189.89 L202.86,186.32 C202.988189,186.210987 203.042518,186.03636 203,185.87 C202.893333,185.45 202.556667,185.206667 201.99,185.14 L207.47,184.15 C207.660521,184.114198 207.854867,184.189505 207.971519,184.344335 C208.088172,184.499164 208.106959,184.706742 208.02,184.88 C204.52,191.94 200.42,197.78 196.54,205.44 C190.626667,217.133333 185.116667,230 180.01,244.04 C179.583333,245.206667 179.246667,246.456667 179,247.79 C178.826273,248.75214 177.920575,249.400335 176.96,249.25 C170.593333,248.27 164.583333,247.68 158.93,247.48 C153.623333,247.286667 149.19,248.326667 145.63,250.6 C141.623333,253.146667 136.563333,257.346667 130.45,263.2 C125.163333,268.246667 119.79,273.076667 114.33,277.69 Z" id="Path" fill="#A02E2C" fill-rule="nonzero"></path>
            <path d="M201.99,185.14 C202.556667,185.206667 202.893333,185.45 203,185.87 C203.042518,186.03636 202.988189,186.210987 202.86,186.32 L198.71,189.89 C194.043333,191.156667 189.34,192.316667 184.6,193.37 C176.65,195.13 168.89,197.66 163.07,200.06 C158.63,201.893333 155.653333,203.5 154.14,204.88 C150.82,207.92 145.903333,213.513333 139.39,221.66 C139.237962,221.845042 139.051461,222.001025 138.84,222.12 C138.073333,222.553333 137.53,223.12 137.21,223.82 C136.363333,225.68 135.37,227.37 134.23,228.89 C133.97239,229.233577 133.782409,229.620323 133.67,230.03 C132.916667,232.816667 131.64,234.236667 129.84,234.29 C134.253333,225.743333 138.893333,217.583333 143.76,209.81 C147.08,204.51 151.126667,199.876667 155.9,195.91 C157.666667,194.443333 160.143333,193.353333 163.33,192.64 C173.06,190.44 178.55,189.8 187.8,187.8 C192.5,186.786667 197.23,185.9 201.99,185.14 Z" id="Path" fill="#E68D88" fill-rule="nonzero"></path>
            <path d="M198.71,189.89 C196.23,194.05 192.47,198.61 190.46,201.75 C184.66,210.82 179.12,222.94 175.3,231.06 C173.506667,234.886667 170.483333,237.19 166.23,237.97 C156.88,239.68 148.19,241.32 140.62,247.1 C136.886667,249.946667 133.45,252.793333 130.31,255.64 C125.45,260.053333 122.283333,263.176667 120.81,265.01 C117.823333,268.723333 115.663333,272.95 114.33,277.69 L112.78,278.92 C112.419172,279.206322 111.915598,279.229586 111.529908,278.977753 C111.144218,278.72592 110.962982,278.255515 111.08,277.81 C111.773333,275.196667 112.223333,273.653333 112.43,273.18 C115.223333,266.606667 118.52,258.706667 122.32,249.48 C122.633333,248.72 123.106667,247.723333 123.74,246.49 C124.253333,245.51 124.716667,244.506667 125.13,243.48 C126.523333,240.06 128.093333,236.996667 129.84,234.29 C131.64,234.236667 132.916667,232.816667 133.67,230.03 C133.782409,229.620323 133.97239,229.233577 134.23,228.89 C135.37,227.37 136.363333,225.68 137.21,223.82 C137.53,223.12 138.073333,222.553333 138.84,222.12 C139.051461,222.001025 139.237962,221.845042 139.39,221.66 C145.903333,213.513333 150.82,207.92 154.14,204.88 C155.653333,203.5 158.63,201.893333 163.07,200.06 C168.89,197.66 176.65,195.13 184.6,193.37 C189.34,192.316667 194.043333,191.156667 198.71,189.89 Z" id="Path" fill="#D83534" fill-rule="nonzero"></path>
            <path d="M258.04,234.31 C258.24,234.963333 258.05,235.513333 257.47,235.96 C255.63,237.386667 254.63,238.57 254.47,239.51 C248.99,243.09 245.033333,246.036667 242.6,248.35 C239.18,251.603333 233.02,258.026667 224.12,267.62 C221.366667,270.593333 218.286667,274.243333 214.88,278.57 C212.98,280.983333 210.736667,283.79 208.15,286.99 C204.056667,292.05 200.363333,297.413333 197.07,303.08 C196.898142,303.381216 196.570019,303.558567 196.223875,303.537331 C195.877732,303.516095 195.573749,303.299965 195.44,302.98 C195.426667,302.94 195.436667,302.696667 195.47,302.25 C202.03,292.37 208.793333,282.633333 215.76,273.04 C223.86,261.886667 233.13,251.823333 243.57,242.85 C246.84,240.03 253.35,234.73 258.04,234.31 Z" id="Path" fill="#E68D88" fill-rule="nonzero"></path>
            <path d="M176.88,330.65 C178.66,330.323333 180.243333,329.23 181.63,327.37 C183.41,324.983333 184.656667,323.336667 185.37,322.43 C188.37,318.59 189.9,315.58 192.69,310.79 C194.29,308.04 195.85,306.72 198.5,305.28 C199.846667,304.546667 200.89,303.763333 201.63,302.93 C203.97,300.303333 206.2,298.053333 208.32,296.18 C208.617871,295.915252 208.868198,295.600652 209.06,295.25 L210.4,292.8 C210.486464,292.653696 210.586945,292.516371 210.7,292.39 L218.79,283.75 C218.809942,283.730067 218.833411,283.709951 218.86,283.69 C220.83,282.06 222.03,281.16 223.33,279.49 C225.16,277.13 227.75,275.12 229.76,272.7 C232.486667,269.42 236.67,264.706667 242.31,258.56 C247.543333,252.873333 251.596667,246.523333 254.47,239.51 C254.63,238.57 255.63,237.386667 257.47,235.96 C258.05,235.513333 258.24,234.963333 258.04,234.31 C258.373333,234.223333 258.586667,234.216667 258.68,234.29 C259.04,234.55 259.193333,234.906667 259.14,235.36 C258.82,238 258.13,240.5 257.07,242.86 C254.88,247.73 252.39,253.11 249.25,257.83 C244.75,264.57 239.8,270.93 234.4,276.91 C231.393333,280.243333 228.98,282.91 227.16,284.91 C222.38,290.163333 215.526667,297.243333 206.6,306.15 C204.88,307.87 203.49,309.67 201.49,311.77 C194.85,318.763333 188.163333,325.396667 181.43,331.67 C179.623333,333.356667 177.926667,334.683333 176.34,335.65 C175.940906,335.897503 175.429755,335.862356 175.066706,335.562446 C174.703657,335.262536 174.56849,334.763769 174.73,334.32 C175.303333,332.786667 176.02,331.563333 176.88,330.65 Z" id="Path" fill="#A02E2C" fill-rule="nonzero"></path>
            <path d="M254.47,239.51 C251.596667,246.523333 247.543333,252.873333 242.31,258.56 C236.67,264.706667 232.486667,269.42 229.76,272.7 C227.75,275.12 225.16,277.13 223.33,279.49 C222.03,281.16 220.83,282.06 218.86,283.69 C218.833411,283.709951 218.809942,283.730067 218.79,283.75 L210.7,292.39 C210.586945,292.516371 210.486464,292.653696 210.4,292.8 L209.06,295.25 C208.868198,295.600652 208.617871,295.915252 208.32,296.18 C206.2,298.053333 203.97,300.303333 201.63,302.93 C200.89,303.763333 199.846667,304.546667 198.5,305.28 C195.85,306.72 194.29,308.04 192.69,310.79 C189.9,315.58 188.37,318.59 185.37,322.43 C184.656667,323.336667 183.41,324.983333 181.63,327.37 C180.243333,329.23 178.66,330.323333 176.88,330.65 L195.47,302.25 C195.436667,302.696667 195.426667,302.94 195.44,302.98 C195.573749,303.299965 195.877732,303.516095 196.223875,303.537331 C196.570019,303.558567 196.898142,303.381216 197.07,303.08 C200.363333,297.413333 204.056667,292.05 208.15,286.99 C210.736667,283.79 212.98,280.983333 214.88,278.57 C218.286667,274.243333 221.366667,270.593333 224.12,267.62 C233.02,258.026667 239.18,251.603333 242.6,248.35 C245.033333,246.036667 248.99,243.09 254.47,239.51 Z" id="Path" fill="#D83534" fill-rule="nonzero"></path>
            <path d="M195.95,295 C195.870774,295.11084 195.745598,295.179819 195.609577,295.187592 C195.473555,295.195365 195.341336,295.141094 195.25,295.04 L175.81,274.06 C175.405487,273.625466 175.418764,272.948343 175.84,272.53 L183.57,264.8 C183.651727,264.717644 183.765925,264.675843 183.882977,264.685437 C184.00003,264.695032 184.108406,264.755077 184.18,264.85 C189.59,272.13 195.53,277.94 202.57,284.43 C202.945889,284.778484 203.002032,285.348553 202.7,285.75 L195.95,295 Z" id="Path" fill="#626466" fill-rule="nonzero"></path>
            <path d="M320.04,292.58 L319.88,290.29 C319.853027,289.919123 319.588108,289.608831 319.226046,289.524045 C318.863985,289.439258 318.48884,289.599661 318.3,289.92 C317.153333,291.873333 315.59,293.28 313.61,294.14 C313.158815,294.333391 312.795502,294.686019 312.59,295.13 L312.21,295.97 C312.137862,296.134091 312.028147,296.278091 311.89,296.39 C300.95,305.296667 289.123333,313.576667 276.41,321.23 C273.89,322.75 272.65,323.89 272.7,326.83 C272.84,335.08 273.38,339.29 272.5,344.85 C271.893333,348.623333 271.356667,351.15 270.89,352.43 C270.263333,354.13 268.953333,357.063333 266.96,361.23 C265.726667,363.81 264.09,366.566667 262.05,369.5 C258.243333,374.96 254.16,380.023333 249.8,384.69 C249.587566,384.912392 249.510061,385.231296 249.596729,385.52638 C249.683397,385.821464 249.921045,386.047807 250.22,386.12 L250.84,386.28 C248.6,387.69 246.21,388.73 243.98,390.09 C243.253333,390.53 242.52,390.57 241.78,390.21 C241.468392,390.061854 241.238905,389.782682 241.153859,389.448296 C241.068812,389.11391 241.137035,388.75902 241.34,388.48 C243.81,385.12 245.39,382.49 247.45,379.73 C252.596667,372.816667 257.32,365.78 261.62,358.62 C265.28,352.533333 266.396667,345.92 264.97,338.78 C263.81,332.966667 262.18,326.92 260.08,320.64 C259.878719,320.04448 260.146595,319.389672 260.71,319.1 C281.036667,308.726667 300.596667,295.98 319.39,280.86 C319.568384,280.716322 319.813805,280.688871 320.019525,280.789588 C320.225244,280.890305 320.35408,281.100985 320.350094,281.33 L320.04,292.58 Z" id="Path" fill="#A02E2C" fill-rule="nonzero"></path>
            <rect id="Rectangle" fill="#626466" fill-rule="nonzero" transform="translate(184.780000, 293.580000) rotate(43.800000) translate(-184.780000, -293.580000) " x="174.31" y="290.33" width="20.94" height="6.5" rx="0.27"></rect>
            <path d="M320.04,292.58 C320.386667,301.7 320.403333,310.833333 320.09,319.98 C320.063333,320.853333 319.666667,323.766667 318.9,328.72 C317.69,336.57 311.58,343.01 305.25,348.35 C294.023333,357.81 282.316667,366.556667 270.13,374.59 C264.87,378.06 257.16,382.18 250.84,386.28 L250.22,386.12 C249.921045,386.047807 249.683397,385.821464 249.596729,385.52638 C249.510061,385.231296 249.587566,384.912392 249.8,384.69 C254.16,380.023333 258.243333,374.96 262.05,369.5 C264.09,366.566667 265.726667,363.81 266.96,361.23 C268.953333,357.063333 270.263333,354.13 270.89,352.43 C271.356667,351.15 271.893333,348.623333 272.5,344.85 C273.38,339.29 272.84,335.08 272.7,326.83 C272.65,323.89 273.89,322.75 276.41,321.23 C289.123333,313.576667 300.95,305.296667 311.89,296.39 C312.028147,296.278091 312.137862,296.134091 312.21,295.97 L312.59,295.13 C312.795502,294.686019 313.158815,294.333391 313.61,294.14 C315.59,293.28 317.153333,291.873333 318.3,289.92 C318.48884,289.599661 318.863985,289.439258 319.226046,289.524045 C319.588108,289.608831 319.853027,289.919123 319.88,290.29 L320.04,292.58 Z" id="Path" fill="#D83534" fill-rule="nonzero"></path>
            <path d="M218.52,299.26 C226.566667,305.646667 234.953333,311.086667 243.68,315.58 C243.884039,315.683644 244.036229,315.866935 244.100599,316.086549 C244.164968,316.306163 244.135804,316.542609 244.02,316.74 C242.126667,319.96 239.633333,322.746667 236.54,325.1 C236.207807,325.358321 235.751072,325.386123 235.39,325.17 C226.53,319.95 218.22,314.196667 210.46,307.91 C210.257618,307.746847 210.134544,307.504841 210.121207,307.243817 C210.10787,306.982793 210.205515,306.727116 210.39,306.54 L217.619999,299.31 C217.861958,299.070746 218.246456,299.049385 218.52,299.26 L218.52,299.26 Z" id="Path" fill="#626466" fill-rule="nonzero"></path>
            <path d="M183.46,301.94 C183.486667,303.466667 182.73,304.446667 181.19,304.88 C175.256667,306.546667 170.09,309.233333 165.69,312.94 C161.05,316.846667 157.996667,319.796667 156.53,321.79 C154.536667,324.496667 153.036667,326.75 152.03,328.55 C151.853444,328.864094 151.841837,329.244594 151.998868,329.570582 C152.155899,329.896571 152.462039,330.127506 152.82,330.19 L160.42,331.5 C160.771829,331.559497 161.083299,331.762065 161.280354,332.059543 C161.477409,332.35702 161.542445,332.722831 161.46,333.07 C161.16,334.62 159.59,337.11 157.53,340.94 C153.09,349.18 150.04,358.53 146.52,368.36 C146.452359,368.546636 146.50401,368.755641 146.650799,368.889286 C146.797589,369.02293 147.01051,369.054803 147.19,368.97 C155.056667,365.19 162.63,361.033333 169.91,356.5 C173.72,354.12 177.13,351.02 180.72,348.82 C181.188153,348.531524 181.773112,348.509006 182.262057,348.760638 C182.751001,349.012271 183.072657,349.501373 183.11,350.05 L183.62,357.9 C183.632162,358.107089 183.761881,358.288904 183.953745,358.367782 C184.14561,358.446659 184.365699,358.408654 184.52,358.27 C187.493333,355.57 189.896667,353.306667 191.73,351.48 C195.05,348.18 198.44,342.47 200.56,338.07 C202.8,333.396667 203.8,328.323333 203.56,322.85 C203.526667,322.096667 203.673333,321.603333 204,321.37 C204.34,321.116667 204.86,320.94 205.56,320.84 C210.03,322.78 210.55,326.18 210.530536,331.01 C210.45,355.49 188.75,373.4 170.73,386.18 C170.58778,386.281227 170.394886,386.272537 170.262345,386.15893 C170.129805,386.045324 170.091715,385.856028 170.17,385.7 C172.883333,380.133333 174.306667,374.303333 174.44,368.21 C174.46908,366.782272 173.474757,365.597075 172.2,365.54 C171.86,365.526667 171.353333,365.823333 170.68,366.43 C166.28,370.43 162.183333,373.996667 158.39,377.13 C139.176667,392.996667 119.97,408.326667 100.77,423.12 C100.685105,423.195144 100.558114,423.197216 100.470813,423.124881 C100.383512,423.052545 100.361944,422.927383 100.42,422.83 C110.14,403.783333 120.626667,384.716667 131.88,365.63 C135.853333,358.896667 140.393333,352.1 145.5,345.24 C145.96,344.633333 146.133333,344.106667 146.02,343.66 C145.789183,342.695094 144.861822,341.996509 143.75,341.95 C138.03,341.71 130.4,346.67 125.81,349.93 C125.712521,350.00193 125.579064,350.000128 125.483563,349.925591 C125.388063,349.851053 125.3539,349.722031 125.4,349.61 C126.853333,346.043333 128.5,342.703333 130.34,339.59 C141.18,321.23 156.63,299.11 181,300.26 C181.933333,300.3 182.753333,300.86 183.46,301.94 Z" id="Path" fill="#EFAA36" fill-rule="nonzero"></path>
            <path d="M183.46,301.94 L188.18,306.2 C188.415646,306.404657 188.458797,306.754177 188.28,307.01 C182.073333,316.236667 176.596667,324.596667 171.85,332.09 C169.26,336.17 171.92,338.26 175.41,339.48 C176.16705,339.742982 177.005084,339.615781 177.65,339.14 C179.483333,337.78 181.106667,336.41 182.52,335.03 C189.86,327.87 195.86,321.87 200.52,317.03 C200.761037,316.774942 201.162513,316.761559 201.42,317 L205.56,320.84 C204.86,320.94 204.34,321.116667 204,321.37 C203.673333,321.603333 203.526667,322.096667 203.56,322.85 C203.8,328.323333 202.8,333.396667 200.56,338.07 C198.44,342.47 195.05,348.18 191.73,351.48 C189.896667,353.306667 187.493333,355.57 184.52,358.27 C184.365699,358.408654 184.14561,358.446659 183.953745,358.367782 C183.761881,358.288904 183.632162,358.107089 183.62,357.9 L183.11,350.05 C183.072657,349.501373 182.751001,349.012271 182.262057,348.760638 C181.773112,348.509006 181.188153,348.531524 180.72,348.82 C177.13,351.02 173.72,354.12 169.91,356.5 C162.63,361.033333 155.056667,365.19 147.19,368.97 C147.01051,369.054803 146.797589,369.02293 146.650799,368.889286 C146.50401,368.755641 146.452359,368.546636 146.52,368.36 C150.04,358.53 153.09,349.18 157.53,340.94 C159.59,337.11 161.16,334.62 161.46,333.07 C161.542445,332.722831 161.477409,332.35702 161.280354,332.059543 C161.083299,331.762065 160.771829,331.559497 160.42,331.5 L152.82,330.19 C152.462039,330.127506 152.155899,329.896571 151.998868,329.570582 C151.841837,329.244594 151.853444,328.864094 152.03,328.55 C153.036667,326.75 154.536667,324.496667 156.53,321.79 C157.996667,319.796667 161.05,316.846667 165.69,312.94 C170.09,309.233333 175.256667,306.546667 181.19,304.88 C182.73,304.446667 183.486667,303.466667 183.46,301.94 Z" id="Path" fill="#F4D964" fill-rule="nonzero"></path>
            <path d="M224.97,323.05 C225.076599,323.124653 225.143743,323.243559 225.153391,323.37477 C225.163039,323.50598 225.114201,323.636038 225.02,323.73 L221.32,327.44 C221.220061,327.537967 221.064416,327.550587 220.95,327.47 C214.883333,323.423333 209.196667,319.05 203.89,314.35 C203.773596,314.250941 203.70531,314.106292 203.701349,313.950738 C203.697722,313.795184 203.758762,313.642755 203.87,313.53 L207.05,310.35 C207.176052,310.222348 207.378353,310.20549 207.53,310.31 L224.97,323.05 Z" id="Path" fill="#626466" fill-rule="nonzero"></path>
        </g>
    </g>
</svg>