<?xml version="1.0" encoding="UTF-8"?>
<svg width="122px" height="112px" viewBox="0 0 122 112" version="1.1" xmlns="http://www.w3.org/2000/svg" xmlns:xlink="http://www.w3.org/1999/xlink">
    <title>hf-logo</title>
    <g id="reachy" stroke="none" stroke-width="1" fill="none" fill-rule="evenodd">
        <g id="background" transform="translate(-1608.000000, -1911.000000)">
            <g id="hf-logo" transform="translate(1608.322581, 1911.000000)">
                <path d="M60.6774194,101 C87.1870873,101 108.677419,79.509668 108.677419,53 C108.677419,26.490332 87.1870873,5 60.6774194,5 C34.1677514,5 12.6774194,26.490332 12.6774194,53 C12.6774194,79.509668 34.1677514,101 60.6774194,101 Z" id="Path" fill="#FFD21E" fill-rule="nonzero"></path>
                <path d="M108.154839,53.5000008 C108.154839,27.0028038 86.6746164,5.52258144 60.1774194,5.52258144 C33.6802223,5.52258144 12.2,27.0028038 12.2,53.5000008 C12.2,79.9971978 33.6802223,101.47742 60.1774194,101.47742 C86.6746164,101.47742 108.154839,79.9971978 108.154839,53.5000008 Z M6.67741935,53.5 C6.67741935,34.3862915 16.8744614,16.7244957 33.4274191,7.16764103 C49.9803768,-2.38921368 70.3744619,-2.38921368 86.9274196,7.16764103 C103.480377,16.7244957 113.677419,34.3862915 113.677419,53.5 C113.677419,83.0472346 89.7246532,107 60.1774194,107 C30.6301856,107 6.67741935,83.0472346 6.67741935,53.5 Z" id="Shape" fill="#FF9D0B" fill-rule="nonzero"></path>
                <path d="M75.8255653,40.6000445 C77.5809476,41.2003531 78.2666438,44.7749181 80.0357401,43.8471684 C82.4854859,42.5532413 83.9104408,39.9185309 83.6460622,37.171762 C83.3816836,34.4249931 81.4800449,32.1071841 78.8279953,31.2992695 C76.1759457,30.4913549 73.295847,31.3524659 71.5308634,33.4810144 C69.7658799,35.6095628 69.4636521,38.5862983 70.7651272,41.0229892 C71.6016766,42.5919777 74.2621779,40.040666 75.8392792,40.5864011 L75.8255653,40.6000445 Z M43.5292734,40.6000445 C41.7738911,41.2003531 41.074481,44.7749181 39.3190986,43.8471684 C36.8693529,42.5532413 35.4443979,39.9185309 35.7087765,37.171762 C35.9731551,34.4249931 37.8747938,32.1071841 40.5268434,31.2992695 C43.178893,30.4913549 46.0589917,31.3524659 47.8239753,33.4810144 C49.5889588,35.6095628 49.8911866,38.5862983 48.5897115,41.0229892 C47.7531621,42.5919777 45.0789469,40.040666 43.5155595,40.5864011 L43.5292734,40.6000445 Z" id="Shape" fill="#3A3B45" fill-rule="nonzero"></path>
                <path d="M59.6704936,73 C73.2864998,73 77.6774194,61.1516133 77.6774194,55.0651132 C77.6774194,51.9001332 75.5027368,52.9010243 72.0121635,54.5781932 C68.7847683,56.1336321 64.4492547,58.2841955 59.6843451,58.2841955 C49.72513,58.2841955 41.6774194,48.9786132 41.6774194,55.0651132 C41.6774194,61.1516133 46.0544875,73 59.6843451,73 L59.6704936,73 Z" id="Path" fill="#FF323D" fill-rule="nonzero"></path>
                <path d="M49.2512655,70 C50.7281578,67.0524687 53.3865054,64.8407474 56.589727,63.8944661 C57.1435732,63.7312892 57.7112655,64.6695561 58.3066501,65.6350192 C58.8604963,66.559688 59.4420347,67.4979549 60.0235732,67.4979549 C60.6466501,67.4979549 61.269727,66.5732861 61.8651117,65.6622153 C62.4881886,64.7103503 63.0974194,63.7856815 63.692804,63.9624564 C66.6672672,64.8898246 69.1528633,66.9256698 70.6158809,69.6328521 C75.7804963,65.6350192 77.6774194,59.1079451 77.6774194,55.082916 C77.6774194,51.9009674 75.5035732,52.9072246 72.0143424,54.5933854 L71.8204963,54.6885719 C68.6220347,56.2523501 64.3574194,58.3192569 59.6774194,58.3192569 C54.9974194,58.3192569 50.7466501,56.2523501 47.5343424,54.6885719 C43.9343424,52.9344208 41.6774194,51.832977 41.6774194,55.082916 C41.6774194,59.2303277 43.6989578,66.0429613 49.2512655,70 L49.2512655,70 Z" id="Path" fill="#3A3B45"></path>
                <path d="M92.2058346,46.9438453 C94.6754227,46.9438453 96.6774194,44.9416973 96.6774194,42.4719226 C96.6774194,40.002148 94.6754227,38 92.2058346,38 C89.7362466,38 87.7342499,40.002148 87.7342499,42.4719226 C87.7342499,44.9416973 89.7362466,46.9438453 92.2058346,46.9438453 Z M28.2277761,46.9438453 C30.6973642,46.9438453 32.6993608,44.9416973 32.6993608,42.4719226 C32.6993608,40.002148 30.6973642,38 28.2277761,38 C25.758188,38 23.7561914,40.002148 23.7561914,42.4719226 C23.7561914,44.9416973 25.758188,46.9438453 28.2277761,46.9438453 Z M19.0231909,62.0795835 C16.7942779,62.0795835 14.8130219,62.9877278 13.4233909,64.652659 C12.2384182,66.1164376 11.5923775,67.9429763 11.5934809,69.8263295 C10.7271546,69.5657934 9.82883969,69.4268682 8.92428876,69.4135366 C6.79168681,69.4135366 4.86546569,70.2253626 3.50335219,71.6976571 C1.00518651,74.2920328 0.554216057,78.2383225 2.40265441,81.3294905 C1.1849885,82.3236367 0.321136575,83.6846682 -0.0601568764,85.2097434 C-0.390366211,86.448122 -0.720575545,89.0624768 1.0405409,91.7318706 C-0.301301444,93.7950405 -0.493407441,96.4016486 0.531468181,98.6392711 C1.93485785,101.831536 5.44333203,104.335813 12.2538995,107.032726 C16.4778273,108.711417 20.357787,109.784678 20.3853044,109.798438 C25.2866747,111.156471 30.3386489,111.896066 35.4235878,112 C43.4861991,112 49.2511037,109.523243 52.5669558,104.652287 C57.90534,96.8229825 57.1486103,89.6541465 50.227973,82.746746 C46.4168069,78.9215322 43.8714433,73.2937895 43.3486119,72.0554109 C42.2754315,68.3953142 39.4411347,64.3224247 34.7494104,64.3224247 C32.216968,64.3624619 29.8597552,65.6231536 28.4203982,67.7073261 C27.044526,65.9735961 25.6961712,64.6113797 24.4854036,63.8270733 C22.8697046,62.7331949 20.9737444,62.1266328 19.0231909,62.0795835 Z M19.0231909,67.5834883 C19.7248857,67.5834883 20.5916852,67.886203 21.5272784,68.4778728 C24.4716449,70.3492004 30.1264798,80.0773522 32.2040468,83.8612867 C32.8919829,85.1271848 34.0889918,85.6638155 35.1484134,85.6638155 C37.2810153,85.6638155 38.932062,83.558572 35.3547942,80.8754184 C29.9613751,76.8438081 31.8463201,70.2528821 34.4192011,69.853849 C34.5292709,69.8263295 34.6530994,69.8263295 34.7494104,69.8263295 C37.0883932,69.8263295 38.1202974,73.8579398 38.1202974,73.8579398 C38.1202974,73.8579398 41.1472163,81.4533284 46.3480133,86.6545184 C51.5350516,91.8419487 51.8102261,96.0111566 48.0265774,101.556341 C45.4399376,105.340275 40.5005564,106.482335 35.4235878,106.482335 C30.1815147,106.482335 24.7880955,105.243957 21.7749354,104.47341 C21.6235894,104.432131 3.26945391,99.2447006 5.59467797,94.8415768 C5.9799222,94.0985496 6.62658214,93.7958349 7.43834676,93.7958349 C10.7129227,93.7958349 16.6566907,98.6667906 19.2295717,98.6667906 C19.7936793,98.6667906 20.1926823,98.4328747 20.3715457,97.8412049 C21.4584847,93.9196727 3.77852663,92.2685013 5.26446864,86.5994794 C5.53964308,85.5950167 6.24133792,85.1959836 7.24572465,85.1959836 C11.5659634,85.1959836 21.2796214,92.805132 23.3159122,92.805132 C23.4672582,92.805132 23.5910867,92.7638527 23.6461216,92.6675344 C24.664267,91.016363 24.1001594,89.860543 16.9043477,85.5124582 C9.73605337,81.1643734 4.6866023,78.5500186 7.54841654,75.4265526 C7.87862587,75.0687988 8.34642243,74.9036817 8.92428876,74.9036817 C13.2858037,74.9036817 23.5910867,84.2878393 23.5910867,84.2878393 C23.5910867,84.2878393 26.3703486,87.1773894 28.0626714,87.1773894 C28.4479157,87.1773894 28.778125,87.0397917 28.9982645,86.6545184 C30.1815147,84.6455932 17.9087344,75.343994 17.2207983,71.5050205 C16.7530017,68.8906657 17.5510076,67.5834883 19.0231909,67.5834883 L19.0231909,67.5834883 Z" id="Shape" fill="#FF9D0B" fill-rule="nonzero"></path>
                <path d="M49.0796618,102.056086 C52.9119964,96.4841013 52.6332812,92.3051126 47.3794989,87.1055128 C42.1117808,81.905913 39.0459132,74.2789138 39.0459132,74.2789138 C39.0459132,74.2789138 37.9031807,69.8654604 35.2971932,70.2792217 C32.6912057,70.6929829 30.7820063,77.285579 36.244825,81.3266472 C41.6937079,85.3677155 35.1578355,88.1123319 33.0535355,84.3195203 C30.9631712,80.5267088 25.2216372,70.7757352 22.2393841,68.9000175 C19.2710668,67.0380918 17.1807025,68.072495 17.8774906,71.9342667 C18.5742787,75.7822464 31.0189142,85.1056667 29.8065029,87.1055128 C28.5940916,89.132943 24.3297484,84.7470736 24.3297484,84.7470736 C24.3297484,84.7470736 10.9932241,72.7342051 8.08064988,75.8649986 C5.18201137,78.9957922 10.296436,81.6162801 17.5569681,85.9745654 C24.8453716,90.3328506 25.4167379,91.4913821 24.3854915,93.1464271 C23.3403093,94.8014722 7.27237568,81.3818154 5.76731338,87.0779287 C4.26225108,92.7464579 22.1697053,94.3877109 21.0687801,98.3184429 C19.9539191,102.249175 8.44297969,90.8983243 6.10177167,95.3117777 C3.73269212,99.7390232 22.3369345,104.938623 22.4902278,104.979999 C28.4826055,106.524708 43.742265,109.793422 49.0796618,102.056086 Z" id="Path" fill="#FFD21E" fill-rule="nonzero"></path>
                <path d="M102.122542,62 C104.375547,62 106.392126,62.9095921 107.78287,64.5771775 C108.980651,66.0432897 109.633674,67.8727403 109.632559,69.7590959 C110.51272,69.4968805 111.425514,69.3577203 112.344509,69.345645 C114.500162,69.345645 116.447204,70.1587652 117.82404,71.6334068 C120.349208,74.2319185 120.805053,78.1844994 118.936635,81.2805954 C120.162308,82.278372 121.030473,83.641345 121.412159,85.1670342 C121.745938,86.407387 122.079716,89.0259096 120.299564,91.699559 C121.65591,93.7660181 121.850093,96.3767816 120.814139,98.6179713 C119.395581,101.815325 115.849184,104.323594 108.978909,107.024807 C104.695418,108.706174 100.773521,109.781147 100.745706,109.794928 C95.7913576,111.155126 90.6847774,111.8959 85.5448761,112 C77.3951174,112 71.5679008,109.519294 68.2162082,104.640573 C62.8201222,96.7987872 63.5850313,89.6185226 70.5804727,82.7001103 C74.4467405,78.8687982 77.0196165,73.2320838 77.5480992,71.991731 C78.6328794,68.3257993 81.4839042,64.2464168 86.2263406,64.2464168 C88.7861558,64.2865178 91.1688473,65.5492193 92.6237621,67.6367144 C94.014506,65.9002205 95.3774349,64.5358324 96.6151969,63.7502756 C98.244403,62.6571616 100.155668,62.0497472 102.122542,62 L102.122542,62 Z M102.122542,67.5126792 C101.413263,67.5126792 100.551002,67.8158765 99.5913886,68.4084895 C96.6291043,70.2828004 90.8992398,80.0264609 88.7992166,83.8164278 C88.2216638,84.9184917 87.0761421,85.6133823 85.8230249,85.6218302 C83.6812794,85.6218302 81.9984794,83.5132304 85.6283208,80.8257993 C91.0661291,76.7877619 89.16081,70.1863286 86.5601191,69.7866593 C86.4497563,69.7688514 86.3381556,69.7596354 86.2263406,69.7590959 C83.8620761,69.7590959 82.8190182,73.7971334 82.8190182,73.7971334 C82.8190182,73.7971334 79.7593819,81.4046307 74.5162777,86.6141125 C69.2592661,91.8098126 68.9811173,95.985667 72.8195702,101.539691 C75.4202612,105.329658 80.4269389,106.473539 85.5448761,106.473539 C90.8575175,106.473539 96.2953258,105.233186 99.3549622,104.461411 C99.4940366,104.420066 118.060466,99.224366 115.710109,94.8142227 C115.306794,94.070011 114.667052,93.7668137 113.846513,93.7668137 C110.536542,93.7668137 104.514622,98.6455347 101.927838,98.6455347 C101.343726,98.6455347 100.94041,98.4112459 100.773521,97.8186329 C99.6609258,93.890849 117.531984,92.2370452 116.029981,86.5589857 C115.765739,85.5529217 115.05646,85.1532525 114.027309,85.1532525 C109.660374,85.1532525 99.8417225,92.7745314 97.7834217,92.7745314 C97.6443473,92.7745314 97.5191804,92.7331863 97.4635506,92.6367144 C96.4344002,90.9829107 96.9906977,89.8252481 104.25038,85.4702315 C111.523971,81.115215 116.628,78.4966924 113.707438,75.368247 C113.387567,75.0099228 112.914714,74.8445424 112.344509,74.8445424 C107.921944,74.8445424 97.5052729,84.2436604 97.5052729,84.2436604 C97.5052729,84.2436604 94.6959704,87.137817 92.999263,87.137817 C92.609314,87.1550979 92.243062,86.9522782 92.0535572,86.6141125 C90.8436101,84.6019846 103.249045,75.2855568 103.944417,71.4404631 C104.41727,68.8219405 103.610638,67.5126792 102.122542,67.5126792 L102.122542,67.5126792 Z" id="Shape" fill="#FF9D0B" fill-rule="nonzero"></path>
                <path d="M72.2803022,102.056086 C68.4471954,96.4841013 68.7120282,92.3051126 73.9808078,87.1055128 C79.2356489,81.905913 82.3021344,74.2789138 82.3021344,74.2789138 C82.3021344,74.2789138 83.4450972,69.8654604 86.0655485,70.2792217 C88.6581226,70.6929829 90.5677068,77.285579 85.1177257,81.3266472 C79.653806,85.3677155 86.2049342,88.1123319 88.2957198,84.3195203 C90.4004439,80.5267088 96.143135,70.7757352 99.1120505,68.9000175 C102.080966,67.0380918 104.18569,68.072495 103.474823,71.9342667 C102.777895,75.7822464 90.3446896,85.1056667 91.5573453,87.1055128 C92.7560623,89.132943 97.0212649,84.7470736 97.0212649,84.7470736 C97.0212649,84.7470736 110.374415,72.7342051 113.273638,75.8649986 C116.172861,78.9957922 111.071344,81.6162801 103.79541,85.9745654 C96.5055378,90.3328506 95.947995,91.4913821 96.9655106,93.1464271 C98.0109034,94.8014722 114.082075,81.3818154 115.587441,87.0779287 C117.092806,92.7464579 99.1956819,94.3877109 100.296829,98.3184429 C101.411915,102.249175 112.911235,90.8983243 115.266854,95.3117777 C117.622472,99.7390232 99.0284191,104.938623 98.8750948,104.979999 C92.8675709,106.524708 77.6048362,109.793422 72.2803022,102.056086 L72.2803022,102.056086 Z" id="Path" fill="#FFD21E" fill-rule="nonzero"></path>
            </g>
        </g>
    </g>
</svg>